<svg id="Group_8" data-name="Group 8" xmlns="http://www.w3.org/2000/svg" xmlns:xlink="http://www.w3.org/1999/xlink" width="60" height="60" viewBox="0 0 60 60">
  <defs>
    <clipPath id="clip-path">
      <rect id="Rectangle_1" data-name="Rectangle 1" width="20" height="20" fill="#ddd"/>
    </clipPath>
  </defs>
  <circle id="Ellipse_1" data-name="Ellipse 1" cx="30" cy="30" r="30" fill="#fff"/>
  <g id="Mask_Group_7751" data-name="Mask Group 7751" transform="translate(20 20)" clip-path="url(#clip-path)">
    <path id="fi-rr-arrow-small-right" d="M18.744,8.99a1.429,1.429,0,0,0,0,2.02l4.7,4.7-14.876.01a1.429,1.429,0,0,0,0,2.857l14.877-.01-4.7,4.7a1.428,1.428,0,1,0,2.02,2.02l5.123-5.122a4.286,4.286,0,0,0,0-6.061L20.764,8.99A1.429,1.429,0,0,0,18.744,8.99Z" transform="translate(-7.143 -7.143)"/>
  </g>
</svg>
