<svg xmlns="http://www.w3.org/2000/svg" xmlns:xlink="http://www.w3.org/1999/xlink" width="80" height="80" viewBox="0 0 80 80">
  <defs>
    <clipPath id="clip-path">
      <rect id="Rectangle_57983" data-name="Rectangle 57983" width="80" height="80" transform="translate(7782 2089)" fill="#00556f"/>
    </clipPath>
  </defs>
  <g id="Group_866" data-name="Group 866" transform="translate(-393 -46)">
    <g id="Group_848" data-name="Group 848" transform="translate(95)">
      <g id="Mask_Group_7872" data-name="Mask Group 7872" transform="translate(-7484 -2043)" clip-path="url(#clip-path)">
        <g id="noun_Video_2891362" transform="translate(7783.329 2090.308)">
          <g id="Group_828" data-name="Group 828" transform="translate(0 0)">
            <path id="Path_78864" data-name="Path 78864" d="M39.218,0a39.46,39.46,0,0,1,0,78.92C17.719,78.92,0,61.145,0,39.342A39.487,39.487,0,0,1,39.218,0Zm0,5.925A33.417,33.417,0,1,0,72.529,39.342,33.325,33.325,0,0,0,39.218,5.925Z" fill="#00556f"/>
          </g>
        </g>
      </g>
    </g>
    <g id="noun_call_2887309" transform="translate(382.937 4.363)">
      <g id="Group_876" data-name="Group 876" transform="translate(22.36 64.637)">
        <g id="Group_875" data-name="Group 875" transform="translate(0 0)">
          <g id="Group_874" data-name="Group 874" transform="translate(10.703 1.527)">
            <g id="Group_873" data-name="Group 873">
              <path id="Path_80419" data-name="Path 80419" d="M194.651,130.925a9.645,9.645,0,0,1-2.495-.356C184.82,128.6,174.974,118.741,173,111.382c-.939-3.5.152-5.526,1.232-6.606a6.861,6.861,0,0,1,4.846-2.027h.034a6.788,6.788,0,0,1,6.8,6.83,6.848,6.848,0,0,1-1.642,4.43l5.276,5.276a6.857,6.857,0,0,1,9.275.349h0a6.859,6.859,0,0,1-.039,9.688A5.624,5.624,0,0,1,194.651,130.925Zm-15.536-25.717h-.022a4.417,4.417,0,0,0-3.12,1.307c-.905.905-1.106,2.329-.6,4.231,1.724,6.435,11,15.73,17.415,17.449,1.905.51,3.335.3,4.25-.611a4.367,4.367,0,1,0-6.176-6.176,4.859,4.859,0,0,0-.354.4,1.229,1.229,0,0,1-1.826.1l-7.037-7.037a1.229,1.229,0,0,1,.114-1.84,4.035,4.035,0,0,0,.381-.34,4.418,4.418,0,0,0,1.307-3.12,4.329,4.329,0,0,0-4.338-4.359Z" transform="translate(-172.646 -102.75)" fill="#0097a6"/>
            </g>
          </g>
          <rect id="Rectangle_58002" data-name="Rectangle 58002" width="3.512" height="3.512" transform="translate(12 36.096)" fill="#0097a6"/>
          <rect id="Rectangle_58003" data-name="Rectangle 58003" width="3.512" height="3.512" transform="translate(17.268 36.096)" fill="#0097a6"/>
          <rect id="Rectangle_58004" data-name="Rectangle 58004" width="3.512" height="3.512" transform="translate(22.536 36.096)" fill="#0097a6"/>
          <rect id="Rectangle_58005" data-name="Rectangle 58005" width="3.512" height="3.512" transform="translate(27.804 36.096)" fill="#0097a6"/>
          <rect id="Rectangle_58006" data-name="Rectangle 58006" width="3.512" height="3.512" transform="translate(33.072 36.096)" fill="#0097a6"/>
          <path id="Path_80420" data-name="Path 80420" d="M257.756,103.262h0A1.756,1.756,0,0,1,256,101.506h0a1.756,1.756,0,0,1,1.756-1.756h0a1.756,1.756,0,0,1,1.756,1.756h0A1.756,1.756,0,0,1,257.756,103.262Z" transform="translate(-236.66 -103.75)" fill="#0097a6"/>
          <path id="Path_80421" data-name="Path 80421" d="M287.756,103.262h0A1.756,1.756,0,0,1,286,101.506h0a1.756,1.756,0,0,1,1.756-1.756h0a1.756,1.756,0,0,1,1.756,1.756h0A1.756,1.756,0,0,1,287.756,103.262Z" transform="translate(-261.392 -103.75)" fill="#0097a6"/>
          <path id="Path_80422" data-name="Path 80422" d="M317.756,103.262h0A1.756,1.756,0,0,1,316,101.506h0a1.756,1.756,0,0,1,1.756-1.756h0a1.756,1.756,0,0,1,1.756,1.756h0A1.756,1.756,0,0,1,317.756,103.262Z" transform="translate(-286.125 -103.75)" fill="#0097a6"/>
          <path id="Path_80423" data-name="Path 80423" d="M347.756,103.262h0A1.756,1.756,0,0,1,346,101.506h0a1.756,1.756,0,0,1,1.756-1.756h0a1.756,1.756,0,0,1,1.756,1.756h0A1.756,1.756,0,0,1,347.756,103.262Z" transform="translate(-310.857 -103.75)" fill="#0097a6"/>
          <path id="Path_80424" data-name="Path 80424" d="M377.756,103.262h0A1.756,1.756,0,0,1,376,101.506h0a1.756,1.756,0,0,1,1.756-1.756h0a1.756,1.756,0,0,1,1.756,1.756h0A1.756,1.756,0,0,1,377.756,103.262Z" transform="translate(-335.589 -103.75)" fill="#0097a6"/>
          <path id="Path_80425" data-name="Path 80425" d="M377.756,133.262h0A1.756,1.756,0,0,1,376,131.506h0a1.756,1.756,0,0,1,1.756-1.756h0a1.756,1.756,0,0,1,1.756,1.756h0A1.756,1.756,0,0,1,377.756,133.262Z" transform="translate(-335.589 -128.482)" fill="#0097a6"/>
          <path id="Path_80426" data-name="Path 80426" d="M377.756,163.262h0A1.756,1.756,0,0,1,376,161.506h0a1.756,1.756,0,0,1,1.756-1.756h0a1.756,1.756,0,0,1,1.756,1.756h0A1.756,1.756,0,0,1,377.756,163.262Z" transform="translate(-335.589 -153.214)" fill="#0097a6"/>
          <path id="Path_80427" data-name="Path 80427" d="M377.756,193.262h0A1.756,1.756,0,0,1,376,191.506h0a1.756,1.756,0,0,1,1.756-1.756h0a1.756,1.756,0,0,1,1.756,1.756h0A1.756,1.756,0,0,1,377.756,193.262Z" transform="translate(-335.589 -177.946)" fill="#0097a6"/>
          <path id="Path_80428" data-name="Path 80428" d="M377.756,223.262h0A1.756,1.756,0,0,1,376,221.506h0a1.756,1.756,0,0,1,1.756-1.756h0a1.756,1.756,0,0,1,1.756,1.756h0A1.756,1.756,0,0,1,377.756,223.262Z" transform="translate(-335.589 -202.678)" fill="#0097a6"/>
        </g>
      </g>
    </g>
  </g>
</svg>
