<svg xmlns="http://www.w3.org/2000/svg" xmlns:xlink="http://www.w3.org/1999/xlink" width="20" height="20" viewBox="0 0 20 20"><defs><style>.a{fill:#c0c0c8;}.b{clip-path:url(#a);}</style><clipPath id="a"><rect class="a" width="20" height="20" transform="translate(534 65)"/></clipPath></defs><g class="b" transform="translate(-534 -65)"><g transform="translate(534 65.079)"><path class="a" d="M16.55,9.818a.679.679,0,0,1-.073,0,.791.791,0,0,1-.718-.86,1.97,1.97,0,0,0-2.146-2.143A.791.791,0,1,1,13.47,5.24a3.555,3.555,0,0,1,3.869,3.867.792.792,0,0,1-.788.711Z" transform="translate(-1.247 -1.47)"/><path class="a" d="M19.515,9.364a.679.679,0,0,1-.073,0,.791.791,0,0,1-.718-.86,4.276,4.276,0,0,0-4.657-4.648.791.791,0,1,1-.144-1.575A5.86,5.86,0,0,1,20.3,8.648.792.792,0,0,1,19.515,9.364Z" transform="translate(-1.246 -1.47)"/><path class="a" d="M20.706,15.865l-3.076-3.059a2.038,2.038,0,0,0-1.451-.6h0a2.036,2.036,0,0,0-1.447.6l-1.77,1.766a.123.123,0,0,1-.159.014,19.756,19.756,0,0,1-2.663-2.232,19.691,19.691,0,0,1-2.02-2.357.117.117,0,0,1,.011-.154l1.807-1.8a2.05,2.05,0,0,0,0-2.9L6.856,2.055a2.1,2.1,0,0,0-2.906,0l-.969.971A5.69,5.69,0,0,0,1.555,8.877,16.63,16.63,0,0,0,3.59,13a20.986,20.986,0,0,0,2.659,3.23A20.86,20.86,0,0,0,9.811,19.1a15.912,15.912,0,0,0,4.635,2.057,5.52,5.52,0,0,0,1.326.161h.008A5.77,5.77,0,0,0,19.867,19.6l.838-.836A2.05,2.05,0,0,0,20.706,15.865Zm-1.1,1.713-.887.888a4.137,4.137,0,0,1-3.874,1.111A14.247,14.247,0,0,1,10.7,17.718a19.244,19.244,0,0,1-3.289-2.647,19.409,19.409,0,0,1-2.458-2.977,15.018,15.018,0,0,1-1.84-3.713,4.079,4.079,0,0,1,1.028-4.2l.977-.973a.433.433,0,0,1,.3-.127h0a.425.425,0,0,1,.3.124L8.8,6.286a.429.429,0,0,1,0,.61L7,8.7a1.719,1.719,0,0,0-.176,2.254A21.347,21.347,0,0,0,9.009,13.5a21.324,21.324,0,0,0,2.875,2.417,1.749,1.749,0,0,0,2.233-.2l1.745-1.769a.426.426,0,0,1,.3-.127h0a.424.424,0,0,1,.3.119l3.09,3.09a.428.428,0,0,1,.053.545Z" transform="translate(-1.269 -1.47)"/></g></g></svg>