<svg xmlns="http://www.w3.org/2000/svg" xmlns:xlink="http://www.w3.org/1999/xlink" width="80" height="80" viewBox="0 0 80 80"><defs><style>.a{fill:#00556f;}.b{clip-path:url(#a);}.c{fill:#0097a6;}</style><clipPath id="a"><rect class="a" width="80" height="80" transform="translate(-15267 8943)"/></clipPath></defs><g class="b" transform="translate(15267 -8943)"><g transform="translate(-15267.15 8942.729)"><path class="a" d="M11.846,2.54A4.951,4.951,0,0,0,8.431,4.147L2.065,11.139l-.209.241a1.423,1.423,0,0,0-.217.426C-.956,20.092.8,29.142,5.015,37.774S15.994,54.651,23.741,61.459,40.233,73.514,48.567,76.174s16.419,2.588,22.407-1.752a1.7,1.7,0,0,0,.185-.153c.161-.161.161-.177.137-.161h0l6.333-6.968a4.951,4.951,0,0,0-.321-6.968L62.278,46.51a4.959,4.959,0,0,0-6.968.33L48.5,54.314a36.432,36.432,0,0,1-14.748-8.5,36.4,36.4,0,0,1-9.8-13.88l6.8-7.482a4.959,4.959,0,0,0-.33-6.968L15.4,3.818a4.943,4.943,0,0,0-3.552-1.27Zm.145,3.086a1.9,1.9,0,0,1,1.326.49L28.346,19.779a1.808,1.808,0,0,1,.121,2.6l-7.515,8.254a1.535,1.535,0,0,0-.305,1.607A39.606,39.606,0,0,0,31.666,48.133a39.646,39.646,0,0,0,16.878,9.476,1.551,1.551,0,0,0,1.535-.458l7.547-8.262a1.8,1.8,0,0,1,2.6-.121L75.25,62.431a1.792,1.792,0,0,1,.121,2.6l-6.253,6.92c-4.919,3.528-11.846,3.721-19.594,1.278s-16.235-7.547-23.717-14.1S11.79,44.589,7.788,36.423,2.411,20.173,4.573,12.972l6.14-6.743a1.832,1.832,0,0,1,1.278-.6Z"/><path class="a" d="M59.144,78.24a35.507,35.507,0,0,1-10.657-1.8c-8.117-2.556-16.974-7.8-24.915-14.772S8.841,46.164,4.758,37.9C.137,28.451-1.037,19.4,1.366,11.726a1.953,1.953,0,0,1,.241-.474,1.3,1.3,0,0,1,.265-.313L8.2,3.994a5.144,5.144,0,0,1,3.609-1.688h0a5.208,5.208,0,0,1,3.785,1.3L30.621,17.271a5.248,5.248,0,0,1,.346,7.37L24.28,31.987A36.166,36.166,0,0,0,33.924,45.65,36.166,36.166,0,0,0,48.39,53.968l6.735-7.354a5.216,5.216,0,0,1,7.362-.346L77.516,59.932a5.208,5.208,0,0,1,.346,7.362l-6.333,6.976a.972.972,0,0,1-.169.193,1.2,1.2,0,0,1-.217.185,19.964,19.964,0,0,1-12,3.593ZM2.082,11.533h0a1.238,1.238,0,0,0-.185.354C-.458,19.433.7,28.338,5.264,37.653c4.018,8.2,10.649,16.572,18.662,23.588S40.611,73.369,48.656,75.9c9.025,2.861,16.685,2.266,22.158-1.7l.145-.129.121-.129h0V73.9l6.373-7.008a4.653,4.653,0,0,0-.3-6.534L62.126,46.695A4.661,4.661,0,0,0,55.551,47L48.64,54.611l-.169-.048a36.568,36.568,0,0,1-14.909-8.511,36.592,36.592,0,0,1-9.869-14.024l-.064-.161,6.912-7.6a4.669,4.669,0,0,0-.305-6.582L15.206,4.018a4.621,4.621,0,0,0-3.343-1.2h0A4.613,4.613,0,0,0,8.648,4.332Zm57,63.6a32.276,32.276,0,0,1-9.644-1.607c-7.715-2.411-16.17-7.458-23.813-14.153C17.818,52.538,11.4,44.436,7.539,36.544c-4.2-8.575-5.32-16.757-3.231-23.685l.056-.113L10.5,6A2.138,2.138,0,0,1,11.975,5.3h0a2.057,2.057,0,0,1,1.527.571L28.531,19.53a2.082,2.082,0,0,1,.145,3.006l-7.515,8.286a1.278,1.278,0,0,0-.265,1.326A39.566,39.566,0,0,0,31.858,47.932a39.55,39.55,0,0,0,16.781,9.4,1.246,1.246,0,0,0,1.254-.378L57.416,48.7A2.074,2.074,0,0,1,58.879,48a2.186,2.186,0,0,1,1.535.563L75.443,62.222a2.074,2.074,0,0,1,.1,3.006l-6.285,6.9A17.119,17.119,0,0,1,59.08,75.137ZM4.822,13.116C2.8,19.859,3.914,27.88,8.037,36.3c3.842,7.82,10.207,15.857,17.93,22.616C33.554,65.557,41.945,70.54,49.58,72.951c8.037,2.532,14.7,2.106,19.345-1.238L75.17,64.85a1.607,1.607,0,0,0,.418-1.125,1.551,1.551,0,0,0-.522-1.037L60.036,49.025a1.607,1.607,0,0,0-1.125-.418,1.535,1.535,0,0,0-1.085.522l-7.515,8.214a1.824,1.824,0,0,1-1.816.53,39.887,39.887,0,0,1-17.014-9.532,40.1,40.1,0,0,1-11.1-16.074,1.824,1.824,0,0,1,.362-1.857l7.515-8.23a1.519,1.519,0,0,0-.129-2.2L13.1,6.317A1.559,1.559,0,0,0,11.975,5.9a1.519,1.519,0,0,0-1.053.53Z"/><path class="c" d="M52.031,32.654h-.113a2.017,2.017,0,0,1-1.463-.755L41.9,21.161a2.009,2.009,0,0,1,3.11-2.508l7.233,8.977L76.689,3.142a2.023,2.023,0,0,1,2.877,2.845L53.454,32.059A2.025,2.025,0,0,1,52.031,32.654Z"/></g></g></svg>