<svg xmlns="http://www.w3.org/2000/svg" xmlns:xlink="http://www.w3.org/1999/xlink" width="80" height="80" viewBox="0 0 80 80"><defs><style>.a{fill:#005671;}.b{clip-path:url(#a);}.c{fill:#e8a815;}</style><clipPath id="a"><rect class="a" width="80" height="80" transform="translate(7621.754 2089)"/></clipPath></defs><g class="b" transform="translate(-7621.754 -2089)"><g transform="translate(7622.001 2089)"><path class="a" d="M44.8,84.16H9.39a3.947,3.947,0,0,1-3.947-3.947V44.8A39.358,39.358,0,1,1,44.8,84.16ZM13.337,76.266H44.8A31.465,31.465,0,1,0,13.337,44.8Z" transform="translate(-5.443 -5.443)"/><path class="c" d="M26.2,31.6A4.594,4.594,0,1,0,30.8,36.191,4.594,4.594,0,0,0,26.2,31.6Zm14.209,0a4.578,4.578,0,1,1-.032,0Zm14.209,0a4.563,4.563,0,1,1-.063,0Z" transform="translate(-0.122 3.167)"/></g></g></svg>