<svg xmlns="http://www.w3.org/2000/svg" xmlns:xlink="http://www.w3.org/1999/xlink" width="80" height="80" viewBox="0 0 80 80">
  <defs>
    <clipPath id="clip-path">
      <rect id="Rectangle_57981" data-name="Rectangle 57981" width="80" height="80" transform="translate(7621.754 2089)" fill="#005671"/>
    </clipPath>
  </defs>
  <g id="Mask_Group_7870" data-name="Mask Group 7870" transform="translate(-7621.754 -2089)" clip-path="url(#clip-path)">
    <g id="noun_chat_4115397" transform="translate(7622.001 2089)">
      <path id="Path_78855" data-name="Path 78855" d="M44.8,84.16H9.39a3.947,3.947,0,0,1-3.947-3.947V44.8A39.358,39.358,0,1,1,44.8,84.16ZM13.337,76.266H44.8A31.465,31.465,0,1,0,13.337,44.8Z" transform="translate(-5.443 -5.443)" fill="#005671"/>
      <path id="Path_78856" data-name="Path 78856" d="M26.2,31.6A4.594,4.594,0,1,0,30.8,36.191,4.594,4.594,0,0,0,26.2,31.6Zm14.209,0a4.578,4.578,0,1,1-.032,0Zm14.209,0a4.563,4.563,0,1,1-.063,0Z" transform="translate(-0.122 3.167)" fill="#0097a6"/>
    </g>
  </g>
</svg>
