<svg xmlns="http://www.w3.org/2000/svg" xmlns:xlink="http://www.w3.org/1999/xlink" width="20" height="22" viewBox="0 0 20 22">
  <defs>
    <clipPath id="clip-path">
      <rect id="Rectangle_58242" data-name="Rectangle 58242" width="20" height="22" transform="translate(0 0.049)" fill="#00556f"/>
    </clipPath>
  </defs>
  <g id="Mask_Group_7972" data-name="Mask Group 7972" transform="translate(0 -0.049)" clip-path="url(#clip-path)">
    <g id="noun_ticks_2692274" transform="translate(0 5.576)">
      <g id="Group_1955" data-name="Group 1955">
        <g id="Group_1948" data-name="Group 1948" transform="translate(0 5.597)">
          <g id="Group_1947" data-name="Group 1947">
            <g id="Group_1946" data-name="Group 1946">
              <path id="Path_81537" data-name="Path 81537" d="M6.339,16.423a.939.939,0,0,1-.7-.323L1.29,11.251a.544.544,0,0,1,0-.709.418.418,0,0,1,.636,0l4.348,4.849a.086.086,0,0,0,.13,0l2.942-3.281a.418.418,0,0,1,.636,0,.544.544,0,0,1,0,.709L7.039,16.1A.939.939,0,0,1,6.339,16.423Z" transform="translate(-1.158 -10.396)" fill="#00556f"/>
            </g>
          </g>
        </g>
        <g id="Group_1951" data-name="Group 1951" transform="translate(8.058)">
          <g id="Group_1950" data-name="Group 1950">
            <g id="Group_1949" data-name="Group 1949">
              <path id="Path_81538" data-name="Path 81538" d="M9.2,13.833a.426.426,0,0,1-.317-.148.544.544,0,0,1,0-.709L15.3,5.814a.418.418,0,0,1,.636,0,.544.544,0,0,1,0,.709L9.517,13.685A.425.425,0,0,1,9.2,13.833Z" transform="translate(-8.75 -5.667)" fill="#00556f"/>
            </g>
          </g>
        </g>
        <g id="Group_1954" data-name="Group 1954" transform="translate(4.622 0.003)">
          <g id="Group_1953" data-name="Group 1953">
            <g id="Group_1952" data-name="Group 1952">
              <path id="Path_81539" data-name="Path 81539" d="M10.693,17.271a.983.983,0,0,1-.734-.338L5.644,12.12a.544.544,0,0,1,0-.709.418.418,0,0,1,.636,0l4.314,4.811a.131.131,0,0,0,.2,0L20.124,5.816a.418.418,0,0,1,.636,0,.544.544,0,0,1,0,.709L11.425,16.931A.981.981,0,0,1,10.693,17.271Z" transform="translate(-5.513 -5.669)" fill="#00556f"/>
            </g>
          </g>
        </g>
      </g>
    </g>
  </g>
</svg>
