<svg xmlns="http://www.w3.org/2000/svg" xmlns:xlink="http://www.w3.org/1999/xlink" width="80" height="80" viewBox="0 0 80 80"><defs><style>.a{fill:#00556f;}.b{clip-path:url(#a);}.c{fill:#0097a6;}</style><clipPath id="a"><rect class="a" width="80" height="80" transform="translate(-15367 8847)"/></clipPath></defs><g class="b" transform="translate(15367 -8847)"><g transform="translate(-15367.375 8846.041)"><path class="a" d="M14.215,33.237a2.424,2.424,0,0,1-.469-.057,2.02,2.02,0,0,1-1.5-2.424,12.76,12.76,0,0,1,19.96-7.321,2.02,2.02,0,1,1-2.424,3.232,8.719,8.719,0,0,0-13.625,5.01,2.028,2.028,0,0,1-1.948,1.56Z"/><path class="a" d="M66.831,33.27h-.178a2.012,2.012,0,0,1-1.834-2.19c0-.428.057-.881.057-1.366a16.227,16.227,0,0,0-31.9-4.162,2.02,2.02,0,0,1-3.879-1.026,20.267,20.267,0,0,1,39.856,5.18,13.189,13.189,0,0,1-.073,1.721A2.028,2.028,0,0,1,66.831,33.27Z"/><path class="a" d="M37.036,61.966H16.914a16.51,16.51,0,0,1-3.071-32.736,2.02,2.02,0,1,1,.743,3.968,12.474,12.474,0,0,0,2.327,24.728H37.036a2.02,2.02,0,0,1,0,4.041Z"/><path class="a" d="M63.9,61.966h-14.8a2.02,2.02,0,0,1,0-4.041H63.9a12.477,12.477,0,0,0,2.521-24.7,2.02,2.02,0,1,1,.808-3.952,16.518,16.518,0,0,1-3.337,32.688Z"/><path class="c" d="M52.139,49.731a2.012,2.012,0,0,1-1.43-.59l-7.443-7.435-7.435,7.435a2.02,2.02,0,1,1-2.861-2.853L41.86,37.4a2.077,2.077,0,0,1,2.861,0l8.889,8.889a2.02,2.02,0,0,1-1.422,3.443Z"/><path class="c" d="M43.153,74.459a2.02,2.02,0,0,1-2.02-2.02V40.7a2.02,2.02,0,0,1,4.041,0V72.439a2.02,2.02,0,0,1-2.02,2.02Z"/></g></g></svg>