<svg xmlns="http://www.w3.org/2000/svg" width="48" height="70" viewBox="0 0 48 70">
  <g id="Group_15100" data-name="Group 15100" transform="translate(-28.29 -184.475)">
    <circle id="Ellipse_1140" data-name="Ellipse 1140" cx="4.291" cy="4.291" r="4.291" transform="translate(47.999 239.399)" fill="#00556f"/>
    <rect id="Rectangle_58273" data-name="Rectangle 58273" width="45" height="67" rx="10" transform="translate(29.79 185.975)" fill="none" stroke="#00556f" stroke-linecap="round" stroke-miterlimit="10" stroke-width="3"/>
    <g id="Group_15099" data-name="Group 15099" transform="translate(38.529 201.863)">
      <path id="Path_86856" data-name="Path 86856" d="M56.564,218.961a4.321,4.321,0,1,1-4.316,4.325v0A4.323,4.323,0,0,1,56.564,218.961Zm0-1.837a6.158,6.158,0,1,0,6.153,6.162v0A6.16,6.16,0,0,0,56.564,217.124Zm.93-5.744.379,1.431a.919.919,0,0,0,.7.665,10,10,0,0,1,2.749,1,.917.917,0,0,0,.966-.057l1.212-.853a11.917,11.917,0,0,1,1.425,1.194L64.3,216.1a.919.919,0,0,0,.111.965,10.016,10.016,0,0,1,1.462,2.533.919.919,0,0,0,.777.578l1.476.125a11.919,11.919,0,0,1,.324,1.832l-1.345.623a.918.918,0,0,0-.533.807,10.033,10.033,0,0,1-.508,2.881.918.918,0,0,0,.224.94l1.051,1.045a11.972,11.972,0,0,1-.931,1.611l-1.431-.394a.919.919,0,0,0-.927.275,9.987,9.987,0,0,1-2.241,1.88.918.918,0,0,0-.433.865l.134,1.48a11.808,11.808,0,0,1-1.745.637l-.846-1.216a.918.918,0,0,0-.888-.383,10.023,10.023,0,0,1-2.925,0,.919.919,0,0,0-.889.383l-.846,1.216a11.788,11.788,0,0,1-1.745-.637l.133-1.475a.918.918,0,0,0-.433-.865,9.987,9.987,0,0,1-2.241-1.88.919.919,0,0,0-.927-.275l-1.43.388a12.006,12.006,0,0,1-.93-1.612l1.05-1.045a.918.918,0,0,0,.224-.94,10.016,10.016,0,0,1-.519-2.881.919.919,0,0,0-.533-.807l-1.341-.623A11.947,11.947,0,0,1,45,220.3l1.477-.125a.917.917,0,0,0,.776-.578,10.027,10.027,0,0,1,1.463-2.531.919.919,0,0,0,.111-.961l-.63-1.341a11.859,11.859,0,0,1,1.425-1.194l1.212.853a.918.918,0,0,0,.966.057,9.965,9.965,0,0,1,2.748-1,.92.92,0,0,0,.7-.665l.379-1.432a11.952,11.952,0,0,1,1.86,0Zm1.614-1.083a.919.919,0,0,0-.77-.676,13.76,13.76,0,0,0-3.548,0,.919.919,0,0,0-.77.676l-.4,1.51a11.783,11.783,0,0,0-2.178.793l-1.277-.9a.919.919,0,0,0-1.024-.023,13.793,13.793,0,0,0-2.718,2.282.918.918,0,0,0-.155,1.01l.664,1.413a11.843,11.843,0,0,0-1.159,2.008l-1.556.132a.917.917,0,0,0-.8.643,13.769,13.769,0,0,0-.616,3.5.919.919,0,0,0,.531.874l1.417.656a11.844,11.844,0,0,0,.4,2.282l-1.107,1.1a.92.92,0,0,0-.2,1,13.788,13.788,0,0,0,1.774,3.073.918.918,0,0,0,.97.328l1.507-.408a11.8,11.8,0,0,0,1.775,1.49l-.14,1.555a.917.917,0,0,0,.492.9,13.774,13.774,0,0,0,3.334,1.214.919.919,0,0,0,.954-.372l.892-1.286a11.826,11.826,0,0,0,2.318,0l.892,1.286a.918.918,0,0,0,.954.372,13.787,13.787,0,0,0,3.332-1.214.918.918,0,0,0,.492-.9l-.14-1.555a11.918,11.918,0,0,0,1.776-1.49l1.507.408a.918.918,0,0,0,.97-.328,13.759,13.759,0,0,0,1.774-3.073.917.917,0,0,0-.2-1l-1.108-1.1a11.8,11.8,0,0,0,.4-2.283l1.417-.656a.919.919,0,0,0,.532-.874,13.8,13.8,0,0,0-.617-3.5.918.918,0,0,0-.8-.643l-1.557-.132a11.843,11.843,0,0,0-1.159-2.008l.664-1.413a.918.918,0,0,0-.155-1.01,13.816,13.816,0,0,0-2.718-2.282.919.919,0,0,0-1.024.023l-1.277.9a11.853,11.853,0,0,0-2.179-.792Z" transform="translate(-42.802 -209.506)" fill="#0097a6" fill-rule="evenodd"/>
    </g>
  </g>
</svg>
