<svg xmlns="http://www.w3.org/2000/svg" xmlns:xlink="http://www.w3.org/1999/xlink" width="60" height="60" viewBox="0 0 60 60"><defs><style>.a,.c{fill:#005671;}.a{stroke:#707070;}.b{clip-path:url(#a);}.d{fill:#e8a815;}</style><clipPath id="a"><rect class="a" width="60" height="60" transform="translate(-858 1288.085)"/></clipPath></defs><g class="b" transform="translate(858 -1288.085)"><g transform="translate(-858 1288)"><g transform="translate(0 0)"><path class="c" d="M54.486,22.06a.969.969,0,1,0-1.4,1.344,10.142,10.142,0,0,1,0,14.109.969.969,0,1,0,1.4,1.344,12.077,12.077,0,0,0,0-16.8Z" transform="translate(2.091 -0.425)"/><path class="c" d="M51.964,24.251A.968.968,0,1,0,50.6,25.627a6.55,6.55,0,0,1,0,9.3.969.969,0,0,0-.006,1.37.952.952,0,0,0,.691.284.979.979,0,0,0,.685-.278,8.477,8.477,0,0,0-.006-12.054Z" transform="translate(1.88 -0.239)"/><path class="c" d="M49.381,26.434A.971.971,0,0,0,48.109,27.9a2.9,2.9,0,0,1,0,4.38.972.972,0,0,0,.633,1.705.945.945,0,0,0,.633-.239,4.85,4.85,0,0,0,.006-7.313Z" transform="translate(1.666 -0.051)"/><path class="c" d="M4.118,30.464a10.108,10.108,0,0,1,2.855-7.054.969.969,0,0,0-1.4-1.344,12.085,12.085,0,0,0,0,16.8.968.968,0,0,0,1.37.026.969.969,0,0,0,.026-1.37A10.135,10.135,0,0,1,4.118,30.464Z" transform="translate(-2.18 -0.425)"/><path class="c" d="M7.455,30.278a6.524,6.524,0,0,1,1.938-4.651A.968.968,0,1,0,8.03,24.251a8.484,8.484,0,0,0,0,12.054.957.957,0,0,0,.685.278.989.989,0,0,0,.691-.284.969.969,0,0,0-.006-1.37A6.5,6.5,0,0,1,7.455,30.278Z" transform="translate(-1.899 -0.239)"/><path class="c" d="M11.913,26.531a.971.971,0,0,0-1.37-.1,4.844,4.844,0,0,0,0,7.313.96.96,0,0,0,1.363-.1.972.972,0,0,0-.1-1.37,2.9,2.9,0,0,1,.006-4.38A.966.966,0,0,0,11.913,26.531Z" transform="translate(-1.616 -0.051)"/><path class="d" d="M25.737,37.411a4.525,4.525,0,0,0-2.636-.84,4.574,4.574,0,1,0,4.574,4.574h0V28.057L41,23.613v8.708a4.525,4.525,0,0,0-2.636-.84,4.574,4.574,0,1,0,4.574,4.574V15.835l-17.2,5.737ZM23.1,43.775a2.636,2.636,0,1,1,2.636-2.636A2.638,2.638,0,0,1,23.1,43.775ZM38.373,38.69a2.636,2.636,0,1,1,2.636-2.636A2.638,2.638,0,0,1,38.373,38.69Zm-10.7-15.724L41,18.522v3.049L27.675,26.016V22.967Z" transform="translate(-0.801 -0.925)"/><path class="c" d="M27.8,8.825h4.47a.969.969,0,0,0,0-1.938H27.8a.969.969,0,0,0,0,1.938Z" transform="translate(-0.101 -1.68)"/><path class="c" d="M43.865,2.085h-25.5a4.3,4.3,0,0,0-4.289,4.289V57.88a4.3,4.3,0,0,0,4.289,4.289H43.872a4.3,4.3,0,0,0,4.289-4.289V6.375A4.305,4.305,0,0,0,43.865,2.085Zm2.351,55.789a2.356,2.356,0,0,1-2.351,2.351h-25.5a2.356,2.356,0,0,1-2.351-2.351V6.375a2.356,2.356,0,0,1,2.351-2.351H43.872a2.356,2.356,0,0,1,2.351,2.351v51.5Z" transform="translate(-1.177 -2.085)"/><path class="c" d="M30.033,46.5a3.159,3.159,0,1,0,3.159,3.159A3.16,3.16,0,0,0,30.033,46.5Zm0,4.38a1.221,1.221,0,1,1,1.221-1.221A1.224,1.224,0,0,1,30.033,50.884Z" transform="translate(-0.097 1.662)"/></g></g></g></svg>