<svg xmlns="http://www.w3.org/2000/svg" xmlns:xlink="http://www.w3.org/1999/xlink" width="80" height="80" viewBox="0 0 80 80">
  <defs>
    <clipPath id="clip-path">
      <rect id="Rectangle_58121" data-name="Rectangle 58121" width="80" height="80" transform="translate(-18721 8369)" fill="#00556f"/>
    </clipPath>
  </defs>
  <g id="Mask_Group_7923" data-name="Mask Group 7923" transform="translate(18721 -8369)" clip-path="url(#clip-path)">
    <g id="_443" data-name="443" transform="translate(-18721.98 8368.426)">
      <path id="Path_80498" data-name="Path 80498" d="M31.766,53.858H23.248a1.616,1.616,0,0,1-1.616-1.616V28.356H16.784v8.218a1.616,1.616,0,0,1-1.616,1.616H4.339a1.616,1.616,0,1,1,0-3.232h9.212V26.739a1.616,1.616,0,0,1,1.616-1.616h8.081a1.616,1.616,0,0,1,1.616,1.616V50.626h5.285V14.141a1.616,1.616,0,0,1,1.616-1.616H39.79a1.616,1.616,0,0,1,1.616,1.616V45.091h4.655V26.125a1.616,1.616,0,0,1,1.616-1.616h7.095a1.616,1.616,0,0,1,1.616,1.616v9.859h7.362a1.616,1.616,0,1,1,0,3.232H54.755A1.616,1.616,0,0,1,53.139,37.6V27.741H49.293V46.707a1.616,1.616,0,0,1-1.616,1.616H39.79a1.616,1.616,0,0,1-1.616-1.616V15.758H33.382V52.242A1.616,1.616,0,0,1,31.766,53.858Z" fill="#0097a6"/>
      <path id="Path_80499" data-name="Path 80499" d="M33.883,65.22A32.323,32.323,0,1,1,66.206,32.9,32.323,32.323,0,0,1,33.883,65.22Zm0-60.654A28.283,28.283,0,1,0,62.166,32.848,28.283,28.283,0,0,0,33.883,4.566Z" fill="#00556f"/>
      <path id="Path_80500" data-name="Path 80500" d="M78.384,80.574A2.012,2.012,0,0,1,76.953,80L53.333,56.355a2.02,2.02,0,1,1,2.853-2.861L79.814,77.131a2.02,2.02,0,0,1-1.43,3.442Z" fill="#00556f"/>
    </g>
  </g>
</svg>
