<svg xmlns="http://www.w3.org/2000/svg" xmlns:xlink="http://www.w3.org/1999/xlink" width="80" height="80" viewBox="0 0 80 80">
  <defs>
    <clipPath id="clip-path">
      <rect id="Rectangle_57983" data-name="Rectangle 57983" width="80" height="80" transform="translate(7782 2089)" fill="#00556f"/>
    </clipPath>
  </defs>
  <g id="Group_830" data-name="Group 830" transform="translate(-298 -46)">
    <g id="Mask_Group_7872" data-name="Mask Group 7872" transform="translate(-7484 -2043)" clip-path="url(#clip-path)">
      <g id="noun_Video_2891362" transform="translate(7783.329 2090.308)">
        <g id="Group_828" data-name="Group 828" transform="translate(0 0)">
          <path id="Path_78864" data-name="Path 78864" d="M39.218,0a39.46,39.46,0,0,1,0,78.92C17.719,78.92,0,61.145,0,39.342A39.487,39.487,0,0,1,39.218,0Zm0,5.925A33.417,33.417,0,1,0,72.529,39.342,33.325,33.325,0,0,0,39.218,5.925Z" fill="#00556f"/>
        </g>
      </g>
    </g>
    <g id="noun_digital_2743702" transform="translate(302.417 53.417)">
      <path id="Path_80382" data-name="Path 80382" d="M55.975,24.028a3.761,3.761,0,0,0-3.7,3.132H40.941V23.715h8.77a.626.626,0,0,0,.626-.626V18.96a3.758,3.758,0,1,0-1.253,0v3.5H40.941v-.94a.626.626,0,0,0-.626-.626h-9.4a.626.626,0,0,0-.626.626v.94H22.149v-3.5a3.758,3.758,0,1,0-1.253,0v4.128a.626.626,0,0,0,.626.626h8.77V27.16H18.96a3.758,3.758,0,1,0,0,1.253H30.292v3.445h-8.77a.626.626,0,0,0-.626.626v4.128a3.758,3.758,0,1,0,1.253,0v-3.5h8.143v.94a.626.626,0,0,0,.626.626h.94V41.52a6.116,6.116,0,0,0-4.025-2.01,2.14,2.14,0,0,0-2.239,2.37c0,.935.845,1.423,1.741,1.94,1.386.8,2.957,1.707,2.957,4.324,0,2.927,2.43,5.759,3.132,6.515v4.447a.626.626,0,0,0,.626.626h7.83a.626.626,0,0,0,.626-.626V54.98c2.459-.452,3.132-3.564,3.132-5.269v-9.4a2.131,2.131,0,0,0-2.192-2.192,2.328,2.328,0,0,0-.982.2,2.088,2.088,0,0,0-2.15-1.766,2.328,2.328,0,0,0-.982.2,2.088,2.088,0,0,0-2.15-1.766,2.354,2.354,0,0,0-.94.181v-.494h4.072a.626.626,0,0,0,.626-.626v-.94h8.143v3.5a3.758,3.758,0,1,0,1.253,0V32.485a.626.626,0,0,0-.626-.626h-8.77V28.413H52.273a3.757,3.757,0,1,0,3.7-4.385Zm-8.77-8.77a2.506,2.506,0,1,1,3.132,2.417,2.25,2.25,0,0,1-1.253,0A2.5,2.5,0,0,1,47.205,15.258ZM20.9,17.675a2.25,2.25,0,1,1,.626.089A2.5,2.5,0,0,1,20.9,17.675ZM17.675,28.413a2.506,2.506,0,1,1,0-1.253,2.25,2.25,0,0,1,0,1.253Zm6.353,11.9A2.506,2.506,0,1,1,20.9,37.9a2.25,2.25,0,0,1,1.253,0A2.5,2.5,0,0,1,24.028,40.315Zm13.155-4.072a.876.876,0,0,1,.94.94v1.566a.626.626,0,0,0,1.253,0,.94.94,0,1,1,1.879,0v1.566a.626.626,0,0,0,1.253,0,.94.94,0,1,1,1.879,0v9.4c0,.041-.029,4.072-2.506,4.072a.626.626,0,0,0-.626.626v4.072H34.677V54.409a.627.627,0,0,0-.183-.443c-.029-.029-2.949-2.986-2.949-5.821,0-3.34-2.157-4.585-3.584-5.409-.5-.286-1.114-.643-1.114-.855,0-.773.3-1.118.986-1.118a5.482,5.482,0,0,1,4.092,2.964.626.626,0,0,0,1.187-.28V29.353a.94.94,0,1,1,1.879,0v7.83a.626.626,0,0,0,1.253,0A.885.885,0,0,1,37.183,36.243Zm2.506-13.155V33.424H36.243V29.353a2.192,2.192,0,1,0-4.385,0v4.072h-.313V22.149h8.143ZM50.337,37.9a2.506,2.506,0,1,1-1.253,0,2.25,2.25,0,0,1,1.253,0Zm5.638-7.606a2.5,2.5,0,0,1-2.417-1.879,2.251,2.251,0,0,1,0-1.253,2.5,2.5,0,1,1,2.417,3.132Z" transform="translate(0)" fill="#0097a6" stroke="#0097a6" stroke-width="1.4"/>
    </g>
  </g>
</svg>
