<svg xmlns="http://www.w3.org/2000/svg" xmlns:xlink="http://www.w3.org/1999/xlink" width="80" height="80" viewBox="0 0 80 80"><defs><style>.a{fill:#00556f;}.b{clip-path:url(#a);}.c{fill:#0097a6;}</style><clipPath id="a"><rect class="a" width="80" height="80" transform="translate(-15467 8847)"/></clipPath></defs><g class="b" transform="translate(15467 -8847)"><g transform="translate(-15466.903 8846.629)"><circle class="a" cx="4.903" cy="4.903" r="4.903" transform="translate(35 63.134)"/><path class="a" d="M57.528,80.372H22.278a10.113,10.113,0,0,1-10.1-10.1V10.5A10.113,10.113,0,0,1,22.278.372h35.25A10.105,10.105,0,0,1,67.625,10.5V70.275A10.105,10.105,0,0,1,57.528,80.372ZM22.278,4.443A6.066,6.066,0,0,0,16.22,10.5V70.275a6.058,6.058,0,0,0,6.058,6.058h35.25a6.058,6.058,0,0,0,6.058-6.058V10.5a6.066,6.066,0,0,0-6.058-6.058Z"/><path class="c" d="M52.706,35.679V19.055a2.278,2.278,0,0,0-.88-1.834,2.318,2.318,0,0,0-1.987-.428L36.777,20.024a2.326,2.326,0,0,0-1.769,2.254V36.01a4.733,4.733,0,1,0,1.551,3.651h0V28.271l14.588-3.611v7.464a4.733,4.733,0,1,0,1.616,3.586Z"/></g></g></svg>