<svg xmlns="http://www.w3.org/2000/svg" xmlns:xlink="http://www.w3.org/1999/xlink" width="60" height="60" viewBox="0 0 60 60"><defs><style>.a,.c{fill:#005671;}.a{stroke:#707070;}.b{clip-path:url(#a);}.d{fill:#e8a815;}</style><clipPath id="a"><rect class="a" width="60" height="60" transform="translate(-945 1176.87)"/></clipPath></defs><g class="b" transform="translate(945 -1176.87)"><g transform="translate(-945 1177)"><path class="c" d="M30.049,19.175a.935.935,0,0,0,.935-.935V7.361a3.742,3.742,0,1,0-1.871,0V18.24A.935.935,0,0,0,30.049,19.175Z" transform="translate(-0.114 0.003)"/><path class="c" d="M22.08,13.141a2.806,2.806,0,0,0,1.871,2.642v2.5a.935.935,0,0,0,1.871,0v-2.5a2.806,2.806,0,1,0-3.742-2.642Zm2.806-.935a.935.935,0,1,1-.935.935A.935.935,0,0,1,24.886,12.206Z" transform="translate(-0.095 -0.043)"/><path class="c" d="M35.221,10.335a2.806,2.806,0,0,0-.935,5.449v2.5a.935.935,0,0,0,1.871,0v-2.5a2.806,2.806,0,0,0-.935-5.449Zm0,3.742a.935.935,0,1,1,.935-.935A.935.935,0,0,1,35.221,14.077Z" transform="translate(-0.141 -0.043)"/><path class="c" d="M30.049,60.046a3.742,3.742,0,0,0,.935-7.361V41.806a.935.935,0,1,0-1.871,0V52.685a3.742,3.742,0,0,0,.935,7.361Z" transform="translate(-0.114 -0.179)"/><path class="c" d="M24.886,50.692a2.806,2.806,0,0,0,.935-5.453.907.907,0,0,0,0-.159V41.806a.935.935,0,1,0-1.871,0V45.08a.907.907,0,0,0,0,.159,2.806,2.806,0,0,0,.935,5.453Zm0-3.742a.935.935,0,1,1-.935.935A.935.935,0,0,1,24.886,46.951Z" transform="translate(-0.095 -0.179)"/><path class="c" d="M38.027,47.886a2.806,2.806,0,0,0-1.871-2.647.907.907,0,0,0,0-.159V41.806a.935.935,0,1,0-1.871,0V45.08a.907.907,0,0,0,0,.159,2.806,2.806,0,1,0,3.742,2.647Zm-3.742,0a.935.935,0,1,1,.935.935A.935.935,0,0,1,34.286,47.886Z" transform="translate(-0.141 -0.179)"/><path class="c" d="M15,8.439a3.742,3.742,0,1,0-4.677,3.62V16.2a.935.935,0,0,0,.309.7l3.84,3.461a.935.935,0,0,0,.627.239h5.982a.935.935,0,0,0,0-1.871H15.467l-3.274-2.942V12.045A3.742,3.742,0,0,0,15,8.439ZM11.258,10.31a1.871,1.871,0,1,1,1.871-1.871A1.871,1.871,0,0,1,11.258,10.31Z" transform="translate(-0.031 -0.018)"/><path class="c" d="M15.467,41.332h6.08a.935.935,0,1,0,0-1.871H15.1a.935.935,0,0,0-.627.239l-3.84,3.461a.935.935,0,0,0-.309.7v4.148a3.742,3.742,0,1,0,1.871,0V44.265ZM13.129,51.621a1.871,1.871,0,1,1-1.871-1.871A1.871,1.871,0,0,1,13.129,51.621Z" transform="translate(-0.031 -0.173)"/><path class="c" d="M44.6,18.728h-6.08a.935.935,0,0,0,0,1.871h6.449a.935.935,0,0,0,.627-.239l3.84-3.461a.935.935,0,0,0,.309-.7V12.059a3.742,3.742,0,1,0-1.871,0V15.8ZM46.936,8.439a1.871,1.871,0,1,1,1.871,1.871A1.871,1.871,0,0,1,46.936,8.439Z" transform="translate(-0.164 -0.018)"/><path class="c" d="M45.065,51.621A3.742,3.742,0,1,0,49.742,48V43.858a.935.935,0,0,0-.309-.7L45.594,39.7a.935.935,0,0,0-.627-.239H38.518a.935.935,0,0,0,0,1.871H44.6l3.274,2.942v3.742A3.742,3.742,0,0,0,45.065,51.621Zm3.742-1.871a1.871,1.871,0,1,1-1.871,1.871A1.871,1.871,0,0,1,48.807,49.751Z" transform="translate(-0.164 -0.173)"/><path class="c" d="M56.3,26.308a3.742,3.742,0,0,0-3.62,2.806H41.806a.935.935,0,1,0,0,1.871H52.685a3.742,3.742,0,1,0,3.62-4.677Z" transform="translate(-0.179 -0.114)"/><path class="c" d="M47.418,22.08a2.806,2.806,0,0,0-2.642,1.871h-2.97a.935.935,0,1,0,0,1.871h2.97a2.806,2.806,0,1,0,2.642-3.742Zm0,3.742a.935.935,0,1,1,.935-.935A.935.935,0,0,1,47.418,25.821Z" transform="translate(-0.179 -0.096)"/><path class="c" d="M47.418,32.415a2.806,2.806,0,0,0-2.642,1.871h-2.97a.935.935,0,1,0,0,1.871h2.97a2.806,2.806,0,1,0,2.642-3.742Zm0,3.742a.935.935,0,1,1,.935-.935A.935.935,0,0,1,47.418,36.156Z" transform="translate(-0.179 -0.142)"/><path class="c" d="M3.741,33.791a3.742,3.742,0,0,0,3.62-2.806H18.24a.935.935,0,0,0,0-1.871H7.361a3.742,3.742,0,1,0-3.62,4.677Z" transform="translate(0.003 -0.114)"/><path class="c" d="M12.671,38.027a2.806,2.806,0,0,0,2.642-1.871h2.97a.935.935,0,0,0,0-1.871h-2.97a2.806,2.806,0,1,0-2.642,3.742Zm0-3.742a.935.935,0,1,1-.935.935A.935.935,0,0,1,12.671,34.286Z" transform="translate(-0.041 -0.142)"/><path class="c" d="M12.671,27.692a2.806,2.806,0,0,0,2.642-1.871h2.97a.935.935,0,0,0,0-1.871h-2.97a2.806,2.806,0,1,0-2.642,3.742Zm0-3.742a.935.935,0,1,1-.935.935A.935.935,0,0,1,12.671,23.95Z" transform="translate(-0.041 -0.096)"/><path class="d" d="M21.14,30.026a8.886,8.886,0,1,0,8.886-8.886A8.886,8.886,0,0,0,21.14,30.026Zm12.628-.935a.935.935,0,1,1-.935.935A.935.935,0,0,1,33.768,29.091ZM29.7,26.182a.935.935,0,1,1,.935,1.085h-.15a.935.935,0,0,1-.786-1.085Zm.173,6.651a.936.936,0,0,1-.051,1.871h-.047a.937.937,0,0,1,.1-1.871Zm-4.5-3.3a.935.935,0,1,1,.935,1.038h-.1a.935.935,0,0,1-.832-1.043Z" transform="translate(-0.091 -0.091)"/></g></g></svg>