<svg xmlns="http://www.w3.org/2000/svg" width="21.818" height="20" viewBox="0 0 21.818 20"><defs><style>.a{fill:#c0c0c8;}</style></defs><path class="a" d="M17.273,1H4.545A4.551,4.551,0,0,0,0,5.545V16.455A4.551,4.551,0,0,0,4.545,21H17.273a4.551,4.551,0,0,0,4.545-4.545V5.545A4.551,4.551,0,0,0,17.273,1ZM4.545,2.818H17.273A2.727,2.727,0,0,1,19.8,4.534L12.838,11.5a2.734,2.734,0,0,1-3.858,0L2.018,4.534A2.727,2.727,0,0,1,4.545,2.818ZM17.273,19.182H4.545a2.727,2.727,0,0,1-2.727-2.727V6.909l5.876,5.873a4.552,4.552,0,0,0,6.429,0L20,6.909v9.545A2.727,2.727,0,0,1,17.273,19.182Z" transform="translate(0 -1)"/></svg>