<svg xmlns="http://www.w3.org/2000/svg" width="70.234" height="76.466" viewBox="0 0 70.234 76.466">
  <g id="Group_15098" data-name="Group 15098" transform="translate(-4.886 -2.092)">
    <g id="Group_15094" data-name="Group 15094">
      <path id="Path_86852" data-name="Path 86852" d="M71.483,39.591V28.1a1.573,1.573,0,0,0-.612-1.265,1.594,1.594,0,0,0-1.372-.3l-9.021,2.23a1.6,1.6,0,0,0-1.222,1.56v9.461a3.27,3.27,0,1,0,1.072,2.525h.005V34.451L70.41,31.958v5.157A3.268,3.268,0,1,0,71.5,39.591Z" fill="#058796"/>
    </g>
    <path id="Path_86853" data-name="Path 86853" d="M68.467,13.209,60.08,18.051a3.36,3.36,0,0,1-5.04-2.91V5.457a3.36,3.36,0,0,1,5.04-2.91l8.387,4.842A3.36,3.36,0,0,1,68.467,13.209Z" fill="#058796"/>
    <g id="Group_15096" data-name="Group 15096">
      <g id="Group_15095" data-name="Group 15095">
        <path id="Path_86854" data-name="Path 86854" d="M74.312,64.437A9.391,9.391,0,0,0,63.578,59.5L54.27,61.823c-.413-3.587-2.535-5.7-6.786-6.769l-24.9-5.531c.078-.545.138-1.068.181-1.553a1.436,1.436,0,0,0-.442-1.169c-2.461-2.332-12.3-3.084-15.26-3.262a1.434,1.434,0,0,0-1.523,1.433V70.818a1.437,1.437,0,0,0,1.436,1.435h8.616a1.435,1.435,0,0,0,1.364-.99c.037-.115.232-.718.528-1.652l20.576,6.858a16.482,16.482,0,0,0,5.951,1.439c2.909,0,6.32-1.275,13.821-4.342l15.8-7.18a1.436,1.436,0,0,0,.689-1.949ZM14.539,69.382H8.4V46.511c4.615.365,9.6,1.157,11.407,2.036C19.051,54.836,15.608,66.007,14.539,69.382Zm42.146,1.545c-12.078,4.951-12.5,4.8-17.667,2.837l-20.694-6.9c1.181-3.908,2.826-9.7,3.768-14.508l24.732,5.5c3.179.793,4.46,2.048,4.635,4.67L48.7,63.21a7.147,7.147,0,0,1-3.148.078L33.1,60.795a1.436,1.436,0,0,0-.563,2.817l12.46,2.493A10.108,10.108,0,0,0,49.4,66l3.851-.962h.017l11-2.751a6.53,6.53,0,0,1,6.648,2.174Z" fill="#00455d" stroke="#00455d" stroke-miterlimit="10" stroke-width="1.3"/>
      </g>
    </g>
    <g id="Group_15097" data-name="Group 15097">
      <circle id="Ellipse_1138" data-name="Ellipse 1138" cx="2.132" cy="2.132" r="2.132" transform="translate(24.756 32.082)" fill="#058796"/>
      <circle id="Ellipse_1139" data-name="Ellipse 1139" cx="2.132" cy="2.132" r="2.132" transform="translate(33.286 32.082)" fill="#058796"/>
      <path id="Path_86855" data-name="Path 86855" d="M40.293,17.151H22.805a.42.42,0,0,1-.383-.289l-.744-2.622A4.509,4.509,0,0,0,17.7,10.919h-2.36a.9.9,0,0,0,0,1.8l2.361,0a2.758,2.758,0,0,1,2.249,2.01L20.7,17.4l3.185,11.236A2.136,2.136,0,0,0,25.822,30.1H36.484a2.163,2.163,0,0,0,1.953-1.461l2.949-10.024A1.08,1.08,0,0,0,40.293,17.151Zm-6.446,7.158H28.459a.684.684,0,0,1,0-1.367h5.387a.684.684,0,0,1,0,1.367Z" fill="#058796"/>
    </g>
  </g>
</svg>
