<svg id="Layer_1" data-name="Layer 1" xmlns="http://www.w3.org/2000/svg" viewBox="0 0 70.23 76.47"><defs><style>.cls-1{fill:#0297a6;}.cls-2{fill:#02556f;stroke:#02556f;stroke-miterlimit:10;stroke-width:1.3px;}</style></defs><path class="cls-1" d="M71.48,39.59V28.1a1.56,1.56,0,0,0-.61-1.26,1.61,1.61,0,0,0-1.37-.3l-9,2.23a1.6,1.6,0,0,0-1.22,1.56v9.46a3.28,3.28,0,1,0,1.07,2.53h0V34.45L70.41,32v5.15a3.27,3.27,0,1,0,1.09,2.48Z" transform="translate(-4.89 -2.09)"/><path class="cls-1" d="M68.47,13.21l-8.39,4.84a3.36,3.36,0,0,1-5-2.91V5.46a3.36,3.36,0,0,1,5-2.91l8.39,4.84A3.36,3.36,0,0,1,68.47,13.21Z" transform="translate(-4.89 -2.09)"/><path class="cls-2" d="M74.31,64.44A9.38,9.38,0,0,0,63.58,59.5l-9.31,2.32c-.41-3.58-2.54-5.7-6.79-6.77l-24.9-5.53c.08-.54.14-1.06.18-1.55a1.42,1.42,0,0,0-.44-1.17C19.86,44.47,10,43.72,7.06,43.54A1.44,1.44,0,0,0,6,43.93a1.42,1.42,0,0,0-.45,1V70.82A1.43,1.43,0,0,0,7,72.25h8.62a1.43,1.43,0,0,0,1.36-1c0-.11.23-.72.53-1.65l20.58,6.86A16.45,16.45,0,0,0,44,77.91c2.91,0,6.32-1.28,13.82-4.34l15.79-7.18a1.44,1.44,0,0,0,.69-2ZM14.54,69.38H8.41V46.51c4.61.37,9.59,1.16,11.4,2C19.05,54.84,15.61,66,14.54,69.38Zm42.15,1.55c-12.08,4.95-12.5,4.8-17.67,2.83l-20.7-6.89c1.18-3.91,2.83-9.71,3.77-14.51l24.73,5.49c3.18.8,4.46,2,4.64,4.67l-2.76.69a7.12,7.12,0,0,1-3.15.08L33.1,60.8a1.43,1.43,0,0,0-.57,2.81L45,66.11a10.87,10.87,0,0,0,2,.19A10,10,0,0,0,49.4,66l3.85-1h0l11-2.75a6.54,6.54,0,0,1,6.65,2.18Z" transform="translate(-4.89 -2.09)"/><circle class="cls-1" cx="22" cy="32.12" r="2.13"/><circle class="cls-1" cx="30.53" cy="32.12" r="2.13"/><path class="cls-1" d="M40.29,17.15H22.8a.43.43,0,0,1-.38-.29l-.74-2.62a4.51,4.51,0,0,0-4-3.32H15.34a.9.9,0,1,0,0,1.8H17.7a2.75,2.75,0,0,1,2.24,2l.76,2.67,3.18,11.23a2.14,2.14,0,0,0,1.94,1.47H36.48a2.18,2.18,0,0,0,2-1.46l3-10A1.08,1.08,0,0,0,40.29,17.15Zm-6.44,7.16H28.46a.69.69,0,0,1,0-1.37h5.39a.69.69,0,0,1,0,1.37Z" transform="translate(-4.89 -2.09)"/></svg>