<svg xmlns="http://www.w3.org/2000/svg" xmlns:xlink="http://www.w3.org/1999/xlink" width="80" height="80" viewBox="0 0 80 80"><defs><style>.a{fill:#00556f;}.b{clip-path:url(#a);}.c{fill:#0097a6;}</style><clipPath id="a"><rect class="a" width="80" height="80" transform="translate(-15167 8943)"/></clipPath></defs><g class="b" transform="translate(15167 -8943)"><g transform="translate(-15167.225 8942.689)"><path class="c" d="M75.413,35.42H63.82a2.407,2.407,0,0,1,0-4.814H75.413a2.407,2.407,0,0,1,0,4.814Z"/><path class="c" d="M70.479,42.761a2.407,2.407,0,0,1-1.7-4.108l5.616-5.616-5.616-5.616a2.431,2.431,0,1,1,3.426-3.45l7.317,7.317a2.407,2.407,0,0,1,0,3.4L72.2,42.055a2.407,2.407,0,0,1-1.725.706Z"/><path class="a" d="M39.175,75.814c-1.211,0-7.918-3.442-13.278-7.357-8.311-6.081-12.523-12.3-12.523-18.444v-9.2a2.006,2.006,0,0,1,4.011,0v9.2c0,10.983,19.736,20.923,22.279,21.846a2.006,2.006,0,0,1-.489,3.955ZM39.175,71.8ZM39.175,71.8Z"/><path class="a" d="M39.175,75.814a2.006,2.006,0,0,1-.666-3.9,69.14,69.14,0,0,0,11.866-7c4.814-3.578,10.59-9.066,10.59-14.9V21.6L38.18,8.576a2.006,2.006,0,0,1,1.99-3.482l24.814,14.16V50.013c0,6.137-4.26,12.347-12.66,18.452C47.2,72.2,40.282,75.814,39.175,75.814Z"/><path class="a" d="M15.379,27.277a2.006,2.006,0,0,1-2.006-2.006V19.254L38.18,5.094a2.006,2.006,0,1,1,1.99,3.482L17.385,21.6V25.3A2.006,2.006,0,0,1,15.379,27.277Z"/><path class="c" d="M48.866,35.42H10.79a2.407,2.407,0,0,1,0-4.814H48.866a2.407,2.407,0,1,1,0,4.814Z"/><path class="c" d="M5.351,35.42H2.631a2.407,2.407,0,0,1,0-4.814h2.72a2.407,2.407,0,0,1,0,4.814Z"/></g></g></svg>