<svg xmlns="http://www.w3.org/2000/svg" xmlns:xlink="http://www.w3.org/1999/xlink" width="60" height="60" viewBox="0 0 60 60">
  <defs>
    <clipPath id="clip-path">
      <rect id="Rectangle_57934" data-name="Rectangle 57934" width="60" height="60" transform="translate(-858 1176.939)" fill="#005671" stroke="#707070" stroke-width="1"/>
    </clipPath>
  </defs>
  <g id="Mask_Group_7838" data-name="Mask Group 7838" transform="translate(858 -1176.939)" clip-path="url(#clip-path)">
    <g id="noun_subscription_456178" transform="translate(-858 1176.997)">
      <g id="Group_69" data-name="Group 69" transform="translate(0 0)">
        <path id="Path_78229" data-name="Path 78229" d="M30.686,9.734H56.111a2.886,2.886,0,0,1,2.883,2.883V38.042a2.886,2.886,0,0,1-2.883,2.883v3.7a6.593,6.593,0,0,0,6.578-6.578v-25.5a6.593,6.593,0,0,0-6.578-6.578H30.686a6.593,6.593,0,0,0-6.578,6.578h3.7A2.824,2.824,0,0,1,30.686,9.734Z" transform="translate(-2.747 -5.964)" fill="#005671"/>
        <path id="Path_78230" data-name="Path 78230" d="M21.583,18.7H47.008a2.886,2.886,0,0,1,2.883,2.883V47.008a2.886,2.886,0,0,1-2.883,2.883v3.7a6.593,6.593,0,0,0,6.578-6.578V21.583A6.593,6.593,0,0,0,47.008,15H21.583A6.593,6.593,0,0,0,15,21.583h3.7A2.886,2.886,0,0,1,21.583,18.7Z" transform="translate(-4.361 -4.361)" fill="#005671"/>
        <path id="Path_78231" data-name="Path 78231" d="M12.542,62.626H37.968a6.593,6.593,0,0,0,6.578-6.578V30.623a6.593,6.593,0,0,0-6.578-6.578H12.542a6.593,6.593,0,0,0-6.578,6.578V56.048A6.593,6.593,0,0,0,12.542,62.626Zm-2.883-32a2.886,2.886,0,0,1,2.883-2.883H37.968a2.886,2.886,0,0,1,2.883,2.883V56.048a2.886,2.886,0,0,1-2.883,2.883H12.542A2.886,2.886,0,0,1,9.66,56.048Z" transform="translate(-5.964 -2.758)" fill="#0097a6"/>
      </g>
    </g>
  </g>
</svg>
