<svg xmlns="http://www.w3.org/2000/svg" xmlns:xlink="http://www.w3.org/1999/xlink" width="80" height="80" viewBox="0 0 80 80">
  <defs>
    <clipPath id="clip-path">
      <rect id="Rectangle_57983" data-name="Rectangle 57983" width="80" height="80" transform="translate(7782 2089)" fill="#00556f"/>
    </clipPath>
  </defs>
  <g id="Group_884" data-name="Group 884" transform="translate(-104 -149)">
    <g id="Group_878" data-name="Group 878" transform="translate(-289 103)">
      <g id="Group_848" data-name="Group 848" transform="translate(95)">
        <g id="Mask_Group_7872" data-name="Mask Group 7872" transform="translate(-7484 -2043)" clip-path="url(#clip-path)">
          <g id="noun_Video_2891362" transform="translate(7783.329 2090.308)">
            <g id="Group_828" data-name="Group 828" transform="translate(0 0)">
              <path id="Path_78864" data-name="Path 78864" d="M39.218,0a39.46,39.46,0,0,1,0,78.92C17.719,78.92,0,61.145,0,39.342A39.487,39.487,0,0,1,39.218,0Zm0,5.925A33.417,33.417,0,1,0,72.529,39.342,33.325,33.325,0,0,0,39.218,5.925Z" fill="#00556f"/>
            </g>
          </g>
        </g>
      </g>
    </g>
    <g id="Group_883" data-name="Group 883">
      <g id="noun_User_2650582" transform="translate(122 167)">
        <g id="Group_882" data-name="Group 882">
          <path id="Path_80441" data-name="Path 80441" d="M16.7,14.021h1.853a9.046,9.046,0,0,0,.554,1.339l-1.31,1.31a.7.7,0,0,0,0,.991l2.975,2.974a.7.7,0,0,0,.991,0l1.682-1.681-.991-.991-1.186,1.185-1.983-1.983,1.186-1.186a.7.7,0,0,0,.108-.852,7.654,7.654,0,0,1-.82-1.982.7.7,0,0,0-.679-.526H17.4v-2.8H19.08a.7.7,0,0,0,.679-.526,7.654,7.654,0,0,1,.82-1.982.7.7,0,0,0-.108-.852L19.285,5.268l1.983-1.983,1.186,1.185a.7.7,0,0,0,.852.108,7.644,7.644,0,0,1,1.983-.82.7.7,0,0,0,.526-.679V1.4h2.8V3.08a.7.7,0,0,0,.526.679,7.644,7.644,0,0,1,1.983.82.7.7,0,0,0,.852-.108l1.186-1.185,1.983,1.983L33.962,6.455a.7.7,0,0,0-.108.852,7.654,7.654,0,0,1,.82,1.982.7.7,0,0,0,.679.525h1.678v2.8H35.353a.7.7,0,0,0-.679.526,7.654,7.654,0,0,1-.82,1.982.7.7,0,0,0,.108.852l1.186,1.186-1.983,1.983-1.186-1.185-.991.991,1.682,1.681a.7.7,0,0,0,.991,0l2.975-2.974a.7.7,0,0,0,0-.991l-1.31-1.31a9.046,9.046,0,0,0,.554-1.339h1.853a.7.7,0,0,0,.7-.7V9.114a.7.7,0,0,0-.7-.7H35.879a9.047,9.047,0,0,0-.554-1.339l1.31-1.31a.7.7,0,0,0,0-.991L33.661,1.8a.7.7,0,0,0-.991,0l-1.31,1.31a8.9,8.9,0,0,0-1.339-.555V.7a.7.7,0,0,0-.7-.7H25.114a.7.7,0,0,0-.7.7V2.554a9.05,9.05,0,0,0-1.339.555L21.764,1.8a.7.7,0,0,0-.991,0L17.8,4.773a.7.7,0,0,0,0,.991l1.31,1.31a9.047,9.047,0,0,0-.554,1.339H16.7a.7.7,0,0,0-.7.7V13.32A.7.7,0,0,0,16.7,14.021Z" transform="translate(-4.783)" fill="#0097a6" stroke="#0097a6" stroke-width="1"/>
          <path id="Path_80443" data-name="Path 80443" d="M36.825,41.01v-1.4H31.8a2.106,2.106,0,0,0-1.983-1.4h-.7V34h-1.4v4.206h-.7a2.106,2.106,0,0,0-1.983,1.4H20v1.4h5.028a2.106,2.106,0,0,0,1.983,1.4h2.8a2.106,2.106,0,0,0,1.983-1.4Zm-7.01,0h-2.8a.7.7,0,0,1,0-1.4h2.8a.7.7,0,0,1,0,1.4Z" transform="translate(-5.979 -10.165)" fill="#0097a6" stroke="#0097a6" stroke-width="1"/>
          <path id="Path_80444" data-name="Path 80444" d="M13.266,44.475l-1.6-.457-.76-1.19a3.517,3.517,0,0,0,1.9-2.867l.215-3h0l.013-.173A4.466,4.466,0,0,0,8.576,32H8.249L8.11,32l-.056,0-.072,0a4.44,4.44,0,0,0-3.741,2.486.466.466,0,0,0-.022.051A4.477,4.477,0,0,0,3.8,36.784l.227,3.177a3.516,3.516,0,0,0,1.9,2.867l-.76,1.19-1.6.457A4.928,4.928,0,0,0,0,49.193v4.539a.7.7,0,0,0,.7.7H16.124a.7.7,0,0,0,.7-.7V49.193A4.926,4.926,0,0,0,13.266,44.475Zm-2.551,1.4.262,1.571-1.31-.786.6-.449ZM9.489,43.217l.787,1.232-1.863,1.4-1.863-1.4.787-1.232ZM6.11,45.872l.449.337.6.449-1.31.786ZM8.576,33.4a3.028,3.028,0,0,1,1.911.668,3.106,3.106,0,0,1,.331.308c.032.034.063.069.093.105l0,0,.034.041.015.018.029.038.017.022.026.034.02.027.024.033.022.032.018.027.027.042.013.02.028.045.013.02c.026.043.051.087.075.131l0,.007c.011.02.022.041.032.061l0,.009.029.06,0,.011.027.059,0,.011.025.059,0,.011.025.064,0,.006a3.034,3.034,0,0,1,.114.369v0c.006.024.011.047.016.071,0,0,0,0,0,.007,0,.022.009.045.013.068V35.9c0,.022.008.046.012.068,0,0,0,0,0,.008,0,.023.007.046.01.069a.03.03,0,0,0,0,.008c.013.1.022.2.025.306,0,.008,0,.017,0,.025s0,.025,0,.038a4.872,4.872,0,0,1-4.739-.87l-1.1-.92a3.157,3.157,0,0,1,.212-.254,3.026,3.026,0,0,1,1.872-.954h.012l.072-.008.02,0,.066,0h.025l.06,0h.442ZM5.194,36.684a3.1,3.1,0,0,1,.029-.7l.78.65a6.26,6.26,0,0,0,5.541,1.282l-.14,1.95a2.111,2.111,0,0,1-2.1,1.953H7.518a2.11,2.11,0,0,1-2.1-1.953ZM15.423,53.031H1.4V49.193a3.519,3.519,0,0,1,2.542-3.37l.79-.226-.519,3.112a.7.7,0,0,0,1.053.716l3.144-1.887,3.144,1.887a.7.7,0,0,0,1.052-.716L12.09,45.6l.79.226h0a3.518,3.518,0,0,1,2.543,3.369Z" transform="translate(0 -9.567)" fill="#0097a6" stroke="#0097a6" stroke-width="1"/>
          <path id="Path_80445" data-name="Path 80445" d="M53.266,44.475l-1.6-.457-.76-1.19a3.517,3.517,0,0,0,1.9-2.867l.215-3h0l.013-.173A4.466,4.466,0,0,0,48.576,32h-.327l-.139,0-.056,0-.072,0a4.44,4.44,0,0,0-3.741,2.486.466.466,0,0,0-.022.051,4.477,4.477,0,0,0-.424,2.239l.227,3.177a3.516,3.516,0,0,0,1.9,2.867l-.76,1.19-1.6.457A4.928,4.928,0,0,0,40,49.193v4.539a.7.7,0,0,0,.7.7H56.124a.7.7,0,0,0,.7-.7V49.193A4.926,4.926,0,0,0,53.266,44.475Zm-2.551,1.4.262,1.571-1.31-.786.6-.449Zm-1.225-2.655.787,1.232-1.863,1.4-1.863-1.4.787-1.232ZM46.11,45.872l.449.337.6.449-1.31.786ZM48.576,33.4a3.028,3.028,0,0,1,1.911.668,3.106,3.106,0,0,1,.331.308c.032.034.063.069.093.105l0,0,.034.041.015.018.029.038.017.022.026.034.02.027.024.033.022.032.018.027.027.042.013.02.028.045.013.02c.026.043.051.087.075.131l0,.007c.011.02.022.041.032.061l0,.009.029.06,0,.011.027.059,0,.011.025.059,0,.011.025.064,0,.006a3.034,3.034,0,0,1,.114.369v0c.006.024.011.047.016.071,0,0,0,0,0,.007,0,.022.009.045.013.068V35.9c0,.022.008.046.012.068,0,0,0,0,0,.008,0,.023.007.046.01.069a.03.03,0,0,0,0,.008c.013.1.022.2.025.306,0,.008,0,.017,0,.025s0,.025,0,.038a4.872,4.872,0,0,1-4.739-.87l-1.1-.92a3.156,3.156,0,0,1,.212-.254,3.026,3.026,0,0,1,1.872-.954h.012l.072-.008.02,0,.066,0h.025l.06,0h.442Zm-3.382,3.282a3.1,3.1,0,0,1,.029-.7l.78.65a6.26,6.26,0,0,0,5.541,1.282l-.14,1.95a2.111,2.111,0,0,1-2.1,1.953H47.518a2.11,2.11,0,0,1-2.1-1.953ZM55.423,53.031H41.4V49.193a3.519,3.519,0,0,1,2.542-3.37l.79-.226-.519,3.112a.7.7,0,0,0,1.053.716l3.144-1.887,3.144,1.887a.7.7,0,0,0,1.052-.716L52.09,45.6l.79.226h0a3.518,3.518,0,0,1,2.543,3.369Z" transform="translate(-11.958 -9.567)" fill="#0097a6" stroke="#0097a6" stroke-width="1"/>
        </g>
      </g>
      <g id="noun_Gear_3468367" transform="translate(124.203 158.201)">
        <g id="Group_880" data-name="Group 880" transform="translate(14.343 14.345)">
          <rect id="Rectangle_58007" data-name="Rectangle 58007" width="1.15" height="0.575" transform="translate(5.174)" fill="#0097a6" stroke="#0097a6" stroke-width="1"/>
          <rect id="Rectangle_58008" data-name="Rectangle 58008" width="0.83" height="0.83" transform="translate(1.35 1.935) rotate(-45)" fill="#0097a6" stroke="#0097a6" stroke-width="1"/>
          <rect id="Rectangle_58009" data-name="Rectangle 58009" width="0.83" height="0.83" transform="translate(1.35 9.56) rotate(-45)" fill="#0097a6" stroke="#0097a6" stroke-width="1"/>
          <rect id="Rectangle_58010" data-name="Rectangle 58010" width="1.15" height="0.575" transform="translate(5.174 10.923)" fill="#0097a6" stroke="#0097a6" stroke-width="1"/>
          <rect id="Rectangle_58011" data-name="Rectangle 58011" width="0.83" height="0.83" transform="translate(8.975 9.56) rotate(-45)" fill="#0097a6" stroke="#0097a6" stroke-width="1"/>
          <rect id="Rectangle_58012" data-name="Rectangle 58012" width="0.83" height="0.83" transform="translate(8.975 1.936) rotate(-45)" fill="#0097a6" stroke="#0097a6" stroke-width="1"/>
          <path id="Path_80440" data-name="Path 80440" d="M27.318,24a3.318,3.318,0,1,0,3.318,3.318A3.318,3.318,0,0,0,27.318,24Zm0,5.807a2.489,2.489,0,1,1,2.489-2.489,2.489,2.489,0,0,1-2.489,2.489Z" transform="translate(-21.569 -21.57)" fill="#0097a6" stroke="#0097a6" stroke-width="1"/>
          <rect id="Rectangle_58013" data-name="Rectangle 58013" width="0.575" height="1.15" transform="translate(0 5.174)" fill="#0097a6" stroke="#0097a6" stroke-width="1"/>
          <rect id="Rectangle_58014" data-name="Rectangle 58014" width="0.575" height="1.15" transform="translate(10.923 5.174)" fill="#0097a6" stroke="#0097a6" stroke-width="1"/>
        </g>
      </g>
    </g>
  </g>
</svg>
