<svg xmlns="http://www.w3.org/2000/svg" xmlns:xlink="http://www.w3.org/1999/xlink" width="80" height="80" viewBox="0 0 80 80"><defs><style>.a{fill:#00556f;}.b{clip-path:url(#a);}.c{fill:#0097a6;}</style><clipPath id="a"><rect class="a" width="80" height="80" transform="translate(-15267 8847)"/></clipPath></defs><g class="b" transform="translate(15267 -8847)"><g transform="translate(-15266.604 8847.095)"><path class="a" d="M39.6,18.463a8.087,8.087,0,1,1,8.087-8.079A8.087,8.087,0,0,1,39.6,18.463Zm0-12.206a4.127,4.127,0,1,0,4.127,4.127A4.127,4.127,0,0,0,39.6,6.257Z"/><path class="a" d="M51.715,30.709H27.5a1.98,1.98,0,0,1-1.98-1.98,14.091,14.091,0,0,1,28.174,0A1.98,1.98,0,0,1,51.715,30.709Zm-22.036-3.96H49.537a10.123,10.123,0,0,0-19.857,0Z"/><path class="a" d="M13.7,65.275a8.087,8.087,0,1,1,8.087-8.087A8.087,8.087,0,0,1,13.7,65.275Zm0-12.206a4.119,4.119,0,1,0,2.918,1.2A4.127,4.127,0,0,0,13.7,53.069Z"/><path class="a" d="M25.8,77.521H1.584A1.98,1.98,0,0,1-.4,75.541a14.083,14.083,0,0,1,28.166,0,1.98,1.98,0,0,1-1.972,1.98ZM3.762,73.56H23.628a10.131,10.131,0,0,0-19.865,0Z"/><path class="a" d="M65.521,65.275A8.087,8.087,0,1,1,73.6,57.188,8.087,8.087,0,0,1,65.521,65.275Zm0-12.206a4.127,4.127,0,1,0,4.119,4.119A4.127,4.127,0,0,0,65.521,53.069Z"/><path class="a" d="M77.624,77.521H53.418a1.98,1.98,0,0,1-1.98-1.98,14.083,14.083,0,1,1,28.166,0,1.98,1.98,0,0,1-1.98,1.98ZM55.588,73.56H75.446a10.123,10.123,0,0,0-19.857,0Z"/><path class="c" d="M13.3,43.176a1.972,1.972,0,0,1-1.418-.578L6.463,37.172a1.983,1.983,0,1,1,2.8-2.8L13.3,38.4l4.024-4.032a1.983,1.983,0,0,1,2.8,2.8L14.693,42.6A1.941,1.941,0,0,1,13.3,43.176Z"/><path class="c" d="M13.3,42.186a1.98,1.98,0,0,1-1.98-1.98V24.919a9.576,9.576,0,0,1,9.568-9.568h4.23a1.98,1.98,0,1,1,0,3.96h-4.23a5.616,5.616,0,0,0-5.608,5.608V40.206A1.98,1.98,0,0,1,13.3,42.186Z"/><path class="c" d="M65.378,43.176a1.972,1.972,0,0,1-1.4-.578l-5.434-5.426a1.983,1.983,0,1,1,2.8-2.8L65.378,38.4,69.4,34.368a1.983,1.983,0,1,1,2.8,2.8L66.772,42.6A1.964,1.964,0,0,1,65.378,43.176Z"/><path class="c" d="M65.378,42.186a1.98,1.98,0,0,1-1.98-1.98V24.919a5.616,5.616,0,0,0-5.576-5.608H53.552a1.98,1.98,0,0,1,0-3.96h4.269a9.576,9.576,0,0,1,9.5,9.568V40.206a1.98,1.98,0,0,1-1.949,1.98Z"/></g></g></svg>