<svg xmlns="http://www.w3.org/2000/svg" xmlns:xlink="http://www.w3.org/1999/xlink" width="80" height="80" viewBox="0 0 80 80">
  <defs>
    <clipPath id="clip-path">
      <rect id="Rectangle_58122" data-name="Rectangle 58122" width="80" height="80" transform="translate(-18721 8459)" fill="#00556f"/>
    </clipPath>
  </defs>
  <g id="Mask_Group_7922" data-name="Mask Group 7922" transform="translate(18721 -8459)" clip-path="url(#clip-path)">
    <g id="_223" data-name="223" transform="translate(-18720.307 8458.335)">
      <path id="Path_80491" data-name="Path 80491" d="M64.978,80.665H19.741A10.15,10.15,0,0,1,9.607,70.531V10.8A10.142,10.142,0,0,1,19.741.665H64.978A10.142,10.142,0,0,1,75.111,10.8V70.531A10.15,10.15,0,0,1,64.978,80.665ZM19.741,4.718a6.08,6.08,0,0,0-6.08,6.08V70.531a6.08,6.08,0,0,0,6.08,6.08H64.978a6.088,6.088,0,0,0,6.08-6.08V10.8a6.088,6.088,0,0,0-6.08-6.08Z" fill="#00556f"/>
      <path id="Path_80492" data-name="Path 80492" d="M16.976,18.452H5.529a2.027,2.027,0,0,1,0-4.054H16.976a2.027,2.027,0,1,1,0,4.054Z" fill="#00556f"/>
      <path id="Path_80493" data-name="Path 80493" d="M16.976,34.487H5.529a2.027,2.027,0,0,1,0-4.054H16.976a2.027,2.027,0,1,1,0,4.054Z" fill="#00556f"/>
      <path id="Path_80494" data-name="Path 80494" d="M16.976,50.515H5.529a2.027,2.027,0,1,1,0-4.054H16.976a2.027,2.027,0,0,1,0,4.054Z" fill="#00556f"/>
      <path id="Path_80495" data-name="Path 80495" d="M16.976,66.542H5.529a2.027,2.027,0,1,1,0-4.054H16.976a2.027,2.027,0,1,1,0,4.054Z" fill="#00556f"/>
      <path id="Path_80496" data-name="Path 80496" d="M66.283,43.04l-5.245-6.81h0v-.049h0a.811.811,0,0,0-.462-.324l-8.05-2.805a9.315,9.315,0,0,0,2.343-6.218,9.437,9.437,0,0,0-18.873,0,9.283,9.283,0,0,0,2.351,6.218l-8.058,2.805a1.094,1.094,0,0,0-.454.324h0L24.58,43.04a1,1,0,0,0-.178.876.9.9,0,0,0,.64.64L29.6,46.178v8.739a.989.989,0,0,0,.649.916l14.82,5.2a.868.868,0,0,0,.324,0,.811.811,0,0,0,.316,0l14.828-5.2a.932.932,0,0,0,.64-.916V46.21l4.556-1.621a1,1,0,0,0,.649-.64.811.811,0,0,0-.1-.908Zm-28.3-16.214a7.463,7.463,0,1,1,0,.008Zm-10.961,16.3,3.964-5.156,13.344,4.694-2.716,5.618Zm17.4,15.606-12.8-4.516V46.859L41.84,50.45a.722.722,0,0,0,.316.049.973.973,0,0,0,.876-.559l1.386-2.919ZM45.4,40.965,33.6,36.822,40,34.568a9.226,9.226,0,0,0,5.432,1.7,9.591,9.591,0,0,0,5.432-1.7l6.4,2.254ZM59.181,54.22,46.4,58.735V47.021l1.378,2.894a.949.949,0,0,0,.876.559.811.811,0,0,0,.324-.049l10.263-3.567ZM49.21,48.285l-2.716-5.618,13.344-4.694,4,5.156Z" fill="#0097a6"/>
      <path id="Path_80497" data-name="Path 80497" d="M43.964,29.6a1.054,1.054,0,0,0,.738.324.908.908,0,0,0,.73-.324l3.916-4.054a.973.973,0,0,0-.049-1.386.957.957,0,0,0-1.378.049l-3.178,3.356-1.7-1.743a.975.975,0,0,0-1.427,1.33Z" fill="#0097a6"/>
    </g>
  </g>
</svg>
