<svg xmlns="http://www.w3.org/2000/svg" xmlns:xlink="http://www.w3.org/1999/xlink" width="80" height="80" viewBox="0 0 80 80"><defs><style>.a{fill:#00556f;}.b{clip-path:url(#a);}.c{fill:#0097a6;}</style><clipPath id="a"><rect class="a" width="80" height="80" transform="translate(-15167 8847)"/></clipPath></defs><g class="b" transform="translate(15167 -8847)"><g transform="translate(-15169.256 8846.637)"><circle class="a" cx="4.891" cy="4.891" r="4.891" transform="translate(31.033 63.156)"/><path class="c" d="M55.216,43.439A1.311,1.311,0,0,0,53.9,42.211H47.3a1.32,1.32,0,0,0-.923,2.253l2.364,2.364-8.31,8.31-4.423-2.207a1.311,1.311,0,0,0-1.523.24l-13.2,13.2a1.32,1.32,0,0,0,1.847,1.847L35.687,55.692l4.423,2.216a1.3,1.3,0,0,0,1.523-.277L50.6,48.665l2.373,2.373a1.32,1.32,0,0,0,1.847,0,1.394,1.394,0,0,0,.388-.923C55.225,50.06,55.225,43.5,55.216,43.439Z" transform="translate(-9.09 -0.433)"/><path class="a" d="M50.476,80.363H21.421a9.685,9.685,0,0,1-9.685-9.685v-50.3a9.685,9.685,0,0,1,9.685-9.685H36.465a2.018,2.018,0,1,1,0,4.036H21.38a5.65,5.65,0,0,0-5.65,5.65V70.686a5.65,5.65,0,0,0,5.65,5.65h29.1a5.65,5.65,0,0,0,5.65-5.65V37.595a2.018,2.018,0,0,1,4.036,0V70.686a9.685,9.685,0,0,1-9.685,9.677Z"/><path class="a" d="M52.76,40.4A20.016,20.016,0,1,1,72.776,20.379,20.016,20.016,0,0,1,52.76,40.4Zm0-36A15.981,15.981,0,1,0,68.741,20.379,15.981,15.981,0,0,0,52.76,4.4Z"/><path class="c" d="M51.719,31.2H53.64a.807.807,0,0,0,.807-.807v-1.84l.4-.1c3.228-.807,4.423-3.067,4.423-4.738,0-3.091-2.672-4.374-5.278-5.23-2.421-.807-3.228-1.3-3.228-2.026s.751-1.3,2.421-1.3a7.95,7.95,0,0,1,3.511.759.8.8,0,0,0,1.057-.387l.759-1.614a.751.751,0,0,0,0-.605.807.807,0,0,0-.4-.452,9.79,9.79,0,0,0-3.043-.807l-.468-.056V10.379a.807.807,0,0,0-.807-.807H51.929a.807.807,0,0,0-.807.807v1.727l-.4.1c-2.639.67-4.205,2.357-4.205,4.52,0,2.841,2.817,4.116,5.585,4.98,2.55.807,2.9,1.55,2.9,2.147,0,.928-1.195,1.614-2.833,1.614a8.878,8.878,0,0,1-4.036-.952.807.807,0,0,0-.379-.1.96.96,0,0,0-.258.04.807.807,0,0,0-.468.436L46.3,26.505a.807.807,0,0,0,.331,1.025,10.331,10.331,0,0,0,3.793,1.1l.476.048v1.695a.807.807,0,0,0,.823.831Z"/></g></g></svg>