<svg xmlns="http://www.w3.org/2000/svg" xmlns:xlink="http://www.w3.org/1999/xlink" width="80" height="80" viewBox="0 0 80 80">
  <defs>
    <clipPath id="clip-path">
      <rect id="Rectangle_57992" data-name="Rectangle 57992" width="80" height="80" transform="translate(7542 2169.234)" fill="#00556f"/>
    </clipPath>
  </defs>
  <g id="Mask_Group_7877" data-name="Mask Group 7877" transform="translate(-7542 -2169.234)" clip-path="url(#clip-path)">
    <g id="noun_Mobile_2329548" transform="translate(7556.71 2169)">
      <path id="Path_80380" data-name="Path 80380" d="M58.487,92.4H30.3A11.944,11.944,0,0,1,18.37,80.475V24.094A11.944,11.944,0,0,1,30.3,12.167h28.19A11.944,11.944,0,0,1,70.414,24.094V80.475A11.944,11.944,0,0,1,58.487,92.4ZM30.3,17.859a6.306,6.306,0,0,0-6.234,6.234V80.475A6.306,6.306,0,0,0,30.3,86.709h28.19a6.306,6.306,0,0,0,6.234-6.234V24.094a6.306,6.306,0,0,0-6.234-6.234Z" transform="translate(-18.08 -11.933)" fill="#00556f"/>
      <g id="Group_851" data-name="Group 851" transform="translate(-1.022 -2.338)">
        <g id="noun_sales_3792181" transform="translate(9.652 21.572)">
          <g id="_01" data-name="01" transform="translate(0 0)">
            <path id="Path_80383" data-name="Path 80383" d="M6.345,23.79A1.345,1.345,0,0,0,5,25.135V30.8a1.345,1.345,0,0,0,2.691,0V25.135A1.345,1.345,0,0,0,6.345,23.79Z" transform="translate(-2.309 3.961)" fill="#0097a6" stroke="#0097a6" stroke-width="1"/>
            <path id="Path_80384" data-name="Path 80384" d="M10.345,20.421A1.345,1.345,0,0,0,9,21.766v10.2a1.345,1.345,0,1,0,2.691,0v-10.2A1.345,1.345,0,0,0,10.345,20.421Z" transform="translate(-0.763 2.797)" fill="#0097a6" stroke="#0097a6" stroke-width="1"/>
            <path id="Path_80385" data-name="Path 80385" d="M14.345,17.053A1.345,1.345,0,0,0,13,18.4V33.126a1.345,1.345,0,0,0,2.691,0V18.4A1.345,1.345,0,0,0,14.345,17.053Z" transform="translate(0.728 1.634)" fill="#0097a6" stroke="#0097a6" stroke-width="1"/>
            <path id="Path_80386" data-name="Path 80386" d="M22.345,15.369A1.345,1.345,0,0,0,21,16.714V33.707a1.345,1.345,0,1,0,2.691,0V16.714A1.345,1.345,0,0,0,22.345,15.369Z" transform="translate(3.711 1.052)" fill="#0097a6" stroke="#0097a6" stroke-width="1"/>
            <path id="Path_80387" data-name="Path 80387" d="M18.345,18.737A1.345,1.345,0,0,0,17,20.082V32.544a1.345,1.345,0,0,0,2.691,0V20.082A1.345,1.345,0,0,0,18.345,18.737Z" transform="translate(2.22 2.216)" fill="#0097a6" stroke="#0097a6" stroke-width="1"/>
            <path id="Path_80388" data-name="Path 80388" d="M26.345,12A1.345,1.345,0,0,0,25,13.345V34.871a1.345,1.345,0,1,0,2.691,0V13.345A1.345,1.345,0,0,0,26.345,12Z" transform="translate(5.257 -0.111)" fill="#0097a6" stroke="#0097a6" stroke-width="1"/>
            <path id="Path_80389" data-name="Path 80389" d="M38.635,4.241A1.356,1.356,0,0,0,37.271,3H30.414a1.373,1.373,0,0,0-1.264.824,1.31,1.31,0,0,0,.3,1.453L31.9,7.67,23.29,16.055l-4.6-2.239a1.4,1.4,0,0,0-1.582.25L3.4,27.41a1.309,1.309,0,0,0,0,1.887,1.4,1.4,0,0,0,1.938,0L18.348,16.633l4.6,2.239a1.4,1.4,0,0,0,1.582-.25l9.312-9.065L36.3,11.95a1.4,1.4,0,0,0,1.493.287,1.336,1.336,0,0,0,.847-1.23C38.638,10.939,38.64,4.308,38.635,4.241Z" transform="translate(-3 -3)" fill="#0097a6" stroke="#0097a6" stroke-width="1"/>
          </g>
        </g>
        <g id="Group_849" data-name="Group 849" transform="translate(28.608 46.609)">
          <circle id="Ellipse_39" data-name="Ellipse 39" cx="7.953" cy="7.953" r="7.953" transform="translate(0.388 0.462)" fill="#0097a6"/>
          <g id="Group_849-2" data-name="Group 849">
            <path id="Path_80399" data-name="Path 80399" d="M71.542,70.7a8.342,8.342,0,1,0,8.342,8.342A8.332,8.332,0,0,0,71.542,70.7Zm0,15.8a7.5,7.5,0,1,1,7.5-7.5A7.518,7.518,0,0,1,71.542,86.5Z" transform="translate(-63.2 -70.7)" fill="#0097a6"/>
          </g>
          <g id="noun_User_4178283" transform="translate(3.783 2.79)">
            <path id="Path_80406" data-name="Path 80406" d="M14.49,14.164h8.658a.229.229,0,0,0,.229-.229V10.187a1.782,1.782,0,0,0-1.78-1.78H20.211V7.5a2.1,2.1,0,0,0,.711-1.574v-.84a2.1,2.1,0,1,0-4.206,0v.84A2.1,2.1,0,0,0,17.427,7.5v.91H16.041a1.782,1.782,0,0,0-1.78,1.78v3.748A.229.229,0,0,0,14.49,14.164Zm4.7-4.862v.446h-.742V9.3Zm-.588.9h.433l.463,2.451-.68.739-.68-.739Zm4.316-.019v3.519H19.158l.756-.823a.229.229,0,0,0,.056-.2L19.5,10.192a.229.229,0,0,0,.149-.214V9.119l.4-.253H21.6a1.323,1.323,0,0,1,1.322,1.322ZM17.175,5.923v-.84a1.645,1.645,0,1,1,3.289,0v.84a1.645,1.645,0,1,1-3.289,0Zm1.645,2.1a2.089,2.089,0,0,0,.934-.22v.7l-.526.333h-.818l-.523-.333v-.7a2.089,2.089,0,0,0,.934.22Zm-4.1,2.162a1.323,1.323,0,0,1,1.322-1.322H17.59l.4.255v.857a.229.229,0,0,0,.149.214l-.471,2.494a.229.229,0,0,0,.056.2l.756.823H14.719Z" transform="translate(-14.261 -2.98)" fill="#fff" stroke="#fff" stroke-width="0.5"/>
          </g>
        </g>
      </g>
    </g>
  </g>
</svg>
