<svg xmlns="http://www.w3.org/2000/svg" xmlns:xlink="http://www.w3.org/1999/xlink" width="80" height="80" viewBox="0 0 80 80"><defs><style>.a{fill:#00556f;}.b{clip-path:url(#a);}.c{fill:#0097a6;}</style><clipPath id="a"><rect class="a" width="80" height="80" transform="translate(-15767 8847)"/></clipPath></defs><g class="b" transform="translate(15767 -8847)"><g transform="translate(-15767.149 8846.693)"><circle class="a" cx="4.899" cy="4.899" r="4.899" transform="translate(35.254 63.075)"/><path class="a" d="M57.78,80.307H22.518A10.1,10.1,0,0,1,12.429,70.218V10.4A10.1,10.1,0,0,1,22.518.307H57.78A10.1,10.1,0,0,1,67.869,10.4V70.218A10.1,10.1,0,0,1,57.78,80.307ZM22.518,4.342A6.061,6.061,0,0,0,16.465,10.4V70.218a6.053,6.053,0,0,0,6.053,6.053H57.78a6.053,6.053,0,0,0,6.053-6.053V10.4A6.061,6.061,0,0,0,57.78,4.342Z"/><path class="c" d="M27.441,40.541a1.267,1.267,0,0,0-1.267,1.267v5.351a1.275,1.275,0,1,0,2.542,0V41.808a1.267,1.267,0,0,0-1.275-1.267Z"/><path class="c" d="M32.518,36.255a1.275,1.275,0,0,0-1.275,1.275v9.629a1.275,1.275,0,1,0,2.542,0V37.53a1.267,1.267,0,0,0-1.267-1.275Z"/><path class="c" d="M37.6,31.977a1.275,1.275,0,0,0-1.283,1.275V47.159a1.275,1.275,0,1,0,2.542,0V33.253A1.267,1.267,0,0,0,37.6,31.977Z"/><path class="c" d="M47.764,29.863A1.267,1.267,0,0,0,46.5,31.13V47.159a1.275,1.275,0,1,0,2.542,0V31.106a1.267,1.267,0,0,0-1.275-1.243Z"/><path class="c" d="M42.68,34.116a1.267,1.267,0,0,0-1.267,1.275V47.159a1.275,1.275,0,1,0,2.542,0V35.391a1.275,1.275,0,0,0-1.275-1.275Z"/><path class="c" d="M52.849,25.561a1.267,1.267,0,0,0-1.267,1.267V47.159a1.267,1.267,0,1,0,2.534,0V26.828a1.267,1.267,0,0,0-1.267-1.267Z"/><path class="c" d="M56.659,15.335a1.267,1.267,0,0,0-1.267-1.178H49.04a1.275,1.275,0,0,0-1.275,1.275,1.3,1.3,0,0,0,.371.888l2.284,2.244-7.99,7.982-4.262-2.131a1.275,1.275,0,0,0-1.469.234L24,37.369a1.281,1.281,0,0,0,1.832,1.792L37.853,27.1l4.262,2.131A1.259,1.259,0,0,0,43.584,29l8.628-8.636L54.5,22.647a1.267,1.267,0,0,0,1.792,0,1.235,1.235,0,0,0,.371-.9C56.659,21.679,56.667,15.335,56.659,15.335Z"/></g></g></svg>