<svg xmlns="http://www.w3.org/2000/svg" xmlns:xlink="http://www.w3.org/1999/xlink" width="80" height="80" viewBox="0 0 80 80"><defs><style>.a{fill:#00556f;}.b{clip-path:url(#a);}.c,.d{fill:#0097a6;}.c{stroke:#0097a6;stroke-width:0.801px;}</style><clipPath id="a"><rect class="a" width="80" height="80" transform="translate(-15967 8847)"/></clipPath></defs><g class="b" transform="translate(15967 -8847)"><g transform="translate(-15967.433 8847.064)"><path class="a" d="M46.966,79.936H11.561a9.614,9.614,0,0,1-9.614-9.614V9.55A9.614,9.614,0,0,1,11.561-.064H46.966A9.614,9.614,0,0,1,56.581,9.55V30.958a2,2,0,1,1-4.006,0V9.55a5.608,5.608,0,0,0-5.608-5.608H11.561A5.608,5.608,0,0,0,5.953,9.55V70.305a5.608,5.608,0,0,0,5.608,5.608H46.966a5.608,5.608,0,0,0,5.512-4.527,2,2,0,1,1,3.926.8,9.614,9.614,0,0,1-9.438,7.748Z"/><circle class="a" cx="4.871" cy="4.871" r="4.871" transform="translate(24.389 62.646)"/><path class="c" d="M52.142,58.808l-24.5-27.241h0a2.331,2.331,0,0,1-.593-1.731h0a2.275,2.275,0,0,1,.849-1.6h0a2.4,2.4,0,0,1,3.285.4L45.757,44.867h0a1.13,1.13,0,0,0,1.6.112h0a1.066,1.066,0,0,0,.377-.8h0a1.154,1.154,0,0,0-.264-.913l-5.416-6.009h0a2.347,2.347,0,0,1-.593-1.739h0a2.275,2.275,0,0,1,.849-1.6h0a2.4,2.4,0,0,1,3.285.4l5.288,5.873h0a1.162,1.162,0,0,0,1.6.08h0a1.178,1.178,0,0,0,.377-.8h0a1.178,1.178,0,0,0-.288-.8l-3.87-4.294h0A2.155,2.155,0,0,1,48.12,32.9h0a.8.8,0,0,1-.264-.072h0a1.106,1.106,0,0,1-.377-.248h0a.953.953,0,0,1-.12-.144h0a1.146,1.146,0,0,1-.216-.729l.128-2.243h0a4.543,4.543,0,0,0-1.33,2.275h0a4.615,4.615,0,0,0-5.1.417h0a4.543,4.543,0,0,0-1.482,2.155L32.881,27.1h0a4.711,4.711,0,0,0-6.442-.657h0a4.6,4.6,0,0,0-.689,6.466,2.2,2.2,0,0,0,.176.208l18.94,21.04,5.608,6.209h0a1.146,1.146,0,0,1,.192,1.274h0a1.122,1.122,0,0,1-1.09.633l-2.8-.144L44.475,62l-4.166-.224h0A4.735,4.735,0,0,0,35.5,65.066h0a4.7,4.7,0,0,0-.248,1.1h0a4.591,4.591,0,0,0,.529,2.348l1.867.1h0a1.146,1.146,0,0,0,.889-.345h0a2.684,2.684,0,0,1-.393-.345h0a2.339,2.339,0,0,1-.585-1.6h0a2.123,2.123,0,0,1,.1-.617h0a2.4,2.4,0,0,1,2.476-1.6h0l5.272.288,4.006.216h0a3.461,3.461,0,0,0,2.732-5.777Zm23.1-15.631L62.229,28.755h0a4.719,4.719,0,0,0-6.474-.641h0a4.5,4.5,0,0,0-1.482,2.139l-.28-.312h0a4.855,4.855,0,0,0-4.326-1.6h0a4.367,4.367,0,0,0-2.131.945,3.108,3.108,0,0,0-.248.208h0a4.543,4.543,0,0,0-1.33,2.275h0a4.615,4.615,0,0,0-5.1.417h0a4.543,4.543,0,0,0-1.482,2.155L32.9,27.129h0a4.711,4.711,0,0,0-6.458-.689h0a4.6,4.6,0,0,0-.689,6.466,2.2,2.2,0,0,0,.176.208l18.94,21.04,5.608,6.209h0a1.146,1.146,0,0,1,.192,1.274h0c-.2.414-.631.665-3.886.489l-6.474-.353a4.924,4.924,0,0,0-5.056,4.391,4.591,4.591,0,0,0,.529,2.348,4.543,4.543,0,0,0,.657.961,4.655,4.655,0,0,0,3.2,1.522l7.78.417,10.3.561c2.738.151,5.424-.8,16.609-10.864a12.646,12.646,0,0,0,.905-17.923Zm-2.46,16.208-9.134,8.236h0A7.964,7.964,0,0,1,57.855,69.7L46.406,69.08h0l-6.6-.361a2.339,2.339,0,0,1-1.218-.417h0a2.684,2.684,0,0,1-.393-.345,2.339,2.339,0,0,1-.585-1.6h0a2.123,2.123,0,0,1,.048-.657,2.4,2.4,0,0,1,2.476-1.6h0l9.278.5h0A3.461,3.461,0,0,0,52.7,62.623c.6-1.263.377-2.762-25.06-31.04h0a2.331,2.331,0,0,1-.593-1.731,2.275,2.275,0,0,1,.849-1.6h0a2.4,2.4,0,0,1,3.285.4L45.757,44.867a1.13,1.13,0,0,0,1.6.112h0a1.066,1.066,0,0,0,.377-.8h0c.047-.328-.049-.661-5.681-6.922h0a2.347,2.347,0,0,1-.593-1.739,2.275,2.275,0,0,1,.849-1.6h0a2.4,2.4,0,0,1,3.285.4l5.288,5.873a1.162,1.162,0,0,0,1.6.08h0a1.135,1.135,0,0,0,.088-1.6l-3.87-4.294A2.155,2.155,0,0,1,48.12,32.9h0a.921.921,0,0,1,0-.256,2.2,2.2,0,0,1,.849-1.6h0a1.6,1.6,0,0,1,.545-.32,2.524,2.524,0,0,1,2.74.721L56,35.581h0a1.154,1.154,0,0,0,1.6.088,1.082,1.082,0,0,0,.377-.8h0c.016-.3-.088-.584-1.09-1.667h0A2.291,2.291,0,0,1,57.03,30l.112-.1a2.4,2.4,0,0,1,3.285.4L73.454,44.723a10.416,10.416,0,0,1-.673,14.662Zm-20.639-.577-24.5-27.241h0a2.331,2.331,0,0,1-.593-1.731h0a2.275,2.275,0,0,1,.849-1.6,2.4,2.4,0,0,1,3.285.4L45.757,44.867h0a1.13,1.13,0,0,0,1.6.112h0a1.066,1.066,0,0,0,.377-.8h0a1.154,1.154,0,0,0-.264-.913l-5.416-6.009a2.347,2.347,0,0,1-.593-1.739h0a2.275,2.275,0,0,1,.849-1.6h0c1.027-.761,2.471-.585,8.573,6.273h0a1.162,1.162,0,0,0,1.6.08h0a1.135,1.135,0,0,0,.088-1.6l-3.87-4.294h0A2.155,2.155,0,0,1,48.12,32.9h0a.921.921,0,0,1,0-.256,2.2,2.2,0,0,1,.849-1.6h0a1.6,1.6,0,0,1,.545-.32l.128-2.4a4.367,4.367,0,0,0-2.131.945,3.108,3.108,0,0,0-.248.208h0a4.543,4.543,0,0,0-1.33,2.275h0a4.615,4.615,0,0,0-5.1.417h0a4.543,4.543,0,0,0-1.482,2.155L32.873,27.1h0a4.711,4.711,0,0,0-6.434-.665h0a4.6,4.6,0,0,0-.689,6.466,2.2,2.2,0,0,0,.176.208l18.94,21.04,5.608,6.209h0a1.146,1.146,0,0,1,.192,1.274h0a1.122,1.122,0,0,1-1.09.633l-2.8-.144L44.475,62l-4.166-.224h0A4.735,4.735,0,0,0,35.5,65.066h0a4.7,4.7,0,0,0-.248,1.1h0a4.591,4.591,0,0,0,.529,2.348l1.867.1h0a1.146,1.146,0,0,0,.889-.345h0a2.684,2.684,0,0,1-.393-.345h0a2.339,2.339,0,0,1-.585-1.6h0a2.123,2.123,0,0,1,.1-.617h0a2.4,2.4,0,0,1,2.476-1.6h0l5.272.288,4.006.216h0a3.461,3.461,0,0,0,2.732-5.777Z"/><path class="d" d="M58.287,72.389h-.569l-18.115-1A5.008,5.008,0,0,1,36.142,69.7a4.855,4.855,0,0,1-.6-.8h0l-.056-.1a.665.665,0,0,0-.056-.1h0a4.927,4.927,0,0,1-.561-2.476h0a5.024,5.024,0,0,1,5.424-4.807l9.27.5a.705.705,0,0,0,.7-.409.657.657,0,0,0,.08-.32.745.745,0,0,0-.2-.5L25.638,33.41l-.192-.224a5.008,5.008,0,0,1,.753-7.035,5.112,5.112,0,0,1,7.011.705l6.049,6.706a4.807,4.807,0,0,1,1.362-1.723,5.016,5.016,0,0,1,5.1-.673,4.975,4.975,0,0,1,1.306-2l.729-.673v.12a4.7,4.7,0,0,1,1.875-.7l.481-.072h0a5.288,5.288,0,0,1,4.054,1.6,4.7,4.7,0,0,1,1.362-1.707,5.1,5.1,0,0,1,7.019.689L75.577,42.96A13.148,13.148,0,0,1,78.9,52.367h0A13.036,13.036,0,0,1,74.608,61.4l-9.15,8.228A10.728,10.728,0,0,1,58.287,72.389ZM36.535,68.951a3.109,3.109,0,0,0,.208.248,4.206,4.206,0,0,0,2.908,1.394l18.083.977a9.951,9.951,0,0,0,7.211-2.532l9.126-8.228a12.242,12.242,0,0,0,4.006-8.485h0a12.347,12.347,0,0,0-3.157-8.877l.3-.272-.3.272-13-14.47A4.318,4.318,0,0,0,56,28.387a4.07,4.07,0,0,0-1.346,1.955l-.176.665-.8-.841a4.487,4.487,0,0,0-3.645-1.5l-.08,1.546a2.916,2.916,0,0,1,2.612.977L56.3,35.333a.755.755,0,1,0,1.122-1.01l-.8-.865a2.692,2.692,0,0,1,.208-3.814l.136-.112a2.844,2.844,0,0,1,3.846.457L73.823,44.411a10.8,10.8,0,0,1-.8,15.223h0l-9.1,8.284a8.453,8.453,0,0,1-6.081,2.147l-18.1-.985a2.66,2.66,0,0,1-1.162-.328,1.5,1.5,0,0,1-.945.256Zm2.243-1.018a1.963,1.963,0,0,0,1,.353l18.075.977A7.643,7.643,0,0,0,63.383,67.3l9.134-8.236a10,10,0,0,0,.713-14.1L60.2,30.542a2.043,2.043,0,0,0-2.756-.353l-.072.072a1.891,1.891,0,0,0-.12,2.668l.8.865a1.562,1.562,0,0,1-.12,2.2,1.546,1.546,0,0,1-2.187-.12l-3.742-4.142a2.1,2.1,0,0,0-2.331-.617,1.29,1.29,0,0,0-.409.232h0a1.851,1.851,0,0,0-.7,1.234v.32a.8.8,0,0,0,0,.136,1.851,1.851,0,0,0,.465,1.074L52.879,38.4a1.6,1.6,0,0,1,.4,1.034h0a.176.176,0,0,1,0,.064.946.946,0,0,1,0,.216,1.6,1.6,0,0,1-.481.865h0a1.6,1.6,0,0,1-2.179-.088h0l-5.288-5.865a2.035,2.035,0,0,0-2.756-.353,1.891,1.891,0,0,0-.681,1.306.874.874,0,0,0,0,.144,1.923,1.923,0,0,0,.5,1.29l5.416,6.017a1.522,1.522,0,0,1,.353,1.034h0v.088a1.883,1.883,0,0,1,0,.3,1.6,1.6,0,0,1-.473.8,1.538,1.538,0,0,1-2.2-.128L30.886,28.939a2.035,2.035,0,0,0-2.756-.345,1.859,1.859,0,0,0-.681,1.306.729.729,0,0,0,0,.136,1.923,1.923,0,0,0,.5,1.29l24.5,27.241a3.79,3.79,0,0,1,.993,2.66v.112a3.878,3.878,0,0,1-4.006,3.67l-9.27-.5a2,2,0,0,0-2.075,1.354,1.4,1.4,0,0,0-.072.457v.08a1.851,1.851,0,0,0,.441,1.25,2.22,2.22,0,0,0,.32.288Zm-2.724.168,1.6.088a.465.465,0,0,0,.184,0h0a2.668,2.668,0,0,1-.7-1.811v-.1a2.259,2.259,0,0,1,.112-.689,2.788,2.788,0,0,1,2.884-1.9l9.262.5a3.069,3.069,0,0,0,3.2-2.908v-.152a3.037,3.037,0,0,0-.8-2.043L27.3,31.84a2.7,2.7,0,0,1-.705-1.827,1.675,1.675,0,0,1,0-.2,2.74,2.74,0,0,1,.993-1.883,2.852,2.852,0,0,1,3.854.457L46.053,44.571a.745.745,0,0,0,1.306-.449.753.753,0,0,0-.144-.5v-.048L41.8,37.552a2.74,2.74,0,0,1-.705-1.835,1.547,1.547,0,0,1,0-.192,2.724,2.724,0,0,1,.961-1.875,2.852,2.852,0,0,1,3.854.457l5.272,5.857a.757.757,0,0,0,1.306-.353v-.12h0a.8.8,0,0,0-.184-.5h0l-3.862-4.278a2.564,2.564,0,0,1-.665-1.434h-.064a1.45,1.45,0,0,1-.489-.337,1.146,1.146,0,0,1-.16-.184,1.506,1.506,0,0,1-.288-.985l.056-1.034a4.134,4.134,0,0,0-.481,1.146h0l-.12.513-.457-.256a4.15,4.15,0,0,0-6.017,2.315l-.216.665L32.6,27.409a4.31,4.31,0,0,0-5.913-.6,4.2,4.2,0,0,0-.625,5.9l.16.192,24.5,27.193a1.522,1.522,0,0,1,.409,1.042,1.6,1.6,0,0,1-.16.673,1.5,1.5,0,0,1-1.466.857l-9.27-.489a4.326,4.326,0,0,0-4.407,3.013,4.158,4.158,0,0,0-.168.993v.184a4.118,4.118,0,0,0,.393,1.739ZM47.68,29.644l-.1,2.083a.8.8,0,0,0,.136.473l.072.088a2.668,2.668,0,0,1,.961-1.554,2.131,2.131,0,0,1,.409-.272l.088-1.618a3.95,3.95,0,0,0-1.426.729h0Z"/><path class="a" d="M29.452,23.043h0A1.058,1.058,0,0,1,29,21.632h0l.481-.937h0a1.05,1.05,0,1,1,1.875.937l-.481.945h0a1.058,1.058,0,0,1-1.418.457Z"/><path class="a" d="M25.39,22.362h0a1.05,1.05,0,0,1-.569-.8l-.288-2.083h0a1.053,1.053,0,1,1,2.083-.312h0l.3,2.091h0a1.05,1.05,0,0,1-.9,1.178.994.994,0,0,1-.625-.072Z"/><path class="a" d="M21.632,24.14h0a.969.969,0,0,1-.288-.224L19.9,22.378h0a1.058,1.058,0,0,1,1.546-1.442l1.434,1.546h0a1.058,1.058,0,0,1-1.25,1.658Z"/><path class="a" d="M17.57,27.289h0a1.058,1.058,0,0,1,.7-1.971l2.067.441h0a1.053,1.053,0,1,1-.441,2.059l-2.059-.441h0A1.026,1.026,0,0,1,17.57,27.289Z"/><path class="a" d="M18.091,32.657h0a1.058,1.058,0,0,1-.465-1.41,1.1,1.1,0,0,1,.529-.5l1.947-.8h0a1.042,1.042,0,0,1,1.378.553,1.058,1.058,0,0,1-.561,1.386l-1.939.8h0a1.05,1.05,0,0,1-.889-.032Z"/></g></g></svg>