<svg xmlns="http://www.w3.org/2000/svg" xmlns:xlink="http://www.w3.org/1999/xlink" width="80" height="80" viewBox="0 0 80 80"><defs><style>.a{fill:#005671;}.b{clip-path:url(#a);}.c{fill:#e8a815;}</style><clipPath id="a"><rect class="a" width="80" height="80" transform="translate(7782 2089)"/></clipPath></defs><g class="b" transform="translate(-7782 -2089)"><g transform="translate(7790 2089)"><g transform="translate(0 0)"><path class="a" d="M32.567,0A32.769,32.769,0,1,1,0,32.669,32.7,32.7,0,0,1,32.567,0Zm0,4.92A27.75,27.75,0,1,0,60.229,32.669,27.674,27.674,0,0,0,32.567,4.92Z"/><path class="c" d="M33.6,26.481,21.346,19.428V33.72ZM20.232,13.3l19.3,11.137a2.428,2.428,0,0,1,0,4.084L20.418,39.66A2.325,2.325,0,0,1,16.705,37.8V15.344A2.372,2.372,0,0,1,20.232,13.3Z" transform="translate(7.639 5.649)"/><path class="a" d="M4.088,56.241a2.417,2.417,0,1,1,0-4.826h8.259V49.745a2.561,2.561,0,0,1,5.113,0v1.671H61.9a2.414,2.414,0,0,1,0,4.826H17.46v1.671a2.561,2.561,0,0,1-5.113,0V56.241Z" transform="translate(0.51 19.503)"/></g></g></g></svg>