<svg xmlns="http://www.w3.org/2000/svg" xmlns:xlink="http://www.w3.org/1999/xlink" width="50" height="50" viewBox="0 0 50 50">
  <defs>
    <clipPath id="clip-path">
      <rect id="Rectangle_57916" data-name="Rectangle 57916" width="50" height="50" transform="translate(880 1800)" fill="#e8a815" stroke="#707070" stroke-width="1"/>
    </clipPath>
  </defs>
  <g id="Mask_Group_7830" data-name="Mask Group 7830" transform="translate(-880 -1800)" clip-path="url(#clip-path)">
    <g id="noun_success_1317166" transform="translate(887.549 1799.149)">
      <g id="Group_51" data-name="Group 51" transform="translate(-4.549 0.851)">
        <path id="Path_78204" data-name="Path 78204" d="M22.532,57.84a19.684,19.684,0,0,0-9.743,36.8l-4.836,6.448a.985.985,0,0,0,1.577,1.183l5.046-6.729a19.482,19.482,0,0,0,15.92.009l5.039,6.72a.986.986,0,0,0,1.577-1.183l-4.83-6.44A19.68,19.68,0,0,0,37.63,64.887l-2.8,2.8a15.908,15.908,0,1,1-2.446-2.43l2.8-2.8A19.7,19.7,0,0,0,22.532,57.84Zm0,7.88A11.855,11.855,0,1,0,32.011,70.5l-2.824,2.824a7.936,7.936,0,1,1-2.443-2.433l2.829-2.829a11.821,11.821,0,0,0-7.041-2.342Z" transform="translate(-2.831 -52.661)" fill="#005671"/>
      </g>
      <g id="noun_success_1317166-2" data-name="noun_success_1317166">
        <g id="Group_51-2" data-name="Group 51" transform="translate(-4.549 0.851)">
          <path id="Path_78204-2" data-name="Path 78204" d="M43.7,52.661a.739.739,0,0,0-.728.749v2.65l-1.033,1.032V55.872a.739.739,0,1,0-1.478,0v2.7L39.426,59.6V58.333a.739.739,0,1,0-1.477,0v2.748l-13.14,13.14a4.009,4.009,0,1,0,1.048,1.042L39.093,62.027h2.55a.739.739,0,1,0,0-1.477H40.57l.984-.984h2.6a.739.739,0,1,0,0-1.478H43.032l.983-.983h2.648a.739.739,0,1,0,0-1.478H45.493l1.2-1.2a.739.739,0,1,0-1.045-1.045l-1.2,1.2V53.41a.739.739,0,0,0-.75-.749Z" transform="translate(-2.831 -52.661)" fill="#0097a6"/>
        </g>
      </g>
    </g>
  </g>
</svg>
