<svg xmlns="http://www.w3.org/2000/svg" xmlns:xlink="http://www.w3.org/1999/xlink" width="80" height="80" viewBox="0 0 80 80">
  <defs>
    <clipPath id="clip-path">
      <rect id="Rectangle_57982" data-name="Rectangle 57982" width="80" height="80" transform="translate(7702.032 2089.032)" fill="#005671"/>
    </clipPath>
  </defs>
  <g id="Mask_Group_7871" data-name="Mask Group 7871" transform="translate(-7702.032 -2089.032)" clip-path="url(#clip-path)">
    <g id="noun_Online_Banking_2724245" data-name="noun_Online Banking_2724245" transform="translate(7702 2089)">
      <path id="Path_78857" data-name="Path 78857" d="M36.217,31.437H34.078a5.064,5.064,0,0,1,2.139-2.747V25.7a7.828,7.828,0,0,0-4.885,5.739H29.544a1.336,1.336,0,0,0,0,2.673h6.672V31.437Z" transform="translate(13.426 10.605)" fill="#0097a6"/>
      <path id="Path_78858" data-name="Path 78858" d="M29.544,18.371h1.788a7.827,7.827,0,0,0,4.885,5.739V21.118a5.064,5.064,0,0,1-2.139-2.747h2.139V15.7H29.544a1.336,1.336,0,1,0,0,2.673Z" transform="translate(13.426 5.02)" fill="#0097a6"/>
      <path id="Path_78859" data-name="Path 78859" d="M23.876,19.769V18.147a1.336,1.336,0,0,0-2.673,0v1.592a4,4,0,0,0-.892,7.224l2.977,1.823a1.333,1.333,0,0,1,.633,1.13v.243A1.328,1.328,0,0,1,22.6,31.484H22.4a1.328,1.328,0,0,1-1.328-1.325v-.075a1.336,1.336,0,0,0-2.673,0v.075a4,4,0,0,0,2.857,3.829v1.955a1.336,1.336,0,1,0,2.673,0v-2.02a4,4,0,0,0,2.663-3.763v-.243a4.023,4.023,0,0,0-1.91-3.409l-2.977-1.823a1.325,1.325,0,0,1,.694-2.456h.193a1.328,1.328,0,0,1,1.327,1.326V24.2a1.336,1.336,0,0,0,2.673,0v-.648A4,4,0,0,0,23.876,19.769Z" transform="translate(7.949 5.641)" fill="#0097a6"/>
      <path id="Path_78860" data-name="Path 78860" d="M36.075,57.759a1.871,1.871,0,0,0,1.871-1.871V9.007a1.871,1.871,0,0,0-3.742,0V55.889A1.871,1.871,0,0,0,36.075,57.759Z" transform="translate(16.775 0.238)" fill="#0097a6"/>
      <path id="Path_78861" data-name="Path 78861" d="M72.472,2.076H36.127a9.064,9.064,0,0,0-9.056,9.051V17.28H6.392a4.51,4.51,0,0,0-4.506,4.5v26.98a4.51,4.51,0,0,0,4.506,4.5H27.07V72.076a9.064,9.064,0,0,0,9.056,9.051H72.472a9.064,9.064,0,0,0,9.056-9.051V11.128A9.064,9.064,0,0,0,72.472,2.076Zm5.315,70a5.318,5.318,0,0,1-5.315,5.31H36.127a5.318,5.318,0,0,1-5.315-5.31V53.267H50.918V49.526H29.241a1.5,1.5,0,0,0-.6,0H6.392a.764.764,0,0,1-.764-.762V21.784a.765.765,0,0,1,.764-.763H50.918V17.279H30.812V11.127a5.318,5.318,0,0,1,5.315-5.31H72.472a5.318,5.318,0,0,1,5.315,5.31Z" transform="translate(-1.886 -2.076)" fill="#005671"/>
      <path id="Path_78862" data-name="Path 78862" d="M15.226,18.371h1.787a1.336,1.336,0,1,0,0-2.673H7.134A1.336,1.336,0,0,0,5.8,17.035V38.357a1.336,1.336,0,0,0,1.336,1.336h9.879a1.336,1.336,0,1,0,0-2.673H15.226A7.992,7.992,0,0,0,8.47,30.773V24.619A7.992,7.992,0,0,0,15.226,18.371Zm-6.756,0h4.01A5.343,5.343,0,0,1,8.47,21.9V18.371Zm4.01,18.65H8.47V33.488A5.343,5.343,0,0,1,12.48,37.021Z" transform="translate(0.91 5.02)" fill="#0097a6"/>
      <path id="Path_78863" data-name="Path 78863" d="M36.992,42.094a4.116,4.116,0,1,0,4.118,4.116A4.122,4.122,0,0,0,36.992,42.094Zm0,5.56a1.444,1.444,0,1,1,1.446-1.444A1.446,1.446,0,0,1,36.992,47.654Z" transform="translate(16.033 19.762)" fill="#0097a6"/>
    </g>
  </g>
</svg>
