<svg xmlns="http://www.w3.org/2000/svg" width="20.477" height="20" viewBox="0 0 20.477 20"><defs><style>.a{fill:rgba(253,73,198,0.35);opacity:0;}.b{fill:none;stroke:#fff;stroke-linecap:round;stroke-linejoin:round;stroke-width:1.667px;}</style></defs><rect class="a" width="20" height="20"/><g transform="translate(1.309 3.333)"><path class="b" d="M18.783,5.35a2.316,2.316,0,0,0-1.616-1.667A60.022,60.022,0,0,0,10,3.333a54.752,54.752,0,0,0-7.167.384A2.315,2.315,0,0,0,1.217,5.383,24.145,24.145,0,0,0,.833,9.792a24.132,24.132,0,0,0,.384,4.441,2.316,2.316,0,0,0,1.616,1.6A54.752,54.752,0,0,0,10,16.217a54.752,54.752,0,0,0,7.167-.384,2.315,2.315,0,0,0,1.616-1.666,24.131,24.131,0,0,0,.384-4.375A24.143,24.143,0,0,0,18.783,5.35Z" transform="translate(-0.833 -3.333)"/><path class="b" d="M8.125,12.517l4.792-2.725L8.125,7.067Z" transform="translate(-0.833 -3.333)"/></g></svg>