<?xml version="1.0" encoding="utf-8"?>
<!-- Generator: Adobe Illustrator 25.4.1, SVG Export Plug-In . SVG Version: 6.00 Build 0)  -->
<svg version="1.1" id="Layer_1" xmlns="http://www.w3.org/2000/svg" xmlns:xlink="http://www.w3.org/1999/xlink" x="0px" y="0px"
	 viewBox="0 0 438 438" style="enable-background:new 0 0 438 438;" xml:space="preserve">
<style type="text/css">
	.st0{fill:#FFFFFF;}
	.st1{fill:#FFCC04;}
	.st2{fill:#026890;}
	.st3{fill:#EC2227;}
</style>
<g id="g3757">
	<g id="g3741">
		<path id="rect3737" class="st0" d="M0.8,0.4h437.3v437.3H0.8V0.4z"/>
		<path id="rect3739" class="st1" d="M22.1,21.7h394.7v394.7H22.1V21.7z"/>
	</g>
	<g id="g3745">
		<path id="path3743" class="st2" d="M404.4,217.9c0,42.1-82.8,76.3-185,76.3c-102.2,0-185-34.1-185-76.3s82.8-76.3,185-76.3
			C321.6,141.6,404.4,175.8,404.4,217.9"/>
	</g>
	<g id="g3755">
		<path id="polygon3747" class="st0" d="M150.7,179.3v44.4l20.1-44.4h31.5l-19.1,76.3h-20.1l11.5-49.2l-23.9,49.2h-16.2v-49.2
			L122,255.5h-21l19.1-76.3H150.7z"/>
		<path id="polygon3749" class="st3" d="M233.3,245.9l-2.9,10.6h-22l2.9-10.6H233.3z"/>
		<path id="polygon3751" class="st0" d="M298.8,179.3l9.6,40.6l10.5-40.6h20.1l-19.1,76.3h-21L288.3,214l-10.5,41.5h-20.1l19.1-76.3
			H298.8z"/>
		<path id="polygon3753" class="st1" d="M223.8,198.6L213,240.5h22l10.8-41.9h20.1l4.8-19.3h-62.1l-4.8,19.3H223.8z"/>
	</g>
</g>
</svg>
