<svg id="Layer_1" data-name="Layer 1" xmlns="http://www.w3.org/2000/svg" viewBox="0 0 278.07 276.82"><defs><style>.cls-1{fill:#ee3431;}.cls-2{fill:#fff;}</style></defs><path class="cls-1" d="M242.39,103.56a50,50,0,0,1,15.2,2.38V133.6l-.75-.69a16.45,16.45,0,0,0-2.85-2.06,25.34,25.34,0,0,0-3.59-1.72,26.72,26.72,0,0,0-4-1.19,18.05,18.05,0,0,0-4.05-.47,24.85,24.85,0,0,0-9.89,2,25.19,25.19,0,0,0-13.39,13.33,25.35,25.35,0,0,0,0,19.69A25.1,25.1,0,0,0,232.5,175.8a24.68,24.68,0,0,0,9.89,2,25.29,25.29,0,0,0,17.92-7.26,23.92,23.92,0,0,0,5.39-8,25.08,25.08,0,0,0,2-9.94V110.45a49.7,49.7,0,1,1-25.27-6.89" transform="translate(-13.97 -14.59)"/><path class="cls-1" d="M253.11,163.3a15.5,15.5,0,0,1-4.83,3.23,14.74,14.74,0,0,1-11.79,0,15.21,15.21,0,0,1-8.08-8,14.65,14.65,0,0,1,0-11.75,15.3,15.3,0,0,1,8.08-8,14.91,14.91,0,0,1,11.79,0,15.7,15.7,0,0,1,4.83,3.24,15.44,15.44,0,0,1,3.25,4.79,14.87,14.87,0,0,1,0,11.75,15.25,15.25,0,0,1-3.25,4.8" transform="translate(-13.97 -14.59)"/><path class="cls-2" d="M267.66,152.64V110.45a50.14,50.14,0,0,0-10.07-4.52V133.6l-.75-.69a17,17,0,0,0-2.85-2.06,26.93,26.93,0,0,0-3.58-1.72,27.21,27.21,0,0,0-4-1.19,18.05,18.05,0,0,0-4.05-.47,24.68,24.68,0,0,0-9.89,2,25,25,0,0,0-13.39,13.32,25.37,25.37,0,0,0,0,19.7A25.13,25.13,0,0,0,232.5,175.8a24.68,24.68,0,0,0,9.89,2,25.23,25.23,0,0,0,17.92-7.25,24.06,24.06,0,0,0,5.39-8,24.89,24.89,0,0,0,2-9.93m-10.07,0a14.21,14.21,0,0,1-1.23,5.85,15,15,0,0,1-3.25,4.8,15.36,15.36,0,0,1-4.83,3.24,14.74,14.74,0,0,1-11.79,0,15.18,15.18,0,0,1-8.08-8,14.37,14.37,0,0,1-1.23-5.85,14.53,14.53,0,0,1,1.23-5.89,15.55,15.55,0,0,1,3.25-4.79,15.7,15.7,0,0,1,4.83-3.24,14.91,14.91,0,0,1,11.79,0,15.59,15.59,0,0,1,4.83,3.24,15.32,15.32,0,0,1,3.25,4.79,14.36,14.36,0,0,1,1.23,5.89" transform="translate(-13.97 -14.59)"/><path class="cls-1" d="M153,14.59A49.44,49.44,0,1,0,202.67,64,49.56,49.56,0,0,0,153,14.59" transform="translate(-13.97 -14.59)"/><path class="cls-2" d="M170.9,46.22a25.37,25.37,0,0,0-8-5.42,25.69,25.69,0,0,0-19.78,0,25.37,25.37,0,0,0-8,5.42,25.76,25.76,0,0,0-5.4,8,25.35,25.35,0,0,0,0,19.69,25.28,25.28,0,0,0,13.4,13.32,25.57,25.57,0,0,0,19.78,0,25.15,25.15,0,0,0,13.38-13.32,25.35,25.35,0,0,0,0-19.69,26.17,26.17,0,0,0-5.38-8M167,69.92a15.25,15.25,0,0,1-3.25,4.8A15.7,15.7,0,0,1,158.89,78a14.83,14.83,0,0,1-11.78,0A15.38,15.38,0,0,1,139,69.92a15,15,0,0,1,0-11.79,15.35,15.35,0,0,1,8.09-8.07,14.94,14.94,0,0,1,11.78,0,15.7,15.7,0,0,1,4.83,3.26A15.3,15.3,0,0,1,167,58.13a14.82,14.82,0,0,1,0,11.79" transform="translate(-13.97 -14.59)"/><path class="cls-1" d="M242.39,14.59A49.44,49.44,0,1,0,292,64a49.55,49.55,0,0,0-49.64-49.43" transform="translate(-13.97 -14.59)"/><path class="cls-2" d="M260.27,46.22a25,25,0,0,0-8-5.42,25.67,25.67,0,0,0-19.77,0,25.64,25.64,0,0,0-8,5.42,26.05,26.05,0,0,0-5.38,8,25.35,25.35,0,0,0,0,19.69A25.13,25.13,0,0,0,232.5,87.24a25.55,25.55,0,0,0,19.77,0,25.19,25.19,0,0,0,13.4-13.32,25.35,25.35,0,0,0,0-19.69,26.23,26.23,0,0,0-5.4-8m-3.91,23.7A15.31,15.31,0,0,1,248.28,78a14.85,14.85,0,0,1-11.79,0,15.4,15.4,0,0,1-8.08-8.06,14.74,14.74,0,0,1,0-11.79,15.38,15.38,0,0,1,8.08-8.07,15,15,0,0,1,11.79,0,15.28,15.28,0,0,1,8.08,8.07,14.82,14.82,0,0,1,0,11.79" transform="translate(-13.97 -14.59)"/><path class="cls-1" d="M63.63,192.54h0a49.44,49.44,0,1,0,0,98.87h0a49.44,49.44,0,1,0,0-98.87Z" transform="translate(-13.97 -14.59)"/><path class="cls-2" d="M81.51,224.17a25.25,25.25,0,0,0-8-5.41,25.27,25.27,0,0,0-27.79,5.41,25.94,25.94,0,0,0-5.38,8,24.32,24.32,0,0,0-2,9.84,24.68,24.68,0,0,0,2,9.84,25.25,25.25,0,0,0,13.4,13.33,25.6,25.6,0,0,0,19.79,0,25.47,25.47,0,0,0,8-5.37,25.76,25.76,0,0,0,5.4-8,25.32,25.32,0,0,0,0-19.68,26.71,26.71,0,0,0-5.4-8m-3.91,23.7a15.47,15.47,0,0,1-8.09,8.06,14.85,14.85,0,0,1-11.79,0,15.31,15.31,0,0,1-8.08-8.06,14.77,14.77,0,0,1-1.22-5.9,14.6,14.6,0,0,1,1.22-5.88,16.17,16.17,0,0,1,3.25-4.82A15.67,15.67,0,0,1,57.72,228a14.91,14.91,0,0,1,11.79,0,16,16,0,0,1,4.82,3.26,15.57,15.57,0,0,1,3.27,4.82,15,15,0,0,1,0,11.78" transform="translate(-13.97 -14.59)"/><path class="cls-1" d="M153,192.54h0a49.44,49.44,0,1,0,0,98.87h0a49.44,49.44,0,1,0,0-98.87Z" transform="translate(-13.97 -14.59)"/><path class="cls-2" d="M170.88,224.17a25.24,25.24,0,0,0-35.76,0,26,26,0,0,0-5.4,8,25.32,25.32,0,0,0,0,19.68,25.25,25.25,0,0,0,13.4,13.33,25.57,25.57,0,0,0,19.78,0,25.13,25.13,0,0,0,13.38-13.33,25.32,25.32,0,0,0,0-19.68,26,26,0,0,0-5.4-8M167,247.87a15.25,15.25,0,0,1-3.25,4.8,15.52,15.52,0,0,1-4.83,3.26,14.52,14.52,0,0,1-5.89,1.22,14.35,14.35,0,0,1-5.89-1.22,15.38,15.38,0,0,1-8.09-8.06,14.59,14.59,0,0,1-1.21-5.9,14.43,14.43,0,0,1,1.21-5.88,16.2,16.2,0,0,1,3.26-4.82,15.67,15.67,0,0,1,4.83-3.25A14.52,14.52,0,0,1,153,226.8a14.68,14.68,0,0,1,5.89,1.21,15.87,15.87,0,0,1,4.83,3.26,15.34,15.34,0,0,1,3.25,4.82,14.8,14.8,0,0,1,0,11.78" transform="translate(-13.97 -14.59)"/><path class="cls-1" d="M242.39,192.54h0a49.44,49.44,0,1,0,0,98.87h0a49.44,49.44,0,1,0,0-98.87Z" transform="translate(-13.97 -14.59)"/><path class="cls-1" d="M63.63,14.59A49.44,49.44,0,1,0,113.28,64,49.54,49.54,0,0,0,63.63,14.59" transform="translate(-13.97 -14.59)"/><path class="cls-1" d="M63.61,103.57A49.43,49.43,0,1,0,113.28,153a49.54,49.54,0,0,0-49.67-49.43" transform="translate(-13.97 -14.59)"/><path class="cls-2" d="M74.41,142.13a15.92,15.92,0,0,1,3.26,4.8,14.63,14.63,0,0,1,1,3.23h10.2A24.47,24.47,0,0,0,87,143a25.22,25.22,0,0,0-13.39-13.32,24.81,24.81,0,0,0-9.9-2,25.22,25.22,0,0,0-9.89,2,25.54,25.54,0,0,0-8,5.33,24.45,24.45,0,0,0-5.38,8,25.07,25.07,0,0,0-1.95,9.94v23.89H48.49V152.11h0a14.51,14.51,0,0,1,1.19-5.18,15.46,15.46,0,0,1,8.07-8.05,15.15,15.15,0,0,1,11.82,0,16.12,16.12,0,0,1,4.81,3.25" transform="translate(-13.97 -14.59)"/><path class="cls-1" d="M153,103.57A49.43,49.43,0,1,0,202.67,153,49.56,49.56,0,0,0,153,103.57" transform="translate(-13.97 -14.59)"/><path class="cls-2" d="M176.42,143.7a26.33,26.33,0,0,0-5.06-8.23,24.28,24.28,0,0,0-7.89-5.68A25.1,25.1,0,0,0,153,127.66a24.84,24.84,0,0,0-9.9,2,26.06,26.06,0,0,0-8,5.36,25.26,25.26,0,0,0-5.38,8,25.52,25.52,0,0,0,0,19.71,25.38,25.38,0,0,0,5.38,8,26.06,26.06,0,0,0,8,5.36,24.67,24.67,0,0,0,9.9,2,29.3,29.3,0,0,0,7.78-1.07,23.38,23.38,0,0,0,13.13-9.38,30.63,30.63,0,0,0,4-8.44h-11.1a14.27,14.27,0,0,1-5.15,6.37,15.64,15.64,0,0,1-19.19-1.68,15.82,15.82,0,0,1-3.33-4.56,13.84,13.84,0,0,1-1.35-5.64l0-.46h40.57a28.94,28.94,0,0,0-1.9-9.42m-36.83.8.42-.67c2.46-4,6.84-6.14,13-6.33h0c6.07.07,10.39,2.2,12.87,6.34l.39.66Z" transform="translate(-13.97 -14.59)"/></svg>