<?xml version="1.0" encoding="utf-8"?>
<!-- Generator: Adobe Illustrator 25.4.1, SVG Export Plug-In . SVG Version: 6.00 Build 0)  -->
<svg version="1.1" id="Layer_1" xmlns="http://www.w3.org/2000/svg" xmlns:xlink="http://www.w3.org/1999/xlink" x="0px" y="0px"
	 viewBox="0 0 450 170" style="enable-background:new 0 0 450 170;" xml:space="preserve">
<style type="text/css">
	.st0{fill:#00B4EB;}
	.st1{fill:#0056A2;}
	.st2{fill:#50B748;}
</style>
<g>
	<g>
		<g>
			<g>
				<path class="st0" d="M40.1,60.3c-0.8,0-1.5-0.2-2.2-0.7c-2.1-1.2-3-4-1.6-6.1l21.5-37.2c1.2-2.1,4-3,6.1-1.6
					c2.1,1.2,3,4,1.6,6.1L44.1,58.1C43.2,59.4,41.7,60.3,40.1,60.3z"/>
			</g>
		</g>
		<g>
			<g>
				<path class="st1" d="M40.1,96.2c-0.8,0-1.5-0.2-2.2-0.7c-2.2-1.2-3-4-1.8-6.1l21.5-37.2c1.2-2.1,4-3,6.1-1.6
					c2.1,1.2,3,4,1.6,6.1L44,93.9C43.2,95.4,41.7,96.2,40.1,96.2z"/>
			</g>
		</g>
		<g>
			<g>
				<path class="st2" d="M75.6,96.2c-0.8,0-1.5-0.2-2.3-0.7c-2.1-1.2-3-4-1.6-6.1l21.5-37.2c1.2-2.1,4-3,6.1-1.6
					c2.1,1.2,3,4,1.6,6.1L79.5,93.9C78.8,95.4,77.2,96.2,75.6,96.2z"/>
			</g>
		</g>
		<g>
			<g>
				<circle class="st2" cx="74.3" cy="63.5" r="4.5"/>
			</g>
		</g>
	</g>
	<g>
		<g>
			<path class="st1" d="M117.3,107.6c-4.2-1.2-7.8-2.3-7.8-5.3s3.7-3.2,5.3-3.2c3.2,0,7.6,1.4,11.3,3.6l0.4,0.2l3.3-7l-0.2-0.2
				c-3.8-2.5-9.2-4.2-14.1-4.2c-8.9,0-14.7,4.4-14.7,11.4c0,8,7,10.1,12.6,11.6c4.3,1.2,7.9,2.3,7.9,5.4c0,2.4-2.2,3.8-6.1,3.8
				c-4.1,0-9.2-2.2-13-5.6l-0.4-0.3l-3.4,7l0.2,0.2c4.4,3.8,10.5,6.3,16.6,6.3c9.2,0,15.2-4.6,15.2-11.7
				C130,111.5,123,109.3,117.3,107.6z"/>
		</g>
		<g>
			<polygon class="st1" points="143.4,123.6 143.4,91.9 135.3,91.9 135.3,131 160,131 160,123.6 			"/>
		</g>
		<g>
			<polygon class="st1" points="185.8,91.9 157,91.9 157,99.3 169,99.3 169,131 177.2,131 177.2,99.3 189.4,99.3 			"/>
		</g>
		<g>
			<path class="st2" d="M244.3,91.7c-11.9,0-20.9,8.5-20.9,19.8c0,11.1,9.2,19.9,20.9,19.9c11.6,0,20.9-8.8,20.9-19.9
				C265.2,100.3,256.2,91.7,244.3,91.7z M244.3,124c-7,0-12.6-5.6-12.6-12.5c0-6.8,5.7-12.4,12.6-12.4c6.8,0,12.4,5.6,12.4,12.4
				C256.7,118.4,251.2,124,244.3,124z"/>
		</g>
		<g>
			<path class="st2" d="M295.5,110.4c3.4-1.4,5.6-4.5,5.6-8.3c0-6.1-5.2-10-13.6-10H270v39.1h17.9c9,0,14.6-4.3,14.6-11
				C302.4,115.3,299.8,111.7,295.5,110.4z M286.9,107.5H278v-8.5h8.9h0.2c3.4,0,5.5,1.5,5.5,4.2C292.6,106,290.5,107.5,286.9,107.5z
				 M278.1,114.6h9.1c4.3,0,6.8,1.6,6.8,4.6c0,1.5-0.7,2.6-1.8,3.4c-1.1,0.8-3,1.3-5.2,1.3l0,0H278L278.1,114.6L278.1,114.6z"/>
		</g>
		<g>
			<rect x="307.9" y="91.9" class="st2" width="8.2" height="39.2"/>
		</g>
		<g>
			<polygon class="st2" points="319.5,91.9 319.5,99.3 331.5,99.3 331.5,131 339.7,131 339.7,99.3 351.7,99.3 351.7,91.9 			"/>
		</g>
		<g>
			<polygon class="st2" points="363.4,123.8 363.4,115.1 382,115.1 382,107.8 363.4,107.8 363.4,99.2 384.1,99.2 384.1,91.9 
				355.2,91.9 355.2,131 384.9,131 384.9,123.8 			"/>
		</g>
		<g>
			<polygon class="st2" points="397.9,123.6 397.9,91.9 389.7,91.9 389.7,131 414.4,131 414.4,123.6 			"/>
		</g>
		<g>
			<polygon class="st2" points="209.5,91.9 197.8,116 192,104.3 183.9,104.3 195.1,127.2 200.4,127.2 211.1,105.2 211.2,131 
				218.6,131 218.6,91.9 			"/>
		</g>
	</g>
	<g>
		<g>
			<path class="st1" d="M179.5,143.4v1.9h-4v10.6h-2.1v-10.6h-4v-1.9H179.5z"/>
			<path class="st1" d="M192.2,150.2v5.7h-2.1v-5.2c0-1.4-0.9-2.3-2.3-2.3c-1.6,0-2.7,1.3-2.7,3v4.4H183v-12.5h2.1v5.2
				c0.7-1.3,1.9-2,3.5-2C190.9,146.6,192.2,148,192.2,150.2z"/>
			<path class="st1" d="M206,151.9h-7.1c0.3,1.5,1.4,2.4,3,2.4c1.1,0,2-0.3,2.6-1.1l1.1,1.1c-1,1-2.3,1.5-3.8,1.5
				c-3,0-4.8-2-4.8-4.7c0-3,2-4.8,4.7-4.8C204.8,146.4,206.2,148.6,206,151.9z M204.1,150.5c-0.1-1.5-1.1-2.5-2.6-2.5
				s-2.5,1-2.9,2.5H204.1z"/>
			<path class="st1" d="M224.5,145.3c-2.5,0-4.4,2-4.4,4.4c0,2.5,2,4.4,4.4,4.4c1.2,0,2.5-0.5,3.4-1.5l1.2,1.4
				c-1.2,1.2-3.1,2.1-4.8,2.1c-3.6,0-6.5-2.7-6.5-6.4c0-3.5,2.9-6.3,6.6-6.3c1.8,0,3.5,0.7,4.7,2l-1.2,1.5
				C227.1,145.8,225.8,145.3,224.5,145.3z"/>
			<path class="st1" d="M242.7,151.1c0,3-2.1,4.8-4.9,4.8s-4.9-2-4.9-4.8s2.1-4.7,4.9-4.7C240.7,146.4,242.7,148.2,242.7,151.1z
				 M234.8,151.2c0,1.9,1.1,3.1,3,3.1c1.6,0,3-1.2,3-3.1s-1.2-3.1-3-3.1C236.1,148.1,234.8,149.3,234.8,151.2z"/>
			<path class="st1" d="M256.5,150v5.9h-2.1v-5.3c0-1.4-0.9-2.3-2.3-2.3c-1.5,0-2.5,1.1-2.6,2.5v5.1h-2.1v-9.4h2.1v1.9
				c0.7-1.3,1.9-1.9,3.5-1.9C255.2,146.4,256.5,147.8,256.5,150z"/>
			<path class="st1" d="M271,150v5.9h-2.1v-5.3c0-1.4-0.9-2.3-2.3-2.3c-1.5,0-2.5,1.1-2.6,2.5v5.1h-2.1v-9.4h2.1v1.9
				c0.7-1.3,1.9-1.9,3.5-1.9C269.7,146.4,271,147.8,271,150z"/>
			<path class="st1" d="M284.8,151.9h-7.1c0.3,1.5,1.4,2.4,3,2.4c1.1,0,2-0.3,2.6-1.1l1.1,1.1c-1,1-2.3,1.5-3.8,1.5
				c-3,0-4.8-2-4.8-4.7c0-3,2-4.8,4.7-4.8C283.7,146.4,285.1,148.6,284.8,151.9z M283.1,150.5c-0.1-1.5-1.1-2.5-2.6-2.5
				c-1.5,0-2.5,1-2.7,2.5H283.1z"/>
			<path class="st1" d="M293.7,148.1c-1.6,0-2.9,1.2-2.9,3c0,1.8,1.1,3,2.9,3c1.1,0,2.1-0.3,2.9-1.1l1.1,1.1
				c-0.9,1.1-2.2,1.8-4.1,1.8c-2.9,0-4.7-2-4.7-4.7c0-3,2-4.8,4.7-4.8c1.6,0,3,0.5,3.8,1.5l-1.1,1.3
				C295.7,148.6,294.7,148.1,293.7,148.1z"/>
			<path class="st1" d="M307.8,155.3c-0.7,0.4-1.5,0.7-2.3,0.7c-1.4,0-2.6-0.8-2.6-2.7v-4.9h-1.3v-1.5h1.3v-2.5h2.1v2.5h2.9v1.5
				h-2.9v4.5c0,1,0.3,1.3,1.1,1.3c0.4,0,0.9-0.2,1.4-0.4L307.8,155.3z"/>
			<path class="st1" d="M314.6,144.6c0,0.7-0.5,1.2-1.2,1.2c-0.7,0-1.2-0.5-1.2-1.2s0.5-1.2,1.2-1.2
				C314,143.4,314.6,143.8,314.6,144.6z M314.4,147.4v8.6h-2.1v-8.6H314.4z"/>
			<path class="st1" d="M329.1,151.1c0,3-2.1,4.8-4.9,4.8s-4.9-2-4.9-4.8s2.1-4.7,4.9-4.7C327.1,146.4,329.1,148.2,329.1,151.1z
				 M321.3,151.2c0,1.9,1.2,3.1,3,3.1c1.8,0,3-1.2,3-3.1s-1.2-3.1-3-3.1C322.4,148.1,321.3,149.3,321.3,151.2z"/>
			<path class="st1" d="M343,150v5.9h-2.1v-5.3c0-1.4-0.9-2.3-2.3-2.3c-1.5,0-2.5,1.1-2.6,2.5v5.1h-2.1v-9.4h2.1v1.9
				c0.7-1.3,1.9-1.9,3.5-1.9C341.7,146.4,343,147.8,343,150z"/>
		</g>
	</g>
</g>
</svg>
