<svg xmlns="http://www.w3.org/2000/svg" width="571.532" height="401.293" viewBox="0 0 571.532 401.293">
  <g id="Group_1789" data-name="Group 1789" transform="translate(-22.419 -103.072)">
    <g id="Group_1147" data-name="Group 1147" transform="translate(46.331 112.339)">
      <path id="Path_80131" data-name="Path 80131" d="M254.941,178.466c-19-68.93-104.628-91.136-153.7-39.621q-1.059,1.111-2.113,2.257c-70.352,76.475-37.117,264.933,109.7,312.7s299.538-39.459,308.118-117.432S457.794,233.895,352.675,255.7C293.284,268.017,266.77,221.376,254.941,178.466Z" transform="translate(-36.584 -110.568)" fill="#e1e9eb"/>
      <path id="Path_80132" data-name="Path 80132" d="M320.747,175.437c-19.644,3.2-25.089,20.6-9.92,32.949,5.013,4.081,12.172,7.471,22.371,9.163C372.053,224,392.67,206.8,377.1,184.516,367.483,170.761,340.215,172.268,320.747,175.437Z" transform="translate(19.747 -95.749)" fill="#e2f0f5"/>
      <path id="Path_80133" data-name="Path 80133" d="M78.236,291.376c-9.645-17.409-27.865-16.654-34.363,1.793-2.147,6.1-2.92,13.982-1.067,24.153,7.058,38.748,30.2,52.346,45.92,30.159C98.426,333.785,87.8,308.629,78.236,291.376Z" transform="translate(-41.761 -70.819)" fill="#bbcace" opacity="0.407"/>
      <path id="Path_80134" data-name="Path 80134" d="M441.578,304.9c-1.81,9.473,6.013,16.184,14.877,12.533a18.757,18.757,0,0,0,8.513-7.623c10.015-15.579,4.943-28.942-9-27.571C447.36,283.082,443.371,295.508,441.578,304.9Z" transform="translate(52.637 -70.033)" fill="#e2f0f5"/>
      <path id="Path_80135" data-name="Path 80135" d="M405.653,225.187c9.441,1.971,16.284-5.736,12.785-14.661a18.759,18.759,0,0,0-7.477-8.643c-15.406-10.278-28.854-5.435-27.721,8.531C383.94,219.034,396.3,223.235,405.653,225.187Z" transform="translate(38.9 -90.294)" fill="#e2f0f5"/>
      <path id="Path_80136" data-name="Path 80136" d="M218.376,143.781c7.476,6.095,17.1,2.4,18.1-7.132a18.761,18.761,0,0,0-2.66-11.114c-8.948-16.215-23.117-18.1-28.537-5.184C201.932,128.326,210.969,137.742,218.376,143.781Z" transform="translate(-3.299 -110.263)" fill="#e2f0f5"/>
    </g>
    <g id="Group_1158" data-name="Group 1158" transform="translate(22.419 253.018)">
      <g id="Group_1149" data-name="Group 1149" transform="translate(466.232 182.546)">
        <path id="Path_80137" data-name="Path 80137" d="M471.262,422.526a9.911,9.911,0,0,0,8.884-2.754,8.127,8.127,0,0,0,2.471-5.321v-.079c-.042-13.216,16.192-12.335,21.4-28.492s-15.384-17.518-27.151-7.542c-8.458,7.173-18.611-2.847-30.906,5.519-10.675,7.259-4.729,25.138-22.24,19.549-5.59-1.788-10.6-.064-14.823,3.105a25.068,25.068,0,0,0-9.351,14.325l1.395.985C435.482,442.989,451.045,419.149,471.262,422.526Z" transform="translate(-399.55 -372.022)" fill="#b7c0c3"/>
        <g id="Group_1148" data-name="Group 1148" transform="translate(32.608 17.979)">
          <path id="Path_80138" data-name="Path 80138" d="M430.808,418.384,476.6,388.993a1.319,1.319,0,1,0-1.425-2.219l-49.244,31.61Z" transform="translate(-425.926 -386.565)" fill="#0097a6"/>
        </g>
      </g>
      <g id="Group_1151" data-name="Group 1151" transform="translate(480.729)">
        <g id="Group_1150" data-name="Group 1150" transform="translate(18.939 11.229)">
          <path id="Path_80139" data-name="Path 80139" d="M428.183,367.12c-1.932-28.809-2.251-59.018-.106-79.048,2.8-26.168,9.137-44.384,18.833-54.142a1.651,1.651,0,0,1,2.343,2.328c-16.95,17.058-23.044,62.856-17.661,132.541Z" transform="translate(-426.597 -233.445)" fill="#0097a6"/>
        </g>
        <path id="Path_80140" data-name="Path 80140" d="M433.845,263.573s-13.8-.022-12.815-24.286C421.03,239.287,442.146,245.311,433.845,263.573Z" transform="translate(-408.985 -220.836)" fill="#c7d5d9"/>
        <path id="Path_80141" data-name="Path 80141" d="M430.451,271.733s-.747-13.782,23.536-14.147C453.987,257.586,449.146,279.005,430.451,271.733Z" transform="translate(-406.747 -216.513)" fill="#c7d5d9"/>
        <path id="Path_80142" data-name="Path 80142" d="M439.09,245.547s-5.3-12.745,17.473-21.185C456.563,224.362,459.141,246.17,439.09,245.547Z" transform="translate(-404.832 -224.362)" fill="#c7d5d9"/>
        <path id="Path_80143" data-name="Path 80143" d="M431.819,292.83s-13,4.648-20.275-18.52C411.544,274.31,433.454,272.836,431.819,292.83Z" transform="translate(-411.214 -212.567)" fill="#c7d5d9"/>
        <path id="Path_80144" data-name="Path 80144" d="M428.575,303.158s-3.119-13.446,20.735-18C449.309,285.154,448.245,307.088,428.575,303.158Z" transform="translate(-407.222 -209.999)" fill="#c7d5d9"/>
        <path id="Path_80145" data-name="Path 80145" d="M431.9,317.555s-12.905,4.894-20.622-18.132C411.277,299.423,433.155,297.535,431.9,317.555Z" transform="translate(-411.277 -206.639)" fill="#c7d5d9"/>
      </g>
      <g id="Group_1153" data-name="Group 1153" transform="translate(59.15 87.743)">
        <path id="Path_80146" data-name="Path 80146" d="M111.948,416.7l-3.761-.148-1.994-.08-5.65-.226S48.325,327.6,81.038,298.694c10.071-8.9,27.676-1.521,23.784,39.382C101.215,375.992,111.948,416.7,111.948,416.7Z" transform="translate(-70.265 -295.337)" fill="#0097a6"/>
        <g id="Group_1152" data-name="Group 1152" transform="translate(17.088 26.151)">
          <path id="Path_80147" data-name="Path 80147" d="M104.922,411.556l-1.994-.08c-9.116-21.477-13.718-44.551-16-60.746A280.649,280.649,0,0,1,84.087,317.4a.9.9,0,0,1,1.8-.014,278.394,278.394,0,0,0,2.825,33.123C91.015,366.781,95.666,390.042,104.922,411.556Z" transform="translate(-84.087 -316.49)" fill="#0097a6"/>
        </g>
      </g>
      <g id="Group_1155" data-name="Group 1155" transform="translate(0 76.154)">
        <path id="Path_80148" data-name="Path 80148" d="M133.625,436.677l-5.107,1.9-2.71,1-7.676,2.847S-1.035,353.067,26.568,296.213c8.5-17.5,36.135-17.454,53.725,39.371C96.6,388.259,133.625,436.677,133.625,436.677Z" transform="translate(-22.419 -285.962)" fill="#c7d5d9"/>
        <g id="Group_1154" data-name="Group 1154" transform="translate(25.689 36.586)">
          <path id="Path_80149" data-name="Path 80149" d="M123.609,431.581l-2.71,1c-24.149-23.62-43.154-51.887-55.23-72.254A405.869,405.869,0,0,1,43.3,317.373a1.306,1.306,0,0,1,2.4-1.024,403.389,403.389,0,0,0,22.232,42.686C80.078,379.5,99.254,407.993,123.609,431.581Z" transform="translate(-43.199 -315.557)" fill="#0097a6"/>
        </g>
      </g>
      <g id="Group_1157" data-name="Group 1157" transform="translate(453.185 94.265)">
        <path id="Path_80150" data-name="Path 80150" d="M454.358,438.272a33.489,33.489,0,0,0-.752-6.2c-4.285-19.613,7.369-23.312,22.739-29.506s17.191-24.594,6.311-39.883,8.67-27.582,1.47-50.6-32.2-7.706-37.675,13.51c-3.93,15.254-23.922,11.955-31.324,31.737-6.43,17.172,15.122,33.034-9.77,40.907-7.95,2.511-12.345,8.613-14.647,15.755a35.613,35.613,0,0,0,.9,24.28Z" transform="translate(-388.997 -300.612)" fill="#c7d5d9"/>
        <g id="Group_1156" data-name="Group 1156" transform="translate(30.873 33.867)">
          <path id="Path_80151" data-name="Path 80151" d="M418.013,431.8l41-101.216a1.873,1.873,0,1,0-3.473-1.4L413.97,431.8Z" transform="translate(-413.97 -328.007)" fill="#0097a6"/>
        </g>
      </g>
    </g>
    <g id="Group_1181" data-name="Group 1181" transform="translate(63.272 155.525)">
      <path id="Path_80152" data-name="Path 80152" d="M147.9,168.916s.862-18.222-10.221-21.722c-17.258-5.451-22.061,3.5-24.725,9.414-3.413,7.579-1.958,22.447,8.339,23.882C136.663,182.633,146.95,174.008,147.9,168.916Z" transform="translate(-42.273 -145.501)" fill="#403657"/>
      <path id="Path_80153" data-name="Path 80153" d="M159.388,227.127a18.954,18.954,0,0,0,18.554-15.065c1.322-6.323,2.615-11.921,2.615-15.066v-.082c.08-.994.125-1.988.132-2.967.117-14.379-8.747-40.641-39.927-36.466,0,0-25.872,2.952-28.817,28.235,0,0-1.226,11.664-2.041,20.11-.015.15-.03.3-.044.446a18.949,18.949,0,0,0,18.862,20.854Z" transform="translate(-42.637 -142.776)" fill="#403657"/>
      <g id="Group_1160" data-name="Group 1160" transform="translate(133.836 114.403)">
        <g id="Group_1159" data-name="Group 1159">
          <path id="Path_80154" data-name="Path 80154" d="M183.656,238.041s5.512,43.678,11.811,66.1c0,0,8.948-4.169,20.659-9.826,12.7-6.134,30.955-17.327,30.955-17.327l4.614,11.115s-47.157,44.507-62.777,47.026-25.194-53.411-25.194-53.411Z" transform="translate(-163.724 -238.041)" fill="#c7d5d9"/>
          <path id="Path_80155" data-name="Path 80155" d="M230.427,275.241s-1.3-6.2,1.481-10.406,7-12.062,11.968-13.7c4.154-1.373-1.974,5.637-2.156,10.085A69.935,69.935,0,0,0,252.353,259c3.919-1.273,11.674-2.861,15.27-3.569a.991.991,0,0,1,.859,1.706c-1.226,1.063-3.79,2.4-9.09,3.677,0,0,12.918-2.447,14.258-.467s-14.866,4.739-14.866,4.739,12.574-.744,12.9,1.229c.2,1.2-12.827,3.951-12.827,3.951s11.888.319,9.012,2.2c-.837.546-23.851,3.136-31.863,12.6C236.007,285.053,230.617,279.481,230.427,275.241Z" transform="translate(-148.036 -234.989)" fill="#ffa681"/>
        </g>
      </g>
      <g id="Group_1162" data-name="Group 1162" transform="translate(0 16.75)">
        <g id="Group_1161" data-name="Group 1161">
          <path id="Path_80156" data-name="Path 80156" d="M129.716,239.76s-26.382,7.78-49.1,12.907c0,0-.59-9.853-1.184-22.846-.645-14.088.516-35.471.516-35.471l-11.971,1.23s-16.715,62.651-11.5,77.589,71.427-5.986,71.427-5.986Z" transform="translate(-55.465 -150.71)" fill="#c7d5d9"/>
          <path id="Path_80157" data-name="Path 80157" d="M77.648,204.161s6.075-1.812,8.449-6.253,8.929-13.383,4.883-16.693c-1.477-1.208-2.543,4.065-6.368,6.342a69.9,69.9,0,0,1-3.1-10.411c-.744-4.054-3.036-11.629-4.124-15.129a.99.99,0,0,0-1.909.056c-.352,1.584-.308,4.474,1.089,9.744,0,0-3.993-12.526-6.37-12.764s2.9,15.331,2.9,15.331-5.327-11.413-7.217-10.763c-1.152.4,2.626,13.162,2.626,13.162s-5.935-10.305-6.218-6.883c-.083,1,8.587,22.471,4.077,34.021C66.363,203.92,73.828,206.009,77.648,204.161Z" transform="translate(-53.854 -159.05)" fill="#ffa681"/>
        </g>
      </g>
      <g id="Group_1167" data-name="Group 1167" transform="translate(50.63 99.537)">
        <g id="Group_1164" data-name="Group 1164" transform="translate(4.976)">
          <path id="Path_80158" data-name="Path 80158" d="M197.62,410.016l.21.933c-20.544,13.908-97.386,4.411-97.386,4.411.131-1.612.3-3.3.528-5.041.239-1.945.537-3.957.879-6.039.928-5.593,2.173-11.642,3.572-17.865.449-1.959.9-3.947,1.372-5.945,1.387-5.941,2.863-11.965,4.26-17.832.483-2.018.958-4.007,1.417-5.985.64-2.746,1.246-5.448,1.827-8.067.757-3.483,1.432-6.829,2-9.98.381-2.12.713-4.153.968-6.082.293-2.042.493-3.972.616-5.76-1.221-4.515-2.36-8.936-3.421-13.225-.527-2.183-1.045-4.318-1.553-6.429-1.579-6.757-2.966-13.186-4.177-19.21-.43-2.188-.855-4.318-1.241-6.4-1.344-7.1-2.428-13.532-3.3-19.141-.338-2.238-.655-4.323-.933-6.293-.308-2.154-.571-4.148-.8-5.955-1.031-7.953-1.387-12.463-1.387-12.463.18-.146.371-.278.566-.42a41.785,41.785,0,0,1,10.025-4.6c4.275-1.466,9-2.741,13.171-3.747.63-.152,1.251-.3,1.857-.44,5.477-1.28,9.57-2.022,9.57-2.022,18.633,3.9,23.949,1.392,23.949,1.392l9.472,2.8,1.114.391,6.9,2.423.279.1,12.379,4.358,8.257,2.9L195.4,255.563l-1.4,6.455-4.221,19.454L188.4,287.9l-4.2,19.386-1.382,6.365-3.479,16.064.694,3.067,1.359,5.955,2.155,9.469,1.958,8.565,1.349,5.935,4.055,17.857,1.354,5.9,4.02,17.651Z" transform="translate(-100.444 -225.919)" fill="#bbcace"/>
          <path id="Path_80159" data-name="Path 80159" d="M165.774,231.1c-1.983,11.647-7.63,23.363-19.37,24.629-14.182,1.534-21.536-16.256-24.735-27.184,5.477-1.28,11.152-2.531,11.152-2.531,18.633,3.9,22.228,1.526,22.228,1.526l9.611,3.17Z" transform="translate(-95.429 -226.016)" fill="#ffa681"/>
          <g id="Group_1163" data-name="Group 1163" transform="translate(31.069 0.52)">
            <path id="Path_80160" data-name="Path 80160" d="M144.04,245.848c-14.864,0-18.418-18.357-18.452-18.546a.733.733,0,0,1,1.441-.266c.136.738,3.507,18.059,17.874,17.325,12.574-.635,13.313-14.592,13.339-15.185a.732.732,0,0,1,1.464.061c-.006.159-.813,15.885-14.729,16.588Q144.5,245.848,144.04,245.848Z" transform="translate(-125.575 -226.436)" fill="#fff"/>
          </g>
          <path id="Path_80161" data-name="Path 80161" d="M120.33,238.736a3.628,3.628,0,1,1-3.628-3.627A3.628,3.628,0,0,1,120.33,238.736Z" transform="translate(-97.46 -223.868)" fill="#f5fbff"/>
          <path id="Path_80162" data-name="Path 80162" d="M114.452,253.056a3.628,3.628,0,1,1-3.628-3.627A3.629,3.629,0,0,1,114.452,253.056Z" transform="translate(-98.849 -220.484)" fill="#f5fbff"/>
          <path id="Path_80163" data-name="Path 80163" d="M133.19,259.826a3.628,3.628,0,1,1-3.627-3.628A3.627,3.627,0,0,1,133.19,259.826Z" transform="translate(-94.422 -218.885)" fill="#f5fbff"/>
          <path id="Path_80164" data-name="Path 80164" d="M120.07,267.575a3.628,3.628,0,1,1-4.715-2.024A3.627,3.627,0,0,1,120.07,267.575Z" transform="translate(-97.46 -216.737)" fill="#f5fbff"/>
          <path id="Path_80165" data-name="Path 80165" d="M145.561,273.252a3.628,3.628,0,1,1-3.628-3.628A3.628,3.628,0,0,1,145.561,273.252Z" transform="translate(-91.499 -215.713)" fill="#f5fbff"/>
          <path id="Path_80166" data-name="Path 80166" d="M164.279,279.3a3.628,3.628,0,1,1-3.628-3.628A3.628,3.628,0,0,1,164.279,279.3Z" transform="translate(-87.077 -214.284)" fill="#f5fbff"/>
          <path id="Path_80167" data-name="Path 80167" d="M168.045,241.671a3.628,3.628,0,1,1-3.627-3.628A3.628,3.628,0,0,1,168.045,241.671Z" transform="translate(-86.187 -223.175)" fill="#f5fbff"/>
          <path id="Path_80168" data-name="Path 80168" d="M146.748,291.993a3.628,3.628,0,1,1-3.628-3.627A3.628,3.628,0,0,1,146.748,291.993Z" transform="translate(-91.219 -211.285)" fill="#f5fbff"/>
          <path id="Path_80169" data-name="Path 80169" d="M128.668,301.093a3.628,3.628,0,1,1-3.628-3.627A3.628,3.628,0,0,1,128.668,301.093Z" transform="translate(-95.49 -209.135)" fill="#f5fbff"/>
          <path id="Path_80170" data-name="Path 80170" d="M126.562,284.521a3.628,3.628,0,1,1-3.628-3.628A3.628,3.628,0,0,1,126.562,284.521Z" transform="translate(-95.988 -213.051)" fill="#f5fbff"/>
          <path id="Path_80171" data-name="Path 80171" d="M155.475,260.594a3.628,3.628,0,1,1-3.628-3.628A3.627,3.627,0,0,1,155.475,260.594Z" transform="translate(-89.157 -218.704)" fill="#f5fbff"/>
          <path id="Path_80172" data-name="Path 80172" d="M171.7,256.891a3.628,3.628,0,1,1-3.628-3.627A3.628,3.628,0,0,1,171.7,256.891Z" transform="translate(-85.323 -219.578)" fill="#f5fbff"/>
          <path id="Path_80173" data-name="Path 80173" d="M161.344,296.849a3.628,3.628,0,1,1-3.628-3.628A3.628,3.628,0,0,1,161.344,296.849Z" transform="translate(-87.77 -210.138)" fill="#f5fbff"/>
          <path id="Path_80174" data-name="Path 80174" d="M162.131,320.069a3.628,3.628,0,1,1-3.627-3.627A3.627,3.627,0,0,1,162.131,320.069Z" transform="translate(-87.584 -204.652)" fill="#f5fbff"/>
          <path id="Path_80175" data-name="Path 80175" d="M147.143,310.124a3.628,3.628,0,1,1-4.715-2.024A3.627,3.627,0,0,1,147.143,310.124Z" transform="translate(-91.064 -206.684)" fill="#f5fbff"/>
          <path id="Path_80176" data-name="Path 80176" d="M127.164,318.724a3.628,3.628,0,1,1-4.715-2.024A3.629,3.629,0,0,1,127.164,318.724Z" transform="translate(-95.784 -204.652)" fill="#f5fbff"/>
        </g>
        <path id="Path_80177" data-name="Path 80177" d="M206.258,420.509l-.752-4.521-2.928-17.535-1-6.007-2.794-16.761-5.081.23-67.365,3.055L101.4,380.1l-1.6,13.035-.75,6.073L96.828,417.21l-.407,3.3Z" transform="translate(-96.418 -190.655)" fill="#d19204"/>
        <g id="Group_1166" data-name="Group 1166" transform="translate(0 122.276)">
          <g id="Group_1165" data-name="Group 1165">
            <path id="Path_80178" data-name="Path 80178" d="M206.254,432.5l-.689-4.085-.057-.429-.486-2.887-.486-2.858-1.972-11.8-.572-3.487-.429-2.515-.057-.372-2.543-15.291-.172-1.085-.229-.943-.2-.83-1.144-5.059-2.257-9.889-.658-2.83-1.114-4.944-1.344-5.917-.915-4.059-.658-2.83-2.486-10.946-.915-4-.429-1.943-.2-.886-1.744-7.688c-27.381,8.089-56.391,3.287-69.252.4-.572,2.6-1.2,5.316-1.83,8.06q-.213.9-.429,1.8-.343,1.415-.685,2.83c-.087.457-.2.885-.315,1.344-1.057,4.486-2.172,9.059-3.258,13.6-.229.943-.429,1.887-.658,2.8-.115.486-.229.943-.342,1.429-.457,2-.915,4-1.372,5.945-.572,2.6-1.115,5.144-1.629,7.659-.2.943-.4,1.858-.571,2.773-.516,2.544-.972,5.03-1.372,7.431-.344,2.087-.629,4.087-.858,6.059-.085.6-.142,1.2-.229,1.773-.085.972-.2,1.915-.286,2.858,0,.142-.028.257-.028.4l-1.6,13.034-.257,2.029-.342,2.83-.143,1.2-1.772,14.262-.344,2.858-.114.915-.4,3.285Z" transform="translate(-96.419 -324.924)" fill="#a6a9aa"/>
          </g>
        </g>
      </g>
      <g id="Group_1180" data-name="Group 1180" transform="translate(71.847 26.582)">
        <g id="Group_1174" data-name="Group 1174" transform="translate(5.105)">
          <g id="Group_1171" data-name="Group 1171" transform="translate(46.206 26.472)">
            <path id="Path_80179" data-name="Path 80179" d="M158.789,191.241s4.454-5.644,7.766-.977-1.371,18.447-9.48,15.084Z" transform="translate(-154.617 -188.416)" fill="#f97853"/>
            <g id="Group_1168" data-name="Group 1168" transform="translate(3.544 4.94)">
              <path id="Path_80180" data-name="Path 80180" d="M158.639,200.145a.683.683,0,0,0,.66-.476c1.256-4.254,5.9-5.98,5.943-6a.644.644,0,0,0,.4-.839.7.7,0,0,0-.883-.38c-.216.078-5.33,1.963-6.777,6.864a.649.649,0,0,0,.475.8A.742.742,0,0,0,158.639,200.145Z" transform="translate(-157.954 -192.412)" fill="#ea5143"/>
            </g>
            <g id="Group_1169" data-name="Group 1169" transform="translate(5.951 7.499)">
              <path id="Path_80181" data-name="Path 80181" d="M162.862,197.512a.708.708,0,0,0,.371-.1.633.633,0,0,0,.205-.9,6.184,6.184,0,0,0-2.573-1.969.7.7,0,0,0-.9.328.638.638,0,0,0,.346.86,4.923,4.923,0,0,1,1.979,1.486A.692.692,0,0,0,162.862,197.512Z" transform="translate(-159.901 -194.482)" fill="#ea5143"/>
            </g>
            <g id="Group_1170" data-name="Group 1170" transform="translate(0 14.427)">
              <path id="Path_80182" data-name="Path 80182" d="M157.254,202.5a4.807,4.807,0,1,0,4.637-1.5.872.872,0,0,1,.174-.915,5.779,5.779,0,1,1-5.692,2.018Q156.813,202.3,157.254,202.5Z" transform="translate(-155.087 -200.086)" fill="#fff"/>
            </g>
          </g>
          <path id="Path_80183" data-name="Path 80183" d="M130.69,214.02v16.906s7.858,6.064,13.988,6.59,8.24-6.693,8.24-6.693V215.089Z" transform="translate(-114.645 -155.895)" fill="#ffa681"/>
          <path id="Path_80184" data-name="Path 80184" d="M130.69,215.36v6.745c4.113,4.564,11.416,6.181,22.227,4.585V216.429Z" transform="translate(-114.645 -155.578)" fill="#f97853"/>
          <path id="Path_80185" data-name="Path 80185" d="M170.384,202.274c-.2,1.632-.425,3.293-.72,4.948-1.941,10.993-8.9,22.868-17.676,24.861-18.96,4.3-26.834-10.589-29.866-21.575-.335-1.22.293-2.618.028-4.062-.629-3.424-2.013-7.314-2.327-11.149-.216-2.658-.37-5.28-.481-7.649a15.532,15.532,0,0,1,9.609-15.22c8.717-3.466,21.952-6.211,34.489,1.141a15.669,15.669,0,0,1,7.64,13.248A117.516,117.516,0,0,1,170.384,202.274Z" transform="translate(-117.33 -166.55)" fill="#ffa681"/>
          <g id="Group_1172" data-name="Group 1172" transform="translate(27.886 32.068)">
            <path id="Path_80186" data-name="Path 80186" d="M141.392,205.105a.736.736,0,0,1-.121-1.462l2.529-.425-3.485-9.279a.736.736,0,1,1,1.378-.519l4.113,10.954-4.292.722A.817.817,0,0,1,141.392,205.105Z" transform="translate(-140.268 -192.942)" fill="#f97853"/>
          </g>
          <path id="Path_80187" data-name="Path 80187" d="M148.516,193.409c0,1.623.836,2.939,1.867,2.939s1.868-1.315,1.868-2.939-.836-2.937-1.868-2.937S148.516,191.787,148.516,193.409Z" transform="translate(-110.434 -161.458)" fill="#403657"/>
          <path id="Path_80188" data-name="Path 80188" d="M131.817,193.409c0,1.623.836,2.939,1.868,2.939s1.867-1.315,1.867-2.939-.836-2.937-1.867-2.937S131.817,191.787,131.817,193.409Z" transform="translate(-114.379 -161.458)" fill="#403657"/>
          <path id="Path_80189" data-name="Path 80189" d="M156.226,186.746a35.85,35.85,0,0,0-7.772-.663c-.851.031-1.533.671-1.416,1.349l0,.017a1.194,1.194,0,0,0,1.354.853c2.2-.166,7.969-.13,10.653.669a1.391,1.391,0,0,0-.564-1.162A4.5,4.5,0,0,0,156.226,186.746Z" transform="translate(-110.786 -162.499)" fill="#403657"/>
          <path id="Path_80190" data-name="Path 80190" d="M130.716,187.049a35.929,35.929,0,0,1,7.762-.768c.851.019,1.542.65,1.434,1.329l0,.017a1.2,1.2,0,0,1-1.341.872c-2.207-.136-7.97-.021-10.643.815a1.39,1.39,0,0,1,.548-1.169A4.515,4.515,0,0,1,130.716,187.049Z" transform="translate(-115.302 -162.45)" fill="#403657"/>
          <path id="Path_80191" data-name="Path 80191" d="M151.748,206.327c-.546,2.583-2.36,7.332-8.473,7.332s-7.845-4.34-8.436-7.332Z" transform="translate(-113.665 -157.712)" fill="#fff"/>
          <g id="Group_1173" data-name="Group 1173" transform="translate(25.829 58.059)">
            <path id="Path_80192" data-name="Path 80192" d="M142.472,216.294a7.213,7.213,0,0,0,3.387-.992.722.722,0,0,0-.758-1.229h0a5.82,5.82,0,0,1-2.63.775,6.125,6.125,0,0,1-2.773-.779.722.722,0,0,0-.747,1.236A7.531,7.531,0,0,0,142.472,216.294Z" transform="translate(-138.604 -213.967)" fill="#f97853"/>
          </g>
          <path id="Path_80193" data-name="Path 80193" d="M171.533,201c-.176.148-.346.1-.507-.193-2.5-4.415-.151-13.223-7.562-16.6a15.711,15.711,0,0,1-7.671-7.858c-1.291,2.209-4.652,4.235-4.652,4.235a133.4,133.4,0,0,1-17.386,8.465,29.28,29.28,0,0,0-5.822,2.929l.158.045s-2.454,3.984-.659,10.179-.513,16.408-4.5,18.765c.072-.174,3.061-7.238,1.371-13-.973-3.3-.964-8.562-1.887-11.712-1.021-.7-3.382-1.889-4.182-2.365-.227-2.71-.391-5.381-.507-7.8a15.812,15.812,0,0,1,10.131-15.516c9.187-3.532,23.138-6.328,36.355,1.166a15.886,15.886,0,0,1,8.057,13.5A115.877,115.877,0,0,1,171.533,201Z" transform="translate(-117.711 -167.003)" fill="#403657"/>
        </g>
        <g id="Group_1179" data-name="Group 1179" transform="translate(0 25.856)">
          <path id="Path_80194" data-name="Path 80194" d="M123.278,191.313s-5.179-6.285-8.235-1.753,1.456,18.421,8.938,15.155Z" transform="translate(-113.465 -187.917)" fill="#ffa681"/>
          <g id="Group_1175" data-name="Group 1175" transform="translate(0 13.509)">
            <path id="Path_80195" data-name="Path 80195" d="M123.6,202.357a4.8,4.8,0,1,1-4.137-2.581,1.107,1.107,0,0,0,.054-.928,5.779,5.779,0,1,0,5.032,3.338C124.236,202.244,123.92,202.3,123.6,202.357Z" transform="translate(-113.582 -198.845)" fill="#fff"/>
          </g>
          <g id="Group_1176" data-name="Group 1176" transform="translate(2.192 4.645)">
            <path id="Path_80196" data-name="Path 80196" d="M121.853,199.183a.633.633,0,0,1-.608-.461c-1.16-4.132-5.44-5.807-5.483-5.824a.632.632,0,0,1,.448-1.182c.2.075,4.918,1.906,6.253,6.665a.632.632,0,0,1-.609.8Z" transform="translate(-115.355 -191.675)" fill="#f97853"/>
          </g>
          <g id="Group_1178" data-name="Group 1178" transform="translate(3.738 7.129)">
            <g id="Group_1177" data-name="Group 1177">
              <path id="Path_80197" data-name="Path 80197" d="M117.237,196.628a.62.62,0,0,1-.341-.1.632.632,0,0,1-.189-.874,5.777,5.777,0,0,1,2.372-1.912.633.633,0,1,1,.517,1.155,4.563,4.563,0,0,0-1.826,1.443A.633.633,0,0,1,117.237,196.628Z" transform="translate(-116.605 -193.684)" fill="#f97853"/>
            </g>
          </g>
        </g>
      </g>
    </g>
    <g id="Group_1269" data-name="Group 1269" transform="translate(215.328 155.356)">
      <path id="Path_80198" data-name="Path 80198" d="M355.158,304.431c-12.051,8.65-30.905,14.585-30.905,14.585l-3.861-13.886L317.379,294.3l-2.125-7.636-21.611-.015c1.172,4.05,2.38,8.187,3.6,12.261,1.559,5.255,3.114,10.4,4.593,15.147,2.086,6.678,4.009,12.549,5.558,16.745.363.979.784,2.046,1.255,3.182,2.889,7.8,5.221,16.265,16.246,10.956,9.7-4.674,22.866-11.154,29.442-15.454Z" transform="translate(-151.249 -111.985)" fill="#ffa681"/>
      <g id="Group_1182" data-name="Group 1182" transform="translate(140.999 111.137)">
        <path id="Path_80199" data-name="Path 80199" d="M296.551,297.446c1.559,5.254,3.113,10.4,4.593,15.145a30.7,30.7,0,0,0,18.561-8.923l-3.012-10.832Z" transform="translate(-291.561 -221.66)" fill="#b7c0c3"/>
        <path id="Path_80200" data-name="Path 80200" d="M292.917,235.262s22.543,53.764,32.239,71.183c0,0-13.588,11.552-26.823,11.868C298.333,318.313,290.705,259.285,292.917,235.262Z" transform="translate(-292.515 -235.262)" fill="#c7d5d9"/>
      </g>
      <g id="Group_1186" data-name="Group 1186" transform="translate(44.201 294.123)">
        <g id="Group_1184" data-name="Group 1184">
          <g id="Group_1183" data-name="Group 1183">
            <path id="Path_80201" data-name="Path 80201" d="M258.634,418.754c.226-3.762.44-7.343.635-10.663.8-13.572,1.312-22.835,1.312-22.835l-5.316-.239-3-.135-36.135-1.6s-.658,10.36-1.433,25.573c-.158,3.113-.323,6.431-.487,9.9Z" transform="translate(-214.215 -383.278)" fill="#a6a9aa"/>
          </g>
        </g>
        <path id="Path_80202" data-name="Path 80202" d="M255.172,385.017l5.316.239s-.513,9.263-1.312,22.835a322.783,322.783,0,0,1-44.567.76c.775-15.213,1.433-25.573,1.433-25.573l36.135,1.6Z" transform="translate(-214.122 -383.278)" fill="#a6a9aa"/>
        <g id="Group_1185" data-name="Group 1185" transform="translate(36.151 1.606)">
          <path id="Path_80203" data-name="Path 80203" d="M246.459,418.447c.839-14.5,1.527-26.916,1.9-33.735l-3-.135c-.375,6.85-1.064,19.325-1.905,33.87Z" transform="translate(-243.457 -384.577)" fill="#e8a817"/>
        </g>
      </g>
      <g id="Group_1190" data-name="Group 1190" transform="translate(98.318 294.123)">
        <g id="Group_1188" data-name="Group 1188">
          <g id="Group_1187" data-name="Group 1187">
            <path id="Path_80204" data-name="Path 80204" d="M259.937,418.754h44.419c-.164-3.471-.329-6.79-.487-9.9-.775-15.213-1.433-25.573-1.433-25.573l-36.135,1.6-3,.135-5.316.239s.513,9.263,1.312,22.835C259.5,411.41,259.711,414.992,259.937,418.754Z" transform="translate(-257.99 -383.278)" fill="#d19204"/>
          </g>
        </g>
        <path id="Path_80205" data-name="Path 80205" d="M263.306,385.017l-5.316.239s.513,9.263,1.312,22.835a322.784,322.784,0,0,0,44.567.76c-.775-15.213-1.433-25.573-1.433-25.573l-36.135,1.6Z" transform="translate(-257.99 -383.278)" fill="#e8a817"/>
        <g id="Group_1189" data-name="Group 1189" transform="translate(5.313 1.606)">
          <path id="Path_80206" data-name="Path 80206" d="M267.19,418.447c-.841-14.545-1.53-27.02-1.905-33.87l-3,.135c.373,6.819,1.061,19.239,1.9,33.735Z" transform="translate(-262.288 -384.577)" fill="#e8a817"/>
        </g>
      </g>
      <g id="Group_1194" data-name="Group 1194" transform="translate(38.275 89.494)">
        <g id="Group_1193" data-name="Group 1193">
          <g id="Group_1192" data-name="Group 1192">
            <g id="Group_1191" data-name="Group 1191">
              <path id="Path_80207" data-name="Path 80207" d="M209.424,396.619c0,.744,0,1.479,0,2.2.016,13.214.082,23.457.147,28.485a211.307,211.307,0,0,0,38.3,6.724l1.734.131c.31.022.619.043.93.059.685.049,1.375.093,2.055.125.762.049,1.517.088,2.283.126A203.652,203.652,0,0,0,280.937,434c1.756-.146,3.5-.315,5.257-.506l.336-.032c.446-.049.891-.1,1.343-.157l.811-.1a214.066,214.066,0,0,0,30.322-5.9c.027-2.283.038-5.669.038-9.937,0-.794,0-1.61,0-2.463v0c-.006-6.1-.044-13.705-.109-22.293-.006-.734-.011-1.474-.017-2.224-.048-5.719-.109-11.845-.184-18.232-.011-.739-.016-1.479-.027-2.224-.082-6.55-.179-13.355-.294-20.265-.07-4.219-.146-8.475-.234-12.737-.087-4.316-.179-8.638-.282-12.932-.022-.935-.043-1.87-.07-2.805-.99-40.612-2.7-77.942-5.535-82.106-1.962-2.882-6.458-6.268-11.753-9.682q-.97-.619-1.973-1.25c-2.256-1.408-20.657-7.66-22.994-9.035l-19.45-1.36c-.12.072-18.717,6.344-18.836,6.41-.8.456-1.61.919-2.408,1.381-6.888,3.973-13.683,8.159-17.6,11.763a19.126,19.126,0,0,0-1.517,1.533,10.812,10.812,0,0,0-.907,1.163,6.113,6.113,0,0,0-.68,1.707c-2.354,8.551-3.588,42.156-4.2,78.72q-.065,3.929-.12,7.9-.024,1.738-.048,3.485c-.017.8-.027,1.6-.033,2.4l-.016,1.2q-.041,2.984-.066,5.948-.024,2.192-.048,4.375C209.463,364.16,209.408,382.045,209.424,396.619Z" transform="translate(-209.422 -217.755)" fill="#bbcace"/>
            </g>
          </g>
        </g>
      </g>
      <g id="Group_1196" data-name="Group 1196" transform="translate(0 111.513)">
        <g id="Group_1195" data-name="Group 1195" transform="translate(0 14.542)">
          <path id="Path_80208" data-name="Path 80208" d="M181.958,441.853c-.478,5.191,5.844,2.376,4.055-8.143s3.283-20.043,5.469-19.738-1.811,11.486.136,15.514,4.452-3.8,6.953-8.545c2.592-4.93,2.44-15.688,1.261-23.365s12.736-54.316,12.806-67.831l1.7-5.729,6.209-20.978,9.719-32.851s-5.822-24.864-15.64-22.727c0,0-5.2,17.319-10.752,36.852-.941,3.316-1.891,6.7-2.832,10.067-3.957,14.161-7.676,28.142-9.4,36.439-4.567,21.9-4.92,67.428-4.92,67.428s-8.057,16.728-8.246,24.17C178.267,430.35,182.431,436.662,181.958,441.853Z" transform="translate(-178.461 -247.329)" fill="#ffa681"/>
          <path id="Path_80209" data-name="Path 80209" d="M196.724,287.31l13.3,29.638,6.209-20.978-16.672-18.727C198.615,280.559,197.665,283.94,196.724,287.31Z" transform="translate(-174.147 -240.261)" fill="#f97853"/>
        </g>
        <path id="Path_80210" data-name="Path 80210" d="M196.191,288.328c5.833,10,11.763,19.951,17.672,29.915,1.946-6.518,3.962-12.774,5.855-18.527,0-.016.011-.027.016-.043.755-2.3,1.495-4.517,2.2-6.637a.7.7,0,0,1,.038-.109c.244-.744.483-1.479.728-2.2v-.006c2.821-8.529,5.007-15.307,5.631-19.26,1.685-10.638-2.908-31.48-9.377-35.591h0c-.168.376-.679-.783-.983-.075-1.136,2.626-6.181,9.111-8.677,15.427-.32.8-.647,1.642-.984,2.5C204.7,263.012,200.278,275.1,196.191,288.328Z" transform="translate(-174.272 -235.566)" fill="#c7d5d9"/>
      </g>
      <g id="Group_1255" data-name="Group 1255" transform="translate(34.679 95.905)">
        <g id="Group_1198" data-name="Group 1198" transform="translate(45.401 2.198)">
          <g id="Group_1197" data-name="Group 1197">
            <path id="Path_80211" data-name="Path 80211" d="M256.991,235.56c8.423,0,14.36-7.685,14.609-8.012a1.139,1.139,0,0,0-.147-1.529.974.974,0,0,0-1.43.157c-.077.1-5.605,7.21-13.031,7.21-7.338,0-11.814-8.046-11.858-8.127a.982.982,0,0,0-1.39-.392,1.129,1.129,0,0,0-.368,1.485C243.579,226.727,248.469,235.56,256.991,235.56Z" transform="translate(-243.238 -224.719)" fill="#0097a6"/>
          </g>
        </g>
        <g id="Group_1199" data-name="Group 1199" transform="translate(90.067 76.716)">
          <path id="Path_80212" data-name="Path 80212" d="M284.067,294.952a.972.972,0,0,0,.462-.119,1.134,1.134,0,0,0,.451-1.474l-3.673-7.762a.993.993,0,0,0-1.377-.482,1.131,1.131,0,0,0-.452,1.472l3.673,7.763A1.02,1.02,0,0,0,284.067,294.952Z" transform="translate(-279.367 -284.996)" fill="#0097a6"/>
        </g>
        <g id="Group_1200" data-name="Group 1200" transform="translate(101.938 69.619)">
          <path id="Path_80213" data-name="Path 80213" d="M289.453,289.949a.986.986,0,0,0,.451.161,1.048,1.048,0,0,0,1.111-1l.719-8.666a1.076,1.076,0,0,0-.93-1.188,1.046,1.046,0,0,0-1.111,1l-.721,8.665A1.12,1.12,0,0,0,289.453,289.949Z" transform="translate(-288.97 -279.255)" fill="#0097a6"/>
        </g>
        <g id="Group_1201" data-name="Group 1201" transform="translate(81.661 56.099)">
          <path id="Path_80214" data-name="Path 80214" d="M273.594,279.1a1.049,1.049,0,0,0,1.011-.917l1.327-8.583a1.092,1.092,0,0,0-.844-1.261,1.034,1.034,0,0,0-1.178.9l-1.328,8.583a1.092,1.092,0,0,0,.844,1.26A.985.985,0,0,0,273.594,279.1Z" transform="translate(-272.568 -268.319)" fill="#0097a6"/>
        </g>
        <g id="Group_1202" data-name="Group 1202" transform="translate(44.519 60.391)">
          <path id="Path_80215" data-name="Path 80215" d="M247.694,281.47a.954.954,0,0,0,.52-.153,1.136,1.136,0,0,0,.36-1.5l-4.143-7.486a.988.988,0,0,0-1.4-.386,1.139,1.139,0,0,0-.36,1.5l4.144,7.486A1.011,1.011,0,0,0,247.694,281.47Z" transform="translate(-242.524 -271.791)" fill="#0097a6"/>
        </g>
        <g id="Group_1203" data-name="Group 1203" transform="translate(89.201 29.6)">
          <path id="Path_80216" data-name="Path 80216" d="M279.693,253.8a.974.974,0,0,0,.556-.176l6.83-4.725a1.144,1.144,0,0,0,.3-1.516.988.988,0,0,0-1.418-.325l-6.83,4.725a1.144,1.144,0,0,0-.3,1.516A1.01,1.01,0,0,0,279.693,253.8Z" transform="translate(-278.667 -246.884)" fill="#0097a6"/>
        </g>
        <g id="Group_1204" data-name="Group 1204" transform="translate(55.1 96.305)">
          <path id="Path_80217" data-name="Path 80217" d="M255.783,310.8a.963.963,0,0,0,.461-.119,1.135,1.135,0,0,0,.452-1.474l-3.674-7.762a.994.994,0,0,0-1.377-.482,1.133,1.133,0,0,0-.451,1.472l3.673,7.763A1.02,1.02,0,0,0,255.783,310.8Z" transform="translate(-251.083 -300.841)" fill="#0097a6"/>
        </g>
        <g id="Group_1205" data-name="Group 1205" transform="translate(68.02 35.548)">
          <path id="Path_80218" data-name="Path 80218" d="M269.452,258.5a1.012,1.012,0,0,0,.87-.514,1.142,1.142,0,0,0-.325-1.511l-6.895-4.616a.987.987,0,0,0-1.413.347,1.142,1.142,0,0,0,.325,1.511l6.895,4.616A.978.978,0,0,0,269.452,258.5Z" transform="translate(-261.534 -251.696)" fill="#0097a6"/>
        </g>
        <g id="Group_1206" data-name="Group 1206" transform="translate(92.334 3.986)">
          <path id="Path_80219" data-name="Path 80219" d="M281.2,232.258a1.1,1.1,0,0,0,.116.592,1.019,1.019,0,0,0,.834.576,1.05,1.05,0,0,0,1.093-1.016l.325-5c-.647-.413-1.3-.832-1.973-1.25Z" transform="translate(-281.201 -226.165)" fill="#0097a6"/>
        </g>
        <g id="Group_1207" data-name="Group 1207" transform="translate(93.609 50.899)">
          <path id="Path_80220" data-name="Path 80220" d="M290.153,270.921a1.008,1.008,0,0,0,.869-.514,1.143,1.143,0,0,0-.324-1.511l-6.9-4.617a.989.989,0,0,0-1.413.349,1.142,1.142,0,0,0,.325,1.511l6.895,4.616A.979.979,0,0,0,290.153,270.921Z" transform="translate(-282.233 -264.113)" fill="#0097a6"/>
        </g>
        <g id="Group_1208" data-name="Group 1208" transform="translate(41.587 11.253)">
          <path id="Path_80221" data-name="Path 80221" d="M245.109,240.619a.97.97,0,0,0,.562-.182,1.142,1.142,0,0,0,.292-1.518l-3.931-6.382a.984.984,0,0,0-1.419-.313,1.145,1.145,0,0,0-.292,1.519l3.931,6.382A1.008,1.008,0,0,0,245.109,240.619Z" transform="translate(-240.152 -232.043)" fill="#0097a6"/>
        </g>
        <g id="Group_1209" data-name="Group 1209" transform="translate(41.995 121.593)">
          <path id="Path_80222" data-name="Path 80222" d="M241.507,329.765a.992.992,0,0,0,.739-.337l5.634-6.275a1.152,1.152,0,0,0-.03-1.55.977.977,0,0,0-1.449.032l-5.634,6.275a1.15,1.15,0,0,0,.03,1.549A.985.985,0,0,0,241.507,329.765Z" transform="translate(-240.482 -321.297)" fill="#0097a6"/>
        </g>
        <g id="Group_1210" data-name="Group 1210" transform="translate(62.696 120.289)">
          <path id="Path_80223" data-name="Path 80223" d="M258.252,328.709a.991.991,0,0,0,.741-.337l5.632-6.275a1.149,1.149,0,0,0-.028-1.549.978.978,0,0,0-1.449.031l-5.635,6.276a1.15,1.15,0,0,0,.03,1.549A.984.984,0,0,0,258.252,328.709Z" transform="translate(-257.227 -320.241)" fill="#0097a6"/>
        </g>
        <g id="Group_1211" data-name="Group 1211" transform="translate(73.103 161.852)">
          <path id="Path_80224" data-name="Path 80224" d="M271.146,363.188a1.164,1.164,0,0,0-.035-.859l-3.517-7.845a1,1,0,0,0-1.367-.514,1.131,1.131,0,0,0-.481,1.462l3.516,7.845a1,1,0,0,0,1.367.514A1.065,1.065,0,0,0,271.146,363.188Z" transform="translate(-265.645 -353.862)" fill="#0097a6"/>
        </g>
        <g id="Group_1212" data-name="Group 1212" transform="translate(13.696 187.737)">
          <path id="Path_80225" data-name="Path 80225" d="M223.092,384.126a1.158,1.158,0,0,0-.036-.859l-3.516-7.845a1,1,0,0,0-1.367-.514,1.131,1.131,0,0,0-.481,1.463l3.516,7.845a1,1,0,0,0,1.367.514A1.065,1.065,0,0,0,223.092,384.126Z" transform="translate(-217.591 -374.8)" fill="#0097a6"/>
        </g>
        <g id="Group_1213" data-name="Group 1213" transform="translate(44.707 204.031)">
          <path id="Path_80226" data-name="Path 80226" d="M242.676,394.005c.687.049,1.373.093,2.055.125l.716-4.887a1.086,1.086,0,0,0-.854-1.25,1.034,1.034,0,0,0-1.168.912Z" transform="translate(-242.676 -387.98)" fill="#0097a6"/>
        </g>
        <g id="Group_1214" data-name="Group 1214" transform="translate(34.913 184.697)">
          <path id="Path_80227" data-name="Path 80227" d="M236.366,382.931a1.1,1.1,0,0,0,.425-.728l1.26-8.6a1.089,1.089,0,0,0-.854-1.252,1.035,1.035,0,0,0-1.171.914l-1.26,8.594a1.089,1.089,0,0,0,.854,1.252A.962.962,0,0,0,236.366,382.931Z" transform="translate(-234.754 -372.341)" fill="#0097a6"/>
        </g>
        <g id="Group_1215" data-name="Group 1215" transform="translate(80.885 113.698)">
          <path id="Path_80228" data-name="Path 80228" d="M277.042,324.632a.969.969,0,0,0,.512-.147,1.139,1.139,0,0,0,.373-1.5l-4.075-7.529a.989.989,0,0,0-1.4-.4,1.138,1.138,0,0,0-.373,1.5l4.075,7.53A1.014,1.014,0,0,0,277.042,324.632Z" transform="translate(-271.94 -314.911)" fill="#0097a6"/>
        </g>
        <g id="Group_1216" data-name="Group 1216" transform="translate(72.997 94.674)">
          <path id="Path_80229" data-name="Path 80229" d="M266.584,309.448a1.018,1.018,0,0,0,.911-.593l3.73-7.732a1.135,1.135,0,0,0-.441-1.477.993.993,0,0,0-1.381.472l-3.729,7.73a1.134,1.134,0,0,0,.44,1.477A.973.973,0,0,0,266.584,309.448Z" transform="translate(-265.559 -299.522)" fill="#0097a6"/>
        </g>
        <g id="Group_1217" data-name="Group 1217" transform="translate(106.184 97.024)">
          <path id="Path_80230" data-name="Path 80230" d="M292.646,307.865a1.065,1.065,0,0,0,.387.3.98.98,0,0,0,1.057-.174l4.193-3.767c-.021-.936-.041-1.87-.067-2.805l-5.448,4.892A1.157,1.157,0,0,0,292.646,307.865Z" transform="translate(-292.405 -301.423)" fill="#0097a6"/>
        </g>
        <g id="Group_1218" data-name="Group 1218" transform="translate(73.05 12.649)">
          <path id="Path_80231" data-name="Path 80231" d="M266.627,243.1a1.021,1.021,0,0,0,.912-.593l3.729-7.732a1.133,1.133,0,0,0-.441-1.476.994.994,0,0,0-1.381.471l-3.729,7.732a1.135,1.135,0,0,0,.441,1.477A.963.963,0,0,0,266.627,243.1Z" transform="translate(-265.603 -233.173)" fill="#0097a6"/>
        </g>
        <g id="Group_1219" data-name="Group 1219" transform="translate(47.604 40.164)">
          <path id="Path_80232" data-name="Path 80232" d="M247.587,266.163a.963.963,0,0,0,.2-.02,1.1,1.1,0,0,0,.812-1.283l-1.543-8.543a1.03,1.03,0,0,0-1.2-.868,1.094,1.094,0,0,0-.812,1.283l1.543,8.543A1.043,1.043,0,0,0,247.587,266.163Z" transform="translate(-245.02 -255.43)" fill="#0097a6"/>
        </g>
        <g id="Group_1220" data-name="Group 1220" transform="translate(60.913 47.664)">
          <path id="Path_80233" data-name="Path 80233" d="M258.351,272.23a.958.958,0,0,0,.2-.02,1.1,1.1,0,0,0,.812-1.284l-1.543-8.541a1.033,1.033,0,0,0-1.2-.869,1.1,1.1,0,0,0-.812,1.284l1.542,8.541A1.046,1.046,0,0,0,258.351,272.23Z" transform="translate(-255.785 -261.496)" fill="#0097a6"/>
        </g>
        <g id="Group_1221" data-name="Group 1221" transform="translate(52.921 20.678)">
          <path id="Path_80234" data-name="Path 80234" d="M250.345,249.2a1.01,1.01,0,0,0,.867-.508l4.359-7.345a1.142,1.142,0,0,0-.316-1.513.985.985,0,0,0-1.414.337l-4.359,7.345a1.141,1.141,0,0,0,.315,1.513A.97.97,0,0,0,250.345,249.2Z" transform="translate(-249.32 -239.668)" fill="#0097a6"/>
        </g>
        <g id="Group_1222" data-name="Group 1222" transform="translate(88.657 96.26)">
          <path id="Path_80235" data-name="Path 80235" d="M283.5,310.5a1.152,1.152,0,0,0,.177-1.221l-3.5-7.851a1,1,0,0,0-1.367-.518,1.132,1.132,0,0,0-.483,1.463l3.5,7.851a.992.992,0,0,0,1.673.277Z" transform="translate(-278.227 -300.805)" fill="#0097a6"/>
        </g>
        <g id="Group_1223" data-name="Group 1223" transform="translate(66.538 72.883)">
          <path id="Path_80236" data-name="Path 80236" d="M261.36,292.19a1.028,1.028,0,0,0,.954-.7l2.965-8.1a1.12,1.12,0,0,0-.581-1.419,1,1,0,0,0-1.328.621l-2.965,8.1a1.122,1.122,0,0,0,.581,1.421A.952.952,0,0,0,261.36,292.19Z" transform="translate(-260.335 -281.895)" fill="#0097a6"/>
        </g>
        <g id="Group_1224" data-name="Group 1224" transform="translate(30.293 123.261)">
          <path id="Path_80237" data-name="Path 80237" d="M235.716,332.6a.968.968,0,0,0,.462-.119,1.134,1.134,0,0,0,.451-1.474l-3.673-7.762a.993.993,0,0,0-1.377-.482,1.131,1.131,0,0,0-.451,1.472L234.8,332A1.017,1.017,0,0,0,235.716,332.6Z" transform="translate(-231.017 -322.646)" fill="#0097a6"/>
        </g>
        <g id="Group_1225" data-name="Group 1225" transform="translate(88.973 183.896)">
          <path id="Path_80238" data-name="Path 80238" d="M278.483,376.8a1.148,1.148,0,0,0,.115.493.992.992,0,0,0,1.381.469l7.223-4a1.133,1.133,0,0,0,.438-1.477.992.992,0,0,0-1.381-.469l-7.223,4A1.108,1.108,0,0,0,278.483,376.8Z" transform="translate(-278.483 -371.693)" fill="#0097a6"/>
        </g>
        <g id="Group_1226" data-name="Group 1226" transform="translate(108.58 190.742)">
          <path id="Path_80239" data-name="Path 80239" d="M294.343,380.471a1.13,1.13,0,0,0,.112.495.994.994,0,0,0,1.382.467l3.141-1.739c0-.794,0-1.61,0-2.463l-4.076,2.256A1.107,1.107,0,0,0,294.343,380.471Z" transform="translate(-294.343 -377.231)" fill="#0097a6"/>
        </g>
        <g id="Group_1227" data-name="Group 1227" transform="translate(78.133 202.096)">
          <path id="Path_80240" data-name="Path 80240" d="M269.814,387.978l2.47,5.642c.448-.049.9-.1,1.346-.158l.809-.1-2.77-6.316a.992.992,0,0,0-1.361-.528A1.123,1.123,0,0,0,269.814,387.978Z" transform="translate(-269.715 -386.415)" fill="#0097a6"/>
        </g>
        <g id="Group_1228" data-name="Group 1228" transform="translate(20.636 102.644)">
          <path id="Path_80241" data-name="Path 80241" d="M224.232,316.745a1.047,1.047,0,0,0,1.01-.917l1.326-8.583a1.091,1.091,0,0,0-.844-1.261,1.035,1.035,0,0,0-1.178.9l-1.327,8.583a1.09,1.09,0,0,0,.844,1.26A.969.969,0,0,0,224.232,316.745Z" transform="translate(-223.206 -305.969)" fill="#0097a6"/>
        </g>
        <g id="Group_1229" data-name="Group 1229" transform="translate(15.647 40.408)">
          <path id="Path_80242" data-name="Path 80242" d="M224.339,265.306a.969.969,0,0,0,.522-.153,1.138,1.138,0,0,0,.36-1.5l-4.144-7.487a.987.987,0,0,0-1.4-.385,1.136,1.136,0,0,0-.36,1.5l4.143,7.487A1.015,1.015,0,0,0,224.339,265.306Z" transform="translate(-219.17 -255.627)" fill="#0097a6"/>
        </g>
        <g id="Group_1230" data-name="Group 1230" transform="translate(33.114 73.598)">
          <path id="Path_80243" data-name="Path 80243" d="M234.324,289.391a.974.974,0,0,0,.556-.176l6.83-4.725a1.144,1.144,0,0,0,.3-1.516.985.985,0,0,0-1.417-.325l-6.832,4.724a1.146,1.146,0,0,0-.3,1.517A1.01,1.01,0,0,0,234.324,289.391Z" transform="translate(-233.298 -282.474)" fill="#0097a6"/>
        </g>
        <g id="Group_1231" data-name="Group 1231" transform="translate(101.76 121.593)">
          <path id="Path_80244" data-name="Path 80244" d="M293.525,331.251a.968.968,0,0,0,.462-.119,1.132,1.132,0,0,0,.451-1.472l-3.673-7.762a.994.994,0,0,0-1.377-.483,1.133,1.133,0,0,0-.451,1.474l3.673,7.762A1.015,1.015,0,0,0,293.525,331.251Z" transform="translate(-288.826 -321.296)" fill="#0097a6"/>
        </g>
        <g id="Group_1232" data-name="Group 1232" transform="translate(14.583 85.498)">
          <path id="Path_80245" data-name="Path 80245" d="M226.228,298.908a1.008,1.008,0,0,0,.869-.514,1.142,1.142,0,0,0-.324-1.511l-6.9-4.616a.986.986,0,0,0-1.412.347,1.142,1.142,0,0,0,.324,1.511l6.895,4.616A.982.982,0,0,0,226.228,298.908Z" transform="translate(-218.309 -292.1)" fill="#0097a6"/>
        </g>
        <g id="Group_1233" data-name="Group 1233" transform="translate(36.568 92.991)">
          <path id="Path_80246" data-name="Path 80246" d="M238.556,308.457a.974.974,0,0,0,.966.253,1.107,1.107,0,0,0,.721-1.345l-2.135-8.4a1.02,1.02,0,0,0-1.259-.77,1.106,1.106,0,0,0-.719,1.345l2.134,8.4A1.121,1.121,0,0,0,238.556,308.457Z" transform="translate(-236.093 -298.161)" fill="#0097a6"/>
        </g>
        <g id="Group_1234" data-name="Group 1234" transform="translate(9.932 13.145)">
          <path id="Path_80247" data-name="Path 80247" d="M214.547,235.107,216.331,238a1.015,1.015,0,0,0,.859.49.942.942,0,0,0,.559-.179,1.143,1.143,0,0,0,.294-1.517l-1.982-3.218A19.5,19.5,0,0,0,214.547,235.107Z" transform="translate(-214.547 -233.574)" fill="#0097a6"/>
        </g>
        <g id="Group_1235" data-name="Group 1235" transform="translate(2.135 31.269)">
          <path id="Path_80248" data-name="Path 80248" d="M208.24,250.73l1.9,3.076a.987.987,0,0,0,1.423.315,1.149,1.149,0,0,0,.289-1.522l-2.689-4.365C208.861,249.039,208.555,249.876,208.24,250.73Z" transform="translate(-208.24 -248.234)" fill="#0097a6"/>
        </g>
        <g id="Group_1236" data-name="Group 1236" transform="translate(89.768 150.183)">
          <path id="Path_80249" data-name="Path 80249" d="M280.151,352.891a.99.99,0,0,0,.738-.337l5.635-6.276a1.15,1.15,0,0,0-.03-1.549.979.979,0,0,0-1.45.031l-5.632,6.276a1.149,1.149,0,0,0,.028,1.549A.986.986,0,0,0,280.151,352.891Z" transform="translate(-279.125 -344.422)" fill="#0097a6"/>
        </g>
        <g id="Group_1237" data-name="Group 1237" transform="translate(52.284 172.123)">
          <path id="Path_80250" data-name="Path 80250" d="M249.83,370.638a.988.988,0,0,0,.739-.337l5.634-6.275a1.149,1.149,0,0,0-.03-1.55.977.977,0,0,0-1.449.032l-5.634,6.275a1.152,1.152,0,0,0,.03,1.55A.989.989,0,0,0,249.83,370.638Z" transform="translate(-248.805 -362.17)" fill="#0097a6"/>
        </g>
        <g id="Group_1238" data-name="Group 1238" transform="translate(40.054 161.459)">
          <path id="Path_80251" data-name="Path 80251" d="M241.749,363.962a1.145,1.145,0,0,0,.22-.827l-1.015-8.632a1.04,1.04,0,0,0-1.145-.951,1.081,1.081,0,0,0-.889,1.224l1.016,8.632a1.038,1.038,0,0,0,1.144.951A1,1,0,0,0,241.749,363.962Z" transform="translate(-238.912 -353.544)" fill="#0097a6"/>
        </g>
        <g id="Group_1239" data-name="Group 1239" transform="translate(63.216 187.737)">
          <path id="Path_80252" data-name="Path 80252" d="M258.673,383.268a.988.988,0,0,0,.739-.337l5.634-6.275a1.15,1.15,0,0,0-.03-1.549.977.977,0,0,0-1.449.031l-5.634,6.275a1.152,1.152,0,0,0,.03,1.55A.989.989,0,0,0,258.673,383.268Z" transform="translate(-257.648 -374.8)" fill="#0097a6"/>
        </g>
        <g id="Group_1240" data-name="Group 1240" transform="translate(3.596 172.456)">
          <path id="Path_80253" data-name="Path 80253" d="M209.424,362.439c0,.744,0,1.479,0,2.2l6.358.571a1.045,1.045,0,0,0,1.109-1,1.077,1.077,0,0,0-.936-1.184Z" transform="translate(-209.422 -362.439)" fill="#0097a6"/>
        </g>
        <g id="Group_1241" data-name="Group 1241" transform="translate(77.043 136.986)">
          <path id="Path_80254" data-name="Path 80254" d="M269.858,342.216a.993.993,0,0,0,.739-.337l5.634-6.277a1.15,1.15,0,0,0-.03-1.549.978.978,0,0,0-1.449.032l-5.634,6.275a1.149,1.149,0,0,0,.03,1.55A.984.984,0,0,0,269.858,342.216Z" transform="translate(-268.832 -333.748)" fill="#0097a6"/>
        </g>
        <g id="Group_1242" data-name="Group 1242" transform="translate(50.962 141.558)">
          <path id="Path_80255" data-name="Path 80255" d="M247.738,338.615a1.12,1.12,0,0,0,.363.766l6.226,5.6a.979.979,0,0,0,1.444-.134,1.148,1.148,0,0,0-.125-1.544l-6.226-5.6a.978.978,0,0,0-1.444.134A1.135,1.135,0,0,0,247.738,338.615Z" transform="translate(-247.736 -337.447)" fill="#0097a6"/>
        </g>
        <g id="Group_1243" data-name="Group 1243" transform="translate(16.2 163.804)">
          <path id="Path_80256" data-name="Path 80256" d="M224.718,365.162a.971.971,0,0,0,.513-.147,1.14,1.14,0,0,0,.373-1.5l-4.076-7.529a.988.988,0,0,0-1.4-.4,1.136,1.136,0,0,0-.373,1.5l4.075,7.53A1.012,1.012,0,0,0,224.718,365.162Z" transform="translate(-219.617 -355.441)" fill="#0097a6"/>
        </g>
        <g id="Group_1244" data-name="Group 1244" transform="translate(13.222 141.22)">
          <path id="Path_80257" data-name="Path 80257" d="M218.233,347.1a1.018,1.018,0,0,0,.911-.593l3.73-7.732a1.135,1.135,0,0,0-.441-1.477.993.993,0,0,0-1.381.472l-3.729,7.732a1.133,1.133,0,0,0,.441,1.476A.964.964,0,0,0,218.233,347.1Z" transform="translate(-217.209 -337.172)" fill="#0097a6"/>
        </g>
        <g id="Group_1245" data-name="Group 1245" transform="translate(24.346 53.436)">
          <path id="Path_80258" data-name="Path 80258" d="M227.231,276.09a1.018,1.018,0,0,0,.912-.593l3.729-7.732a1.135,1.135,0,0,0-.44-1.477.994.994,0,0,0-1.381.472l-3.73,7.732a1.133,1.133,0,0,0,.441,1.476A.964.964,0,0,0,227.231,276.09Z" transform="translate(-226.207 -266.165)" fill="#0097a6"/>
        </g>
        <g id="Group_1246" data-name="Group 1246" transform="translate(18.732 20.181)">
          <path id="Path_80259" data-name="Path 80259" d="M224.231,250a.961.961,0,0,0,.2-.02,1.1,1.1,0,0,0,.812-1.284l-1.542-8.541a1.032,1.032,0,0,0-1.2-.869,1.1,1.1,0,0,0-.812,1.284l1.543,8.541A1.045,1.045,0,0,0,224.231,250Z" transform="translate(-221.665 -239.265)" fill="#0097a6"/>
        </g>
        <g id="Group_1247" data-name="Group 1247" transform="translate(0 49.657)">
          <path id="Path_80260" data-name="Path 80260" d="M209.079,273.842a.953.953,0,0,0,.2-.02,1.1,1.1,0,0,0,.813-1.284L208.545,264a1.032,1.032,0,0,0-1.2-.869,1.1,1.1,0,0,0-.813,1.284l1.543,8.541A1.045,1.045,0,0,0,209.079,273.842Z" transform="translate(-206.513 -263.108)" fill="#0097a6"/>
        </g>
        <g id="Group_1248" data-name="Group 1248" transform="translate(32.04 27.681)">
          <path id="Path_80261" data-name="Path 80261" d="M235,256.066a.96.96,0,0,0,.2-.02,1.1,1.1,0,0,0,.812-1.284l-1.543-8.541a1.031,1.031,0,0,0-1.2-.869,1.1,1.1,0,0,0-.812,1.284l1.543,8.541A1.046,1.046,0,0,0,235,256.066Z" transform="translate(-232.43 -245.332)" fill="#0097a6"/>
        </g>
        <g id="Group_1249" data-name="Group 1249" transform="translate(27.708)">
          <path id="Path_80262" data-name="Path 80262" d="M229.717,231.6a.955.955,0,0,0,.569-.032,1.07,1.07,0,0,0,.66-.783l1.723-7.845-2.409,1.381-1.305,5.959A1.1,1.1,0,0,0,229.717,231.6Z" transform="translate(-228.926 -222.941)" fill="#0097a6"/>
        </g>
        <g id="Group_1250" data-name="Group 1250" transform="translate(4.024 64.061)">
          <path id="Path_80263" data-name="Path 80263" d="M210.793,284.3a1.011,1.011,0,0,0,.865-.508l4.359-7.346a1.141,1.141,0,0,0-.315-1.513.988.988,0,0,0-1.415.339l-4.359,7.345a1.143,1.143,0,0,0,.316,1.513A.979.979,0,0,0,210.793,284.3Z" transform="translate(-209.768 -274.759)" fill="#0097a6"/>
        </g>
        <g id="Group_1251" data-name="Group 1251" transform="translate(28.883 142.805)">
          <path id="Path_80264" data-name="Path 80264" d="M235.154,348.153a1.156,1.156,0,0,0,.176-1.223l-3.5-7.852a1,1,0,0,0-1.366-.517,1.127,1.127,0,0,0-.483,1.461l3.5,7.852a1,1,0,0,0,1.367.517A1.041,1.041,0,0,0,235.154,348.153Z" transform="translate(-229.876 -338.455)" fill="#0097a6"/>
        </g>
        <g id="Group_1252" data-name="Group 1252" transform="translate(105.401 165.076)">
          <path id="Path_80265" data-name="Path 80265" d="M292.629,358.652l6.846,1.184c0-.733-.011-1.472-.021-2.223l-6.5-1.131a1.037,1.037,0,0,0-1.174.909A1.09,1.09,0,0,0,292.629,358.652Z" transform="translate(-291.771 -356.47)" fill="#0097a6"/>
        </g>
        <g id="Group_1253" data-name="Group 1253" transform="translate(107.485 145.021)">
          <path id="Path_80266" data-name="Path 80266" d="M294.314,342.425l4.559.789c-.01-.739-.015-1.479-.025-2.224l-4.2-.728a1.034,1.034,0,0,0-1.174.907A1.085,1.085,0,0,0,294.314,342.425Z" transform="translate(-293.457 -340.247)" fill="#0097a6"/>
        </g>
        <g id="Group_1254" data-name="Group 1254" transform="translate(6.764 119.428)">
          <path id="Path_80267" data-name="Path 80267" d="M213.009,329.84a1.029,1.029,0,0,0,.956-.7l2.963-8.1a1.122,1.122,0,0,0-.58-1.42,1,1,0,0,0-1.328.622l-2.966,8.1a1.121,1.121,0,0,0,.582,1.419A.952.952,0,0,0,213.009,329.84Z" transform="translate(-211.984 -319.545)" fill="#0097a6"/>
        </g>
      </g>
      <g id="Group_1258" data-name="Group 1258" transform="translate(38.702 165.774)">
        <g id="Group_1257" data-name="Group 1257">
          <g id="Group_1256" data-name="Group 1256">
            <path id="Path_80268" data-name="Path 80268" d="M209.767,313.753c1.925-7.953,4.344-16.792,6.741-24.407l.016-.044c.739-2.354,1.479-4.588,2.2-6.637a.629.629,0,0,1,.038-.109c.223-.647.451-1.272.674-1.88a1.111,1.111,0,0,0,.054-.315v0a.9.9,0,0,0-1.755-.3c-2.458,6.7-5.36,16.341-7.85,25.8Q209.822,309.784,209.767,313.753Z" transform="translate(-209.767 -279.457)" fill="#e1e9eb"/>
          </g>
        </g>
      </g>
      <g id="Group_1268" data-name="Group 1268" transform="translate(61.867 0)">
        <path id="Path_80269" data-name="Path 80269" d="M234.506,191.889s-7.137-7.868-4.443-17.018,10.063-9.051,10.063-9.051,4.3-9.734,11.622-10.055,14.226-13.327,20.888-9.794-.721,11.238-.721,11.238,11.416-12.041,15.18-8.509-5.227,13.005-5.227,13.005,9.593-6.744,12.743-4.175-7.517,13.647-7.517,13.647,6.9,12.443-.044,18.022Z" transform="translate(-228.281 -145.364)" fill="#403657"/>
        <g id="Group_1261" data-name="Group 1261" transform="translate(54.34 46.112)">
          <path id="Path_80270" data-name="Path 80270" d="M274.215,185.71s4.564-6.086,7.958-1.053-1.4,19.9-9.713,16.268Z" transform="translate(-272.46 -182.664)" fill="#f97853"/>
          <g id="Group_1259" data-name="Group 1259" transform="translate(1.112 5.329)">
            <path id="Path_80271" data-name="Path 80271" d="M274.062,195.313a.7.7,0,0,0,.675-.513c1.288-4.588,6.043-6.448,6.09-6.467a.7.7,0,0,0-.5-1.313c-.223.084-5.462,2.116-6.944,7.4a.7.7,0,0,0,.486.865A.721.721,0,0,0,274.062,195.313Z" transform="translate(-273.36 -186.974)" fill="#ea5143"/>
          </g>
          <g id="Group_1260" data-name="Group 1260" transform="translate(3.578 8.087)">
            <path id="Path_80272" data-name="Path 80272" d="M278.389,192.474a.7.7,0,0,0,.59-1.082,6.4,6.4,0,0,0-2.635-2.125.7.7,0,1,0-.574,1.282,5.072,5.072,0,0,1,2.027,1.6A.7.7,0,0,0,278.389,192.474Z" transform="translate(-275.354 -189.205)" fill="#ea5143"/>
          </g>
        </g>
        <g id="Group_1265" data-name="Group 1265" transform="translate(0 46.112)">
          <path id="Path_80273" data-name="Path 80273" d="M237.563,185.71s-4.563-6.086-7.958-1.053,1.4,19.9,9.713,16.268Z" transform="translate(-228.505 -182.664)" fill="#f97853"/>
          <g id="Group_1262" data-name="Group 1262" transform="translate(1.782 5.329)">
            <path id="Path_80274" data-name="Path 80274" d="M237.164,195.313a.7.7,0,0,1-.676-.513c-1.287-4.588-6.042-6.448-6.089-6.467a.7.7,0,0,1,.5-1.313c.223.084,5.461,2.116,6.944,7.4a.7.7,0,0,1-.486.865A.727.727,0,0,1,237.164,195.313Z" transform="translate(-229.947 -186.974)" fill="#ea5143"/>
          </g>
          <g id="Group_1264" data-name="Group 1264" transform="translate(3.5 8.087)">
            <g id="Group_1263" data-name="Group 1263">
              <path id="Path_80275" data-name="Path 80275" d="M232.037,192.474a.7.7,0,0,1-.59-1.082,6.418,6.418,0,0,1,2.636-2.125.7.7,0,0,1,.574,1.282,5.07,5.07,0,0,0-2.029,1.6A.7.7,0,0,1,232.037,192.474Z" transform="translate(-231.336 -189.205)" fill="#ea5143"/>
            </g>
          </g>
        </g>
        <path id="Path_80276" data-name="Path 80276" d="M245.768,207.632v14.781s4.408,7.528,10.37,8.039,11.246-6.48,11.246-6.48v-15.3Z" transform="translate(-224.427 -130.653)" fill="#ffa681"/>
        <path id="Path_80277" data-name="Path 80277" d="M245.768,207.632v6.558c4,4.438,11.1,5.547,21.616,4V208.67Z" transform="translate(-224.427 -130.653)" fill="#f97853"/>
        <path id="Path_80278" data-name="Path 80278" d="M233.168,180.476a142.72,142.72,0,0,0,1.915,18.668v.016a.21.21,0,0,0,.011.056l0,.011c.271,1.4.574,2.72.9,3.907.2.695.414,1.424.656,2.168,3.5,10.992,11.621,26.9,32.02,19.622,8.592-3.062,13.067-11.935,15.346-21.559.132-.574.26-1.141.37-1.687.077-.365.15-.718.215-1.066l.1-.513c.017-.088.028-.148.033-.188a.129.129,0,0,0,.006-.032,105.483,105.483,0,0,0,1.451-20.229,15.428,15.428,0,0,0-7.83-13.127c-12.851-7.29-26.42-4.569-35.353-1.137A15.367,15.367,0,0,0,233.168,180.476Z" transform="translate(-227.408 -141.455)" fill="#ffa681"/>
        <path id="Path_80279" data-name="Path 80279" d="M234.709,192.07l.006.016a.211.211,0,0,0,.011.056l0,.011c.132.48.851,3.112,1.561,6.075,3.5,10.992,11.621,26.9,32.02,19.622,8.592-3.062,13.067-11.935,15.346-21.559.132-.574.26-1.141.37-1.687.077-.365.15-.718.215-1.066l.1-.513c.017-.088.028-.148.033-.188a.128.128,0,0,0,.006-.032l-3-.607a22.921,22.921,0,0,1-3.4,7.9c-2.538-6.081-15.417-2.042-15.417-2.042l-.061.022a7.965,7.965,0,0,1-4.866-.022s-12.725-4.216-15.362,1.584a81.056,81.056,0,0,1-4.426-7.786l-3.134.221ZM260.07,200.8c14.562-1.963,12.272,5.877,12.272,5.877a24.42,24.42,0,0,1-4.09,3.107,16.777,16.777,0,0,1-8.575,2.334c-2.234-.094-2.847.363-8.5-2.693a14.25,14.25,0,0,1-3-2.273h0v-.006C247.936,205.616,245.469,198.295,260.07,200.8Z" transform="translate(-227.039 -134.382)" fill="#403657"/>
        <path id="Path_80280" data-name="Path 80280" d="M244.55,186.12c0,1.579.812,2.857,1.816,2.857s1.816-1.278,1.816-2.857-.813-2.857-1.816-2.857S244.55,184.543,244.55,186.12Z" transform="translate(-224.714 -136.41)" fill="#403657"/>
        <path id="Path_80281" data-name="Path 80281" d="M262.915,186.12c0,1.579.813,2.857,1.816,2.857s1.817-1.278,1.817-2.857-.813-2.857-1.817-2.857S262.915,184.543,262.915,186.12Z" transform="translate(-220.375 -136.41)" fill="#403657"/>
        <path id="Path_80282" data-name="Path 80282" d="M240.855,178.063s7.505-2.966,13.284-.47l-.577,3.214s-8.482-.717-12.754,1.015A5.572,5.572,0,0,1,240.855,178.063Z" transform="translate(-225.67 -137.986)" fill="#403657"/>
        <path id="Path_80283" data-name="Path 80283" d="M272.211,178.077s-7.561-2.988-13.382-.473l.582,3.238s8.544-.722,12.85,1.022A5.62,5.62,0,0,0,272.211,178.077Z" transform="translate(-221.341 -137.985)" fill="#403657"/>
        <g id="Group_1267" data-name="Group 1267" transform="translate(29.355 48.742)">
          <g id="Group_1266" data-name="Group 1266">
            <path id="Path_80284" data-name="Path 80284" d="M255.228,198.527a7.459,7.459,0,0,1-2.542-.535.7.7,0,0,1,.532-1.3c.634.257,2.156.66,2.816.266a.764.764,0,0,0,.345-.654c.253-2.453-.418-10.671-.424-10.754a.7.7,0,0,1,1.4-.115c.028.344.689,8.433.422,11.014a2.144,2.144,0,0,1-1.021,1.715A2.968,2.968,0,0,1,255.228,198.527Z" transform="translate(-252.25 -184.791)" fill="#f97853"/>
          </g>
        </g>
        <path id="Path_80285" data-name="Path 80285" d="M265.055,200.229c-.533,2.681-2.3,7.617-8.274,7.617s-7.661-4.51-8.237-7.617Z" transform="translate(-223.771 -132.402)" fill="#fff"/>
        <path id="Path_80286" data-name="Path 80286" d="M233.166,180.473a143.934,143.934,0,0,0,1.917,18.671l3.138-.223s-.76-4.85-1.111-8.01-.947-9.065,1.749-9.8,1.111-7.467,4.854-10.388,12.114-3.731,17.634-.333,11.738-.257,14.28.333,6,4.093,5.07,7.373,1.868,5.266,2.549,8.658-1.5,12.52-1.5,12.52l3,.6a105.274,105.274,0,0,0,1.454-20.223,15.43,15.43,0,0,0-7.829-13.132c-12.857-7.288-26.423-4.57-35.355-1.137A15.382,15.382,0,0,0,233.166,180.473Z" transform="translate(-227.408 -141.455)" fill="#403657"/>
      </g>
    </g>
    <g id="Group_1311" data-name="Group 1311" transform="translate(265.115 242.594)">
      <g id="Group_1309" data-name="Group 1309" transform="translate(63.935)">
        <g id="Group_1308" data-name="Group 1308">
          <g id="Group_1271" data-name="Group 1271" transform="translate(0 105.207)">
            <g id="Group_1270" data-name="Group 1270">
              <path id="Path_80287" data-name="Path 80287" d="M353.567,305.771c-1.909,17.409-13.276,56.3-21.146,63.92-10.245,9.919-43.965,30.8-61.529,41.506-3.169,1.931,11.715,14.793,11.715,14.793s46.634-19.942,64.444-35.665c5.038-4.448,15.268-18.477,26.817-45.2,3.5-8.1,11.986-24.442,11.545-35.1C384.907,297.768,365.426,299.786,353.567,305.771Z" transform="translate(-270.45 -301.032)" fill="#bbcace"/>
            </g>
          </g>
          <path id="Path_80288" data-name="Path 80288" d="M313.291,385.756s-12.683,4.816-17.179,10.115-10.435,9.794-8.99,11.88,8.027-4.014,8.027-4.014,1.8,6.708,8.188,7.431S321.8,399.4,321.8,399.4Z" transform="translate(-266.563 -175.808)" fill="#ffa681"/>
          <g id="Group_1306" data-name="Group 1306" transform="translate(64.986)">
            <g id="Group_1278" data-name="Group 1278" transform="translate(0 87.31)">
              <path id="Path_80289" data-name="Path 80289" d="M429.96,357.8c0,1.1-.006,2.4-.026,3.882s-.051,3.112-.1,4.907c-.035,1.23-.074,2.531-.119,3.894q-.063,1.725-.135,3.578-.082,1.893-.177,3.9c-.883,18.232-3.018,43.406-7.713,63.588H323.017c3.291-14.668,8.326-37.8,12.321-67.82q.25-1.893.5-3.824t.486-3.9c.086-.7.169-1.4.253-2.1.067-.581.135-1.16.2-1.731q.274-2.427.5-4.772.189-1.955.351-3.85c1.691-20.181,1.094-35.305,3.525-44.363C343.978,298.644,377,286.555,377,286.555l20.688,1.083s19.726,6.441,30.271,15.7,1.727,36.891,1.984,52.581C429.953,356.456,429.956,357.085,429.96,357.8Z" transform="translate(-323.017 -286.555)" fill="#e2f0f5"/>
              <g id="Group_1272" data-name="Group 1272" transform="translate(14.253 66.998)">
                <path id="Path_80290" data-name="Path 80290" d="M427.21,348.876a230.49,230.49,0,0,1-27.515,1.519,408.46,408.46,0,0,1-65.148-5.8q.189-1.955.351-3.85c7.943,1.407,53.916,9.01,92.339,4.245C427.238,346.1,427.23,347.4,427.21,348.876Z" transform="translate(-334.546 -340.749)" fill="#0097a6"/>
              </g>
              <g id="Group_1273" data-name="Group 1273" transform="translate(13.303 75.619)">
                <path id="Path_80291" data-name="Path 80291" d="M427.295,352.135c-.035,1.23-.074,2.531-.119,3.894a231.161,231.161,0,0,1-27.3,1.491,407.925,407.925,0,0,1-66.1-5.964c.087-.7.169-1.4.253-2.1.067-.581.135-1.16.2-1.731C338.8,348.557,387.141,357.086,427.295,352.135Z" transform="translate(-333.778 -347.723)" fill="#0097a6"/>
              </g>
              <g id="Group_1274" data-name="Group 1274" transform="translate(12.321 83.352)">
                <path id="Path_80292" data-name="Path 80292" d="M427.229,358.129q-.082,1.893-.177,3.9a227.934,227.934,0,0,1-28.485,1.638,408.355,408.355,0,0,1-65.585-5.87q.25-1.893.5-3.824C340.6,355.246,388.09,363.251,427.229,358.129Z" transform="translate(-332.983 -353.978)" fill="#0097a6"/>
              </g>
              <g id="Group_1275" data-name="Group 1275" transform="translate(58.289 7.236)">
                <path id="Path_80293" data-name="Path 80293" d="M371.829,305.02c10.287,0,19.778-10.935,20.188-11.414a.725.725,0,0,0-1.1-.944c-.1.116-10.038,11.566-19.973,10.877a.726.726,0,0,0-.1,1.449C371.171,305.009,371.5,305.02,371.829,305.02Z" transform="translate(-370.166 -292.408)" fill="#e8a817"/>
              </g>
              <g id="Group_1276" data-name="Group 1276" transform="translate(29.831 91.289)">
                <path id="Path_80294" data-name="Path 80294" d="M386.186,411.924a.726.726,0,0,0,.082-1.446c-26.572-3.059-37.58-49.055-37.687-49.518a.726.726,0,0,0-1.414.329c.451,1.936,11.358,47.457,38.936,50.632C386.13,411.923,386.158,411.924,386.186,411.924Z" transform="translate(-347.147 -360.398)" fill="#e8a817"/>
              </g>
              <g id="Group_1277" data-name="Group 1277" transform="translate(40.973 105.25)">
                <path id="Path_80295" data-name="Path 80295" d="M373.475,395.338a.726.726,0,0,0,.382-1.344c-14.134-8.713-16.236-21.558-16.254-21.686a.726.726,0,0,0-1.435.216c.082.551,2.194,13.622,16.927,22.706A.726.726,0,0,0,373.475,395.338Z" transform="translate(-356.159 -371.69)" fill="#e8a817"/>
              </g>
            </g>
            <g id="Group_1305" data-name="Group 1305" transform="translate(30.651)">
              <circle id="Ellipse_37" data-name="Ellipse 37" cx="29.11" cy="29.11" r="29.11" transform="translate(6.779 10.388)" fill="#403657"/>
              <path id="Path_80296" data-name="Path 80296" d="M355.066,250.209s-8.243-2.275-7.157-10.276c.925-6.811,8.925-2.4,8.221-7.718s-2.266-10.16,4.619-11.491c6.022-1.163,6.123,2.963,14.032-3.024,9.341-7.073,16.519,9.307,24.856,9.8,12.3.724,13.851,7.681,15.06,13.244s-3.525,9.466-3.525,9.466Z" transform="translate(-347.81 -215.931)" fill="#403657"/>
              <g id="Group_1282" data-name="Group 1282" transform="translate(2.519 44.566)">
                <path id="Path_80297" data-name="Path 80297" d="M359,255.057s-4.611-6.148-8.039-1.064,1.418,20.1,9.813,16.435Z" transform="translate(-349.848 -251.98)" fill="#f97853"/>
                <g id="Group_1279" data-name="Group 1279" transform="translate(1.8 5.383)">
                  <path id="Path_80298" data-name="Path 80298" d="M358.6,264.758a.708.708,0,0,1-.682-.518c-1.3-4.635-6.1-6.515-6.153-6.534a.709.709,0,0,1,.5-1.327c.224.085,5.517,2.139,7.016,7.477a.711.711,0,0,1-.492.875A.737.737,0,0,1,358.6,264.758Z" transform="translate(-351.303 -256.334)" fill="#ea5143"/>
                </g>
                <g id="Group_1281" data-name="Group 1281" transform="translate(3.535 8.17)">
                  <g id="Group_1280" data-name="Group 1280">
                    <path id="Path_80299" data-name="Path 80299" d="M353.415,261.89a.709.709,0,0,1-.6-1.093,6.479,6.479,0,0,1,2.663-2.146.709.709,0,1,1,.58,1.294,5.14,5.14,0,0,0-2.05,1.619A.708.708,0,0,1,353.415,261.89Z" transform="translate(-352.707 -258.589)" fill="#ea5143"/>
                  </g>
                </g>
              </g>
              <path id="Path_80300" data-name="Path 80300" d="M388.475,277.2v14.932s-6.139,6.582-12.161,7.1-9.676-6.621-9.676-6.621V278.254Z" transform="translate(-343.362 -201.454)" fill="#ffa681"/>
              <path id="Path_80301" data-name="Path 80301" d="M388.475,277.2v6.625c-4.041,4.484-11.218,5.6-21.837,4.036v-9.612Z" transform="translate(-343.362 -201.454)" fill="#f97853"/>
              <path id="Path_80302" data-name="Path 80302" d="M407.281,249.767a145.4,145.4,0,0,1-1.937,18.863c-.277,1.448-.588,2.809-.936,4.029-3.143,11-11,29.873-33.008,22.013-9.718-3.469-14.223-14.295-16.231-25.3a106.457,106.457,0,0,1-1.469-20.43,15.587,15.587,0,0,1,7.91-13.265c12.989-7.364,26.695-4.619,35.718-1.15A15.539,15.539,0,0,1,407.281,249.767Z" transform="translate(-346.424 -212.367)" fill="#ffa681"/>
              <g id="Group_1296" data-name="Group 1296" transform="translate(8.15 44.315)">
                <g id="Group_1295" data-name="Group 1295">
                  <g id="Group_1285" data-name="Group 1285" transform="translate(26.306 0.536)">
                    <g id="Group_1284" data-name="Group 1284">
                      <g id="Group_1283" data-name="Group 1283">
                        <path id="Path_80303" data-name="Path 80303" d="M375.682,255.307v1.177a8.811,8.811,0,0,0,8.789,8.823h.287a7.946,7.946,0,0,0,5.469-2.421,8.659,8.659,0,0,0,2.539-6.187v-1.392a3.147,3.147,0,0,0-.907-2.189,3.082,3.082,0,0,0-2.189-.907h-10.89a3.088,3.088,0,0,0-2.793,1.764,3,3,0,0,0-.3,1.251A.445.445,0,0,0,375.682,255.307Zm1.284,0a1.813,1.813,0,0,1,1.812-1.812h10.89a1.81,1.81,0,0,1,1.812,1.812V256.7a7.358,7.358,0,0,1-2.155,5.268,6.706,6.706,0,0,1-4.6,2.055h-.261a7.524,7.524,0,0,1-7.5-7.537Z" transform="translate(-375.682 -252.21)" fill="#403657"/>
                      </g>
                    </g>
                  </g>
                  <g id="Group_1288" data-name="Group 1288" transform="translate(4.499 0.536)">
                    <g id="Group_1287" data-name="Group 1287">
                      <g id="Group_1286" data-name="Group 1286">
                        <path id="Path_80304" data-name="Path 80304" d="M358.042,255.307v1.177a8.789,8.789,0,0,0,2.609,6.27,8.7,8.7,0,0,0,6.18,2.553h.29a7.935,7.935,0,0,0,5.466-2.421,8.663,8.663,0,0,0,2.544-6.187v-1.392a.246.246,0,0,0,0-.061,2.979,2.979,0,0,0-.261-1.186,3.09,3.09,0,0,0-2.831-1.851h-10.9a3.1,3.1,0,0,0-2.381,1.118,3.028,3.028,0,0,0-.6,1.148A2.813,2.813,0,0,0,358.042,255.307Zm1.286,0a1.812,1.812,0,0,1,1.811-1.812h10.9a1.812,1.812,0,0,1,1.811,1.812V256.7a7.378,7.378,0,0,1-2.154,5.268,6.708,6.708,0,0,1-4.6,2.055h-.266a7.528,7.528,0,0,1-7.5-7.537Z" transform="translate(-358.042 -252.21)" fill="#403657"/>
                      </g>
                    </g>
                  </g>
                  <g id="Group_1290" data-name="Group 1290" transform="translate(42.663)">
                    <g id="Group_1289" data-name="Group 1289">
                      <path id="Path_80305" data-name="Path 80305" d="M397.4,251.793a15.356,15.356,0,0,0-7.385,1.427c-.292.142-1.071.649-1.1.67l.612,1.09c.009,0,.86-.514,1.194-.668a13.457,13.457,0,0,1,6.683-1.239Z" transform="translate(-388.913 -251.777)" fill="#403657"/>
                    </g>
                  </g>
                  <g id="Group_1292" data-name="Group 1292" transform="translate(20.207 1.82)">
                    <g id="Group_1291" data-name="Group 1291">
                      <path id="Path_80306" data-name="Path 80306" d="M377.711,255.11l.422-1.214a13.1,13.1,0,0,0-3.86-.647,8.669,8.669,0,0,0-3.525.675l.561,1.156a7.538,7.538,0,0,1,2.963-.546A11.982,11.982,0,0,1,377.711,255.11Z" transform="translate(-370.748 -253.249)" fill="#403657"/>
                    </g>
                  </g>
                  <g id="Group_1294" data-name="Group 1294" transform="translate(0 0.325)">
                    <g id="Group_1293" data-name="Group 1293">
                      <path id="Path_80307" data-name="Path 80307" d="M354.4,252.04v1.288a16.6,16.6,0,0,1,5.154,1.423l.566-1.152A17.411,17.411,0,0,0,354.4,252.04Z" transform="translate(-354.403 -252.04)" fill="#403657"/>
                    </g>
                  </g>
                </g>
              </g>
              <path id="Path_80308" data-name="Path 80308" d="M366.9,256.6c0,1.594-.822,2.885-1.836,2.885s-1.835-1.292-1.835-2.885.822-2.887,1.835-2.887S366.9,255,366.9,256.6Z" transform="translate(-344.167 -207.005)" fill="#403657"/>
              <path id="Path_80309" data-name="Path 80309" d="M384.279,256.6c0,1.594-.821,2.885-1.835,2.885s-1.835-1.292-1.835-2.885.821-2.887,1.835-2.887S384.279,255,384.279,256.6Z" transform="translate(-340.061 -207.005)" fill="#403657"/>
              <path id="Path_80310" data-name="Path 80310" d="M359.925,249.162s7.638-3.018,13.519-.477l-.491,2.73a24.8,24.8,0,0,0-12.606.9C359.957,251.059,359.428,250.456,359.925,249.162Z" transform="translate(-344.996 -208.433)" fill="#403657"/>
              <path id="Path_80311" data-name="Path 80311" d="M390.742,249.162s-7.638-3.018-13.52-.477l.492,2.73a24.8,24.8,0,0,1,12.6.9C390.708,251.059,391.239,250.456,390.742,249.162Z" transform="translate(-340.861 -208.433)" fill="#403657"/>
              <g id="Group_1298" data-name="Group 1298" transform="translate(30.129 47.81)">
                <g id="Group_1297" data-name="Group 1297">
                  <path id="Path_80312" data-name="Path 80312" d="M374.819,268.482a7.552,7.552,0,0,0,2.568-.541.709.709,0,0,0-.537-1.313c-.64.26-2.178.668-2.845.268a.769.769,0,0,1-.35-.66c-.256-2.477.422-10.781.429-10.864a.71.71,0,1,0-1.414-.116c-.028.346-.695,8.519-.425,11.126a2.167,2.167,0,0,0,1.031,1.732A3,3,0,0,0,374.819,268.482Z" transform="translate(-372.181 -254.604)" fill="#f97853"/>
                </g>
              </g>
              <path id="Path_80313" data-name="Path 80313" d="M367.2,268.743c.58,2.916,2.506,8.283,9,8.283s8.331-4.9,8.959-8.283Z" transform="translate(-343.229 -203.453)" fill="#fff"/>
              <g id="Group_1299" data-name="Group 1299" transform="translate(29.22 74.991)">
                <path id="Path_80314" data-name="Path 80314" d="M375.11,278.876a7.413,7.413,0,0,0,3.458-.969.71.71,0,0,0-.736-1.214,6.023,6.023,0,0,1-2.722.765,5.758,5.758,0,0,1-2.583-.762.709.709,0,0,0-.745,1.207A7.1,7.1,0,0,0,375.11,278.876Z" transform="translate(-371.446 -276.59)" fill="#f97853"/>
              </g>
              <path id="Path_80315" data-name="Path 80315" d="M357.364,264.743c-.535-2.925-1.066-6.7-.68-8.637.69-3.426,3.527-5.44,2.581-8.742s2.545-6.864,5.119-7.453,8.573.684,14.487-2.124c5.642-2.683,15.452-.763,17.053,2.858,1.934,4.385-.7,4.8,4.58,9.541,2.1,1.89-.392,6.8-.748,9.991a21.3,21.3,0,0,0-.126,3.764l.021.8h6.32c.7-4.951,1.094-10.411,1.312-14.977a15.542,15.542,0,0,0-9.956-15.243c-9.025-3.469-22.725-6.217-35.72,1.15a15.578,15.578,0,0,0-7.9,13.264,113.034,113.034,0,0,0,.765,15.807Z" transform="translate(-346.423 -212.367)" fill="#403657"/>
              <g id="Group_1304" data-name="Group 1304" transform="translate(56.744 44.541)">
                <path id="Path_80316" data-name="Path 80316" d="M393.712,262.524a26.48,26.48,0,0,1,.386-4.933c.394-2.225,1.041-4.244,3.318-5.173,1.832-.745,3.789-.76,5.181,1.3,3.429,5.085-.389,20.9-8.784,17.24Z" transform="translate(-393.71 -251.959)" fill="#ffa681"/>
                <g id="Group_1301" data-name="Group 1301" transform="translate(0.877 4.832)">
                  <g id="Group_1300" data-name="Group 1300">
                    <path id="Path_80317" data-name="Path 80317" d="M395.268,265.432a.712.712,0,0,0,.569-.643c.368-4.8,4.71-7.583,4.753-7.61a.709.709,0,0,0-.752-1.2c-.2.126-4.992,3.177-5.417,8.706a.711.711,0,0,0,.654.762A.767.767,0,0,0,395.268,265.432Z" transform="translate(-394.419 -255.868)" fill="#f97853"/>
                  </g>
                </g>
                <g id="Group_1303" data-name="Group 1303" transform="translate(2.495 8.366)">
                  <g id="Group_1302" data-name="Group 1302">
                    <path id="Path_80318" data-name="Path 80318" d="M399.256,261.517a.71.71,0,0,0,.37-1.189,6.453,6.453,0,0,0-3.031-1.584.709.709,0,0,0-.314,1.383,5.12,5.12,0,0,1,2.327,1.187A.711.711,0,0,0,399.256,261.517Z" transform="translate(-395.728 -258.726)" fill="#f97853"/>
                  </g>
                </g>
              </g>
            </g>
          </g>
          <g id="Group_1307" data-name="Group 1307" transform="translate(43.539 100.852)">
            <path id="Path_80319" data-name="Path 80319" d="M427.862,297.509c-10.367,15.714-50.046,70.043-59,76.354-11.654,8.216-43.425,19.9-61.666,32.078-6.2,4.139,8.445,15.85,8.445,15.85s44.463-12.5,64.488-25.283c5.665-3.616,29.226-27.217,44.247-48.151,5.147-7.172,13.517-17.132,14.729-27.726C440.5,308.439,436.669,301.915,427.862,297.509Z" transform="translate(-305.668 -297.509)" fill="#c7d5d9"/>
          </g>
        </g>
      </g>
      <g id="Group_1310" data-name="Group 1310" transform="translate(0 141.134)">
        <path id="Rectangle_58088" data-name="Rectangle 58088" d="M2.313,0h124.7a2.314,2.314,0,0,1,2.314,2.314V13.256a2.313,2.313,0,0,1-2.313,2.313H2.313A2.313,2.313,0,0,1,0,13.256V2.313A2.313,2.313,0,0,1,2.313,0Z" transform="translate(24.559 85.602)" fill="#1a0b42"/>
        <path id="Path_80320" data-name="Path 80320" d="M243.32,431.264l-24.309-91.037a8.053,8.053,0,0,1,7.781-10.131h53.489a8.052,8.052,0,0,1,7.754,5.876L314.8,431.264Z" transform="translate(-218.734 -330.092)" fill="#00556f"/>
        <path id="Path_80321" data-name="Path 80321" d="M276.276,335.974l26.545,94.507h6.112l-26.545-94.507a8.064,8.064,0,0,0-7.756-5.881H268.52A8.065,8.065,0,0,1,276.276,335.974Z" transform="translate(-206.971 -330.093)" fill="#1a0b42"/>
        <path id="Path_80322" data-name="Path 80322" d="M267.881,376.388c1.39,6-2.353,10.873-8.357,10.873s-12-4.868-13.389-10.873,2.353-10.873,8.357-10.873S266.492,370.383,267.881,376.388Z" transform="translate(-212.328 -321.724)" fill="#0097a6"/>
      </g>
    </g>
    <g id="Group_1352" data-name="Group 1352" transform="translate(48.607 103.072)">
      <g id="Group_1330" data-name="Group 1330" transform="translate(423.004 30.198)">
        <g id="Group_1329" data-name="Group 1329">
          <g id="Group_1312" data-name="Group 1312" transform="translate(6.646)">
            <path id="Path_80323" data-name="Path 80323" d="M399.307,143.826a8.164,8.164,0,1,1,8.163-8.164A8.174,8.174,0,0,1,399.307,143.826Zm0-13.767a5.6,5.6,0,1,0,5.6,5.6A5.609,5.609,0,0,0,399.307,130.059Z" transform="translate(-391.143 -127.499)" fill="#bbcace"/>
          </g>
          <g id="Group_1313" data-name="Group 1313" transform="translate(36.034 28.639)">
            <path id="Path_80324" data-name="Path 80324" d="M423.078,166.992a8.164,8.164,0,1,1,8.163-8.163A8.172,8.172,0,0,1,423.078,166.992Zm0-13.766a5.6,5.6,0,1,0,5.6,5.6A5.609,5.609,0,0,0,423.078,153.227Z" transform="translate(-414.915 -150.665)" fill="#bbcace"/>
          </g>
          <g id="Group_1320" data-name="Group 1320" transform="translate(45.076 63.285)">
            <g id="Group_1316" data-name="Group 1316" transform="translate(7.927)">
              <g id="Group_1314" data-name="Group 1314">
                <path id="Path_80325" data-name="Path 80325" d="M429.922,186.9a1.281,1.281,0,0,1-1.281-1.281v-5.647a1.28,1.28,0,1,1,2.56,0v5.647A1.28,1.28,0,0,1,429.922,186.9Z" transform="translate(-428.641 -178.69)" fill="#bbcace"/>
              </g>
              <g id="Group_1315" data-name="Group 1315" transform="translate(0 9.883)">
                <path id="Path_80326" data-name="Path 80326" d="M429.922,194.892a1.28,1.28,0,0,1-1.281-1.28v-5.647a1.28,1.28,0,1,1,2.56,0v5.647A1.279,1.279,0,0,1,429.922,194.892Z" transform="translate(-428.641 -186.684)" fill="#bbcace"/>
              </g>
            </g>
            <g id="Group_1319" data-name="Group 1319" transform="translate(0 7.765)">
              <g id="Group_1317" data-name="Group 1317" transform="translate(10.78)">
                <path id="Path_80327" data-name="Path 80327" d="M437.3,187.533H432.23a1.281,1.281,0,0,1,0-2.562H437.3a1.281,1.281,0,0,1,0,2.562Z" transform="translate(-430.949 -184.971)" fill="#bbcace"/>
              </g>
              <g id="Group_1318" data-name="Group 1318">
                <path id="Path_80328" data-name="Path 80328" d="M428.582,187.533H423.51a1.281,1.281,0,0,1,0-2.562h5.072a1.281,1.281,0,0,1,0,2.562Z" transform="translate(-422.229 -184.971)" fill="#bbcace"/>
              </g>
            </g>
          </g>
          <g id="Group_1328" data-name="Group 1328" transform="translate(0 31.642)">
            <g id="Group_1327" data-name="Group 1327">
              <g id="Group_1323" data-name="Group 1323" transform="translate(7.927)">
                <g id="Group_1321" data-name="Group 1321">
                  <path id="Path_80329" data-name="Path 80329" d="M393.46,161.3a1.281,1.281,0,0,1-1.281-1.281v-5.647a1.281,1.281,0,1,1,2.562,0v5.647A1.281,1.281,0,0,1,393.46,161.3Z" transform="translate(-392.179 -153.094)" fill="#0097a6"/>
                </g>
                <g id="Group_1322" data-name="Group 1322" transform="translate(0 9.883)">
                  <path id="Path_80330" data-name="Path 80330" d="M393.46,169.3a1.281,1.281,0,0,1-1.281-1.281v-5.647a1.281,1.281,0,1,1,2.562,0v5.647A1.281,1.281,0,0,1,393.46,169.3Z" transform="translate(-392.179 -161.088)" fill="#0097a6"/>
                </g>
              </g>
              <g id="Group_1326" data-name="Group 1326" transform="translate(0 7.765)">
                <g id="Group_1324" data-name="Group 1324" transform="translate(10.78)">
                  <path id="Path_80331" data-name="Path 80331" d="M400.841,161.937h-5.074a1.281,1.281,0,1,1,0-2.562h5.074a1.281,1.281,0,0,1,0,2.562Z" transform="translate(-394.487 -159.375)" fill="#0097a6"/>
                </g>
                <g id="Group_1325" data-name="Group 1325">
                  <path id="Path_80332" data-name="Path 80332" d="M392.121,161.937h-5.074a1.281,1.281,0,0,1,0-2.562h5.074a1.281,1.281,0,0,1,0,2.562Z" transform="translate(-385.767 -159.375)" fill="#0097a6"/>
                </g>
              </g>
            </g>
          </g>
        </g>
      </g>
      <g id="Group_1349" data-name="Group 1349" transform="translate(0)">
        <g id="Group_1348" data-name="Group 1348">
          <g id="Group_1331" data-name="Group 1331" transform="translate(58.962 0.881)">
            <path id="Path_80333" data-name="Path 80333" d="M91.3,111.948a8.164,8.164,0,1,1,8.163,8.164A8.172,8.172,0,0,1,91.3,111.948Zm2.562,0a5.6,5.6,0,1,0,5.6-5.6A5.609,5.609,0,0,0,93.858,111.948Z" transform="translate(-91.296 -103.785)" fill="#c7d5d9"/>
          </g>
          <g id="Group_1332" data-name="Group 1332" transform="translate(26.179 31.997)">
            <path id="Path_80334" data-name="Path 80334" d="M64.778,137.118a8.163,8.163,0,1,1,8.163,8.163A8.173,8.173,0,0,1,64.778,137.118Zm2.56,0a5.6,5.6,0,1,0,5.6-5.6A5.609,5.609,0,0,0,67.338,137.118Z" transform="translate(-64.778 -128.954)" fill="#c7d5d9"/>
          </g>
          <g id="Group_1339" data-name="Group 1339" transform="translate(0 43.409)">
            <g id="Group_1335" data-name="Group 1335" transform="translate(7.926)">
              <g id="Group_1333" data-name="Group 1333">
                <path id="Path_80335" data-name="Path 80335" d="M51.294,146.393a1.281,1.281,0,0,0,1.281-1.281v-5.647a1.281,1.281,0,0,0-2.562,0v5.647A1.281,1.281,0,0,0,51.294,146.393Z" transform="translate(-50.013 -138.185)" fill="#c7d5d9"/>
              </g>
              <g id="Group_1334" data-name="Group 1334" transform="translate(0 9.881)">
                <path id="Path_80336" data-name="Path 80336" d="M51.294,154.387a1.281,1.281,0,0,0,1.281-1.281v-5.647a1.281,1.281,0,1,0-2.562,0v5.647A1.281,1.281,0,0,0,51.294,154.387Z" transform="translate(-50.013 -146.178)" fill="#c7d5d9"/>
              </g>
            </g>
            <g id="Group_1338" data-name="Group 1338" transform="translate(0 7.764)">
              <g id="Group_1336" data-name="Group 1336">
                <path id="Path_80337" data-name="Path 80337" d="M44.883,147.027h5.072a1.281,1.281,0,0,0,0-2.562H44.883a1.281,1.281,0,0,0,0,2.562Z" transform="translate(-43.602 -144.465)" fill="#c7d5d9"/>
              </g>
              <g id="Group_1337" data-name="Group 1337" transform="translate(10.78)">
                <path id="Path_80338" data-name="Path 80338" d="M53.6,147.027h5.072a1.281,1.281,0,0,0,0-2.562H53.6a1.281,1.281,0,0,0,0,2.562Z" transform="translate(-52.322 -144.465)" fill="#c7d5d9"/>
              </g>
            </g>
          </g>
          <g id="Group_1347" data-name="Group 1347" transform="translate(29.506)">
            <g id="Group_1346" data-name="Group 1346">
              <g id="Group_1342" data-name="Group 1342" transform="translate(7.927)">
                <g id="Group_1340" data-name="Group 1340">
                  <path id="Path_80339" data-name="Path 80339" d="M75.161,111.28A1.281,1.281,0,0,0,76.441,110v-5.647a1.28,1.28,0,0,0-2.56,0V110A1.281,1.281,0,0,0,75.161,111.28Z" transform="translate(-73.881 -103.072)" fill="#0097a6"/>
                </g>
                <g id="Group_1341" data-name="Group 1341" transform="translate(0 9.881)">
                  <path id="Path_80340" data-name="Path 80340" d="M75.161,119.274a1.281,1.281,0,0,0,1.281-1.281v-5.647a1.28,1.28,0,1,0-2.56,0v5.647A1.281,1.281,0,0,0,75.161,119.274Z" transform="translate(-73.881 -111.065)" fill="#0097a6"/>
                </g>
              </g>
              <g id="Group_1345" data-name="Group 1345" transform="translate(0 7.764)">
                <g id="Group_1343" data-name="Group 1343">
                  <path id="Path_80341" data-name="Path 80341" d="M68.75,111.914h5.072a1.281,1.281,0,0,0,0-2.562H68.75a1.281,1.281,0,0,0,0,2.562Z" transform="translate(-67.469 -109.352)" fill="#0097a6"/>
                </g>
                <g id="Group_1344" data-name="Group 1344" transform="translate(10.78)">
                  <path id="Path_80342" data-name="Path 80342" d="M77.47,111.914h5.072a1.281,1.281,0,0,0,0-2.562H77.47a1.281,1.281,0,0,0,0,2.562Z" transform="translate(-76.189 -109.352)" fill="#0097a6"/>
                </g>
              </g>
            </g>
          </g>
        </g>
      </g>
      <g id="Group_1351" data-name="Group 1351" transform="translate(306.843 11.759)">
        <path id="Path_80343" data-name="Path 80343" d="M358.841,118.537v24.857a5.954,5.954,0,0,1-5.953,5.951H307.755l-13.626,4.889a1.734,1.734,0,0,1-2.2-2.257l5.155-13.311v-20.13a5.954,5.954,0,0,1,5.954-5.953h49.853A5.955,5.955,0,0,1,358.841,118.537Z" transform="translate(-291.805 -112.584)" fill="#c7d5d9"/>
        <g id="Group_1350" data-name="Group 1350" transform="translate(14.473 9.7)" opacity="0.5">
          <path id="Path_80344" data-name="Path 80344" d="M346.56,123.715H305.154a1.641,1.641,0,0,1-1.642-1.642h0a1.642,1.642,0,0,1,1.642-1.643H346.56a1.643,1.643,0,0,1,1.643,1.643h0A1.642,1.642,0,0,1,346.56,123.715Z" transform="translate(-303.512 -120.43)" fill="#f5fbff"/>
          <path id="Path_80345" data-name="Path 80345" d="M346.56,129.066H305.154a1.642,1.642,0,0,1-1.642-1.643h0a1.642,1.642,0,0,1,1.642-1.643H346.56a1.643,1.643,0,0,1,1.643,1.643h0A1.643,1.643,0,0,1,346.56,129.066Z" transform="translate(-303.512 -119.166)" fill="#f5fbff"/>
          <path id="Path_80346" data-name="Path 80346" d="M346.56,134.416H305.154a1.642,1.642,0,0,1-1.642-1.643h0a1.642,1.642,0,0,1,1.642-1.642H346.56a1.643,1.643,0,0,1,1.643,1.642h0A1.643,1.643,0,0,1,346.56,134.416Z" transform="translate(-303.512 -117.902)" fill="#f5fbff"/>
        </g>
      </g>
    </g>
    <g id="Group_1353" data-name="Group 1353" transform="translate(55.616 484.917)">
      <path id="Path_80348" data-name="Path 80348" d="M7.509,0H492.5A7.506,7.506,0,0,1,500,7.506v4.436a7.506,7.506,0,0,1-7.506,7.506H7.506A7.506,7.506,0,0,1,0,11.942V7.509A7.509,7.509,0,0,1,7.509,0Z" transform="translate(0)" fill="#0097a6"/>
      <path id="Path_80347" data-name="Path 80347" d="M549.276,421.223v.444h-500v-.444a9.278,9.278,0,0,1,9.279-9.279H539.994A9.281,9.281,0,0,1,549.276,421.223Z" transform="translate(-49.272 -411.944)" fill="#bbcace"/>
    </g>
  </g>
</svg>
