<svg xmlns="http://www.w3.org/2000/svg" width="107.409" height="80" viewBox="0 0 107.409 80">
  <g id="Group_1379" data-name="Group 1379" transform="translate(-313.464 -173.772)">
    <path id="Path_80484" data-name="Path 80484" d="M382.513,173.772H313.464v68.969H324.5v11.031h58.018q38.36,0,38.36-38.36v-3.28q0-38.36-38.36-38.36" transform="translate(0 0)" fill="#fff"/>
    <rect id="Rectangle_58117" data-name="Rectangle 58117" width="11.031" height="11.031" transform="translate(324.496 231.71)" fill="#00556f"/>
    <rect id="Rectangle_58118" data-name="Rectangle 58118" width="11.031" height="11.031" transform="translate(313.464 242.741)" fill="#00556f"/>
    <path id="Path_80485" data-name="Path 80485" d="M336.828,249.519V238.488h7.092q3.939,0,3.94,3.939v3.152q0,3.94-3.94,3.94Zm2.364-8.668v6.3h4.728a1.393,1.393,0,0,0,1.575-1.576v-3.152a1.393,1.393,0,0,0-1.575-1.576Z" transform="translate(-11.69 -32.38)" fill="#00556f"/>
    <rect id="Rectangle_58119" data-name="Rectangle 58119" width="2.364" height="11.031" transform="translate(339.127 206.108)" fill="#00556f"/>
    <path id="Path_80486" data-name="Path 80486" d="M379.414,238.487h4.728v2.363h-4.728a1.393,1.393,0,0,0-1.576,1.576v3.151a1.393,1.393,0,0,0,1.576,1.576h3.152a1.393,1.393,0,0,0,1.576-1.576v-.787H380.99v-2.364h5.515v3.151q0,3.94-3.939,3.94h-3.152q-3.939,0-3.94-3.94v-3.151q0-3.94,3.94-3.94" transform="translate(-31.026 -32.379)" fill="#00556f"/>
    <rect id="Rectangle_58120" data-name="Rectangle 58120" width="2.364" height="11.031" transform="translate(358.437 206.108)" fill="#00556f"/>
    <path id="Path_80487" data-name="Path 80487" d="M419.635,240.851v8.668h-2.364v-8.668H414.12v-2.363h8.668v2.363Z" transform="translate(-50.361 -32.38)" fill="#00556f"/>
    <path id="Path_80488" data-name="Path 80488" d="M439.749,240.851v8.668h-2.364V238.488h7.092q3.939,0,3.939,3.939,0,3.286-2.742,3.829l2.742,3.262h-3.088l-2.64-3.152h-1.363V244h3.152a1.576,1.576,0,0,0,0-3.152Z" transform="translate(-62.002 -32.38)" fill="#00556f"/>
    <path id="Path_80489" data-name="Path 80489" d="M490.87,245.579v-7.091h2.364v7.091a1.393,1.393,0,0,0,1.576,1.576h3.151v2.364H494.81q-3.94,0-3.94-3.94" transform="translate(-88.762 -32.38)" fill="#00556f"/>
    <path id="Path_80490" data-name="Path 80490" d="M468.477,238.487l-4.971,11.031h2.584l3.309-7.273,3.215,7.273H475.2l-4.891-11.031Z" transform="translate(-75.071 -32.379)" fill="#00556f"/>
  </g>
</svg>
