<svg xmlns="http://www.w3.org/2000/svg" xmlns:xlink="http://www.w3.org/1999/xlink" width="710.816" height="439.937" viewBox="0 0 710.816 439.937">
  <defs>
    <clipPath id="clip-path">
      <ellipse id="Ellipse_105" data-name="Ellipse 105" cx="72.863" cy="72.863" rx="72.863" ry="72.863" fill="none"/>
    </clipPath>
    <clipPath id="clip-path-2">
      <circle id="Ellipse_106" data-name="Ellipse 106" cx="72.863" cy="72.863" r="72.863" transform="translate(103.044 206.088) rotate(-135)" fill="none"/>
    </clipPath>
  </defs>
  <g id="OBJECTS" transform="translate(0 0.001)">
    <g id="Group_1800" data-name="Group 1800" transform="translate(0 20.162)">
      <g id="Group_1798" data-name="Group 1798" transform="translate(23.343)">
        <path id="Path_81339" data-name="Path 81339" d="M35.844,324.518c16.334-40.546,44.131-75.473,62.647-115.071,17.962-38.412,27.466-81.633,54.216-114.535,24-29.517,60.82-47.892,98.763-50.622s76.545,9.9,106.377,33.5c36.851,29.159,59.317,72.748,92.727,105.795,35.46,35.072,81.977,56.952,129.466,72.192,17.684,5.675,35.82,10.6,51.98,19.756s30.471,23.326,35.135,41.3c4.484,17.283-.551,35.907-9.784,51.218H24.744A166.841,166.841,0,0,1,35.844,324.518Z" transform="translate(-24.744 -43.923)" fill="#c7d5d9"/>
      </g>
      <g id="Group_1799" data-name="Group 1799" transform="translate(0 323.905)">
        <rect id="Rectangle_58229" data-name="Rectangle 58229" width="690.186" height="0.46" fill="#222221"/>
      </g>
    </g>
    <g id="Group_1890" data-name="Group 1890" transform="translate(36.283 11.044)">
      <g id="Group_1813" data-name="Group 1813" transform="translate(207.346 215.517)">
        <g id="Group_1801" data-name="Group 1801" transform="translate(0)">
          <path id="Path_81340" data-name="Path 81340" d="M374.626,269.758a1.548,1.548,0,1,0,1.548-1.548A1.548,1.548,0,0,0,374.626,269.758Z" transform="translate(-275.913 -268.21)" fill="#fefefe"/>
          <path id="Path_81341" data-name="Path 81341" d="M385.352,269.758a1.548,1.548,0,1,0,1.548-1.548A1.548,1.548,0,0,0,385.352,269.758Z" transform="translate(-296.51 -268.21)" fill="#fefefe"/>
          <path id="Path_81342" data-name="Path 81342" d="M396.079,269.758a1.548,1.548,0,1,0,1.548-1.548A1.548,1.548,0,0,0,396.079,269.758Z" transform="translate(-317.109 -268.21)" fill="#fefefe"/>
          <path id="Path_81343" data-name="Path 81343" d="M406.806,269.758a1.548,1.548,0,1,0,1.549-1.548A1.549,1.549,0,0,0,406.806,269.758Z" transform="translate(-337.707 -268.21)" fill="#fefefe"/>
          <path id="Path_81344" data-name="Path 81344" d="M417.533,269.758a1.548,1.548,0,1,0,1.548-1.548A1.548,1.548,0,0,0,417.533,269.758Z" transform="translate(-358.305 -268.21)" fill="#fefefe"/>
          <path id="Path_81345" data-name="Path 81345" d="M428.259,269.758a1.548,1.548,0,1,0,1.548-1.548A1.548,1.548,0,0,0,428.259,269.758Z" transform="translate(-378.902 -268.21)" fill="#fefefe"/>
          <path id="Path_81346" data-name="Path 81346" d="M438.986,269.758a1.548,1.548,0,1,0,1.548-1.548A1.548,1.548,0,0,0,438.986,269.758Z" transform="translate(-399.501 -268.21)" fill="#fefefe"/>
          <path id="Path_81347" data-name="Path 81347" d="M449.713,269.758a1.548,1.548,0,1,0,1.549-1.548A1.549,1.549,0,0,0,449.713,269.758Z" transform="translate(-420.099 -268.21)" fill="#fefefe"/>
          <path id="Path_81348" data-name="Path 81348" d="M460.44,269.758a1.548,1.548,0,1,0,1.548-1.548A1.548,1.548,0,0,0,460.44,269.758Z" transform="translate(-440.697 -268.21)" fill="#fefefe"/>
          <path id="Path_81349" data-name="Path 81349" d="M471.166,269.758a1.548,1.548,0,1,0,1.548-1.548A1.548,1.548,0,0,0,471.166,269.758Z" transform="translate(-461.294 -268.21)" fill="#fefefe"/>
          <path id="Path_81350" data-name="Path 81350" d="M481.893,269.758a1.548,1.548,0,1,0,1.548-1.548A1.548,1.548,0,0,0,481.893,269.758Z" transform="translate(-481.893 -268.21)" fill="#fefefe"/>
        </g>
        <g id="Group_1802" data-name="Group 1802" transform="translate(0 8.271)">
          <path id="Path_81351" data-name="Path 81351" d="M374.626,278.747a1.548,1.548,0,1,0,1.548-1.549A1.548,1.548,0,0,0,374.626,278.747Z" transform="translate(-275.913 -277.198)" fill="#fefefe"/>
          <ellipse id="Ellipse_56" data-name="Ellipse 56" cx="1.548" cy="1.548" rx="1.548" ry="1.548" transform="translate(88.841 0)" fill="#fefefe"/>
          <path id="Path_81352" data-name="Path 81352" d="M396.079,278.747a1.548,1.548,0,1,0,1.548-1.549A1.548,1.548,0,0,0,396.079,278.747Z" transform="translate(-317.109 -277.198)" fill="#fefefe"/>
          <ellipse id="Ellipse_57" data-name="Ellipse 57" cx="1.548" cy="1.548" rx="1.548" ry="1.548" transform="translate(69.099 0)" fill="#fefefe"/>
          <path id="Path_81353" data-name="Path 81353" d="M417.533,278.747a1.548,1.548,0,1,0,1.548-1.549A1.548,1.548,0,0,0,417.533,278.747Z" transform="translate(-358.305 -277.198)" fill="#fefefe"/>
          <ellipse id="Ellipse_58" data-name="Ellipse 58" cx="1.548" cy="1.548" rx="1.548" ry="1.548" transform="translate(49.356 0)" fill="#fefefe"/>
          <path id="Path_81354" data-name="Path 81354" d="M438.986,278.747a1.548,1.548,0,1,0,1.548-1.549A1.548,1.548,0,0,0,438.986,278.747Z" transform="translate(-399.501 -277.198)" fill="#fefefe"/>
          <ellipse id="Ellipse_59" data-name="Ellipse 59" cx="1.548" cy="1.548" rx="1.548" ry="1.548" transform="translate(29.614 0)" fill="#fefefe"/>
          <ellipse id="Ellipse_60" data-name="Ellipse 60" cx="1.548" cy="1.548" rx="1.548" ry="1.548" transform="translate(19.743 0)" fill="#fefefe"/>
          <ellipse id="Ellipse_61" data-name="Ellipse 61" cx="1.548" cy="1.548" rx="1.548" ry="1.548" transform="translate(9.871 0)" fill="#fefefe"/>
          <ellipse id="Ellipse_62" data-name="Ellipse 62" cx="1.548" cy="1.548" rx="1.548" ry="1.548" transform="translate(0 0)" fill="#fefefe"/>
        </g>
        <g id="Group_1803" data-name="Group 1803" transform="translate(0 16.543)">
          <path id="Path_81355" data-name="Path 81355" d="M374.626,287.735a1.548,1.548,0,1,0,1.548-1.548A1.548,1.548,0,0,0,374.626,287.735Z" transform="translate(-275.913 -286.187)" fill="#fefefe"/>
          <ellipse id="Ellipse_63" data-name="Ellipse 63" cx="1.548" cy="1.548" rx="1.548" ry="1.548" transform="translate(88.841)" fill="#fefefe"/>
          <path id="Path_81356" data-name="Path 81356" d="M396.079,287.735a1.548,1.548,0,1,0,1.548-1.548A1.548,1.548,0,0,0,396.079,287.735Z" transform="translate(-317.109 -286.187)" fill="#fefefe"/>
          <ellipse id="Ellipse_64" data-name="Ellipse 64" cx="1.548" cy="1.548" rx="1.548" ry="1.548" transform="translate(69.099)" fill="#fefefe"/>
          <path id="Path_81357" data-name="Path 81357" d="M417.533,287.735a1.548,1.548,0,1,0,1.548-1.548A1.548,1.548,0,0,0,417.533,287.735Z" transform="translate(-358.305 -286.187)" fill="#fefefe"/>
          <ellipse id="Ellipse_65" data-name="Ellipse 65" cx="1.548" cy="1.548" rx="1.548" ry="1.548" transform="translate(49.356)" fill="#fefefe"/>
          <path id="Path_81358" data-name="Path 81358" d="M438.986,287.735a1.548,1.548,0,1,0,1.548-1.548A1.548,1.548,0,0,0,438.986,287.735Z" transform="translate(-399.501 -286.187)" fill="#fefefe"/>
          <ellipse id="Ellipse_66" data-name="Ellipse 66" cx="1.548" cy="1.548" rx="1.548" ry="1.548" transform="translate(29.614)" fill="#fefefe"/>
          <ellipse id="Ellipse_67" data-name="Ellipse 67" cx="1.548" cy="1.548" rx="1.548" ry="1.548" transform="translate(19.743)" fill="#fefefe"/>
          <ellipse id="Ellipse_68" data-name="Ellipse 68" cx="1.548" cy="1.548" rx="1.548" ry="1.548" transform="translate(9.871)" fill="#fefefe"/>
          <ellipse id="Ellipse_69" data-name="Ellipse 69" cx="1.548" cy="1.548" rx="1.548" ry="1.548" transform="translate(0)" fill="#fefefe"/>
        </g>
        <g id="Group_1804" data-name="Group 1804" transform="translate(0 24.814)">
          <path id="Path_81359" data-name="Path 81359" d="M374.626,296.724a1.548,1.548,0,1,0,1.548-1.549A1.548,1.548,0,0,0,374.626,296.724Z" transform="translate(-275.913 -295.175)" fill="#fefefe"/>
          <path id="Path_81360" data-name="Path 81360" d="M385.352,296.724a1.548,1.548,0,1,0,1.548-1.549A1.548,1.548,0,0,0,385.352,296.724Z" transform="translate(-296.51 -295.175)" fill="#fefefe"/>
          <path id="Path_81361" data-name="Path 81361" d="M396.079,296.724a1.548,1.548,0,1,0,1.548-1.549A1.548,1.548,0,0,0,396.079,296.724Z" transform="translate(-317.109 -295.175)" fill="#fefefe"/>
          <path id="Path_81362" data-name="Path 81362" d="M406.806,296.724a1.548,1.548,0,1,0,1.549-1.549A1.549,1.549,0,0,0,406.806,296.724Z" transform="translate(-337.707 -295.175)" fill="#fefefe"/>
          <path id="Path_81363" data-name="Path 81363" d="M417.533,296.724a1.548,1.548,0,1,0,1.548-1.549A1.548,1.548,0,0,0,417.533,296.724Z" transform="translate(-358.305 -295.175)" fill="#fefefe"/>
          <path id="Path_81364" data-name="Path 81364" d="M428.259,296.724a1.548,1.548,0,1,0,1.548-1.549A1.548,1.548,0,0,0,428.259,296.724Z" transform="translate(-378.902 -295.175)" fill="#fefefe"/>
          <path id="Path_81365" data-name="Path 81365" d="M438.986,296.724a1.548,1.548,0,1,0,1.548-1.549A1.548,1.548,0,0,0,438.986,296.724Z" transform="translate(-399.501 -295.175)" fill="#fefefe"/>
          <path id="Path_81366" data-name="Path 81366" d="M449.713,296.724a1.548,1.548,0,1,0,1.549-1.549A1.549,1.549,0,0,0,449.713,296.724Z" transform="translate(-420.099 -295.175)" fill="#fefefe"/>
          <path id="Path_81367" data-name="Path 81367" d="M460.44,296.724a1.548,1.548,0,1,0,1.548-1.549A1.548,1.548,0,0,0,460.44,296.724Z" transform="translate(-440.697 -295.175)" fill="#fefefe"/>
          <path id="Path_81368" data-name="Path 81368" d="M471.166,296.724a1.548,1.548,0,1,0,1.548-1.549A1.548,1.548,0,0,0,471.166,296.724Z" transform="translate(-461.294 -295.175)" fill="#fefefe"/>
          <path id="Path_81369" data-name="Path 81369" d="M481.893,296.724a1.548,1.548,0,1,0,1.548-1.549A1.548,1.548,0,0,0,481.893,296.724Z" transform="translate(-481.893 -295.175)" fill="#fefefe"/>
        </g>
        <g id="Group_1805" data-name="Group 1805" transform="translate(0 33.087)">
          <path id="Path_81370" data-name="Path 81370" d="M374.626,305.712a1.548,1.548,0,1,0,1.548-1.548A1.549,1.549,0,0,0,374.626,305.712Z" transform="translate(-275.913 -304.164)" fill="#fefefe"/>
          <path id="Path_81371" data-name="Path 81371" d="M385.352,305.712a1.548,1.548,0,1,0,1.548-1.548A1.549,1.549,0,0,0,385.352,305.712Z" transform="translate(-296.51 -304.164)" fill="#fefefe"/>
          <path id="Path_81372" data-name="Path 81372" d="M396.079,305.712a1.548,1.548,0,1,0,1.548-1.548A1.549,1.549,0,0,0,396.079,305.712Z" transform="translate(-317.109 -304.164)" fill="#fefefe"/>
          <path id="Path_81373" data-name="Path 81373" d="M406.806,305.712a1.548,1.548,0,1,0,1.549-1.548A1.549,1.549,0,0,0,406.806,305.712Z" transform="translate(-337.707 -304.164)" fill="#fefefe"/>
          <path id="Path_81374" data-name="Path 81374" d="M417.533,305.712a1.548,1.548,0,1,0,1.548-1.548A1.549,1.549,0,0,0,417.533,305.712Z" transform="translate(-358.305 -304.164)" fill="#fefefe"/>
          <path id="Path_81375" data-name="Path 81375" d="M428.259,305.712a1.548,1.548,0,1,0,1.548-1.548A1.549,1.549,0,0,0,428.259,305.712Z" transform="translate(-378.902 -304.164)" fill="#fefefe"/>
          <path id="Path_81376" data-name="Path 81376" d="M438.986,305.712a1.548,1.548,0,1,0,1.548-1.548A1.549,1.549,0,0,0,438.986,305.712Z" transform="translate(-399.501 -304.164)" fill="#fefefe"/>
          <path id="Path_81377" data-name="Path 81377" d="M449.713,305.712a1.548,1.548,0,1,0,1.549-1.548A1.549,1.549,0,0,0,449.713,305.712Z" transform="translate(-420.099 -304.164)" fill="#fefefe"/>
          <path id="Path_81378" data-name="Path 81378" d="M460.44,305.712a1.548,1.548,0,1,0,1.548-1.548A1.549,1.549,0,0,0,460.44,305.712Z" transform="translate(-440.697 -304.164)" fill="#fefefe"/>
          <path id="Path_81379" data-name="Path 81379" d="M471.166,305.712a1.548,1.548,0,1,0,1.548-1.548A1.549,1.549,0,0,0,471.166,305.712Z" transform="translate(-461.294 -304.164)" fill="#fefefe"/>
          <path id="Path_81380" data-name="Path 81380" d="M481.893,305.712a1.548,1.548,0,1,0,1.548-1.548A1.549,1.549,0,0,0,481.893,305.712Z" transform="translate(-481.893 -304.164)" fill="#fefefe"/>
        </g>
        <g id="Group_1806" data-name="Group 1806" transform="translate(0 41.358)">
          <path id="Path_81381" data-name="Path 81381" d="M374.626,314.7a1.548,1.548,0,1,0,1.548-1.548A1.548,1.548,0,0,0,374.626,314.7Z" transform="translate(-275.913 -313.153)" fill="#fefefe"/>
          <ellipse id="Ellipse_70" data-name="Ellipse 70" cx="1.548" cy="1.548" rx="1.548" ry="1.548" transform="translate(88.841)" fill="#fefefe"/>
          <path id="Path_81382" data-name="Path 81382" d="M396.079,314.7a1.548,1.548,0,1,0,1.548-1.548A1.548,1.548,0,0,0,396.079,314.7Z" transform="translate(-317.109 -313.153)" fill="#fefefe"/>
          <ellipse id="Ellipse_71" data-name="Ellipse 71" cx="1.548" cy="1.548" rx="1.548" ry="1.548" transform="translate(69.099)" fill="#fefefe"/>
          <path id="Path_81383" data-name="Path 81383" d="M417.533,314.7a1.548,1.548,0,1,0,1.548-1.548A1.548,1.548,0,0,0,417.533,314.7Z" transform="translate(-358.305 -313.153)" fill="#fefefe"/>
          <ellipse id="Ellipse_72" data-name="Ellipse 72" cx="1.548" cy="1.548" rx="1.548" ry="1.548" transform="translate(49.356)" fill="#fefefe"/>
          <path id="Path_81384" data-name="Path 81384" d="M438.986,314.7a1.548,1.548,0,1,0,1.548-1.548A1.548,1.548,0,0,0,438.986,314.7Z" transform="translate(-399.501 -313.153)" fill="#fefefe"/>
          <ellipse id="Ellipse_73" data-name="Ellipse 73" cx="1.548" cy="1.548" rx="1.548" ry="1.548" transform="translate(29.614 0)" fill="#fefefe"/>
          <ellipse id="Ellipse_74" data-name="Ellipse 74" cx="1.548" cy="1.548" rx="1.548" ry="1.548" transform="translate(19.743)" fill="#fefefe"/>
          <ellipse id="Ellipse_75" data-name="Ellipse 75" cx="1.548" cy="1.548" rx="1.548" ry="1.548" transform="translate(9.871)" fill="#fefefe"/>
          <ellipse id="Ellipse_76" data-name="Ellipse 76" cx="1.548" cy="1.548" rx="1.548" ry="1.548" transform="translate(0)" fill="#fefefe"/>
        </g>
        <g id="Group_1807" data-name="Group 1807" transform="translate(0 49.63)">
          <path id="Path_81385" data-name="Path 81385" d="M374.626,323.69a1.548,1.548,0,1,0,1.548-1.549A1.548,1.548,0,0,0,374.626,323.69Z" transform="translate(-275.913 -322.141)" fill="#fefefe"/>
          <ellipse id="Ellipse_77" data-name="Ellipse 77" cx="1.548" cy="1.548" rx="1.548" ry="1.548" transform="translate(88.841 0)" fill="#fefefe"/>
          <path id="Path_81386" data-name="Path 81386" d="M396.079,323.69a1.548,1.548,0,1,0,1.548-1.549A1.548,1.548,0,0,0,396.079,323.69Z" transform="translate(-317.109 -322.141)" fill="#fefefe"/>
          <ellipse id="Ellipse_78" data-name="Ellipse 78" cx="1.548" cy="1.548" rx="1.548" ry="1.548" transform="translate(69.099 0)" fill="#fefefe"/>
          <path id="Path_81387" data-name="Path 81387" d="M417.533,323.69a1.548,1.548,0,1,0,1.548-1.549A1.548,1.548,0,0,0,417.533,323.69Z" transform="translate(-358.305 -322.141)" fill="#fefefe"/>
          <ellipse id="Ellipse_79" data-name="Ellipse 79" cx="1.548" cy="1.548" rx="1.548" ry="1.548" transform="translate(49.356 0)" fill="#fefefe"/>
          <path id="Path_81388" data-name="Path 81388" d="M438.986,323.69a1.548,1.548,0,1,0,1.548-1.549A1.548,1.548,0,0,0,438.986,323.69Z" transform="translate(-399.501 -322.141)" fill="#fefefe"/>
          <ellipse id="Ellipse_80" data-name="Ellipse 80" cx="1.548" cy="1.548" rx="1.548" ry="1.548" transform="translate(29.614 0)" fill="#fefefe"/>
          <ellipse id="Ellipse_81" data-name="Ellipse 81" cx="1.548" cy="1.548" rx="1.548" ry="1.548" transform="translate(19.743 0)" fill="#fefefe"/>
          <ellipse id="Ellipse_82" data-name="Ellipse 82" cx="1.548" cy="1.548" rx="1.548" ry="1.548" transform="translate(9.871 0)" fill="#fefefe"/>
          <ellipse id="Ellipse_83" data-name="Ellipse 83" cx="1.548" cy="1.548" rx="1.548" ry="1.548" transform="translate(0 0)" fill="#fefefe"/>
        </g>
        <g id="Group_1808" data-name="Group 1808" transform="translate(0 57.902)">
          <path id="Path_81389" data-name="Path 81389" d="M374.626,332.678a1.548,1.548,0,1,0,1.548-1.548A1.548,1.548,0,0,0,374.626,332.678Z" transform="translate(-275.913 -331.13)" fill="#fefefe"/>
          <path id="Path_81390" data-name="Path 81390" d="M385.352,332.678a1.548,1.548,0,1,0,1.548-1.548A1.548,1.548,0,0,0,385.352,332.678Z" transform="translate(-296.51 -331.13)" fill="#fefefe"/>
          <path id="Path_81391" data-name="Path 81391" d="M396.079,332.678a1.548,1.548,0,1,0,1.548-1.548A1.548,1.548,0,0,0,396.079,332.678Z" transform="translate(-317.109 -331.13)" fill="#fefefe"/>
          <path id="Path_81392" data-name="Path 81392" d="M406.806,332.678a1.548,1.548,0,1,0,1.549-1.548A1.549,1.549,0,0,0,406.806,332.678Z" transform="translate(-337.707 -331.13)" fill="#fefefe"/>
          <path id="Path_81393" data-name="Path 81393" d="M417.533,332.678a1.548,1.548,0,1,0,1.548-1.548A1.548,1.548,0,0,0,417.533,332.678Z" transform="translate(-358.305 -331.13)" fill="#fefefe"/>
          <path id="Path_81394" data-name="Path 81394" d="M428.259,332.678a1.548,1.548,0,1,0,1.548-1.548A1.548,1.548,0,0,0,428.259,332.678Z" transform="translate(-378.902 -331.13)" fill="#fefefe"/>
          <path id="Path_81395" data-name="Path 81395" d="M438.986,332.678a1.548,1.548,0,1,0,1.548-1.548A1.548,1.548,0,0,0,438.986,332.678Z" transform="translate(-399.501 -331.13)" fill="#fefefe"/>
          <path id="Path_81396" data-name="Path 81396" d="M449.713,332.678a1.548,1.548,0,1,0,1.549-1.548A1.549,1.549,0,0,0,449.713,332.678Z" transform="translate(-420.099 -331.13)" fill="#fefefe"/>
          <path id="Path_81397" data-name="Path 81397" d="M460.44,332.678a1.548,1.548,0,1,0,1.548-1.548A1.548,1.548,0,0,0,460.44,332.678Z" transform="translate(-440.697 -331.13)" fill="#fefefe"/>
          <path id="Path_81398" data-name="Path 81398" d="M471.166,332.678a1.548,1.548,0,1,0,1.548-1.548A1.548,1.548,0,0,0,471.166,332.678Z" transform="translate(-461.294 -331.13)" fill="#fefefe"/>
          <path id="Path_81399" data-name="Path 81399" d="M481.893,332.678a1.548,1.548,0,1,0,1.548-1.548A1.548,1.548,0,0,0,481.893,332.678Z" transform="translate(-481.893 -331.13)" fill="#fefefe"/>
        </g>
        <g id="Group_1809" data-name="Group 1809" transform="translate(0 66.173)">
          <path id="Path_81400" data-name="Path 81400" d="M374.626,341.667a1.548,1.548,0,1,0,1.548-1.549A1.548,1.548,0,0,0,374.626,341.667Z" transform="translate(-275.913 -340.118)" fill="#fefefe"/>
          <ellipse id="Ellipse_84" data-name="Ellipse 84" cx="1.548" cy="1.548" rx="1.548" ry="1.548" transform="translate(88.841 0)" fill="#fefefe"/>
          <path id="Path_81401" data-name="Path 81401" d="M396.079,341.667a1.548,1.548,0,1,0,1.548-1.549A1.548,1.548,0,0,0,396.079,341.667Z" transform="translate(-317.109 -340.118)" fill="#fefefe"/>
          <ellipse id="Ellipse_85" data-name="Ellipse 85" cx="1.548" cy="1.548" rx="1.548" ry="1.548" transform="translate(69.099 0)" fill="#fefefe"/>
          <path id="Path_81402" data-name="Path 81402" d="M417.533,341.667a1.548,1.548,0,1,0,1.548-1.549A1.548,1.548,0,0,0,417.533,341.667Z" transform="translate(-358.305 -340.118)" fill="#fefefe"/>
          <ellipse id="Ellipse_86" data-name="Ellipse 86" cx="1.548" cy="1.548" rx="1.548" ry="1.548" transform="translate(49.356 0)" fill="#fefefe"/>
          <path id="Path_81403" data-name="Path 81403" d="M438.986,341.667a1.548,1.548,0,1,0,1.548-1.549A1.548,1.548,0,0,0,438.986,341.667Z" transform="translate(-399.501 -340.118)" fill="#fefefe"/>
          <ellipse id="Ellipse_87" data-name="Ellipse 87" cx="1.548" cy="1.548" rx="1.548" ry="1.548" transform="translate(29.614 0)" fill="#fefefe"/>
          <ellipse id="Ellipse_88" data-name="Ellipse 88" cx="1.548" cy="1.548" rx="1.548" ry="1.548" transform="translate(19.743 0)" fill="#fefefe"/>
          <ellipse id="Ellipse_89" data-name="Ellipse 89" cx="1.548" cy="1.548" rx="1.548" ry="1.548" transform="translate(9.871 0)" fill="#fefefe"/>
          <ellipse id="Ellipse_90" data-name="Ellipse 90" cx="1.548" cy="1.548" rx="1.548" ry="1.548" transform="translate(0 0)" fill="#fefefe"/>
        </g>
        <g id="Group_1810" data-name="Group 1810" transform="translate(0 74.445)">
          <path id="Path_81404" data-name="Path 81404" d="M374.626,350.655a1.548,1.548,0,1,0,1.548-1.548A1.548,1.548,0,0,0,374.626,350.655Z" transform="translate(-275.913 -349.107)" fill="#fefefe"/>
          <ellipse id="Ellipse_91" data-name="Ellipse 91" cx="1.548" cy="1.548" rx="1.548" ry="1.548" transform="translate(88.841)" fill="#fefefe"/>
          <path id="Path_81405" data-name="Path 81405" d="M396.079,350.655a1.548,1.548,0,1,0,1.548-1.548A1.548,1.548,0,0,0,396.079,350.655Z" transform="translate(-317.109 -349.107)" fill="#fefefe"/>
          <ellipse id="Ellipse_92" data-name="Ellipse 92" cx="1.548" cy="1.548" rx="1.548" ry="1.548" transform="translate(69.099)" fill="#fefefe"/>
          <path id="Path_81406" data-name="Path 81406" d="M417.533,350.655a1.548,1.548,0,1,0,1.548-1.548A1.548,1.548,0,0,0,417.533,350.655Z" transform="translate(-358.305 -349.107)" fill="#fefefe"/>
          <ellipse id="Ellipse_93" data-name="Ellipse 93" cx="1.548" cy="1.548" rx="1.548" ry="1.548" transform="translate(49.356)" fill="#fefefe"/>
          <path id="Path_81407" data-name="Path 81407" d="M438.986,350.655a1.548,1.548,0,1,0,1.548-1.548A1.548,1.548,0,0,0,438.986,350.655Z" transform="translate(-399.501 -349.107)" fill="#fefefe"/>
          <ellipse id="Ellipse_94" data-name="Ellipse 94" cx="1.548" cy="1.548" rx="1.548" ry="1.548" transform="translate(29.614)" fill="#fefefe"/>
          <ellipse id="Ellipse_95" data-name="Ellipse 95" cx="1.548" cy="1.548" rx="1.548" ry="1.548" transform="translate(19.743)" fill="#fefefe"/>
          <ellipse id="Ellipse_96" data-name="Ellipse 96" cx="1.548" cy="1.548" rx="1.548" ry="1.548" transform="translate(9.871)" fill="#fefefe"/>
          <ellipse id="Ellipse_97" data-name="Ellipse 97" cx="1.548" cy="1.548" rx="1.548" ry="1.548" transform="translate(0)" fill="#fefefe"/>
        </g>
        <g id="Group_1811" data-name="Group 1811" transform="translate(0 82.717)">
          <path id="Path_81408" data-name="Path 81408" d="M374.626,359.644a1.548,1.548,0,1,0,1.548-1.549A1.548,1.548,0,0,0,374.626,359.644Z" transform="translate(-275.913 -358.095)" fill="#fefefe"/>
          <path id="Path_81409" data-name="Path 81409" d="M385.352,359.644A1.548,1.548,0,1,0,386.9,358.1,1.548,1.548,0,0,0,385.352,359.644Z" transform="translate(-296.51 -358.095)" fill="#fefefe"/>
          <path id="Path_81410" data-name="Path 81410" d="M396.079,359.644a1.548,1.548,0,1,0,1.548-1.549A1.548,1.548,0,0,0,396.079,359.644Z" transform="translate(-317.109 -358.095)" fill="#fefefe"/>
          <path id="Path_81411" data-name="Path 81411" d="M406.806,359.644a1.548,1.548,0,1,0,1.549-1.549A1.549,1.549,0,0,0,406.806,359.644Z" transform="translate(-337.707 -358.095)" fill="#fefefe"/>
          <path id="Path_81412" data-name="Path 81412" d="M417.533,359.644a1.548,1.548,0,1,0,1.548-1.549A1.548,1.548,0,0,0,417.533,359.644Z" transform="translate(-358.305 -358.095)" fill="#fefefe"/>
          <path id="Path_81413" data-name="Path 81413" d="M428.259,359.644a1.548,1.548,0,1,0,1.548-1.549A1.548,1.548,0,0,0,428.259,359.644Z" transform="translate(-378.902 -358.095)" fill="#fefefe"/>
          <path id="Path_81414" data-name="Path 81414" d="M438.986,359.644a1.548,1.548,0,1,0,1.548-1.549A1.548,1.548,0,0,0,438.986,359.644Z" transform="translate(-399.501 -358.095)" fill="#fefefe"/>
          <path id="Path_81415" data-name="Path 81415" d="M449.713,359.644a1.548,1.548,0,1,0,1.549-1.549A1.549,1.549,0,0,0,449.713,359.644Z" transform="translate(-420.099 -358.095)" fill="#fefefe"/>
          <path id="Path_81416" data-name="Path 81416" d="M460.44,359.644a1.548,1.548,0,1,0,1.548-1.549A1.548,1.548,0,0,0,460.44,359.644Z" transform="translate(-440.697 -358.095)" fill="#fefefe"/>
          <path id="Path_81417" data-name="Path 81417" d="M471.166,359.644a1.548,1.548,0,1,0,1.548-1.549A1.548,1.548,0,0,0,471.166,359.644Z" transform="translate(-461.294 -358.095)" fill="#fefefe"/>
          <path id="Path_81418" data-name="Path 81418" d="M481.893,359.644a1.548,1.548,0,1,0,1.548-1.549A1.548,1.548,0,0,0,481.893,359.644Z" transform="translate(-481.893 -358.095)" fill="#fefefe"/>
        </g>
        <g id="Group_1812" data-name="Group 1812" transform="translate(0 90.989)">
          <path id="Path_81419" data-name="Path 81419" d="M374.626,368.632a1.548,1.548,0,1,0,1.548-1.548A1.549,1.549,0,0,0,374.626,368.632Z" transform="translate(-275.913 -367.084)" fill="#fefefe"/>
          <ellipse id="Ellipse_98" data-name="Ellipse 98" cx="1.548" cy="1.548" rx="1.548" ry="1.548" transform="translate(88.841)" fill="#fefefe"/>
          <path id="Path_81420" data-name="Path 81420" d="M396.079,368.632a1.548,1.548,0,1,0,1.548-1.548A1.549,1.549,0,0,0,396.079,368.632Z" transform="translate(-317.109 -367.084)" fill="#fefefe"/>
          <ellipse id="Ellipse_99" data-name="Ellipse 99" cx="1.548" cy="1.548" rx="1.548" ry="1.548" transform="translate(69.099)" fill="#fefefe"/>
          <path id="Path_81421" data-name="Path 81421" d="M417.533,368.632a1.548,1.548,0,1,0,1.548-1.548A1.549,1.549,0,0,0,417.533,368.632Z" transform="translate(-358.305 -367.084)" fill="#fefefe"/>
          <ellipse id="Ellipse_100" data-name="Ellipse 100" cx="1.548" cy="1.548" rx="1.548" ry="1.548" transform="translate(49.356)" fill="#fefefe"/>
          <path id="Path_81422" data-name="Path 81422" d="M438.986,368.632a1.548,1.548,0,1,0,1.548-1.548A1.549,1.549,0,0,0,438.986,368.632Z" transform="translate(-399.501 -367.084)" fill="#fefefe"/>
          <ellipse id="Ellipse_101" data-name="Ellipse 101" cx="1.548" cy="1.548" rx="1.548" ry="1.548" transform="translate(29.614)" fill="#fefefe"/>
          <ellipse id="Ellipse_102" data-name="Ellipse 102" cx="1.548" cy="1.548" rx="1.548" ry="1.548" transform="translate(19.743)" fill="#fefefe"/>
          <ellipse id="Ellipse_103" data-name="Ellipse 103" cx="1.548" cy="1.548" rx="1.548" ry="1.548" transform="translate(9.871)" fill="#fefefe"/>
          <ellipse id="Ellipse_104" data-name="Ellipse 104" cx="1.548" cy="1.548" rx="1.548" ry="1.548" transform="translate(0)" fill="#fefefe"/>
        </g>
      </g>
      <g id="Group_1851" data-name="Group 1851" transform="translate(0)">
        <g id="Group_1850" data-name="Group 1850" transform="translate(0)" clip-path="url(#clip-path)">
          <g id="Group_1849" data-name="Group 1849" transform="translate(-70.707 -58.085)">
            <g id="Group_1814" data-name="Group 1814" transform="translate(117.968 117.968)">
              <path id="Path_81423" data-name="Path 81423" d="M488.077,256.894a.341.341,0,0,0,.243-.1L645.439,99.675a.344.344,0,0,0-.486-.486L487.834,256.308a.343.343,0,0,0,.243.586Z" transform="translate(-487.733 -99.089)" fill="#ffc9e0"/>
            </g>
            <g id="Group_1815" data-name="Group 1815" transform="translate(114.499 114.499)">
              <path id="Path_81424" data-name="Path 81424" d="M491.848,253.124a.343.343,0,0,0,.243-.1L649.209,95.905a.344.344,0,0,0-.486-.486L491.6,252.538a.343.343,0,0,0,.243.586Z" transform="translate(-491.504 -95.318)" fill="#ffc9e0"/>
            </g>
            <g id="Group_1816" data-name="Group 1816" transform="translate(111.03 111.03)">
              <path id="Path_81425" data-name="Path 81425" d="M495.617,249.354a.345.345,0,0,0,.243-.1L652.979,92.134a.344.344,0,0,0-.486-.486L495.375,248.768a.343.343,0,0,0,.243.586Z" transform="translate(-495.275 -91.548)" fill="#ffc9e0"/>
            </g>
            <g id="Group_1817" data-name="Group 1817" transform="translate(107.559 107.56)">
              <path id="Path_81426" data-name="Path 81426" d="M499.388,245.583a.343.343,0,0,0,.243-.1L656.75,88.364a.344.344,0,0,0-.486-.486L499.145,245a.343.343,0,0,0,.243.586Z" transform="translate(-499.044 -87.777)" fill="#ffc9e0"/>
            </g>
            <g id="Group_1818" data-name="Group 1818" transform="translate(104.09 104.09)">
              <path id="Path_81427" data-name="Path 81427" d="M503.159,241.813a.339.339,0,0,0,.242-.1L660.52,84.594a.343.343,0,0,0-.485-.486L502.916,241.227a.343.343,0,0,0,0,.486A.34.34,0,0,0,503.159,241.813Z" transform="translate(-502.815 -84.007)" fill="#ffc9e0"/>
            </g>
            <g id="Group_1819" data-name="Group 1819" transform="translate(100.621 100.621)">
              <path id="Path_81428" data-name="Path 81428" d="M506.929,238.043a.342.342,0,0,0,.243-.1L664.29,80.823a.344.344,0,0,0-.486-.486L506.686,237.456a.344.344,0,0,0,.243.587Z" transform="translate(-506.586 -80.237)" fill="#ffc9e0"/>
            </g>
            <g id="Group_1820" data-name="Group 1820" transform="translate(97.151 97.151)">
              <path id="Path_81429" data-name="Path 81429" d="M510.7,234.272a.343.343,0,0,0,.243-.1L668.061,77.053a.344.344,0,0,0-.486-.486L510.456,233.686a.343.343,0,0,0,.243.586Z" transform="translate(-510.355 -76.467)" fill="#ffc9e0"/>
            </g>
            <g id="Group_1821" data-name="Group 1821" transform="translate(93.681 93.681)">
              <path id="Path_81430" data-name="Path 81430" d="M514.47,230.5a.34.34,0,0,0,.242-.1L671.831,73.283a.343.343,0,0,0-.485-.486L514.227,229.916a.344.344,0,0,0,.243.586Z" transform="translate(-514.127 -72.697)" fill="#ffc9e0"/>
            </g>
            <g id="Group_1822" data-name="Group 1822" transform="translate(90.211 90.212)">
              <path id="Path_81431" data-name="Path 81431" d="M518.24,226.732a.342.342,0,0,0,.243-.1L675.6,69.512a.344.344,0,0,0-.486-.486L518,226.145a.344.344,0,0,0,.243.587Z" transform="translate(-517.896 -68.926)" fill="#ffc9e0"/>
            </g>
            <g id="Group_1823" data-name="Group 1823" transform="translate(86.742 86.742)">
              <path id="Path_81432" data-name="Path 81432" d="M522.01,222.961a.343.343,0,0,0,.243-.1L679.372,65.742a.344.344,0,0,0-.486-.486L521.767,222.375a.343.343,0,0,0,.243.586Z" transform="translate(-521.667 -65.156)" fill="#ffc9e0"/>
            </g>
            <g id="Group_1824" data-name="Group 1824" transform="translate(83.272 83.272)">
              <path id="Path_81433" data-name="Path 81433" d="M525.781,219.191a.342.342,0,0,0,.243-.1L683.142,61.971a.343.343,0,1,0-.486-.485L525.538,218.6a.344.344,0,0,0,.243.586Z" transform="translate(-525.438 -61.386)" fill="#ffc9e0"/>
            </g>
            <g id="Group_1825" data-name="Group 1825" transform="translate(79.802 79.802)">
              <path id="Path_81434" data-name="Path 81434" d="M529.551,215.42a.341.341,0,0,0,.243-.1L686.913,58.2a.344.344,0,0,0-.486-.486L529.308,214.834a.343.343,0,0,0,.243.586Z" transform="translate(-529.207 -57.615)" fill="#ffc9e0"/>
            </g>
            <g id="Group_1826" data-name="Group 1826" transform="translate(76.333 76.333)">
              <path id="Path_81435" data-name="Path 81435" d="M533.321,211.65a.343.343,0,0,0,.243-.1L690.683,54.431a.344.344,0,1,0-.486-.486L533.078,211.064a.343.343,0,0,0,.243.586Z" transform="translate(-532.977 -53.844)" fill="#ffc9e0"/>
            </g>
            <g id="Group_1827" data-name="Group 1827" transform="translate(72.863 72.863)">
              <path id="Path_81436" data-name="Path 81436" d="M537.091,207.88a.342.342,0,0,0,.243-.1L694.453,50.66a.343.343,0,0,0-.486-.485L536.849,207.294a.344.344,0,0,0,.243.586Z" transform="translate(-536.748 -50.074)" fill="#ffc9e0"/>
            </g>
            <g id="Group_1828" data-name="Group 1828" transform="translate(69.393 69.393)">
              <path id="Path_81437" data-name="Path 81437" d="M540.862,204.109a.343.343,0,0,0,.243-.1L698.224,46.89a.344.344,0,0,0-.486-.486L540.619,203.523a.343.343,0,0,0,.243.586Z" transform="translate(-540.518 -46.304)" fill="#ffc9e0"/>
            </g>
            <g id="Group_1829" data-name="Group 1829" transform="translate(65.924 65.924)">
              <path id="Path_81438" data-name="Path 81438" d="M544.633,200.339a.343.343,0,0,0,.243-.1L701.994,43.12a.344.344,0,0,0-.486-.486L544.39,199.753a.343.343,0,0,0,.243.586Z" transform="translate(-544.289 -42.534)" fill="#ffc9e0"/>
            </g>
            <g id="Group_1830" data-name="Group 1830" transform="translate(62.453 62.454)">
              <path id="Path_81439" data-name="Path 81439" d="M548.4,196.569a.342.342,0,0,0,.243-.1L705.765,39.349a.344.344,0,0,0-.486-.486L548.16,195.982a.344.344,0,0,0,.243.587Z" transform="translate(-548.059 -38.763)" fill="#ffc9e0"/>
            </g>
            <g id="Group_1831" data-name="Group 1831" transform="translate(58.984 58.984)">
              <path id="Path_81440" data-name="Path 81440" d="M552.173,192.8a.343.343,0,0,0,.243-.1L709.535,35.579a.344.344,0,0,0-.486-.486L551.93,192.212a.343.343,0,0,0,.243.586Z" transform="translate(-551.829 -34.993)" fill="#ffc9e0"/>
            </g>
            <g id="Group_1832" data-name="Group 1832" transform="translate(55.515 55.515)">
              <path id="Path_81441" data-name="Path 81441" d="M555.944,189.028a.347.347,0,0,0,.243-.1L713.3,31.809a.343.343,0,1,0-.485-.486L555.7,188.442a.343.343,0,0,0,.243.586Z" transform="translate(-555.6 -31.223)" fill="#ffc9e0"/>
            </g>
            <g id="Group_1833" data-name="Group 1833" transform="translate(52.045 52.045)">
              <path id="Path_81442" data-name="Path 81442" d="M559.714,185.257a.341.341,0,0,0,.243-.1L717.076,28.038a.344.344,0,0,0-.486-.486L559.471,184.671a.343.343,0,0,0,.243.586Z" transform="translate(-559.37 -27.451)" fill="#ffc9e0"/>
            </g>
            <g id="Group_1834" data-name="Group 1834" transform="translate(48.575 48.575)">
              <path id="Path_81443" data-name="Path 81443" d="M563.484,181.487a.343.343,0,0,0,.243-.1L720.846,24.268a.344.344,0,1,0-.486-.486L563.241,180.9a.343.343,0,0,0,.243.586Z" transform="translate(-563.141 -23.682)" fill="#ffc9e0"/>
            </g>
            <g id="Group_1835" data-name="Group 1835" transform="translate(45.106 45.106)">
              <path id="Path_81444" data-name="Path 81444" d="M567.255,177.717a.345.345,0,0,0,.243-.1L724.616,20.5a.343.343,0,1,0-.485-.485L567.012,177.131a.343.343,0,0,0,.243.586Z" transform="translate(-566.911 -19.911)" fill="#ffc9e0"/>
            </g>
            <g id="Group_1836" data-name="Group 1836" transform="translate(41.636 41.636)">
              <path id="Path_81445" data-name="Path 81445" d="M571.025,173.947a.342.342,0,0,0,.243-.1L728.387,16.727a.344.344,0,1,0-.486-.486L570.782,173.36a.344.344,0,0,0,.243.587Z" transform="translate(-570.681 -16.14)" fill="#ffc9e0"/>
            </g>
            <g id="Group_1837" data-name="Group 1837" transform="translate(38.166 38.166)">
              <path id="Path_81446" data-name="Path 81446" d="M574.8,170.176a.339.339,0,0,0,.242-.1L732.158,12.957a.344.344,0,0,0-.486-.486L574.553,169.59a.343.343,0,0,0,.243.586Z" transform="translate(-574.452 -12.371)" fill="#ffc9e0"/>
            </g>
            <g id="Group_1838" data-name="Group 1838" transform="translate(34.697 34.697)">
              <path id="Path_81447" data-name="Path 81447" d="M578.565,166.406a.342.342,0,0,0,.243-.1L735.927,9.186a.344.344,0,0,0-.486-.486L578.323,165.819a.344.344,0,0,0,.243.587Z" transform="translate(-578.222 -8.6)" fill="#ffc9e0"/>
            </g>
            <g id="Group_1839" data-name="Group 1839" transform="translate(31.227 31.227)">
              <path id="Path_81448" data-name="Path 81448" d="M582.336,162.635a.341.341,0,0,0,.243-.1L739.7,5.416a.344.344,0,0,0-.486-.486L582.093,162.049a.343.343,0,0,0,.243.586Z" transform="translate(-581.992 -4.83)" fill="#ffc9e0"/>
            </g>
            <g id="Group_1840" data-name="Group 1840" transform="translate(27.757 27.757)">
              <path id="Path_81449" data-name="Path 81449" d="M586.107,158.865a.339.339,0,0,0,.242-.1L743.468,1.646a.343.343,0,0,0-.485-.486L585.864,158.279a.343.343,0,0,0,.243.586Z" transform="translate(-585.763 -1.059)" fill="#ffc9e0"/>
            </g>
            <g id="Group_1841" data-name="Group 1841" transform="translate(24.288 24.288)">
              <path id="Path_81450" data-name="Path 81450" d="M589.876,155.1a.342.342,0,0,0,.243-.1L747.238-2.125a.343.343,0,0,0,0-.486.345.345,0,0,0-.486,0L589.634,154.508a.344.344,0,0,0,.243.587Z" transform="translate(-589.533 2.711)" fill="#ffc9e0"/>
            </g>
            <g id="Group_1842" data-name="Group 1842" transform="translate(20.818 20.818)">
              <path id="Path_81451" data-name="Path 81451" d="M593.647,151.324a.343.343,0,0,0,.243-.1L751.009-5.895a.343.343,0,0,0,0-.486.343.343,0,0,0-.486,0L593.4,150.738a.343.343,0,0,0,.243.586Z" transform="translate(-593.303 6.482)" fill="#ffc9e0"/>
            </g>
            <g id="Group_1843" data-name="Group 1843" transform="translate(17.348 17.349)">
              <path id="Path_81452" data-name="Path 81452" d="M597.418,147.554a.343.343,0,0,0,.243-.1L754.779-9.665a.345.345,0,0,0,0-.486.343.343,0,0,0-.486,0L597.175,146.968a.343.343,0,0,0,.243.586Z" transform="translate(-597.074 10.252)" fill="#ffc9e0"/>
            </g>
            <g id="Group_1844" data-name="Group 1844" transform="translate(13.878 13.878)">
              <path id="Path_81453" data-name="Path 81453" d="M601.188,143.783a.341.341,0,0,0,.243-.1L758.55-13.436a.343.343,0,0,0,0-.486.343.343,0,0,0-.486,0L600.945,143.2a.343.343,0,0,0,.243.586Z" transform="translate(-600.844 14.023)" fill="#ffc9e0"/>
            </g>
            <g id="Group_1845" data-name="Group 1845" transform="translate(10.409 10.409)">
              <path id="Path_81454" data-name="Path 81454" d="M604.958,140.013a.343.343,0,0,0,.243-.1L762.32-17.206a.343.343,0,0,0,0-.486.343.343,0,0,0-.486,0L604.715,139.427a.343.343,0,0,0,.243.586Z" transform="translate(-604.614 17.793)" fill="#ffc9e0"/>
            </g>
            <g id="Group_1846" data-name="Group 1846" transform="translate(6.939 6.94)">
              <path id="Path_81455" data-name="Path 81455" d="M608.729,136.243a.344.344,0,0,0,.243-.1L766.09-20.977a.342.342,0,0,0,0-.485.343.343,0,0,0-.486,0L608.486,135.657a.344.344,0,0,0,.243.586Z" transform="translate(-608.385 21.563)" fill="#ffc9e0"/>
            </g>
            <g id="Group_1847" data-name="Group 1847" transform="translate(3.469 3.469)">
              <path id="Path_81456" data-name="Path 81456" d="M612.5,132.472a.341.341,0,0,0,.243-.1L769.861-24.747a.343.343,0,0,0,0-.486.343.343,0,0,0-.486,0L612.256,131.886a.343.343,0,0,0,.243.586Z" transform="translate(-612.156 25.334)" fill="#ffc9e0"/>
            </g>
            <g id="Group_1848" data-name="Group 1848" transform="translate(0)">
              <path id="Path_81457" data-name="Path 81457" d="M616.27,128.7a.343.343,0,0,0,.243-.1L773.631-28.517a.345.345,0,0,0,0-.486.343.343,0,0,0-.486,0L616.027,128.116a.343.343,0,0,0,.243.586Z" transform="translate(-615.926 29.104)" fill="#ffc9e0"/>
            </g>
          </g>
        </g>
      </g>
      <g id="Group_1889" data-name="Group 1889" transform="translate(468.446 88.013)">
        <g id="Group_1888" data-name="Group 1888" transform="translate(0 0)" clip-path="url(#clip-path-2)">
          <g id="Group_1887" data-name="Group 1887" transform="translate(-40.526 -27.904)">
            <g id="Group_1852" data-name="Group 1852" transform="translate(117.968 117.968)">
              <path id="Path_81458" data-name="Path 81458" d="M-53.762,385.331a.343.343,0,0,0,.243-.1L103.6,228.112a.344.344,0,1,0-.486-.486L-54,384.745a.343.343,0,0,0,0,.486A.341.341,0,0,0-53.762,385.331Z" transform="translate(54.106 -227.526)" fill="#c1c5ef"/>
            </g>
            <g id="Group_1853" data-name="Group 1853" transform="translate(114.499 114.499)">
              <path id="Path_81459" data-name="Path 81459" d="M-49.992,381.561a.345.345,0,0,0,.243-.1l157.119-157.12a.343.343,0,0,0-.486-.485L-50.235,380.975a.345.345,0,0,0,0,.486A.347.347,0,0,0-49.992,381.561Z" transform="translate(50.336 -223.755)" fill="#c1c5ef"/>
            </g>
            <g id="Group_1854" data-name="Group 1854" transform="translate(111.029 111.029)">
              <path id="Path_81460" data-name="Path 81460" d="M-46.222,377.791a.344.344,0,0,0,.243-.1L111.14,220.571a.344.344,0,1,0-.486-.486L-46.465,377.2a.343.343,0,0,0,0,.486A.342.342,0,0,0-46.222,377.791Z" transform="translate(46.565 -219.984)" fill="#c1c5ef"/>
            </g>
            <g id="Group_1855" data-name="Group 1855" transform="translate(107.56 107.56)">
              <path id="Path_81461" data-name="Path 81461" d="M-42.451,374.02a.339.339,0,0,0,.242-.1L114.91,216.8a.343.343,0,1,0-.485-.486L-42.694,373.434a.343.343,0,0,0,0,.486A.34.34,0,0,0-42.451,374.02Z" transform="translate(42.795 -216.215)" fill="#c1c5ef"/>
            </g>
            <g id="Group_1856" data-name="Group 1856" transform="translate(104.089 104.09)">
              <path id="Path_81462" data-name="Path 81462" d="M-38.681,370.25a.345.345,0,0,0,.243-.1L118.681,213.03a.343.343,0,0,0-.486-.485L-38.924,369.664a.343.343,0,0,0,0,.486A.347.347,0,0,0-38.681,370.25Z" transform="translate(39.025 -212.445)" fill="#c1c5ef"/>
            </g>
            <g id="Group_1857" data-name="Group 1857" transform="translate(100.62 100.62)">
              <path id="Path_81463" data-name="Path 81463" d="M-34.911,366.479a.343.343,0,0,0,.243-.1L122.451,209.26a.344.344,0,0,0-.486-.486L-35.154,365.893a.343.343,0,0,0,0,.486A.341.341,0,0,0-34.911,366.479Z" transform="translate(35.254 -208.673)" fill="#c1c5ef"/>
            </g>
            <g id="Group_1858" data-name="Group 1858" transform="translate(97.151 97.151)">
              <path id="Path_81464" data-name="Path 81464" d="M-31.14,362.709a.341.341,0,0,0,.242-.1L126.221,205.49a.343.343,0,0,0-.485-.486L-31.383,362.123a.343.343,0,0,0,0,.486A.341.341,0,0,0-31.14,362.709Z" transform="translate(31.484 -204.904)" fill="#c1c5ef"/>
            </g>
            <g id="Group_1859" data-name="Group 1859" transform="translate(93.68 93.681)">
              <path id="Path_81465" data-name="Path 81465" d="M-27.37,358.938a.341.341,0,0,0,.243-.1L129.992,201.719a.343.343,0,0,0-.486-.485L-27.613,358.352a.343.343,0,0,0,0,.486A.343.343,0,0,0-27.37,358.938Z" transform="translate(27.713 -201.133)" fill="#c1c5ef"/>
            </g>
            <g id="Group_1860" data-name="Group 1860" transform="translate(90.211 90.211)">
              <path id="Path_81466" data-name="Path 81466" d="M-23.6,355.168a.343.343,0,0,0,.243-.1L133.762,197.949a.344.344,0,0,0-.486-.486L-23.843,354.582a.343.343,0,0,0,0,.486A.341.341,0,0,0-23.6,355.168Z" transform="translate(23.944 -197.363)" fill="#c1c5ef"/>
            </g>
            <g id="Group_1861" data-name="Group 1861" transform="translate(86.741 86.742)">
              <path id="Path_81467" data-name="Path 81467" d="M-19.829,351.4a.341.341,0,0,0,.243-.1L137.532,194.179a.344.344,0,1,0-.486-.486L-20.072,350.812a.345.345,0,0,0,0,.486A.343.343,0,0,0-19.829,351.4Z" transform="translate(20.172 -193.592)" fill="#c1c5ef"/>
            </g>
            <g id="Group_1862" data-name="Group 1862" transform="translate(83.271 83.271)">
              <path id="Path_81468" data-name="Path 81468" d="M-16.059,347.628a.342.342,0,0,0,.243-.1L141.3,190.408a.344.344,0,0,0-.486-.486L-16.3,347.041a.343.343,0,0,0,0,.486A.342.342,0,0,0-16.059,347.628Z" transform="translate(16.403 -189.822)" fill="#c1c5ef"/>
            </g>
            <g id="Group_1863" data-name="Group 1863" transform="translate(79.802 79.802)">
              <path id="Path_81469" data-name="Path 81469" d="M-12.288,343.857a.343.343,0,0,0,.243-.1L145.073,186.638a.344.344,0,0,0-.486-.486L-12.531,343.271a.343.343,0,0,0,0,.486A.341.341,0,0,0-12.288,343.857Z" transform="translate(12.632 -186.051)" fill="#c1c5ef"/>
            </g>
            <g id="Group_1864" data-name="Group 1864" transform="translate(76.332 76.333)">
              <path id="Path_81470" data-name="Path 81470" d="M-8.518,340.087a.341.341,0,0,0,.243-.1l157.119-157.12a.343.343,0,0,0-.486-.485L-8.761,339.5a.343.343,0,0,0,0,.486A.343.343,0,0,0-8.518,340.087Z" transform="translate(8.861 -182.282)" fill="#c1c5ef"/>
            </g>
            <g id="Group_1865" data-name="Group 1865" transform="translate(72.862 72.863)">
              <path id="Path_81471" data-name="Path 81471" d="M-4.748,336.317a.342.342,0,0,0,.243-.1L152.614,179.1a.344.344,0,0,0-.486-.486L-4.991,335.73a.343.343,0,0,0,0,.486A.344.344,0,0,0-4.748,336.317Z" transform="translate(5.092 -178.511)" fill="#c1c5ef"/>
            </g>
            <g id="Group_1866" data-name="Group 1866" transform="translate(69.393 69.393)">
              <path id="Path_81472" data-name="Path 81472" d="M-.978,332.546a.341.341,0,0,0,.243-.1l157.12-157.119a.344.344,0,0,0-.486-.486L-1.22,331.96a.343.343,0,0,0,0,.486A.339.339,0,0,0-.978,332.546Z" transform="translate(1.321 -174.741)" fill="#c1c5ef"/>
            </g>
            <g id="Group_1867" data-name="Group 1867" transform="translate(65.924 65.924)">
              <path id="Path_81473" data-name="Path 81473" d="M2.793,328.776a.342.342,0,0,0,.243-.1L160.154,171.556a.343.343,0,1,0-.486-.485L2.55,328.19a.344.344,0,0,0,.243.586Z" transform="translate(-2.449 -170.97)" fill="#c1c5ef"/>
            </g>
            <g id="Group_1868" data-name="Group 1868" transform="translate(62.454 62.454)">
              <path id="Path_81474" data-name="Path 81474" d="M6.563,325.005a.343.343,0,0,0,.243-.1L163.925,167.786a.344.344,0,0,0-.486-.486L6.32,324.419a.343.343,0,0,0,.243.586Z" transform="translate(-6.219 -167.199)" fill="#c1c5ef"/>
            </g>
            <g id="Group_1869" data-name="Group 1869" transform="translate(58.984 58.984)">
              <path id="Path_81475" data-name="Path 81475" d="M10.333,321.235a.34.34,0,0,0,.243-.1L167.695,164.016a.343.343,0,1,0-.485-.486L10.091,320.649a.343.343,0,0,0,0,.486A.339.339,0,0,0,10.333,321.235Z" transform="translate(-9.99 -163.43)" fill="#c1c5ef"/>
            </g>
            <g id="Group_1870" data-name="Group 1870" transform="translate(55.515 55.515)">
              <path id="Path_81476" data-name="Path 81476" d="M14.1,317.465a.342.342,0,0,0,.243-.1L171.465,160.245a.344.344,0,1,0-.486-.486L13.861,316.878a.344.344,0,0,0,.243.587Z" transform="translate(-13.761 -159.659)" fill="#c1c5ef"/>
            </g>
            <g id="Group_1871" data-name="Group 1871" transform="translate(52.045 52.045)">
              <path id="Path_81477" data-name="Path 81477" d="M17.875,313.694a.343.343,0,0,0,.243-.1L175.236,156.475a.344.344,0,0,0-.486-.486L17.632,313.108a.343.343,0,0,0,.243.586Z" transform="translate(-17.531 -155.889)" fill="#c1c5ef"/>
            </g>
            <g id="Group_1872" data-name="Group 1872" transform="translate(48.575 48.575)">
              <path id="Path_81478" data-name="Path 81478" d="M21.645,309.924a.339.339,0,0,0,.242-.1L179.006,152.705a.343.343,0,0,0-.485-.486L21.4,309.338a.343.343,0,0,0,0,.486A.34.34,0,0,0,21.645,309.924Z" transform="translate(-21.301 -152.118)" fill="#c1c5ef"/>
            </g>
            <g id="Group_1873" data-name="Group 1873" transform="translate(45.105 45.106)">
              <path id="Path_81479" data-name="Path 81479" d="M25.415,306.154a.344.344,0,0,0,.243-.1L182.777,148.934a.344.344,0,0,0-.486-.486L25.172,305.567a.344.344,0,0,0,.243.587Z" transform="translate(-25.072 -148.348)" fill="#c1c5ef"/>
            </g>
            <g id="Group_1874" data-name="Group 1874" transform="translate(41.636 41.636)">
              <path id="Path_81480" data-name="Path 81480" d="M29.186,302.383a.343.343,0,0,0,.243-.1L186.547,145.164a.344.344,0,1,0-.486-.486L28.943,301.8a.343.343,0,0,0,.243.586Z" transform="translate(-28.842 -144.577)" fill="#c1c5ef"/>
            </g>
            <g id="Group_1875" data-name="Group 1875" transform="translate(38.165 38.166)">
              <path id="Path_81481" data-name="Path 81481" d="M32.956,298.613a.345.345,0,0,0,.243-.1L190.318,141.394a.344.344,0,1,0-.486-.486L32.713,298.027a.343.343,0,0,0,0,.486A.347.347,0,0,0,32.956,298.613Z" transform="translate(-32.613 -140.808)" fill="#c1c5ef"/>
            </g>
            <g id="Group_1876" data-name="Group 1876" transform="translate(34.696 34.696)">
              <path id="Path_81482" data-name="Path 81482" d="M36.726,294.843a.344.344,0,0,0,.243-.1L194.088,137.623a.344.344,0,1,0-.486-.486L36.483,294.256a.344.344,0,0,0,.243.587Z" transform="translate(-36.382 -137.036)" fill="#c1c5ef"/>
            </g>
            <g id="Group_1877" data-name="Group 1877" transform="translate(31.227 31.227)">
              <path id="Path_81483" data-name="Path 81483" d="M40.5,291.072a.343.343,0,0,0,.243-.1L197.858,133.853a.344.344,0,0,0-.486-.486L40.254,290.486a.343.343,0,0,0,.243.586Z" transform="translate(-40.153 -133.267)" fill="#c1c5ef"/>
            </g>
            <g id="Group_1878" data-name="Group 1878" transform="translate(27.757 27.757)">
              <path id="Path_81484" data-name="Path 81484" d="M44.267,287.3a.342.342,0,0,0,.243-.1L201.629,130.082a.343.343,0,0,0-.486-.485L44.024,286.716a.344.344,0,0,0,.243.586Z" transform="translate(-43.924 -129.497)" fill="#c1c5ef"/>
            </g>
            <g id="Group_1879" data-name="Group 1879" transform="translate(24.287 24.287)">
              <path id="Path_81485" data-name="Path 81485" d="M48.037,283.532a.344.344,0,0,0,.243-.1L205.4,126.312a.344.344,0,1,0-.486-.486L47.794,282.945a.344.344,0,0,0,.243.587Z" transform="translate(-47.694 -125.726)" fill="#c1c5ef"/>
            </g>
            <g id="Group_1880" data-name="Group 1880" transform="translate(20.818 20.818)">
              <path id="Path_81486" data-name="Path 81486" d="M51.807,279.761a.341.341,0,0,0,.243-.1L209.17,122.542a.344.344,0,0,0-.486-.486L51.564,279.175a.343.343,0,0,0,.243.586Z" transform="translate(-51.464 -121.955)" fill="#c1c5ef"/>
            </g>
            <g id="Group_1881" data-name="Group 1881" transform="translate(17.348 17.348)">
              <path id="Path_81487" data-name="Path 81487" d="M55.578,275.991a.342.342,0,0,0,.243-.1L212.94,118.771a.344.344,0,0,0-.486-.486L55.335,275.4a.344.344,0,0,0,.243.586Z" transform="translate(-55.234 -118.185)" fill="#c1c5ef"/>
            </g>
            <g id="Group_1882" data-name="Group 1882" transform="translate(13.878 13.878)">
              <path id="Path_81488" data-name="Path 81488" d="M59.348,272.22a.343.343,0,0,0,.243-.1L216.71,115a.344.344,0,0,0-.486-.486L59.105,271.634a.343.343,0,0,0,.243.586Z" transform="translate(-59.005 -114.415)" fill="#c1c5ef"/>
            </g>
            <g id="Group_1883" data-name="Group 1883" transform="translate(10.409 10.409)">
              <path id="Path_81489" data-name="Path 81489" d="M63.119,268.45a.341.341,0,0,0,.243-.1L220.48,111.231a.344.344,0,1,0-.486-.486L62.876,267.864a.343.343,0,0,0,.243.586Z" transform="translate(-62.776 -110.645)" fill="#c1c5ef"/>
            </g>
            <g id="Group_1884" data-name="Group 1884" transform="translate(6.939 6.939)">
              <path id="Path_81490" data-name="Path 81490" d="M66.889,264.68a.342.342,0,0,0,.243-.1L224.251,107.46a.344.344,0,0,0-.486-.486L66.646,264.093a.344.344,0,0,0,.243.587Z" transform="translate(-66.545 -106.874)" fill="#c1c5ef"/>
            </g>
            <g id="Group_1885" data-name="Group 1885" transform="translate(3.469 3.469)">
              <path id="Path_81491" data-name="Path 81491" d="M70.66,260.909a.343.343,0,0,0,.243-.1L228.021,103.69a.344.344,0,0,0-.486-.486L70.417,260.323a.343.343,0,0,0,.243.586Z" transform="translate(-70.316 -103.104)" fill="#c1c5ef"/>
            </g>
            <g id="Group_1886" data-name="Group 1886" transform="translate(0)">
              <path id="Path_81492" data-name="Path 81492" d="M74.429,257.139a.345.345,0,0,0,.243-.1L231.791,99.92a.344.344,0,0,0-.486-.486L74.187,256.553a.343.343,0,0,0,.242.586Z" transform="translate(-74.086 -99.333)" fill="#c1c5ef"/>
            </g>
          </g>
        </g>
      </g>
    </g>
    <g id="Group_1904" data-name="Group 1904" transform="translate(359.129 205.217)">
      <g id="Group_1893" data-name="Group 1893">
        <path id="Path_81493" data-name="Path 81493" d="M333.539,248.073,296.183,410.31,147.035,432.668,31.111,397.221h0c0-3.091,2.351-5.676,5.379-6.763l114.361-7.688,40.9-129.838,139.605-7.859Z" transform="translate(-31.111 -245.021)" fill="#c1c5ef"/>
        <g id="Group_1891" data-name="Group 1891" transform="translate(115.695)">
          <path id="Path_81494" data-name="Path 81494" d="M33.7,432.681c.524-7.082,6.368-7.936,6.617-7.969L179.531,405.6l.037-.153,38.446-160.328-.448-.107L179.156,405.191l-138.9,19.065c-.063.009-6.462.929-7.015,8.392Z" transform="translate(-33.238 -245.016)" fill="#222221"/>
        </g>
        <g id="Group_1892" data-name="Group 1892" transform="translate(119.712 137.47)">
          <rect id="Rectangle_58230" data-name="Rectangle 58230" width="143.852" height="0.461" transform="matrix(-0.987, -0.158, 0.158, -0.987, 142.044, 23.19)" fill="#222221"/>
        </g>
      </g>
      <path id="Path_81495" data-name="Path 81495" d="M205.066,253.43,173.982,389.163,44.148,374.984,81.14,257.863Z" transform="translate(85.364 -245.687)" fill="#fff"/>
      <g id="Group_1903" data-name="Group 1903" transform="translate(56.529 140.041)">
        <g id="Group_1894" data-name="Group 1894">
          <path id="Path_81496" data-name="Path 81496" d="M218.388,425.705l.04-.005,65.145-8.523L175.08,397.193l-.03,0-61.626,4.943Zm62.227-8.605-62.206,8.138L116.486,402.354l58.57-4.7Z" transform="translate(-113.423 -397.193)" fill="#222221"/>
        </g>
        <g id="Group_1895" data-name="Group 1895" transform="translate(49.531 0.996)">
          <rect id="Rectangle_58231" data-name="Rectangle 58231" width="107.141" height="0.46" transform="matrix(-0.981, -0.192, 0.192, -0.981, 105.157, 20.976)" fill="#222221"/>
        </g>
        <g id="Group_1896" data-name="Group 1896" transform="translate(36.454 2.035)">
          <rect id="Rectangle_58232" data-name="Rectangle 58232" width="103.694" height="0.46" transform="matrix(-0.978, -0.209, 0.209, -0.978, 101.398, 22.149)" fill="#222221"/>
        </g>
        <g id="Group_1897" data-name="Group 1897" transform="translate(21.342 3.279)">
          <rect id="Rectangle_58233" data-name="Rectangle 58233" width="101.965" height="0.461" transform="translate(99.416 23.11) rotate(-167.16)" fill="#222221"/>
        </g>
        <g id="Group_1898" data-name="Group 1898" transform="translate(85.077 16.563)">
          <rect id="Rectangle_58234" data-name="Rectangle 58234" width="0.461" height="66.825" transform="matrix(-0.105, -0.994, 0.994, -0.105, 0.048, 7.482)" fill="#222221"/>
        </g>
        <g id="Group_1899" data-name="Group 1899" transform="translate(67.505 12.88)">
          <rect id="Rectangle_58235" data-name="Rectangle 58235" width="0.461" height="64.33" transform="translate(0.048 7.22) rotate(-96.033)" fill="#222221"/>
        </g>
        <g id="Group_1900" data-name="Group 1900" transform="translate(52.446 9.501)">
          <rect id="Rectangle_58236" data-name="Rectangle 58236" width="0.459" height="61.454" transform="translate(0.051 7.218) rotate(-96.317)" fill="#222221"/>
        </g>
        <g id="Group_1901" data-name="Group 1901" transform="translate(36.13 6.12)">
          <rect id="Rectangle_58237" data-name="Rectangle 58237" width="0.459" height="58.887" transform="translate(0.051 6.936) rotate(-96.317)" fill="#222221"/>
        </g>
        <g id="Group_1902" data-name="Group 1902" transform="translate(20.294 2.88)">
          <rect id="Rectangle_58238" data-name="Rectangle 58238" width="0.459" height="56.016" transform="translate(0.051 6.62) rotate(-96.317)" fill="#222221"/>
        </g>
      </g>
    </g>
    <g id="Group_1925" data-name="Group 1925" transform="translate(19.723 53.07)">
      <g id="Group_1906" data-name="Group 1906" transform="translate(289.622 265.424)">
        <path id="Path_81497" data-name="Path 81497" d="M279.34,375.864l68.365,2.813,21.269-9.748s10.633-1.841,13.088,0c0,0,4.09-.614,6.271,1.295s15.815,13.089,14.724,14.724-5.727.818-9.544-1.363-7.907-4.091-7.907-4.091-17.178,3.909-16.906,6.318,7.09,1.318,12,1.59,13.633,3,9,6.271-17.451,1.636-17.451,1.636-17.451,6.544-26.721,2.727c0,0-46.9,4.09-53.443,5.18S279.34,375.864,279.34,375.864Z" transform="translate(-279.34 -368.111)" fill="#ffc9e0"/>
        <g id="Group_1905" data-name="Group 1905" transform="translate(93.911 0.604)">
          <rect id="Rectangle_58239" data-name="Rectangle 58239" width="0.461" height="9.393" transform="translate(0.171 3.905) rotate(-111.727)" fill="#222221"/>
        </g>
      </g>
      <g id="Group_1908" data-name="Group 1908" transform="translate(96.915 160.059)">
        <path id="Path_81498" data-name="Path 81498" d="M552.669,286.382s-26.007-13.578-37.012-18.241-41.271-18.569-54.359-13.388-29.176,21.268-31.9,44.172S420.67,406.9,421.761,418.353s9.816,62,9.816,62h175.6l-23.449-57.362s12.815-37.083,11.179-43.9S552.669,286.382,552.669,286.382Z" transform="translate(-421.63 -253.614)" fill="#0097a6"/>
        <g id="Group_1907" data-name="Group 1907" transform="translate(130.808 130.637)">
          <path id="Path_81499" data-name="Path 81499" d="M479.06,491.743l.436-.142c-.175-.541-17.584-54.111-17.983-57.725s0-37.953,0-38.3l-.46,0c-.016,1.415-.4,34.7,0,38.353S478.341,489.534,479.06,491.743Z" transform="translate(-460.874 -395.572)" fill="#222221"/>
        </g>
      </g>
      <path id="Path_81500" data-name="Path 81500" d="M713.068,486.012S690.164,374.969,687.3,367.3s-1.636-24.029-21.677-25.256-57.668,0-84.253-9-44.581-10.634-47.035,1.635,35.582,151.33,35.582,151.33Z" transform="translate(-534.222 -99.319)" fill="#222221"/>
      <g id="Group_1914" data-name="Group 1914" transform="translate(198.321 190.374)">
        <path id="Path_81501" data-name="Path 81501" d="M224.317,286.556s17.451,5.452,22.359,13.088,38.445,59.168,48.262,67.348,37.082,32.72,43.354,34.629,91.071-6.271,91.071-6.271,16.906-17.723,18.814-17.723h9.543l4.09-4.09s22.61-4.227,24.246-3.681,3.112.839,2.339,3.545c-.545,1.909-10.906,5.775-10.906,5.775s9.815.725,8.056,5.268c-.912,2.353-9.283.546-9.283.546s-26.721,27.266-32.175,28.9-14.451,1.636-14.451,1.636S345.381,440.34,331.2,438.158s-84.254-51.806-84.254-51.806-21.814,3.817-31.084-7.908-12.542-43.081-6-62.44S224.317,286.556,224.317,286.556Z" transform="translate(-206.437 -286.556)" fill="#ffc9e0"/>
        <g id="Group_1913" data-name="Group 1913" transform="translate(11.045 85.749)">
          <g id="Group_1909" data-name="Group 1909" transform="translate(244.186 6.616)">
            <path id="Path_81502" data-name="Path 81502" d="M212.357,394.265l7.907-6.179h0a13.171,13.171,0,0,1,5.573-.676,37.38,37.38,0,0,1,7.851,1.44l.136-.441a38.013,38.013,0,0,0-7.965-1.46,13.154,13.154,0,0,0-5.835.747l-7.95,6.2Z" transform="translate(-212.074 -386.926)" fill="#222221"/>
          </g>
          <g id="Group_1910" data-name="Group 1910" transform="translate(236.066 5.107)">
            <rect id="Rectangle_58240" data-name="Rectangle 58240" width="0.459" height="4.373" transform="matrix(-0.354, -0.935, 0.935, -0.354, 0.163, 1.978)" fill="#222221"/>
          </g>
          <g id="Group_1911" data-name="Group 1911" transform="translate(3.01 0.05)">
            <path id="Path_81503" data-name="Path 81503" d="M495.42,393.454l.219-.4L471.085,379.79l-.219.4Z" transform="translate(-470.866 -379.79)" fill="#222221"/>
          </g>
          <g id="Group_1912" data-name="Group 1912" transform="translate(0)">
            <path id="Path_81504" data-name="Path 81504" d="M499.986,383.515l-6.537-3.53-2.946,2.257Z" transform="translate(-490.274 -379.756)" fill="#222221"/>
            <path id="Path_81505" data-name="Path 81505" d="M499.965,383.725a.23.23,0,0,0,.11-.432l-6.536-3.529a.231.231,0,0,0-.249.019l-2.947,2.257a.231.231,0,0,0,.11.41l9.481,1.273Zm-6.514-3.486,5.3,2.86-7.685-1.032Z" transform="translate(-490.253 -379.736)" fill="#222221"/>
          </g>
        </g>
      </g>
      <g id="Group_1915" data-name="Group 1915" transform="translate(0.941 231.216)">
        <path id="Path_81506" data-name="Path 81506" d="M712.327,486.456l.454-.083c-.964-5.314-23.7-130.223-32.149-135.127-3.782-2.2-12.889-2.131-24.409-2.052-14.887.1-33.42.231-50.771-4.106-9.111-2.279-17.728-4.747-25.331-6.925-18.763-5.374-32.321-9.261-37.7-6.074l.234.4c5.21-3.083,18.686.777,37.342,6.121,7.606,2.179,16.227,4.649,25.345,6.928,17.406,4.353,35.966,4.223,50.885,4.121,11.454-.078,20.5-.143,24.174,1.99C688.665,356.444,712.092,485.157,712.327,486.456Z" transform="translate(-542.42 -330.938)" fill="#fff"/>
      </g>
      <g id="Group_1924" data-name="Group 1924" transform="translate(56.722)">
        <g id="Group_1921" data-name="Group 1921" transform="translate(82.315 33.108)">
          <path id="Path_81507" data-name="Path 81507" d="M565.111,126.232l3.272,59.442h-4.909s-10.089,35.446-15.542,38.446-23.449,0-23.449,0l-9.543,34.356s5.726,3.545,5.452,6-56.986-4.09-56.986-9,9.271-25.358,9.815-34.083-2.453-37.628-1.909-48.262,41.445-53.17,56.169-56.442S562.93,118.325,565.111,126.232Z" transform="translate(-463.407 -115.661)" fill="#ffc9e0"/>
          <g id="Group_1920" data-name="Group 1920" transform="translate(50.42 34.016)">
            <g id="Group_1916" data-name="Group 1916" transform="translate(35.18 45.274)">
              <path id="Path_81508" data-name="Path 81508" d="M483.731,209.868l.174-.426a11.675,11.675,0,0,1-6-7.619l-.444.121A12.141,12.141,0,0,0,483.731,209.868Z" transform="translate(-477.461 -201.823)" fill="#222221"/>
            </g>
            <path id="Path_81509" data-name="Path 81509" d="M471.556,168.806a2.249,2.249,0,1,0,2.249-2.249A2.249,2.249,0,0,0,471.556,168.806Z" transform="translate(-428.996 -153.736)" fill="#222221"/>
            <g id="Group_1917" data-name="Group 1917" transform="translate(41.137)">
              <path id="Path_81510" data-name="Path 81510" d="M469.912,153.315h7.06a.345.345,0,0,0,0-.69h-7.06a.345.345,0,1,0,0,.69Z" transform="translate(-469.567 -152.625)" fill="#222221"/>
            </g>
            <g id="Group_1918" data-name="Group 1918" transform="translate(0 67.396)">
              <path id="Path_81511" data-name="Path 81511" d="M521.538,232.928l-10.427-6.817,7.233,18.313Z" transform="translate(-510.881 -225.881)" fill="#222221"/>
              <path id="Path_81512" data-name="Path 81512" d="M518.323,244.635h.012a.232.232,0,0,0,.211-.168l3.193-11.5a.229.229,0,0,0-.1-.254L511.216,225.9a.23.23,0,0,0-.34.277l7.233,18.313A.23.23,0,0,0,518.323,244.635Zm2.927-11.626-2.965,10.673-6.715-17Z" transform="translate(-510.861 -225.862)" fill="#222221"/>
            </g>
            <g id="Group_1919" data-name="Group 1919" transform="translate(5.201 14.805)">
              <path id="Path_81513" data-name="Path 81513" d="M516.336,169s-5.519-.819-5.213,5.725" transform="translate(-510.881 -168.733)" fill="#222221"/>
              <path id="Path_81514" data-name="Path 81514" d="M511.1,174.933h.011a.231.231,0,0,0,.219-.241c-.095-2.038.375-3.541,1.4-4.47a4.794,4.794,0,0,1,3.55-1.017.232.232,0,0,0,.26-.194.229.229,0,0,0-.193-.26,5.171,5.171,0,0,0-3.923,1.128c-1.134,1.024-1.656,2.65-1.554,4.835A.23.23,0,0,0,511.1,174.933Z" transform="translate(-510.861 -168.713)" fill="#222221"/>
            </g>
          </g>
        </g>
        <g id="Group_1923" data-name="Group 1923" transform="translate(0)">
          <path id="Path_81515" data-name="Path 81515" d="M617.534,165.354l-3,14.724H610.99s1.636-18.814-2.181-21-10.089-.818-9.407,12.543,4.771,20.995,4.226,23.449-4.09,8.452-15,14.178-31.906,3.008-31.906,3.008a236.556,236.556,0,0,1-19.9-29.456c-8.453-15.27-14.724-31.63-9.816-49.353a24.967,24.967,0,0,0-9.543,25.358c3.271,16.9,8.725,46.353-11.453,65.985S465.386,241.7,470.022,232.7s8.18-14.724,1.909-38.719-13.36-68.712,1.364-84.8,49.624-16.234,61.349,3.607c0,0,13.361-26.784,35.447-31.419s51.261.272,67.621,14.724,16.088,19.9,6.271,34.356S634.781,150.937,617.534,165.354Z" transform="translate(-464.599 -79.684)" fill="#222221"/>
          <g id="Group_1922" data-name="Group 1922" transform="translate(62.3 32.97)">
            <path id="Path_81516" data-name="Path 81516" d="M588.264,136.51c5.593-3.076,8.9-6.8,9.818-11.062a13.391,13.391,0,0,0-2.11-9.937l-.368.275a12.911,12.911,0,0,1,2.027,9.571c-.894,4.125-4.12,7.743-9.588,10.75Z" transform="translate(-588.043 -115.511)" fill="#fff"/>
          </g>
        </g>
      </g>
    </g>
    <g id="Group_1945" data-name="Group 1945" transform="translate(302.51 -0.001)">
      <g id="Group_1944" data-name="Group 1944" transform="translate(0 0)">
        <g id="Group_1927" data-name="Group 1927" transform="translate(305.488 112.689)">
          <ellipse id="Ellipse_107" data-name="Ellipse 107" cx="27.114" cy="27.113" rx="27.114" ry="27.113" transform="matrix(0.176, -0.984, 0.984, 0.176, 0, 53.376)" fill="#0097a6"/>
          <g id="Group_1926" data-name="Group 1926" transform="translate(19.201 15.541)">
            <path id="Path_81517" data-name="Path 81517" d="M72.386,175.493a2.2,2.2,0,0,0-2.325-2.039v-.093a2.057,2.057,0,1,0,0-4.08H62.29l.272-1.364c.273-1.363.41-5.862-1.09-6.407s-2.181.272-2.727,3.817-7.634,6.4-7.634,6.4v14.167H70.062a2.057,2.057,0,1,0,0-4.079v-.149a2.057,2.057,0,1,0,0-4.08v-.052A2.2,2.2,0,0,0,72.386,175.493Z" transform="translate(-42.522 -161.356)" fill="#fefefe"/>
            <rect id="Rectangle_58241" data-name="Rectangle 58241" width="8.589" height="16.982" transform="translate(0 8.947)" fill="#222221"/>
          </g>
        </g>
        <g id="Group_1929" data-name="Group 1929" transform="translate(290.709 40.973)">
          <ellipse id="Ellipse_108" data-name="Ellipse 108" cx="27.113" cy="27.113" rx="27.113" ry="27.113" transform="translate(0 0)" fill="#00556f"/>
          <g id="Group_1928" data-name="Group 1928" transform="translate(5.037 20.37)">
            <path id="Path_81518" data-name="Path 81518" d="M58.326,88.672l-1.955,3.962L52,93.269l3.164,3.084-.747,4.354,3.91-2.056,3.911,2.056-.747-4.354,3.164-3.084-4.372-.635Z" transform="translate(-20.575 -88.672)" fill="#fefefe"/>
            <path id="Path_81519" data-name="Path 81519" d="M75.4,88.672l-1.955,3.962-4.372.635,3.164,3.084-.747,4.354,3.91-2.056,3.91,2.056-.747-4.354,3.164-3.084-4.372-.635Z" transform="translate(-53.36 -88.672)" fill="#fefefe"/>
            <path id="Path_81520" data-name="Path 81520" d="M92.473,88.672l-1.955,3.962-4.372.635,3.164,3.084-.747,4.354,3.91-2.056,3.91,2.056-.747-4.354L98.8,93.269l-4.372-.635Z" transform="translate(-86.145 -88.672)" fill="#fefefe"/>
          </g>
        </g>
        <g id="Group_1931" data-name="Group 1931" transform="translate(217.084)">
          <circle id="Ellipse_109" data-name="Ellipse 109" cx="21.447" cy="21.447" r="21.447" transform="translate(0.001 30.33) rotate(-45)" fill="#0097a6"/>
          <g id="Group_1930" data-name="Group 1930" transform="translate(19.522 19.748)">
            <path id="Path_81521" data-name="Path 81521" d="M141.172,62.581l4.534-4.534s2.574,3.068,5.028,2.267,9.815-7.344,4.7-11.025l3.885-5.317s4.358,4.5,1.668,9.3-9.471,9.3-9.471,9.3S146.129,66.262,141.172,62.581Z" transform="translate(-140.711 -43.512)" fill="#fefefe"/>
            <path id="Path_81522" data-name="Path 81522" d="M145.994,64.625a8.44,8.44,0,0,1-5.136-1.714.46.46,0,0,1-.052-.695l4.534-4.534a.483.483,0,0,1,.345-.134.464.464,0,0,1,.333.164c.023.028,2.4,2.816,4.533,2.125,1.529-.5,5.625-3.786,6.108-6.889a3.245,3.245,0,0,0-1.531-3.325.461.461,0,0,1-.1-.645l3.885-5.317a.46.46,0,0,1,.7-.049c.046.048,4.564,4.8,1.739,9.85-2.714,4.847-9.338,9.277-9.618,9.463A11.343,11.343,0,0,1,145.994,64.625Zm-4.148-2.148c4.518,2.928,9.325-.282,9.375-.316.072-.048,6.725-4.5,9.329-9.15,2.063-3.686-.281-7.165-1.236-8.344l-3.283,4.493a4.1,4.1,0,0,1,1.537,3.928c-.554,3.557-4.947,7.041-6.733,7.622-2.189.712-4.364-1.2-5.184-2.039Z" transform="translate(-140.672 -43.473)" fill="#fff"/>
          </g>
        </g>
        <g id="Group_1933" data-name="Group 1933" transform="translate(148.146 50.769)">
          <path id="Path_81523" data-name="Path 81523" d="M222.914,77.182A31.851,31.851,0,0,1,238.5,136.813l5.029,6.647-10.568-4.2a31.853,31.853,0,1,1-10.045-62.081Z" transform="translate(-191.061 -77.182)" fill="#00556f"/>
          <g id="Group_1932" data-name="Group 1932" transform="translate(6.779 27.391)">
            <path id="Path_81524" data-name="Path 81524" d="M198.427,111.409a4.462,4.462,0,1,0,4.461-4.462A4.462,4.462,0,0,0,198.427,111.409Z" transform="translate(-157.202 -106.947)" fill="#fefefe"/>
            <path id="Path_81525" data-name="Path 81525" d="M220.826,111.409a4.462,4.462,0,1,0,4.461-4.462A4.462,4.462,0,0,0,220.826,111.409Z" transform="translate(-200.213 -106.947)" fill="#fefefe"/>
            <path id="Path_81526" data-name="Path 81526" d="M243.225,111.409a4.462,4.462,0,1,0,4.462-4.462A4.462,4.462,0,0,0,243.225,111.409Z" transform="translate(-243.225 -106.947)" fill="#fefefe"/>
          </g>
        </g>
        <g id="Group_1936" data-name="Group 1936" transform="translate(89.355 11.857)">
          <ellipse id="Ellipse_110" data-name="Ellipse 110" cx="27.592" cy="27.592" rx="27.592" ry="27.592" transform="translate(0 -0.001)" fill="#00556f"/>
          <g id="Group_1935" data-name="Group 1935" transform="translate(19.553 10.914)">
            <g id="Group_1934" data-name="Group 1934">
              <path id="Path_81527" data-name="Path 81527" d="M293.171,71.248a1.841,1.841,0,0,1-1.84-1.84V64.433a5.721,5.721,0,0,1,2.863-4.976c2.187-1.244,3.725-3.587,3.657-5.572a3.376,3.376,0,0,0-2.206-2.967c-3.833-1.842-6.472,2.392-6.761,2.881a1.84,1.84,0,0,1-3.182-1.85c1.551-2.68,5.957-7.036,11.541-4.348a6.974,6.974,0,0,1,4.286,6.158c.116,3.379-2.1,6.955-5.515,8.9a2.034,2.034,0,0,0-1,1.776v4.975A1.84,1.84,0,0,1,293.171,71.248Z" transform="translate(-285.454 -46.758)" fill="#fff"/>
            </g>
            <path id="Path_81528" data-name="Path 81528" d="M295.631,78.561a2.078,2.078,0,1,1-2.078-2.078A2.078,2.078,0,0,1,295.631,78.561Z" transform="translate(-285.934 -49.129)" fill="#fff"/>
          </g>
        </g>
        <g id="Group_1940" data-name="Group 1940" transform="translate(5.41 16.263)">
          <ellipse id="Ellipse_111" data-name="Ellipse 111" cx="22.495" cy="22.495" rx="22.495" ry="22.495" transform="translate(10.229 54.041) rotate(-103.142)" fill="#00556f"/>
          <g id="Group_1939" data-name="Group 1939" transform="translate(13.254 13.254)">
            <ellipse id="Ellipse_112" data-name="Ellipse 112" cx="11.452" cy="11.452" rx="11.452" ry="11.452" transform="translate(5.234 27.532) rotate(-103.211)" fill="#fefefe"/>
            <g id="Group_1938" data-name="Group 1938" transform="translate(7.324 11.312)">
              <path id="Path_81529" data-name="Path 81529" d="M379.143,67.609a1.227,1.227,0,1,0,1.227-1.228A1.227,1.227,0,0,0,379.143,67.609Z" transform="translate(-368.815 -66.381)" fill="#f87456"/>
              <path id="Path_81530" data-name="Path 81530" d="M390.365,67.609a1.227,1.227,0,1,0,1.228-1.228A1.227,1.227,0,0,0,390.365,67.609Z" transform="translate(-390.365 -66.381)" fill="#f87456"/>
              <g id="Group_1937" data-name="Group 1937" transform="translate(2.114 4.755)">
                <path id="Path_81531" data-name="Path 81531" d="M385.776,76.234A4.231,4.231,0,0,0,390,72.008a.46.46,0,1,0-.92,0,3.306,3.306,0,0,1-6.612,0,.46.46,0,1,0-.92,0A4.231,4.231,0,0,0,385.776,76.234Z" transform="translate(-381.55 -71.548)" fill="#f87456"/>
              </g>
            </g>
          </g>
        </g>
        <g id="Group_1942" data-name="Group 1942" transform="translate(55.773 86.18)">
          <circle id="Ellipse_113" data-name="Ellipse 113" cx="27.914" cy="27.914" r="27.914" transform="translate(0.001 0)" fill="#0097a6"/>
          <g id="Group_1941" data-name="Group 1941" transform="translate(9.082 21.71)">
            <path id="Path_81532" data-name="Path 81532" d="M319.467,151.9l-9.352.017-.247-2.774a17.7,17.7,0,0,0,2.38-1.575,13.557,13.557,0,0,0,2.157-2.035,3.073,3.073,0,0,0,.878-1.838.983.983,0,0,0-.279-.713,1.025,1.025,0,0,0-.771-.287,1.222,1.222,0,0,0-.918.418,1.442,1.442,0,0,0-.394,1.025l-3.052-.508a4.709,4.709,0,0,1,.674-2.232,4.37,4.37,0,0,1,1.64-1.575,4.683,4.683,0,0,1,2.314-.574,4.256,4.256,0,0,1,2.216.566,3.828,3.828,0,0,1,1.468,1.567,4.891,4.891,0,0,1,.517,2.28,4.84,4.84,0,0,1-.911,2.74,11.12,11.12,0,0,1-2.5,2.56l3.839-.132Z" transform="translate(-309.868 -139.253)" fill="#fff"/>
            <path id="Path_81533" data-name="Path 81533" d="M330.139,145.773v3.445l-1.641-.1-.049,2.691-3.446.1.066-2.986-4.315-.247-.1-9.156,3.462-.2.083,6.252.935.032.065-2.8,3.413-.9-.065,3.823Z" transform="translate(-310.728 -139.259)" fill="#fff"/>
            <path id="Path_81534" data-name="Path 81534" d="M334.065,151.786h-3.282l5.185-12.355h3.282Z" transform="translate(-311.536 -139.267)" fill="#fff"/>
            <path id="Path_81535" data-name="Path 81535" d="M350.113,142.417a23.681,23.681,0,0,0-2.954,4.644,20.155,20.155,0,0,0-.828,1.9q-.435,1.132-1.058,2.986h-4a42.911,42.911,0,0,1,1.771-4.824,32.111,32.111,0,0,1,2.38-4.562l-4.332.148v-3.283H350Z" transform="translate(-312.358 -139.267)" fill="#fff"/>
          </g>
        </g>
        <g id="Group_1943" data-name="Group 1943" transform="translate(0 158.334)">
          <ellipse id="Ellipse_114" data-name="Ellipse 114" cx="27.968" cy="27.969" rx="27.968" ry="27.969" transform="translate(0 0)" fill="#00556f"/>
          <path id="Path_81536" data-name="Path 81536" d="M404.592,237.273l-9.282-9.282a12.161,12.161,0,1,0-1.768,1.469l9.432,9.432Zm-27.736-17.84a9.853,9.853,0,1,1,9.852,9.853A9.864,9.864,0,0,1,376.856,219.433Z" transform="translate(-361.612 -195.123)" fill="#fff"/>
        </g>
      </g>
    </g>
  </g>
</svg>
