<svg xmlns="http://www.w3.org/2000/svg" xmlns:xlink="http://www.w3.org/1999/xlink" width="140" height="120" viewBox="0 0 140 120">
  <defs>
    <clipPath id="clip-path">
      <rect id="Rectangle_57961" data-name="Rectangle 57961" width="66" height="66" transform="translate(5240 -404.787)" fill="#fff"/>
    </clipPath>
  </defs>
  <g id="airtel_logo" transform="translate(-5823 811)">
    <rect id="Rectangle_58148" data-name="Rectangle 58148" width="140" height="120" transform="translate(5823 -811)" fill="none"/>
    <g id="Mask_Group_7932" data-name="Mask Group 7932" transform="translate(620 -379.213)" clip-path="url(#clip-path)">
      <g id="g20" transform="translate(5240.243 -405.006)">
        <g id="g4575" transform="translate(0)">
          <g id="g4557" transform="translate(16.273)">
            <path id="path4" d="M49.3-84.878a3.636,3.636,0,0,1-.662.082,22.079,22.079,0,0,0-5.1,1.279c-.1.045-.381.163-.635.263a24.5,24.5,0,0,0-2.684,1.288,1.7,1.7,0,0,1-.472.218c-.136.036-.245.1-.245.136s-.073.091-.154.127a2.394,2.394,0,0,0-.435.236,3.89,3.89,0,0,1-.481.272,2.628,2.628,0,0,0-.508.317,1.578,1.578,0,0,1-.354.227,32.449,32.449,0,0,0-3.954,2.866,16.759,16.759,0,0,0-1.913,2.04.9.9,0,0,1-.19.272,16.407,16.407,0,0,0-1.324,2.077c-.1.227-.3.626-.426.9a6.178,6.178,0,0,0-.58,3.047,3.253,3.253,0,0,0,1.079,2.5A4.166,4.166,0,0,0,33.295-65.5a7.164,7.164,0,0,0,2.539-.29c.3-.082.7-.181.889-.236a2.226,2.226,0,0,0,.5-.172c.209-.109,1.378-.635,1.433-.635A35.642,35.642,0,0,0,42.5-69.181c1.17-.78,2.194-1.46,2.285-1.505s.635-.381,1.224-.735,1.315-.762,1.614-.916.725-.381.952-.5.653-.308.952-.417.671-.272.816-.336.372-.163.5-.218a7.664,7.664,0,0,1,1.932-.345,3.2,3.2,0,0,1,3.473,2.195,4.539,4.539,0,0,1,.172,1.768,6.791,6.791,0,0,1-.472,2.9c-.073.172-.172.417-.227.544a20.833,20.833,0,0,1-2.457,4.063,34.989,34.989,0,0,1-4.643,4.806c-.5.417-1.052.871-1.224,1.016a15.524,15.524,0,0,1-1.315.961c-.2.127-.526.345-.725.49a24.287,24.287,0,0,1-2.9,1.542c-.245.109-.58.254-.744.326a1.373,1.373,0,0,1-.462.127,1.943,1.943,0,0,0-.462.1.867.867,0,0,1-1.188-.8c0-.744.354-1.215,2.584-3.428,2.412-2.394,2.675-2.748,2.675-3.654a2.2,2.2,0,0,0-1.442-2.077,2.261,2.261,0,0,0-1.36-.254,3.474,3.474,0,0,0-2.049.517c-.145.091-.372.209-.5.272a1.563,1.563,0,0,0-.272.163c-.027.027-.209.163-.408.317a12.122,12.122,0,0,0-1.8,1.85A12.627,12.627,0,0,0,35.87-58.49a9.256,9.256,0,0,0-.9,3.5,3.87,3.87,0,0,0,2.584,3.954,11.837,11.837,0,0,0,3.056.009,17.25,17.25,0,0,0,2.467-.762.378.378,0,0,1,.218-.082,27.792,27.792,0,0,0,3.854-1.968c.209-.136.444-.29.535-.345s.508-.308.952-.58.816-.526.843-.553a7.873,7.873,0,0,1,.68-.5l.907-.626c.154-.109.58-.435.952-.735a36.22,36.22,0,0,0,5.659-5.441c.2-.245.381-.472.408-.5.073-.054.689-.943,1.115-1.614a11.8,11.8,0,0,0,.644-1.106c.172-.326.408-.771.526-1s.372-.816.571-1.315.381-.988.417-1.088a20.872,20.872,0,0,0,.816-3.491,13.431,13.431,0,0,0-.326-4.761,7.785,7.785,0,0,0-.526-1.315,9.928,9.928,0,0,0-3.219-3.9,4.754,4.754,0,0,1-.508-.4,12.741,12.741,0,0,0-2.956-1.315,14.9,14.9,0,0,0-1.714-.381A19.55,19.55,0,0,0,49.3-84.878Z" transform="translate(-29.18 84.934)" fill="red"/>
          </g>
          <g id="g4554" transform="translate(0 42.86)">
            <g id="g4539" transform="translate(59.018 2.006)">
              <path id="path8" d="M84.528-30.653c-.027.018-.444.1-.943.181s-1.315.209-1.814.3l-.907.154v8.343c0,9.059-.018,8.678.517,9.812a3.3,3.3,0,0,0,.825,1.079c.961.88,1.859,1.152,3.772,1.161,1.632,0,1.569.063,1.533-1.442l-.027-1.088-.7-.063c-1.242-.109-1.841-.608-1.977-1.641-.036-.308-.063-4.19-.054-8.615C84.764-30.136,84.746-30.871,84.528-30.653Z" transform="translate(-80.865 30.684)" fill="red"/>
            </g>
            <g id="g4533" transform="translate(34.746 2.083)">
              <path id="path10" d="M54.342-30.456a11.822,11.822,0,0,0-2.766.526c-.063.073-.073,2.965-.045,8.5.045,7.726.063,8.424.209,8.8a3.919,3.919,0,0,0,.988,1.65c.952.952,2.167,1.342,4.162,1.342,1.106,0,1.26-.018,1.333-.163a8.814,8.814,0,0,0,.063-2.113c-.054-.227-.091-.236-.771-.29a1.879,1.879,0,0,1-1.723-.97l-.227-.408-.027-4.7a35.841,35.841,0,0,1,.082-4.833c.082-.1.39-.127,1.36-.127,1.5,0,1.369.145,1.333-1.587l-.027-1.179-1.27-.045a8.794,8.794,0,0,1-1.378-.118,7.1,7.1,0,0,1-.118-2.249v-2.167l-.2.009C55.2-30.573,54.768-30.519,54.342-30.456Z" transform="translate(-51.517 30.592)" fill="red"/>
            </g>
            <g id="g4527" transform="translate(0 6.283)">
              <path id="path12" d="M15.654-25.487a14.514,14.514,0,0,0-2.811.671,3.539,3.539,0,0,1-.408.145,7.5,7.5,0,0,0-1.723.861,2.964,2.964,0,0,0,.172.472,11.914,11.914,0,0,0,.871,1.786.824.824,0,0,0,.209-.082,9.816,9.816,0,0,1,1.469-.6c.272-.082.6-.19.725-.236a7.213,7.213,0,0,1,2.485-.172c1.233.2,1.687.771,1.759,2.231.036.807.036.825-.172.88a16.342,16.342,0,0,1-1.85.063,7.641,7.641,0,0,0-4.217.807,4.912,4.912,0,0,0-2.512,3.092,6.157,6.157,0,0,0,.054,2.9,5.716,5.716,0,0,0,5.459,4.053,10.045,10.045,0,0,0,6.611-1.9L22.365-11l.027-4.8c.027-5.559.018-5.749-.653-7.109a5.16,5.16,0,0,0-1.932-1.868c-.29-.136-.608-.272-.707-.317A9.2,9.2,0,0,0,15.654-25.487Zm2.675,8.742a17.37,17.37,0,0,1,.091,2.457c0,2.575.036,2.412-.635,2.766a3.062,3.062,0,0,1-1.415.172h-1.1l-.453-.308a2.708,2.708,0,0,1-.635-.589,3.373,3.373,0,0,1,.082-3.591,3.724,3.724,0,0,1,1.152-.816.416.416,0,0,0,.245-.082c.127-.136.544-.172,1.605-.154C18.03-16.882,18.266-16.854,18.329-16.746Z" transform="translate(-9.503 25.513)" fill="red"/>
            </g>
            <g id="g4530" transform="translate(23.698 6.354)">
              <path id="path14" d="M43.235-25.255a10.063,10.063,0,0,0-4.7,2.521l-.381.345V-9c0,.145.136.154,1.977.136L42.1-8.887l.027-6.321.018-6.311.345-.272a3.037,3.037,0,0,1,1.134-.608,6.2,6.2,0,0,1,2.34-.227,3.361,3.361,0,0,0,.762.027,2.009,2.009,0,0,0,.372-.689c.136-.363.354-.834.462-1.052.3-.571.272-.716-.127-.807-.19-.045-.535-.127-.78-.181A11.182,11.182,0,0,0,43.235-25.255Z" transform="translate(-38.157 25.427)" fill="red"/>
            </g>
            <g id="g4536" transform="translate(43.227 6.445)">
              <path id="path16" d="M67.043-25.218a1.931,1.931,0,0,0-.626.172.378.378,0,0,1-.218.082,3.1,3.1,0,0,0-.716.29,6.871,6.871,0,0,0-2.222,2.068,9.275,9.275,0,0,0-.934,1.95,3.431,3.431,0,0,1-.136.453c-.036.1-.145.49-.236.861a17.66,17.66,0,0,0-.009,5.033,9.06,9.06,0,0,0,.8,2.131.092.092,0,0,1,.082.1,6.731,6.731,0,0,0,1.841,2.331,6.52,6.52,0,0,0,1.65.852,10.952,10.952,0,0,0,2.548.435A11.4,11.4,0,0,0,73.246-9.5a3.061,3.061,0,0,1,.553-.272,2.854,2.854,0,0,0,.943-.58,7.9,7.9,0,0,0-1.07-2.185.86.86,0,0,0-.354.181.811.811,0,0,1-.354.181.666.666,0,0,0-.3.127,8.655,8.655,0,0,1-1.043.417,4.769,4.769,0,0,1-2.131.308c-1.124,0-1.315-.018-1.678-.19-1.27-.608-1.995-2.14-1.995-4.208a5.919,5.919,0,0,1,.027-.825c.009-.018,2.022-.045,4.462-.073l4.443-.045-.027-.907a12.833,12.833,0,0,0-.934-4.715c-.036-.054-.163-.281-.281-.508a4.776,4.776,0,0,0-2.748-2.213A9.071,9.071,0,0,0,67.043-25.218Zm1.95,2.884c.381.1,1.179.744,1.179.943a1.2,1.2,0,0,0,.136.354,3.878,3.878,0,0,1,.227,1.922c-.091.118-.444.136-2.276.136H66.091l-.054-.227a3.762,3.762,0,0,1,.562-2.185,2.3,2.3,0,0,1,1.279-.961,2.272,2.272,0,0,1,.635-.118C68.567-22.452,68.784-22.388,68.993-22.334Z" transform="translate(-61.771 25.317)" fill="red"/>
            </g>
            <g id="g4524" transform="translate(15.763 0)">
              <path id="path6" d="M30.059-32.95a2.53,2.53,0,0,0-1.2.97c-.29.444-.3.481-.3,1.406v.961l.345.472a2.259,2.259,0,0,0,1.279.961,2.53,2.53,0,0,0,2.312-.345,2.7,2.7,0,0,0,.716-3.355,2.1,2.1,0,0,0-.934-.943A2.957,2.957,0,0,0,30.059-32.95Z" transform="translate(-28.563 33.11)" fill="red"/>
              <path id="path18" d="M32.385-25.013a7.1,7.1,0,0,1-.907.172c-.345.045-.979.136-1.406.2a4.807,4.807,0,0,0-.843.163c-.082.073-.091,15.479-.018,15.615a11.408,11.408,0,0,0,1.9.082c1.85,0,1.859,0,1.9-.209.027-.109.036-3.772.027-8.134-.027-7.862-.027-7.935-.209-7.953A1.5,1.5,0,0,0,32.385-25.013Z" transform="translate(-28.667 31.721)" fill="red"/>
            </g>
          </g>
        </g>
      </g>
    </g>
  </g>
</svg>
