<svg xmlns="http://www.w3.org/2000/svg" xmlns:xlink="http://www.w3.org/1999/xlink" width="140" height="120" viewBox="0 0 140 120">
  <defs>
    <clipPath id="clip-path">
      <rect id="Rectangle_57961" data-name="Rectangle 57961" width="68" height="68" transform="translate(10660.911 575.817)" fill="#fff"/>
    </clipPath>
  </defs>
  <g id="bsnl_logo" transform="translate(-6143 951)">
    <rect id="Rectangle_58148" data-name="Rectangle 58148" width="140" height="120" transform="translate(6143 -951)" fill="none"/>
    <g id="Mask_Group_7859" data-name="Mask Group 7859" transform="translate(-4481.911 -1500.817)" clip-path="url(#clip-path)">
      <g id="Bharat_Sanchar_Nigam_Limited-Logo.wine" transform="translate(10663.84 575.972)">
        <path id="Path_78800" data-name="Path 78800" d="M53.919.489A4.769,4.769,0,0,1,57.643.314a2.55,2.55,0,0,1,.845,2.143A9.248,9.248,0,0,1,57.046,7.34,48.629,48.629,0,0,1,51.7,14.693c-2.728,3.266-5.462,6.529-8.3,9.7-.524.627-1.131,1.184-1.614,1.846.994,1.068,1.99,2.135,2.936,3.243q-4.975.024-9.95,0-.134-5.076-.159-10.15c1.4.958,2.5,2.322,3.91,3.241a81.036,81.036,0,0,0,6.326-5.254c1.917-1.768,3.85-3.527,5.613-5.452a37.148,37.148,0,0,0,5.162-6.417,5.2,5.2,0,0,0,.854-2.6,1.052,1.052,0,0,0-.988-1.072,10.538,10.538,0,0,0-3.5.642,28.968,28.968,0,0,0-5.912,2.813,3.966,3.966,0,0,1,.843-.754,31.877,31.877,0,0,1,7-3.993Z" transform="translate(-5.259 0)" fill="#0161b0"/>
        <path id="Path_78801" data-name="Path 78801" d="M25.846,5.072A15.982,15.982,0,0,1,38.269,3.866a16.2,16.2,0,0,1,9.323,7.623c.124.267.332.542.253.854-1.762,1.925-3.7,3.683-5.613,5.452a81.036,81.036,0,0,1-6.326,5.254c-1.412-.919-2.51-2.284-3.91-3.241q.021,5.073.159,10.15,4.975.028,9.95,0c-.945-1.108-1.942-2.176-2.936-3.243.483-.662,1.09-1.218,1.614-1.846,2.84-3.17,5.574-6.434,8.3-9.7a17,17,0,0,1,.139,7.32,16.1,16.1,0,0,1-6.717,10.034,15.923,15.923,0,0,1-9.606,2.75,16.514,16.514,0,0,1-8.375-2.642l-.049-.045a2.525,2.525,0,0,0-.222-.2,17.17,17.17,0,0,1-4.965-5.507A105.787,105.787,0,0,1,30,16.552,12.947,12.947,0,0,1,31.5,15.425c.236,0,.381.23.552.363.947.941,1.882,1.9,2.83,2.838.169-3.121.047-6.248.063-9.371l-.187-.236c-2.581-.081-5.171,0-7.754-.035a3.9,3.9,0,0,0-1.66.171c1.147,1,2.2,2.111,3.243,3.219Q23.3,17.9,18.412,23.79l-.23.065a2.92,2.92,0,0,1-.414-1.149,16.253,16.253,0,0,1,1.09-10.192,15.93,15.93,0,0,1,6.988-7.442Z" transform="translate(-2.644 -0.476)" fill="#bcbdc1"/>
        <path id="Path_78802" data-name="Path 78802" d="M24.291,10.2a3.9,3.9,0,0,1,1.66-.171c2.583.039,5.173-.047,7.754.035l.187.236c-.016,3.123.106,6.25-.063,9.371-.947-.941-1.882-1.9-2.83-2.838-.171-.132-.316-.359-.552-.363A12.948,12.948,0,0,0,28.957,17.6,105.786,105.786,0,0,0,18.243,27.927,30.705,30.705,0,0,0,13.5,34.557a2.727,2.727,0,0,0-.23,2.459,2.481,2.481,0,0,0,2.485.43,20.773,20.773,0,0,0,4.588-2.17,19.913,19.913,0,0,0,2.868-1.842,2.525,2.525,0,0,1,.222.2A19.306,19.306,0,0,0,21.054,35.3a30.593,30.593,0,0,1-6.063,3.545,4.174,4.174,0,0,1-3.2.212,2.47,2.47,0,0,1-1.265-2.066,7.708,7.708,0,0,1,1.171-4.107,47.463,47.463,0,0,1,5.16-7.428,1.157,1.157,0,0,0,.279-.554l.23-.065q4.877-5.883,10.17-11.417c-1.045-1.108-2.1-2.217-3.243-3.219Z" transform="translate(-1.596 -1.523)" fill="#db1920"/>
        <path id="Path_78803" data-name="Path 78803" d="M16,58.531a6.221,6.221,0,0,1,5.9-5.963,6.692,6.692,0,0,1,5.641,1.984,7.437,7.437,0,0,1,1.391,5.321c-1.347.037-2.7.047-4.042-.008a3.688,3.688,0,0,0-.937-3.39,2.182,2.182,0,0,0-3.535.774,1.974,1.974,0,0,0,.636,2.119c1.85,1.917,4.3,3.117,6.171,5.01A7.521,7.521,0,0,1,29.375,69.1a6.045,6.045,0,0,1-1.53,4.961,7.256,7.256,0,0,1-4.906,1.752,6.637,6.637,0,0,1-5.572-1.952A8.747,8.747,0,0,1,15.8,67.425c1.438.02,2.877,0,4.315.01a23.822,23.822,0,0,0,.206,3.119,2.377,2.377,0,0,0,2.791,1.984,2.6,2.6,0,0,0,1.952-2.791,3.056,3.056,0,0,0-1.017-1.978c-2.219-1.711-4.39-3.482-6.538-5.279A4.907,4.907,0,0,1,16,58.531Zm-16-5.4c2.75-.01,5.5,0,8.251,0a4.457,4.457,0,0,1,4.028,2.357,7.521,7.521,0,0,1,.432,4.079,4.422,4.422,0,0,1-2.424,3.749c1.593.143,2.351,1.805,2.61,3.188a10.184,10.184,0,0,1-.206,5.456,5.781,5.781,0,0,1-4.861,3.319c-2.61.02-5.222,0-7.831.01Q.009,64.2,0,53.128m4.335,3c-.008,1.962,0,3.926,0,5.888a4.457,4.457,0,0,0,2.479-.247,2.532,2.532,0,0,0,1.448-2.007,3.408,3.408,0,0,0-.707-2.978,3.678,3.678,0,0,0-3.219-.656m0,9.3c-.014,2.178,0,4.358-.006,6.536a4.032,4.032,0,0,0,3.306-.426A3.677,3.677,0,0,0,8.768,68.5a3.911,3.911,0,0,0-.9-2.65A3.41,3.41,0,0,0,5,65.009c-.257.063-.786-.035-.664.414ZM32.6,53.128c1.479-.008,2.958-.006,4.437,0q2.558,6.72,5.142,13.43a3.7,3.7,0,0,0,.544,1.178q.037-7.3,0-14.6c1.31-.024,2.618-.006,3.926-.01.01,7.385,0,14.77.006,22.155-1.522-.01-3.046.022-4.568-.014-1.76-4.781-3.512-9.567-5.309-14.334l-.057.636c.006,4.568,0,9.135,0,13.7-1.377.026-2.754.006-4.13.014q.006-11.078,0-22.153Zm17.722,0c1.483,0,2.966-.012,4.451.008-.016,6.232-.045,12.466.012,18.7,2.455-.022,4.912-.033,7.367,0-.02,1.147-.01,2.294-.01,3.443-3.936,0-7.874-.006-11.81.006-.014-7.387.008-14.774-.01-22.159Z" transform="translate(0 -7.984)" fill="#21201e"/>
      </g>
    </g>
  </g>
</svg>
