<svg xmlns="http://www.w3.org/2000/svg" width="140" height="120" viewBox="0 0 140 120">
  <g id="dtac_logo" transform="translate(-5823 671)">
    <rect id="Rectangle_58148" data-name="Rectangle 58148" width="140" height="120" transform="translate(5823 -671)" fill="none"/>
    <g id="Group_1460" data-name="Group 1460" transform="translate(5827.467 -643.552)">
      <path id="Path_80594" data-name="Path 80594" d="M31.624,21c.678.1.814-.033.9-.675A15.417,15.417,0,0,1,33.844,16a13.306,13.306,0,0,1,4.272-5.175,21.276,21.276,0,0,1,6.5-2.8,15.768,15.768,0,0,1,4.732-.314c2.851.257,4.429,1.072,5.221,2.125a2.3,2.3,0,0,1,.461,1.194,2.435,2.435,0,0,1-.958,1.881,14.156,14.156,0,0,1-4.42,2.182c-2.209.736-5.227,1.514-8.236,2.207a46.851,46.851,0,0,0-5.151,1.481c-1.991.676-2.654,2.563-1.347,3.267a24.342,24.342,0,0,1,3.871,2.571,34.091,34.091,0,0,1,5.165,5.063c1.873,2.293,4.937,6.667,6.04,10.914,1.221,4.662.458,9.083-2.175,10.318-2.581,1.212-6.021-.539-8.438-3.047-2.3-2.381-3.9-5.185-5.408-9.511a41.966,41.966,0,0,1-1.835-11.931c0-.939-.015-1.14.022-1.988.066-1.157-2.7-.865-4.04.028a34.327,34.327,0,0,0-6.225,6.063c-.612.718-1.442,1.78-2.321,2.891a21.763,21.763,0,0,1-3.607,3.822c-1.756,1.283-4.578,1.812-6.553.4a4.708,4.708,0,0,1-1.7-3.783,5.754,5.754,0,0,1,.776-2.973,14.474,14.474,0,0,1,3.479-3.847,30.711,30.711,0,0,1,7.5-4.285c4.36-1.759,9.054-2.312,12.164-1.752" transform="translate(0.824 2.898)" fill="#00aeef"/>
      <path id="Path_80595" data-name="Path 80595" d="M51.417,21.108V11.233c0-.213.628-.213.977-.213.38,0,.987,0,.987.213V38.218c0,.233-.611.233-.987.233-.352,0-.933,0-.933-.233V35.492a6.7,6.7,0,0,1-5.925,3.244c-4.135,0-6.959-2.4-6.959-7.105V25.265c0-4.7,2.824-7.111,6.873-7.111,3.087,0,5.091,1.423,5.963,2.954m0,10.856V25.141c0-3.277-2.436-5.244-5.639-5.244-3.061,0-5.206,1.5-5.206,5.687V31.3c0,4.113,2.3,5.61,5.559,5.61a5.157,5.157,0,0,0,5.283-4.954" transform="translate(24.641 5.495)" fill="#231f20"/>
      <path id="Path_80596" data-name="Path 80596" d="M54.991,36.951c-2.741,0-3.765-1.605-3.765-3.75V19.391H48.458c-.242,0-.242-.431-.242-.794s0-.838.242-.838h2.769V12.986c0-.221.616-.221.987-.221s.987,0,.987.221V17.76h4.285c.242,0,.242.395.242.838s0,.794-.242.794H53.2V33.125c0,1.526.651,2.107,2.254,2.107h2c.269,0,.329.077.329.813,0,.79-.06.9-.329.9H54.991" transform="translate(32.076 6.841)" fill="#231f20"/>
      <path id="Path_80597" data-name="Path 80597" d="M68.028,35.339c-.377,0-.968,0-.968-.224V32.969a9.57,9.57,0,0,1-6.284,2.661c-3.86,0-6.241-2.224-6.241-5.864v-.948c0-4.516,3.933-6.448,12.5-5.276V21.934c0-3.611-1.382-5.062-4.769-5.062a12.228,12.228,0,0,0-5.356,1.194c-.436.257-1.118-1.557-.641-1.783a15.511,15.511,0,0,1,6.079-1.236c4.624,0,6.653,2.438,6.653,6.741V35.112c0,.224-.622.224-.975.224M67.042,25.1c-7.443-1.055-10.526.328-10.526,3.758v.908c0,2.762,2.076,4.086,4.551,4.086a8.54,8.54,0,0,0,5.975-2.707Z" transform="translate(36.953 8.602)" fill="#231f20"/>
      <path id="Path_80598" data-name="Path 80598" d="M64.653,28.525V22.158c0-4.6,2.783-7.111,7.3-7.111a9.682,9.682,0,0,1,6.031,2.046c.475.364-.473,1.849-.831,1.557a9.033,9.033,0,0,0-5.06-1.857c-3.5,0-5.456,1.857-5.456,5.687V28.2c0,3.785,1.953,5.674,5.456,5.674a8.374,8.374,0,0,0,5.2-1.885c.366-.289,1.233,1.094.917,1.379a9.7,9.7,0,0,1-6.256,2.265c-4.519,0-7.3-2.549-7.3-7.105" transform="translate(44.758 8.602)" fill="#231f20"/>
    </g>
  </g>
</svg>
