<svg xmlns="http://www.w3.org/2000/svg" width="140" height="120" viewBox="0 0 140 120">
  <g id="grameen_logo" transform="translate(-5983 671)">
    <rect id="Rectangle_58148" data-name="Rectangle 58148" width="140" height="120" transform="translate(5983 -671)" fill="none"/>
    <path id="Path_80612" data-name="Path 80612" d="M40.513,25.964c.93.143,1.117-.046,1.24-.926a21.148,21.148,0,0,1,1.805-5.933,18.251,18.251,0,0,1,5.86-7.1,29.185,29.185,0,0,1,8.914-3.844,21.63,21.63,0,0,1,6.49-.431c3.911.352,6.075,1.47,7.162,2.915a3.158,3.158,0,0,1,.632,1.638,3.34,3.34,0,0,1-1.314,2.58,19.419,19.419,0,0,1-6.063,2.993c-3.03,1.01-7.17,2.077-11.3,3.028a64.264,64.264,0,0,0-7.065,2.032c-2.731.927-3.64,3.516-1.847,4.481a33.39,33.39,0,0,1,5.31,3.527,46.762,46.762,0,0,1,7.085,6.945c2.57,3.145,6.772,9.145,8.285,14.971,1.675,6.394.628,12.459-2.984,14.153-3.54,1.662-8.259-.739-11.575-4.179C48,59.548,45.8,55.7,43.731,49.767A57.566,57.566,0,0,1,41.214,33.4c0-1.288-.021-1.564.031-2.727.09-1.587-3.7-1.187-5.541.038-3.306,2.2-6.609,6.052-8.539,8.317-.84.985-1.978,2.442-3.184,3.966a29.853,29.853,0,0,1-4.948,5.243c-2.409,1.76-6.28,2.486-8.989.549A6.459,6.459,0,0,1,7.71,43.6,7.893,7.893,0,0,1,8.775,39.52a19.854,19.854,0,0,1,4.773-5.276,42.126,42.126,0,0,1,10.283-5.878c5.981-2.412,12.419-3.171,16.686-2.4" transform="translate(6013.291 -648.654)" fill="#00aeef"/>
  </g>
</svg>
