<svg xmlns="http://www.w3.org/2000/svg" xmlns:xlink="http://www.w3.org/1999/xlink" width="140" height="120" viewBox="0 0 140 120">
  <defs>
    <clipPath id="clip-path">
      <rect id="Rectangle_57961" data-name="Rectangle 57961" width="74" height="74" transform="translate(10461 476.343)" fill="#fff"/>
    </clipPath>
  </defs>
  <g id="im3_logo" transform="translate(-5823 951)">
    <rect id="Rectangle_58148" data-name="Rectangle 58148" width="140" height="120" transform="translate(5823 -951)" fill="none"/>
    <g id="Mask_Group_7852" data-name="Mask Group 7852" transform="translate(-4605 -1404.343)" clip-path="url(#clip-path)">
      <g id="im3-ooredoo-seeklogo.com" transform="translate(10461 485.683)">
        <path id="Path_78251" data-name="Path 78251" d="M74.338,30.245A11.122,11.122,0,0,0,72.8,24.6a11.131,11.131,0,0,0,1.54-5.648A10.983,10.983,0,0,0,63.429,7.916L52.19,7.924A2.606,2.606,0,0,0,49.5,10.6V13.58A13.839,13.839,0,0,0,38.538,7.87a14.319,14.319,0,0,0-8.111,2.51,14.314,14.314,0,0,0-8.11-2.51,13.867,13.867,0,0,0-11.274,6.148l0-.721v0l-.01-.28a5.488,5.488,0,0,0-1.6-3.609,5.516,5.516,0,1,0-7.822.009,5.484,5.484,0,0,0-1.6,3.754l0,17.257H0V48.152a6.838,6.838,0,0,0,6.831,6.83H67.507a6.839,6.839,0,0,0,6.831-6.83V30.245Z" fill="#fff"/>
        <path id="Path_78252" data-name="Path 78252" d="M2.9,5.724A2.826,2.826,0,1,1,5.725,8.548,2.826,2.826,0,0,1,2.9,5.724" transform="translate(-0.205 -0.205)" fill="#eb2227"/>
        <path id="Path_78253" data-name="Path 78253" d="M2.9,5.721A2.827,2.827,0,1,1,5.723,8.549,2.824,2.824,0,0,1,2.9,5.721" transform="translate(-0.205 -0.205)" fill="#ed1c24"/>
        <path id="Path_78254" data-name="Path 78254" d="M5.729,11.4a2.88,2.88,0,0,0-2.835,2.735V39.4h5.67V14.05A2.849,2.849,0,0,0,5.729,11.4m33.014-.042a11.511,11.511,0,0,0-7.051,2.378l-1.059.824-1.059-.824a11.523,11.523,0,0,0-7.052-2.378A11.063,11.063,0,0,0,11.639,22.036V39.4H17.3V22.107a5.088,5.088,0,0,1,5.222-5.059,5.205,5.205,0,0,1,5.33,5.059V36.476A2.617,2.617,0,0,0,30.6,39.157a2.768,2.768,0,0,0,2.75-2.681V22.1a5.308,5.308,0,0,1,10.6,0V39.4h5.669V22.036A11.063,11.063,0,0,0,38.743,11.358M63.494,28.064a2.939,2.939,0,0,1,0,5.877H52.355v5.452l11.266,0a8.3,8.3,0,0,0,8.2-8.349A8.491,8.491,0,0,0,70.2,26.062l-.485-.662.483-.659a8.5,8.5,0,0,0,1.628-4.988A8.3,8.3,0,0,0,63.6,11.4l-11.248.011v5.408H63.49a2.937,2.937,0,0,1,0,5.874l-6.006,0h-.036a2.685,2.685,0,1,0,0,5.369h6.046Z" transform="translate(-0.205 -0.804)" fill="#231f20"/>
        <path id="Path_78255" data-name="Path 78255" d="M69.163,45.42a5.411,5.411,0,0,0-5.114,0,5.453,5.453,0,0,0-2.319,2.41,5.43,5.43,0,0,0-2.317-2.41,5.407,5.407,0,0,0-5.112,0,5.464,5.464,0,0,0-2.326,2.427,5.467,5.467,0,0,0-2.325-2.427,5.415,5.415,0,0,0-5.116,0,5.481,5.481,0,0,0-2.309,2.393,5.418,5.418,0,0,0-9.738.018,5.444,5.444,0,0,0-2.316-2.41,5.411,5.411,0,0,0-5.114,0,5.467,5.467,0,0,0-2.32,2.41,5.416,5.416,0,0,0-9.745,0,5.415,5.415,0,1,0,0,4.724,5.415,5.415,0,0,0,9.745,0,5.418,5.418,0,0,0,9.749,0,5.415,5.415,0,0,0,9.738.016,5.419,5.419,0,0,0,9.75-.031,5.416,5.416,0,0,0,9.754.015,5.416,5.416,0,1,0,7.433-7.135" transform="translate(-0.191 -3.169)" fill="#ed1c24"/>
        <path id="Path_78256" data-name="Path 78256" d="M10.256,48.257a2.743,2.743,0,0,0-.87-.592,2.749,2.749,0,0,0-3.03.592,2.98,2.98,0,0,0-.588.876,2.811,2.811,0,0,0,0,2.158,2.866,2.866,0,0,0,.588.872,2.792,2.792,0,0,0,.872.588,2.795,2.795,0,0,0,2.158,0,2.887,2.887,0,0,0,.87-.588,2.77,2.77,0,0,0,.586-.872,2.762,2.762,0,0,0,0-2.158,2.876,2.876,0,0,0-.586-.876M9.828,50.85a1.6,1.6,0,0,1-.354.527,1.7,1.7,0,0,1-.525.361,1.6,1.6,0,0,1-.642.131,1.582,1.582,0,0,1-.642-.131,1.664,1.664,0,0,1-.525-.361,1.622,1.622,0,0,1-.357-.527,1.522,1.522,0,0,1-.133-.643,1.573,1.573,0,0,1,.133-.648,1.709,1.709,0,0,1,.357-.524,1.625,1.625,0,0,1,1.809-.358,1.639,1.639,0,0,1,.525.358,1.676,1.676,0,0,1,.354.524,1.611,1.611,0,0,1,0,1.29M20,48.257a2.706,2.706,0,0,0-.87-.592,2.753,2.753,0,0,0-2.156,0,2.741,2.741,0,0,0-.876.592,2.969,2.969,0,0,0-.586.876,2.762,2.762,0,0,0,0,2.158,2.854,2.854,0,0,0,.586.872,2.886,2.886,0,0,0,.876.588,2.789,2.789,0,0,0,2.156,0,2.845,2.845,0,0,0,.87-.588,2.8,2.8,0,0,0,.586-.872,2.751,2.751,0,0,0,0-2.158A2.911,2.911,0,0,0,20,48.257m-.426,2.594a1.633,1.633,0,0,1-.356.527,1.679,1.679,0,0,1-.526.361,1.582,1.582,0,0,1-.64.131,1.616,1.616,0,0,1-.646-.131,1.758,1.758,0,0,1-.524-.361,1.652,1.652,0,0,1-.356-.527,1.606,1.606,0,0,1-.132-.643,1.664,1.664,0,0,1,.132-.648,1.745,1.745,0,0,1,.356-.524,1.666,1.666,0,0,1,.524-.358,1.6,1.6,0,0,1,.646-.133,1.565,1.565,0,0,1,.64.133,1.623,1.623,0,0,1,.526.358,1.718,1.718,0,0,1,.356.524,1.649,1.649,0,0,1,0,1.29m39.415-2.594a2.752,2.752,0,0,0-3.029-.592,2.786,2.786,0,0,0-.873.592,2.971,2.971,0,0,0-.585.876,2.737,2.737,0,0,0,0,2.158,2.856,2.856,0,0,0,.585.872,2.911,2.911,0,0,0,.873.588,2.8,2.8,0,0,0,2.159,0,2.756,2.756,0,0,0,1.457-1.46,2.8,2.8,0,0,0,0-2.158,2.894,2.894,0,0,0-.588-.876m-.427,2.594a1.614,1.614,0,0,1-.353.527,1.736,1.736,0,0,1-.525.361,1.646,1.646,0,0,1-1.288,0,1.777,1.777,0,0,1-.525-.361,1.642,1.642,0,0,1-.353-.527,1.573,1.573,0,0,1-.136-.643,1.627,1.627,0,0,1,.136-.648,1.733,1.733,0,0,1,.353-.524,1.683,1.683,0,0,1,.525-.358,1.622,1.622,0,0,1,1.288,0,1.675,1.675,0,0,1,.525.358,1.694,1.694,0,0,1,.353.524,1.639,1.639,0,0,1,0,1.29m10.176-2.594a2.734,2.734,0,0,0-1.947-.811,2.729,2.729,0,0,0-1.953.811,2.872,2.872,0,0,0-.586.876,2.761,2.761,0,0,0,0,2.158,2.765,2.765,0,0,0,.586.872,2.856,2.856,0,0,0,.869.588,2.8,2.8,0,0,0,2.161,0,2.816,2.816,0,0,0,.87-.588,2.883,2.883,0,0,0,.589-.872,2.786,2.786,0,0,0,0-2.158,3,3,0,0,0-.589-.876m-.429,2.594a1.6,1.6,0,0,1-.353.527,1.738,1.738,0,0,1-.527.361,1.571,1.571,0,0,1-.638.131,1.6,1.6,0,0,1-.646-.131,1.711,1.711,0,0,1-.885-.887,1.642,1.642,0,0,1-.13-.643,1.7,1.7,0,0,1,.13-.648,1.831,1.831,0,0,1,.357-.524,1.653,1.653,0,0,1,.527-.358,1.585,1.585,0,0,1,.646-.133,1.554,1.554,0,0,1,.638.133,1.671,1.671,0,0,1,.88.882,1.6,1.6,0,0,1,0,1.29M28.977,49.018a1.7,1.7,0,0,1,.354.525,1.432,1.432,0,0,1,.107.354h1.113a2.784,2.784,0,0,0-.2-.792,2.839,2.839,0,0,0-.588-.87,2.794,2.794,0,0,0-.871-.586,2.693,2.693,0,0,0-1.081-.22,2.76,2.76,0,0,0-1.078.212,2.724,2.724,0,0,0-1.466,1.453,2.833,2.833,0,0,0-.212,1.092V52.8h1.1V50.109h.006a1.653,1.653,0,0,1,.128-.567,1.679,1.679,0,0,1,.357-.525,1.721,1.721,0,0,1,.523-.355,1.623,1.623,0,0,1,1.288,0,1.754,1.754,0,0,1,.525.355m11.126.171a2.969,2.969,0,0,0-.553-.9,2.6,2.6,0,0,0-.861-.621,2.826,2.826,0,0,0-2.225-.016A2.757,2.757,0,0,0,35,49.109a2.781,2.781,0,0,0,0,2.156,2.788,2.788,0,0,0,.588.876,2.848,2.848,0,0,0,.872.586,2.707,2.707,0,0,0,1.082.217,3.285,3.285,0,0,0,.845-.115,2.662,2.662,0,0,0,.786-.37,2.608,2.608,0,0,0,.645-.658,3.3,3.3,0,0,0,.441-.923H39.051a1.577,1.577,0,0,1-.56.694,1.739,1.739,0,0,1-1.574.15,1.645,1.645,0,0,1-.88-.834,1.455,1.455,0,0,1-.149-.616l0-.052H40.31a3.256,3.256,0,0,0-.208-1.032m-4.019.089.05-.075a1.6,1.6,0,0,1,1.421-.691,1.517,1.517,0,0,1,1.4.691l.044.075Zm13.971.886V45.545a5.662,5.662,0,0,0-1.1-.494v3.031l-.085-.075a1.828,1.828,0,0,0-.31-.228,2.818,2.818,0,0,0-.389-.184,2.692,2.692,0,0,0-.433-.134,1.892,1.892,0,0,0-.443-.05,2.689,2.689,0,0,0-1.079.219,2.736,2.736,0,0,0-1.459,1.459,2.8,2.8,0,0,0,0,2.158,2.762,2.762,0,0,0,1.459,1.461,2.742,2.742,0,0,0,1.079.215,2.769,2.769,0,0,0,1.956-.794,2.679,2.679,0,0,0,.59-.874,2.781,2.781,0,0,0,.213-1.092m-1.1,0a1.6,1.6,0,0,1-.135.646,1.737,1.737,0,0,1-.352.527,1.807,1.807,0,0,1-.531.357,1.607,1.607,0,0,1-.643.132,1.586,1.586,0,0,1-.639-.132,1.71,1.71,0,0,1-.527-.357,1.675,1.675,0,0,1-.357-.527,1.594,1.594,0,0,1,0-1.282A1.644,1.644,0,0,1,46.128,49a1.65,1.65,0,0,1,1.809-.355,1.753,1.753,0,0,1,.531.355,1.7,1.7,0,0,1,.352.528,1.593,1.593,0,0,1,.135.636" transform="translate(-0.393 -3.188)" fill="#fff"/>
      </g>
    </g>
  </g>
</svg>
