<svg xmlns="http://www.w3.org/2000/svg" xmlns:xlink="http://www.w3.org/1999/xlink" width="140" height="120" viewBox="0 0 140 120">
  <defs>
    <clipPath id="clip-path">
      <rect id="Rectangle_58149" data-name="Rectangle 58149" width="68" height="68" transform="translate(5791 -479.304)" fill="#fff"/>
    </clipPath>
  </defs>
  <g id="ooredoo_logo" transform="translate(-6143 671)">
    <rect id="Rectangle_58148" data-name="Rectangle 58148" width="140" height="120" transform="translate(6143 -671)" fill="none"/>
    <g id="Mask_Group_7935" data-name="Mask Group 7935" transform="translate(388 -165.696)" clip-path="url(#clip-path)">
      <g id="surface1" transform="translate(5791 -479.038)">
        <path id="Path_80613" data-name="Path 80613" d="M58.4,17.154a12.179,12.179,0,0,1,3.7.578v6.728l-.182-.167a4.122,4.122,0,0,0-.695-.5,6.025,6.025,0,0,0-.873-.418,6.627,6.627,0,0,0-.962-.29,4.364,4.364,0,0,0-.986-.113,6.01,6.01,0,0,0-2.4.482,6.112,6.112,0,0,0-3.257,3.24,6.154,6.154,0,0,0,0,4.792A6.093,6.093,0,0,0,56,34.726a5.978,5.978,0,0,0,2.4.483,6.148,6.148,0,0,0,4.36-1.765,5.834,5.834,0,0,0,1.31-1.935,6.1,6.1,0,0,0,.476-2.417V18.831A12.086,12.086,0,1,1,58.4,17.154" transform="translate(-2.839 4.488)" fill="#e32328"/>
        <path id="Path_80614" data-name="Path 80614" d="M59.272,29.975a3.791,3.791,0,0,1-1.174.786,3.607,3.607,0,0,1-2.869,0,3.814,3.814,0,0,1-1.174-.786,3.751,3.751,0,0,1-.792-1.17,3.557,3.557,0,0,1,0-2.856,3.749,3.749,0,0,1,.792-1.167,3.87,3.87,0,0,1,1.174-.788,3.634,3.634,0,0,1,2.869,0,3.847,3.847,0,0,1,1.174.788,3.753,3.753,0,0,1,.791,1.167,3.6,3.6,0,0,1,0,2.856,3.733,3.733,0,0,1-.791,1.17" transform="translate(-1.101 6.2)" fill="#e32328"/>
        <path id="Path_80615" data-name="Path 80615" d="M60.871,28.972a3.483,3.483,0,0,1-.3,1.425,3.673,3.673,0,0,1-.791,1.166,3.752,3.752,0,0,1-1.174.79,3.62,3.62,0,0,1-2.87,0,3.786,3.786,0,0,1-1.174-.79,3.688,3.688,0,0,1-.791-1.166,3.567,3.567,0,0,1,0-2.856,3.758,3.758,0,0,1,.791-1.167,3.882,3.882,0,0,1,1.174-.788,3.636,3.636,0,0,1,2.87,0,3.813,3.813,0,0,1,1.174.788,3.753,3.753,0,0,1,.791,1.167,3.5,3.5,0,0,1,.3,1.431m2.449,0V18.711a12.138,12.138,0,0,0-2.449-1.1v6.731l-.182-.168a4.016,4.016,0,0,0-.695-.5,6.509,6.509,0,0,0-.869-.419,6.824,6.824,0,0,0-.965-.29,4.419,4.419,0,0,0-.986-.113,6.011,6.011,0,0,0-2.4.483,6.1,6.1,0,0,0-3.257,3.24,6.154,6.154,0,0,0,0,4.792,6.1,6.1,0,0,0,3.257,3.24,5.978,5.978,0,0,0,2.4.483,6.157,6.157,0,0,0,4.36-1.764,5.852,5.852,0,0,0,1.31-1.937,6.03,6.03,0,0,0,.477-2.416" transform="translate(-1.608 4.607)" fill="#fff"/>
        <path id="Path_80616" data-name="Path 80616" d="M41.168,0A12.025,12.025,0,1,0,53.25,12.025,12.054,12.054,0,0,0,41.168,0" transform="translate(-7.348 -0.001)" fill="#e32328"/>
        <path id="Path_80617" data-name="Path 80617" d="M43.336,12.235a3.692,3.692,0,0,1-.791,1.168,3.81,3.81,0,0,1-1.174.793,3.6,3.6,0,0,1-2.867,0,3.734,3.734,0,0,1-1.966-1.961,3.622,3.622,0,0,1,0-2.866A3.723,3.723,0,0,1,38.5,7.407a3.635,3.635,0,0,1,2.867,0,3.791,3.791,0,0,1,1.174.792,3.711,3.711,0,0,1,.791,1.17,3.6,3.6,0,0,1,0,2.866m.955-5.764a6.188,6.188,0,0,0-1.944-1.318,6.253,6.253,0,0,0-4.814,0,6.123,6.123,0,0,0-1.944,1.318A6.247,6.247,0,0,0,34.275,8.42a6.156,6.156,0,0,0,0,4.788,6.147,6.147,0,0,0,1.314,1.937,6.231,6.231,0,0,0,1.944,1.3,6.231,6.231,0,0,0,4.814,0,6.332,6.332,0,0,0,1.944-1.3A6.248,6.248,0,0,0,45.6,13.208a6.156,6.156,0,0,0,0-4.788,6.35,6.35,0,0,0-1.309-1.949" transform="translate(-6.118 1.221)" fill="#fff"/>
        <path id="Path_80618" data-name="Path 80618" d="M58.4,0A12.025,12.025,0,1,0,70.479,12.025,12.052,12.052,0,0,0,58.4,0" transform="translate(-2.839 -0.001)" fill="#e32328"/>
        <path id="Path_80619" data-name="Path 80619" d="M60.571,12.235A3.731,3.731,0,0,1,58.607,14.2a3.607,3.607,0,0,1-2.869,0,3.8,3.8,0,0,1-1.174-.793,3.743,3.743,0,0,1-.792-1.168,3.59,3.59,0,0,1,0-2.866,3.729,3.729,0,0,1,.792-1.17,3.776,3.776,0,0,1,1.174-.792,3.639,3.639,0,0,1,2.869,0A3.809,3.809,0,0,1,59.78,8.2a3.859,3.859,0,0,1,.791,1.17,3.6,3.6,0,0,1,0,2.866m.951-5.764a6.1,6.1,0,0,0-1.944-1.318,6.244,6.244,0,0,0-4.81,0,6.209,6.209,0,0,0-1.949,1.318A6.314,6.314,0,0,0,51.51,8.42a6.145,6.145,0,0,0,0,4.788,6.212,6.212,0,0,0,1.308,1.937,6.32,6.32,0,0,0,1.949,1.3,6.221,6.221,0,0,0,4.81,0,6.1,6.1,0,0,0,3.257-3.241,6.156,6.156,0,0,0,0-4.788,6.343,6.343,0,0,0-1.313-1.949" transform="translate(-1.608 1.221)" fill="#fff"/>
        <path id="Path_80620" data-name="Path 80620" d="M23.937,34.31A12.025,12.025,0,1,0,36.014,46.333,12.053,12.053,0,0,0,23.937,34.31" transform="translate(-11.857 8.976)" fill="#e32328"/>
        <path id="Path_80621" data-name="Path 80621" d="M26.106,46.546a3.75,3.75,0,0,1-1.969,1.962,3.626,3.626,0,0,1-2.868,0,3.889,3.889,0,0,1-1.174-.792,3.939,3.939,0,0,1-.792-1.17,3.622,3.622,0,0,1,0-2.866,3.948,3.948,0,0,1,.792-1.172,3.8,3.8,0,0,1,1.174-.79,3.637,3.637,0,0,1,2.868,0,3.862,3.862,0,0,1,1.174.793,3.814,3.814,0,0,1,.8,1.172,3.635,3.635,0,0,1,0,2.866m.95-5.765a6.171,6.171,0,0,0-1.943-1.315,6.145,6.145,0,0,0-6.759,1.315,6.3,6.3,0,0,0-1.308,1.948,5.918,5.918,0,0,0-.49,2.395,6.017,6.017,0,0,0,.485,2.395A6.147,6.147,0,0,0,20.3,50.76a6.233,6.233,0,0,0,4.815,0,6.181,6.181,0,0,0,1.943-1.306,6.255,6.255,0,0,0,1.314-1.937,6.158,6.158,0,0,0,0-4.789,6.467,6.467,0,0,0-1.314-1.948" transform="translate(-10.627 10.198)" fill="#fff"/>
        <path id="Path_80622" data-name="Path 80622" d="M41.168,34.31A12.025,12.025,0,1,0,53.25,46.333,12.055,12.055,0,0,0,41.168,34.31" transform="translate(-7.348 8.976)" fill="#e32328"/>
        <path id="Path_80623" data-name="Path 80623" d="M43.336,46.546a3.722,3.722,0,0,1-.791,1.17,3.824,3.824,0,0,1-1.174.792,3.624,3.624,0,0,1-2.867,0,3.894,3.894,0,0,1-1.174-.792,3.939,3.939,0,0,1-.792-1.17,3.622,3.622,0,0,1,0-2.866,3.948,3.948,0,0,1,.792-1.172,3.8,3.8,0,0,1,1.174-.79,3.528,3.528,0,0,1,1.433-.3,3.587,3.587,0,0,1,1.434.293,3.878,3.878,0,0,1,1.174.793,3.752,3.752,0,0,1,.791,1.172,3.6,3.6,0,0,1,0,2.866m.951-5.765a6.091,6.091,0,0,0-4.35-1.8,6.109,6.109,0,0,0-4.348,1.8,6.3,6.3,0,0,0-1.314,1.948,6.158,6.158,0,0,0,0,4.789,6.147,6.147,0,0,0,3.258,3.242,6.231,6.231,0,0,0,4.814,0A6.117,6.117,0,0,0,45.6,47.518a6.158,6.158,0,0,0,0-4.789,6.312,6.312,0,0,0-1.313-1.948" transform="translate(-6.118 10.198)" fill="#fff"/>
        <path id="Path_80624" data-name="Path 80624" d="M58.4,34.31A12.025,12.025,0,1,0,70.479,46.333,12.053,12.053,0,0,0,58.4,34.31" transform="translate(-2.839 8.976)" fill="#e32328"/>
        <path id="Path_80625" data-name="Path 80625" d="M23.937,0A12.025,12.025,0,1,0,36.014,12.024,12.051,12.051,0,0,0,23.937,0" transform="translate(-11.857 -0.001)" fill="#e32328"/>
        <path id="Path_80626" data-name="Path 80626" d="M23.933,17.156A12.024,12.024,0,1,0,36.014,29.18,12.051,12.051,0,0,0,23.933,17.156" transform="translate(-11.857 4.488)" fill="#e32328"/>
        <path id="Path_80627" data-name="Path 80627" d="M25.326,25.322a3.839,3.839,0,0,1,.793,1.166,3.6,3.6,0,0,1,.234.788h2.481a5.953,5.953,0,0,0-.451-1.755,6.143,6.143,0,0,0-3.258-3.24,6.032,6.032,0,0,0-2.41-.486,6.145,6.145,0,0,0-2.4.473,6.256,6.256,0,0,0-1.956,1.3A5.98,5.98,0,0,0,17.046,25.5a6.1,6.1,0,0,0-.474,2.417v5.811h2.451v-5.98h.008a3.538,3.538,0,0,1,.287-1.26,3.815,3.815,0,0,1,.8-1.166,3.755,3.755,0,0,1,1.168-.791,3.67,3.67,0,0,1,2.873,0,3.836,3.836,0,0,1,1.171.791" transform="translate(-10.623 5.702)" fill="#fff"/>
        <path id="Path_80628" data-name="Path 80628" d="M41.168,17.156A12.024,12.024,0,1,0,53.25,29.18,12.054,12.054,0,0,0,41.168,17.156" transform="translate(-7.348 4.488)" fill="#e32328"/>
        <path id="Path_80629" data-name="Path 80629" d="M36.677,25.9l.1-.164a3.569,3.569,0,0,1,3.169-1.538h.007a3.4,3.4,0,0,1,3.129,1.54l.1.162Zm8.96-.195a6.427,6.427,0,0,0-1.231-2,5.951,5.951,0,0,0-1.92-1.383,6.118,6.118,0,0,0-2.555-.516,6.028,6.028,0,0,0-2.408.483,6.3,6.3,0,0,0-1.948,1.3,6.118,6.118,0,0,0-1.309,1.934,6.2,6.2,0,0,0,0,4.794,6.143,6.143,0,0,0,1.309,1.935,6.28,6.28,0,0,0,1.948,1.3,6,6,0,0,0,2.408.486,7.161,7.161,0,0,0,1.892-.26A5.655,5.655,0,0,0,45.015,31.5a7.4,7.4,0,0,0,.978-2.051h-2.7A3.477,3.477,0,0,1,42.042,31a3.808,3.808,0,0,1-4.669-.41,3.829,3.829,0,0,1-.809-1.109,3.353,3.353,0,0,1-.33-1.37l0-.112H46.1a7.024,7.024,0,0,0-.46-2.291" transform="translate(-6.12 5.703)" fill="#fff"/>
      </g>
    </g>
  </g>
</svg>
