<svg xmlns="http://www.w3.org/2000/svg" xmlns:xlink="http://www.w3.org/1999/xlink" width="140" height="120" viewBox="0 0 140 120">
  <defs>
    <clipPath id="clip-path">
      <rect id="Rectangle_57961" data-name="Rectangle 57961" width="68" height="68" transform="translate(10861 575.901)" fill="#fff"/>
    </clipPath>
  </defs>
  <g id="orange_logo" transform="translate(-5983 951)">
    <rect id="Rectangle_58148" data-name="Rectangle 58148" width="140" height="120" transform="translate(5983 -951)" fill="none"/>
    <g id="Mask_Group_7861" data-name="Mask Group 7861" transform="translate(-4842 -1500.901)" clip-path="url(#clip-path)">
      <g id="Orange_S.A.-Logo.wine" transform="translate(10861.09 576)">
        <path id="Path_78807" data-name="Path 78807" d="M0,0H67.643q0,33.911,0,67.821-33.821,0-67.642,0V0M58.567,49.056q0,.216,0,.433c.323,0,.648,0,.971,0,0,.9,0,1.8,0,2.7.177,0,.353,0,.53,0q0-1.35,0-2.7h.973c0-.144,0-.287,0-.431-.825,0-1.65,0-2.475,0m3.092,0q0,1.565,0,3.131h.528c0-.855-.006-1.71.005-2.565.354.847.674,1.709,1.012,2.562h.342c.341-.857.665-1.721,1.015-2.574.006.858,0,1.716,0,2.575.175,0,.351,0,.527,0,.006-1.044,0-2.087,0-3.13-.268,0-.536,0-.8,0-.3.784-.6,1.566-.9,2.348-.3-.784-.614-1.565-.918-2.349h-.809M8.029,52.394A4.45,4.45,0,0,0,4.6,54.129a5.3,5.3,0,0,0-.938,3.184,5.547,5.547,0,0,0,.754,3.041A4.133,4.133,0,0,0,6.376,62a5.341,5.341,0,0,0,3.071.253A4.3,4.3,0,0,0,11.9,60.808a4.8,4.8,0,0,0,1.009-2.353,6.9,6.9,0,0,0-.188-2.976,4.281,4.281,0,0,0-1.6-2.259,4.906,4.906,0,0,0-3.095-.827m9.01,1.336q0-.548,0-1.1c-.788,0-1.576,0-2.364,0q.006,4.728,0,9.457c.844,0,1.689,0,2.534,0,0-2.092-.005-4.186,0-6.278a1.3,1.3,0,0,1,.667-.676,4.89,4.89,0,0,1,2.079-.34q0-1.173,0-2.345a3.535,3.535,0,0,0-2.922,1.274m6.2-1.018A4.185,4.185,0,0,0,21.1,54.287c.559.328,1.124.646,1.687.965a2.842,2.842,0,0,1,1.958-1.068,1.864,1.864,0,0,1,1.6.427c.278.319.2.765.207,1.153a13.711,13.711,0,0,0-3.794.876A3.742,3.742,0,0,0,21.013,58a2.978,2.978,0,0,0-.244,2.435,2.447,2.447,0,0,0,1.316,1.5,3.974,3.974,0,0,0,2.305.194,5.6,5.6,0,0,0,2.142-.851l.216.819h2.218c-.027-2.186-.01-4.374-.013-6.56a2.691,2.691,0,0,0-.482-1.845,3.392,3.392,0,0,0-2.234-1.168,6.733,6.733,0,0,0-3,.19m12.339-.2a6.39,6.39,0,0,0-2.384,1.2c-.073-.37-.156-.739-.222-1.109q-1.036.141-2.072.287,0,4.6,0,9.189h2.477V55.306A4.053,4.053,0,0,1,35.4,54.278a1.3,1.3,0,0,1,1.129.288,1.886,1.886,0,0,1,.338,1.2q0,3.159,0,6.317c.831,0,1.661,0,2.492,0v-6.72a4.109,4.109,0,0,0-.226-1.326,2.265,2.265,0,0,0-1.172-1.311,4,4,0,0,0-2.386-.214m6.474,1.377a5.855,5.855,0,0,0-1,3.6,5.3,5.3,0,0,0,.994,3.267,3.525,3.525,0,0,0,2.407,1.3,3.389,3.389,0,0,0,2.01-.309,2.816,2.816,0,0,0,.967-1.035c.02.4.006.8.01,1.194a2.326,2.326,0,0,1-.457,1.51,1.774,1.774,0,0,1-1.33.5,2.618,2.618,0,0,1-1.487-.294A1.029,1.029,0,0,1,43.771,63l-2.458.4a2.658,2.658,0,0,0,1.357,1.781,5.966,5.966,0,0,0,3.482.538,4.407,4.407,0,0,0,2.822-1.159,3.8,3.8,0,0,0,.87-2.588V52.6c-.7,0-1.406-.01-2.108.008-.055.348-.123.7-.184,1.044a2.029,2.029,0,0,0-1.1-.949,4.352,4.352,0,0,0-1.9-.266,3.479,3.479,0,0,0-2.5,1.445m10.363-.071a5.1,5.1,0,0,0-1.065,2.928,6.542,6.542,0,0,0,.555,3.368,3.749,3.749,0,0,0,1.938,1.8,5.9,5.9,0,0,0,3.412.193,4.073,4.073,0,0,0,2.695-1.9q-.916-.5-1.829-1.016a2.914,2.914,0,0,1-1.036.975,2.652,2.652,0,0,1-1.581.2,1.823,1.823,0,0,1-1.278-.8,3.447,3.447,0,0,1-.445-1.839q3.128,0,6.259,0a6.713,6.713,0,0,0-.248-2.482,3.877,3.877,0,0,0-1.57-2.163A4.894,4.894,0,0,0,55,52.467a3.944,3.944,0,0,0-2.58,1.346Zm0,0" fill="#f60"/>
        <path id="Path_78808" data-name="Path 78808" d="M55.457,64.338a1.741,1.741,0,0,1,1.2-.552,1.917,1.917,0,0,1,1.588.563,2.185,2.185,0,0,1,.474,1.421c-1.268,0-2.535,0-3.8,0a2.4,2.4,0,0,1,.541-1.43Zm-9.27-.445a1.831,1.831,0,0,1,1.632.512,2.92,2.92,0,0,1,.725,1.883,7.552,7.552,0,0,1-.08,1.491,2.653,2.653,0,0,1-.637,1.432,1.783,1.783,0,0,1-1.314.494,1.589,1.589,0,0,1-1.223-.464,2.707,2.707,0,0,1-.619-1.612,7.871,7.871,0,0,1,.006-1.758,2.77,2.77,0,0,1,.573-1.432A1.616,1.616,0,0,1,46.187,63.894Zm-37.163.3a2.178,2.178,0,0,1,1.754.425,2.543,2.543,0,0,1,.758,1.527,5.5,5.5,0,0,1-.025,1.922,2.4,2.4,0,0,1-.821,1.464,2.285,2.285,0,0,1-1.815.324,1.826,1.826,0,0,1-1.2-.87,4.077,4.077,0,0,1-.434-2.129,3.574,3.574,0,0,1,.511-1.885A1.831,1.831,0,0,1,9.024,64.194Zm16.325,3.267a8.607,8.607,0,0,1,2.222-.518c0,.737,0,1.475,0,2.213a3.456,3.456,0,0,1-2.3,1,1.042,1.042,0,0,1-.778-.328,1.378,1.378,0,0,1-.14-1.584,2.039,2.039,0,0,1,1-.779Zm0,0" transform="translate(-1.097 -9.663)" fill="#f60"/>
        <path id="Path_78809" data-name="Path 78809" d="M67.643,0H67.7V67.879H0v-.057q33.821,0,67.642,0,0-33.911,0-67.821Zm0,0" fill="#fdd9bd"/>
        <path id="Path_78810" data-name="Path 78810" d="M59.221,57.816c.825,0,1.65,0,2.475,0,0,.144,0,.287,0,.431h-.973q0,1.35,0,2.7-.265,0-.53,0c0-.9,0-1.8,0-2.7-.323,0-.648,0-.971,0q0-.216,0-.433Zm3.092,0h.809c.3.784.614,1.566.918,2.35.3-.783.607-1.564.9-2.348.267,0,.535,0,.8,0,0,1.044,0,2.087,0,3.131q-.263,0-.527,0c0-.859,0-1.717,0-2.575-.35.853-.674,1.716-1.015,2.573h-.342c-.338-.854-.658-1.715-1.011-2.562-.011.855,0,1.709-.006,2.564h-.528q0-1.565,0-3.131ZM8.684,61.153a4.906,4.906,0,0,1,3.095.827,4.281,4.281,0,0,1,1.6,2.259,6.9,6.9,0,0,1,.188,2.976,4.8,4.8,0,0,1-1.009,2.353A4.3,4.3,0,0,1,10.1,71.01a5.343,5.343,0,0,1-3.071-.253,4.133,4.133,0,0,1-1.957-1.643,5.547,5.547,0,0,1-.754-3.041,5.3,5.3,0,0,1,.938-3.184,4.449,4.449,0,0,1,3.426-1.735m-.1,2.137a1.831,1.831,0,0,0-1.273.78A3.573,3.573,0,0,0,6.8,65.954a4.076,4.076,0,0,0,.434,2.129,1.826,1.826,0,0,0,1.2.87,2.285,2.285,0,0,0,1.815-.325,2.4,2.4,0,0,0,.821-1.464,5.483,5.483,0,0,0,.025-1.922,2.542,2.542,0,0,0-.758-1.527,2.178,2.178,0,0,0-1.754-.425Zm9.112-.8a3.536,3.536,0,0,1,2.923-1.274q0,1.172,0,2.345a4.89,4.89,0,0,0-2.079.34,1.3,1.3,0,0,0-.667.676c-.01,2.092,0,4.185-.005,6.278-.844,0-1.689,0-2.534,0q0-4.728,0-9.456c.788-.007,1.576,0,2.364,0q0,.548,0,1.1Zm6.2-1.018a6.732,6.732,0,0,1,3-.19,3.393,3.393,0,0,1,2.235,1.168,2.692,2.692,0,0,1,.482,1.845c0,2.186-.015,4.374.013,6.56H27.4c-.073-.274-.144-.546-.216-.819a5.6,5.6,0,0,1-2.142.851,3.975,3.975,0,0,1-2.305-.194,2.448,2.448,0,0,1-1.317-1.5,2.979,2.979,0,0,1,.244-2.435A3.742,3.742,0,0,1,23.408,65.4a13.723,13.723,0,0,1,3.794-.876c-.01-.387.071-.833-.207-1.152a1.864,1.864,0,0,0-1.6-.427,2.842,2.842,0,0,0-1.958,1.068c-.563-.32-1.128-.638-1.687-.965a4.182,4.182,0,0,1,2.145-1.576m1.012,5.086a2.038,2.038,0,0,0-1,.779,1.378,1.378,0,0,0,.14,1.584,1.042,1.042,0,0,0,.777.328,3.456,3.456,0,0,0,2.3-1c0-.738,0-1.476,0-2.213A8.6,8.6,0,0,0,24.907,66.557Zm11.327-5.289a4,4,0,0,1,2.386.214,2.263,2.263,0,0,1,1.172,1.311,4.109,4.109,0,0,1,.226,1.326v6.72c-.831,0-1.661,0-2.492,0q0-3.159,0-6.317a1.89,1.89,0,0,0-.338-1.2,1.3,1.3,0,0,0-1.129-.288,4.055,4.055,0,0,0-2.026,1.027v6.773H31.555q0-4.594,0-9.189,1.035-.146,2.072-.287c.066.371.149.739.222,1.109a6.389,6.389,0,0,1,2.384-1.2Zm6.474,1.376a3.479,3.479,0,0,1,2.5-1.445,4.351,4.351,0,0,1,1.9.266,2.03,2.03,0,0,1,1.1.949c.061-.348.129-.7.184-1.044.7-.018,1.405,0,2.108-.008v9.36a3.8,3.8,0,0,1-.87,2.588,4.407,4.407,0,0,1-2.822,1.159,5.964,5.964,0,0,1-3.482-.538,2.658,2.658,0,0,1-1.357-1.782l2.458-.4a1.029,1.029,0,0,0,.394.628,2.619,2.619,0,0,0,1.487.294,1.774,1.774,0,0,0,1.331-.5,2.325,2.325,0,0,0,.457-1.51c0-.4.01-.8-.01-1.194a2.819,2.819,0,0,1-.967,1.034,3.389,3.389,0,0,1-2.01.309,3.526,3.526,0,0,1-2.407-1.3,5.3,5.3,0,0,1-.993-3.267,5.855,5.855,0,0,1,1-3.6m3.038.345a1.616,1.616,0,0,0-.937.547,2.769,2.769,0,0,0-.573,1.432,7.882,7.882,0,0,0-.006,1.758,2.708,2.708,0,0,0,.619,1.612,1.589,1.589,0,0,0,1.223.464,1.782,1.782,0,0,0,1.314-.494,2.654,2.654,0,0,0,.637-1.432,7.568,7.568,0,0,0,.08-1.491,2.92,2.92,0,0,0-.725-1.883,1.83,1.83,0,0,0-1.632-.512Zm7.325-.417a3.945,3.945,0,0,1,2.58-1.346,4.893,4.893,0,0,1,3.227.616,3.875,3.875,0,0,1,1.57,2.163,6.713,6.713,0,0,1,.248,2.482q-3.13,0-6.259,0a3.448,3.448,0,0,0,.445,1.839,1.823,1.823,0,0,0,1.278.8,2.651,2.651,0,0,0,1.581-.2,2.912,2.912,0,0,0,1.036-.975q.912.512,1.829,1.016a4.074,4.074,0,0,1-2.7,1.9,5.9,5.9,0,0,1-3.413-.193,3.749,3.749,0,0,1-1.938-1.8A6.542,6.542,0,0,1,52,65.5a5.1,5.1,0,0,1,1.065-2.928m1.945.861a2.406,2.406,0,0,0-.541,1.43c1.268,0,2.535,0,3.8,0a2.186,2.186,0,0,0-.474-1.421,1.917,1.917,0,0,0-1.588-.563,1.741,1.741,0,0,0-1.2.552Zm0,0" transform="translate(-0.654 -8.76)" fill="#fff"/>
      </g>
    </g>
  </g>
</svg>
