<svg xmlns="http://www.w3.org/2000/svg" xmlns:xlink="http://www.w3.org/1999/xlink" width="140" height="120" viewBox="0 0 140 120">
  <defs>
    <clipPath id="clip-path">
      <rect id="Rectangle_57961" data-name="Rectangle 57961" width="74" height="74" transform="translate(5440 -405)" fill="#fff"/>
    </clipPath>
  </defs>
  <g id="tigo_logo" transform="translate(-6143 811)">
    <rect id="Rectangle_58148" data-name="Rectangle 58148" width="140" height="120" transform="translate(6143 -811)" fill="none"/>
    <g id="Mask_Group_7933" data-name="Mask Group 7933" transform="translate(736 -383)" clip-path="url(#clip-path)">
      <g id="tigo" transform="translate(5440 -394.788)">
        <path id="Path_80588" data-name="Path 80588" d="M87.1,82.785c-6.065,0-11.513-3.17-15.271-8.206v2.982c.541,6.3,7.5,11.367,15.271,11.367s14.79-4.936,15.27-11.366V74.579C98.613,79.615,93.164,82.785,87.1,82.785Z" transform="translate(-36.754 -35.351)" fill="#0c3183"/>
        <path id="Path_80589" data-name="Path 80589" d="M101.791,36.189a12.726,12.726,0,0,0-10.112,5.369V39.607c.359-4.124,4.967-7.436,10.113-7.436s9.794,3.229,10.112,7.436v1.951A12.727,12.727,0,0,0,101.791,36.189Z" transform="translate(-38.243 -32.171)" fill="#0c3183"/>
        <circle id="Ellipse_62" data-name="Ellipse 62" cx="3.281" cy="3.281" r="3.281" transform="translate(17.081 3.98)" fill="#0c3183"/>
        <path id="Path_80590" data-name="Path 80590" d="M101.45,68.494A10.537,10.537,0,0,1,93.834,65.2h0a11.23,11.23,0,0,1-3.1-7.778h0V55.652a11.234,11.234,0,0,1,3.105-7.778h0a10.539,10.539,0,0,1,7.616-3.292h0a10.541,10.541,0,0,1,7.616,3.292h0a11.231,11.231,0,0,1,3.1,7.778h0v1.772h0a11.232,11.232,0,0,1-3.1,7.778h0a10.54,10.54,0,0,1-7.609,3.292h-.007Zm-3.6-16.776a5.675,5.675,0,0,0-1.561,3.934h0v1.772a5.671,5.671,0,0,0,1.561,3.934h0a4.975,4.975,0,0,0,3.6,1.579h0a4.975,4.975,0,0,0,3.6-1.579h0a5.674,5.674,0,0,0,1.561-3.934h0V55.651a5.675,5.675,0,0,0-1.561-3.934h0a4.975,4.975,0,0,0-3.6-1.579h0a4.975,4.975,0,0,0-3.6,1.579Z" transform="translate(-38.171 -33.101)" fill="#0c3183"/>
        <path id="Path_80591" data-name="Path 80591" d="M47.1,62.664a7.431,7.431,0,0,1-3.207.83s-2.983.244-3.826-1.14a3.52,3.52,0,0,1-.6-1.934V50.379c6.459.011,7.854.23,7.838-4.936H39.5V40.323h0c-.06,0-.117-.008-.177-.008A5.343,5.343,0,0,0,33.91,45.35V60.42a7.767,7.767,0,0,0,7.754,7.754h.684C46.815,68.116,47.1,65.588,47.1,62.664Z" transform="translate(-33.91 -32.781)" fill="#0c3183"/>
        <path id="Path_80592" data-name="Path 80592" d="M62.82,64.128s-3.174.53-4.017-.854a4.555,4.555,0,0,1-.6-2.226V49.117c-.24-1.644-1.849-2.6-5.38-2.564-.059,0-.118,0-.176.005h0V62.217a6.039,6.039,0,0,0,5.933,6.424l1.178,0C62.384,68.517,62.836,66.883,62.82,64.128Z" transform="translate(-35.315 -33.249)" fill="#0c3183"/>
        <path id="Path_80593" data-name="Path 80593" d="M84.7,56.941a9.034,9.034,0,0,0-3.812-.6c-.06,0-.118,0-.177.006h0v6.79c-.408.607-1.741.511-2.7.511a7.01,7.01,0,0,1-5.235-2.258,5.69,5.69,0,0,1-1.493-3.811c0-.032,0-.062,0-.094s0-.038,0-.057V55.652a5.431,5.431,0,0,1,.3-1.784A5.556,5.556,0,0,1,72.9,51.76c.32-.319.676-.657,1.061-.971a6.081,6.081,0,0,1,1.7-1.021,3.746,3.746,0,0,1,.36-.114l.01,0a11.44,11.44,0,0,1,3.179-.439A10.117,10.117,0,0,1,84.8,50.748a7.637,7.637,0,0,1,1.052.815V49.812a5.351,5.351,0,0,0-4.062-4.991,18.155,18.155,0,0,0-2.926-.24H77.381c-6.107.011-11.644,4.963-11.655,11.071v1.772A11.093,11.093,0,0,0,76.8,68.494h2.089a7.659,7.659,0,0,0,1.243-.1,10.732,10.732,0,0,0,3.086-.9,5.762,5.762,0,0,0,3.057-5.631V58.9A2.5,2.5,0,0,0,84.7,56.941Z" transform="translate(-36.296 -33.101)" fill="#0c3183"/>
      </g>
    </g>
  </g>
</svg>
